<svg xmlns="http://www.w3.org/2000/svg" xmlns:svg="http://www.w3.org/2000/svg" xmlns:xlink="http://www.w3.org/1999/xlink" id="svg2" width="64" height="64" version="1.1"><defs id="defs4"><radialGradient id="radialGradient3964" cx="32.5" cy="56.5" r="33.5" fx="32.5" fy="56.5" gradientTransform="matrix(1,0,0,0.10447761,0,50.597015)" gradientUnits="userSpaceOnUse" xlink:href="#linearGradient3958"/><linearGradient id="linearGradient3958"><stop id="stop3960" offset="0" stop-color="#000" stop-opacity="1"/><stop id="stop3962" offset="1" stop-color="#000" stop-opacity="0"/></linearGradient></defs><metadata id="metadata7"/><g id="layer1" transform="translate(0,-988.3622)"><g id="g3010" opacity=".5" transform="translate(-20,-4)"><path id="path2996" fill="#1976d2" fill-opacity="1" stroke="none" d="m 26,1021.8916 0,21.4118 32,0 0,-10.7059 -1.523809,-9.1765 -11.976191,-0.059 -1.5,-3 -15.47619,0 C 26.761905,1020.3622 26,1021.1269 26,1021.8916 z"/><rect id="rect2998" width="15.786" height="5.941" x="28.5" y="1024.362" fill="#f2f2f2" fill-opacity="1" stroke="none"/><path id="path3000" fill="#000" fill-opacity="1" stroke="none" d="m 27.53125,1020.3622 c -0.761904,0 -1.53125,0.7665 -1.53125,1.5313 l 0,1 c 0,-0.7648 0.769346,-1.5313 1.53125,-1.5313 l 14.96875,0 1.5,3 12.46875,0.062 1.53125,9.1719 0,-1 -1.53125,-9.1719 -11.96875,-0.062 -1.5,-3 z" opacity=".03"/><path id="path3002" fill="#5a9be7" fill-opacity="1" stroke="none" d="m 58,1024.9505 0,21.4117 -32,0 0,-20 15,0 1.5,-3 13.976191,0.059 c 0.761904,0 1.523809,0.7648 1.523809,1.5295 z"/><path id="path3004" fill="#000" fill-opacity="1" stroke="none" d="m 26,1045.3622 0,1 32,0 0,-1 z" opacity=".15"/><path id="path3006" fill="none" stroke="none" d="m 42.761905,1024.1858 -3.809524,2.2941 2.285714,0 z"/><path id="path3008" fill="#000" fill-opacity="1" stroke="none" d="m 42.5,1023.3622 -1.5,3 -15,0 0,1 15.5,0 1.5,-3 13.46875,0.062 c 0.761904,0 1.53125,0.7666 1.53125,1.5313 l 0,-1 c 0,-0.7647 -0.769346,-1.5313 -1.53125,-1.5313 z" opacity=".03"/></g><path id="path3029" fill="#1976d2" fill-opacity="1" stroke="none" d="m 26,999.8916 0,21.4118 32,0 0,-10.7059 -1.523809,-9.1765 -11.976191,-0.059 -1.5,-3 -15.47619,0 C 26.761905,998.3622 26,999.1269 26,999.8916 z"/><rect id="rect3799" width="15.786" height="5.941" x="28.5" y="1002.362" fill="#f2f2f2" fill-opacity="1" stroke="none"/><path id="path3790" fill="#000" fill-opacity="1" stroke="none" d="M 27.53125,998.3622 C 26.769346,998.3622 26,999.1287 26,999.8935 l 0,1 c 0,-0.7648 0.769346,-1.5313 1.53125,-1.5313 l 14.96875,0 1.5,3 12.46875,0.062 1.53125,9.1719 0,-1 -1.53125,-9.1719 -11.96875,-0.062 -1.5,-3 z" opacity=".03"/><path id="rect2987" fill="#5a9be7" fill-opacity="1" stroke="none" d="m 58,1002.9505 0,21.4117 -32,0 0,-20 15,0 1.5,-3 13.976191,0.059 c 0.761904,0 1.523809,0.7648 1.523809,1.5295 z"/><path id="path3794" fill="#000" fill-opacity="1" stroke="none" d="m 26,1023.3622 0,1 32,0 0,-1 z" opacity=".15"/><path id="path3801" fill="none" stroke="none" d="m 42.761905,1002.1858 -3.809524,2.2941 2.285714,0 z"/><path id="path3015" fill="#000" fill-opacity="1" stroke="none" d="m 42.5,1001.3622 -1.5,3 -15,0 0,1 15.5,0 1.5,-3 13.46875,0.062 c 0.761904,0 1.53125,0.7666 1.53125,1.5313 l 0,-1 c 0,-0.7647 -0.769346,-1.5313 -1.53125,-1.5313 z" opacity=".03"/><path id="path2996-3" fill="#4caf50" fill-opacity="1" d="m 56,1024.3622 -11,0 0,-11 -13,0 0,11 -11,0 0,13 11,0 0,11 13,0 0,-11 11,0 z"/></g></svg>