<svg xmlns="http://www.w3.org/2000/svg" xmlns:svg="http://www.w3.org/2000/svg" xmlns:xlink="http://www.w3.org/1999/xlink" id="svg2" width="64" height="64" version="1.1"><defs id="defs4"><linearGradient id="linearGradient3958"><stop id="stop3960" offset="0" stop-color="#000" stop-opacity="1"/><stop id="stop3962" offset="1" stop-color="#000" stop-opacity="0"/></linearGradient><radialGradient id="radialGradient3964" cx="32.5" cy="56.5" r="33.5" fx="32.5" fy="56.5" gradientTransform="matrix(1,0,0,0.10447761,0,50.597015)" gradientUnits="userSpaceOnUse" xlink:href="#linearGradient3958"/><radialGradient id="radialGradient3964-5" cx="32.5" cy="56.5" r="33.5" fx="32.5" fy="56.5" gradientTransform="matrix(1,0,0,0.10447761,0,50.597015)" gradientUnits="userSpaceOnUse" xlink:href="#linearGradient3958"/><radialGradient id="radialGradient3964-9" cx="32.5" cy="56.5" r="33.5" fx="32.5" fy="56.5" gradientTransform="matrix(1.1343284,0,0,0.11940298,45.134328,1064.6159)" gradientUnits="userSpaceOnUse" xlink:href="#linearGradient3958"/></defs><metadata id="metadata7"/><g id="layer1" transform="translate(0,-988.3622)"><g id="g4246" transform="translate(-50,-24.999983)"><rect id="rect3048-8" width="50" height="38" x="57" y="1013.362" fill="#eae7d1" fill-opacity="1" stroke="none" rx="2" ry="2"/><ellipse id="path3956-3" cx="82" cy="1071.362" fill="url(#radialGradient3964-9)" fill-opacity="1" stroke="none" opacity=".6" rx="38" ry="4"/><rect id="rect3876-7" width="40" height="2" x="62" y="1036.362" fill="#7a7a68" fill-opacity="1" stroke="none"/><path id="rect2987-4" fill="#5a9be7" fill-opacity="1" stroke="none" d="m 114,1038.5387 0,34.8235 -64,0 0,-32 30,0 3,-6 27.95238,0.1176 c 1.52381,0 3.04762,1.5295 3.04762,3.0589 z"/><path id="path3794-5" fill="#000" fill-opacity="1" stroke="none" d="m 50,1071.3622 0,2 64,0 0,-2 z" opacity=".15"/><path id="path3015-4" fill="#000" fill-opacity="1" stroke="none" d="m 83,1035.3622 -3,6 -30,0 0,2 31,0 3,-6 26.9375,0.125 c 1.52381,0 3.0625,1.5331 3.0625,3.0625 l 0,-2 c 0,0 -1.53869,-3.0625 -3.0625,-3.0625 z" opacity=".03"/><rect id="rect3812-8" width="40" height="2" x="62" y="1031.362" fill="#7a7a68" fill-opacity="1" stroke="none"/><rect id="rect3794-7" width="40" height="2" x="62" y="1016.362" fill="#7a7a68" fill-opacity="1" stroke="none"/><rect id="rect3808-9" width="40" height="2" x="62" y="1021.362" fill="#7a7a68" fill-opacity="1" stroke="none"/><rect id="rect3810-3" width="40" height="2" x="62" y="1026.362" fill="#7a7a68" fill-opacity="1" stroke="none"/></g><path id="path2993" fill="#4caf50" fill-opacity="1" fill-rule="evenodd" d="m 59.997534,1028.361 c 0.08789,4.257 -2.179771,8.2298 -5.926987,10.3862 -3.750145,2.1534 -8.393879,2.1534 -12.141094,0 -3.747216,-2.1564 -6.014881,-6.1292 -5.926988,-10.3862 -0.08789,-4.257 2.179772,-8.2298 5.926988,-10.3832 3.747215,-2.1563 8.390949,-2.1563 12.141094,0 3.747216,2.1534 6.014881,6.1262 5.926987,10.3832 z"/><path id="path2995" fill="#fff" d="m 54.562754,1020.8168 c -0.254893,0.091 -0.468768,0.2607 -0.615258,0.4863 l -6.539315,6.3313 -4.081214,-3.8967 c -0.164068,-0.5419 -0.676783,-0.8994 -1.245165,-0.8701 -0.568382,0.029 -1.043009,0.4424 -1.145552,0.9991 -0.09961,0.5537 0.196297,1.1045 0.717801,1.3301 l 4.916206,4.8723 c 0.471698,0.4307 1.201218,0.4307 1.672917,0 l 7.377238,-7.3069 c 0.287121,-0.3781 0.328137,-0.8908 0.09961,-1.3067 -0.228525,-0.4193 -0.679714,-0.668 -1.157271,-0.6387 z"/></g></svg>