<svg xmlns="http://www.w3.org/2000/svg" xmlns:svg="http://www.w3.org/2000/svg" id="svg2" width="256" height="256" version="1.1"><metadata id="metadata7"/><g id="layer1" transform="translate(0,-796.3622)"><g id="g3010" opacity=".5" transform="matrix(4.0000002,0,0,3.9999824,-80.000005,-3245.0678)"><path id="path2996" fill="#1976d2" fill-opacity="1" stroke="none" d="m 26,1021.8916 0,21.4118 32,0 0,-10.7059 -1.523809,-9.1765 -11.976191,-0.059 -1.5,-3 -15.47619,0 C 26.761905,1020.3622 26,1021.1269 26,1021.8916 z"/><rect id="rect2998" width="15.786" height="5.941" x="28.5" y="1024.362" fill="#f2f2f2" fill-opacity="1" stroke="none"/><path id="path3000" fill="#000" fill-opacity="1" stroke="none" d="m 27.53125,1020.3622 c -0.761904,0 -1.53125,0.7665 -1.53125,1.5313 l 0,1 c 0,-0.7648 0.769346,-1.5313 1.53125,-1.5313 l 14.96875,0 1.5,3 12.46875,0.062 1.53125,9.1719 0,-1 -1.53125,-9.1719 -11.96875,-0.062 -1.5,-3 z" opacity=".03"/><path id="path3002" fill="#5a9be7" fill-opacity="1" stroke="none" d="m 58,1024.9505 0,21.4117 -32,0 0,-20 15,0 1.5,-3 13.976191,0.059 c 0.761904,0 1.523809,0.7648 1.523809,1.5295 z"/><path id="path3004" fill="#000" fill-opacity="1" stroke="none" d="m 26,1045.3622 0,1 32,0 0,-1 z" opacity=".15"/><path id="path3006" fill="none" stroke="none" d="m 42.761905,1024.1858 -3.809524,2.2941 2.285714,0 z"/><path id="path3008" fill="#000" fill-opacity="1" stroke="none" d="m 42.5,1023.3622 -1.5,3 -15,0 0,1 15.5,0 1.5,-3 13.46875,0.062 c 0.761904,0 1.53125,0.7666 1.53125,1.5313 l 0,-1 c 0,-0.7647 -0.769346,-1.5313 -1.53125,-1.5313 z" opacity=".03"/></g><path id="path3029" fill="#1976d2" fill-opacity="1" stroke="none" d="m 104,914.4802 0,85.6468 128,0 0,-42.8234 -6.09523,-36.7058 -47.90477,-0.236 -6,-12.00001 -61.90476,0 c -3.04762,8e-4 -6.09524,3.0596 -6.09524,6.11841 z"/><rect id="rect3799" width="63.143" height="23.764" x="114" y="924.363" fill="#f2f2f2" fill-opacity="1" stroke="none"/><path id="path3790" fill="#000" fill-opacity="1" stroke="none" d="m 110.125,908.36259 c -3.04762,0 -6.125,3.066 -6.125,6.12521 l 0,4 c 0,-3.0592 3.07738,-6.12521 6.125,-6.12521 l 59.875,0 6,12.00001 49.87501,0.248 6.12499,36.6874 0,-4 -6.12499,-36.6874 L 178,920.3626 172,908.36259 z" opacity=".03"/><path id="rect2987" fill="#5a9be7" fill-opacity="1" stroke="none" d="m 232,926.7158 0,85.6464 -128,0 0,-79.9996 60,0 6,-12 55.90477,0.236 c 3.04761,0 6.09523,3.0592 6.09523,6.118 z"/><path id="path3794" fill="#000" fill-opacity="1" stroke="none" d="m 104,1008.3622 0,4 128,0 0,-4 z" opacity=".15"/><path id="path3801" fill="none" stroke="none" d="m 171.04762,923.657 -15.2381,9.1764 9.14286,0 z"/><path id="path3015" fill="#000" fill-opacity="1" stroke="none" d="m 170,920.3626 -6,12 -60,0 0,4 62,0 6,-12 53.87501,0.248 c 3.04761,0 6.12499,3.0664 6.12499,6.1252 l 0,-4 c 0,-3.0588 -3.07738,-6.1252 -6.12499,-6.1252 z" opacity=".03"/></g></svg>