<svg xmlns="http://www.w3.org/2000/svg" xmlns:svg="http://www.w3.org/2000/svg" xmlns:xlink="http://www.w3.org/1999/xlink" id="svg2" width="256" height="256" version="1.1"><defs id="defs4"><linearGradient id="linearGradient3810"><stop id="stop3812" offset="0" stop-color="#000" stop-opacity="1"/><stop id="stop3814" offset="1" stop-color="#000" stop-opacity="0"/></linearGradient><radialGradient id="radialGradient3815" cx="-9" cy="93.5" r="15" fx="-9" fy="93.5" gradientTransform="matrix(1,0,0,0.36666667,0,59.216667)" gradientUnits="userSpaceOnUse" xlink:href="#linearGradient3809"/><radialGradient id="radialGradient3964" cx="32.5" cy="56.5" r="33.5" fx="32.5" fy="56.5" gradientTransform="matrix(1,0,0,0.10447761,0,50.597015)" gradientUnits="userSpaceOnUse" xlink:href="#linearGradient3958"/><linearGradient id="linearGradient3958"><stop id="stop3960" offset="0" stop-color="#000" stop-opacity="1"/><stop id="stop3962" offset="1" stop-color="#000" stop-opacity="0"/></linearGradient><radialGradient id="radialGradient3981" cx="32.5" cy="56.5" r="33.5" fx="32.5" fy="56.5" gradientTransform="matrix(1,0,0,0.10447761,0,50.597015)" gradientUnits="userSpaceOnUse" xlink:href="#linearGradient3958"/><linearGradient id="linearGradient3809"><stop id="stop3811" offset="0" stop-color="#000" stop-opacity="1"/><stop id="stop3813" offset="1" stop-color="#000" stop-opacity="0"/></linearGradient><radialGradient id="radialGradient3816" cx="-25" cy="203.5" r="35" fx="-25" fy="203.5" gradientTransform="matrix(1,0,0,0.78571429,0,43.607143)" gradientUnits="userSpaceOnUse" xlink:href="#linearGradient3810"/><radialGradient id="radialGradient3964-3" cx="32.5" cy="56.5" r="33.5" fx="32.5" fy="56.5" gradientTransform="matrix(1,0,0,0.10447761,0,50.597015)" gradientUnits="userSpaceOnUse" xlink:href="#linearGradient3958-1"/><linearGradient id="linearGradient3958-1"><stop id="stop3960-9" offset="0" stop-color="#000" stop-opacity="1"/><stop id="stop3962-9" offset="1" stop-color="#000" stop-opacity="0"/></linearGradient><radialGradient id="radialGradient3981-1" cx="32.5" cy="56.5" r="33.5" fx="32.5" fy="56.5" gradientTransform="matrix(1,0,0,0.10447761,0,50.597015)" gradientUnits="userSpaceOnUse" xlink:href="#linearGradient3958-1"/><radialGradient id="radialGradient3815-2" cx="-9" cy="93.5" r="15" fx="-9" fy="93.5" gradientTransform="matrix(1,0,0,0.36666667,0,59.216667)" gradientUnits="userSpaceOnUse" xlink:href="#linearGradient3809-4"/><radialGradient id="radialGradient3964-5" cx="32.5" cy="56.5" r="33.5" fx="32.5" fy="56.5" gradientTransform="matrix(1,0,0,0.10447761,0,50.597015)" gradientUnits="userSpaceOnUse" xlink:href="#linearGradient3958-0"/><linearGradient id="linearGradient3958-0"><stop id="stop3960-0" offset="0" stop-color="#000" stop-opacity="1"/><stop id="stop3962-2" offset="1" stop-color="#000" stop-opacity="0"/></linearGradient><radialGradient id="radialGradient3981-2" cx="32.5" cy="56.5" r="33.5" fx="32.5" fy="56.5" gradientTransform="matrix(1,0,0,0.10447761,0,50.597015)" gradientUnits="userSpaceOnUse" xlink:href="#linearGradient3958-0"/><linearGradient id="linearGradient3809-4"><stop id="stop3811-9" offset="0" stop-color="#000" stop-opacity="1"/><stop id="stop3813-5" offset="1" stop-color="#000" stop-opacity="0"/></linearGradient><radialGradient id="radialGradient3964-3-6" cx="32.5" cy="56.5" r="33.5" fx="32.5" fy="56.5" gradientTransform="matrix(1,0,0,0.10447761,0,50.597015)" gradientUnits="userSpaceOnUse" xlink:href="#linearGradient3958-1-5"/><linearGradient id="linearGradient3958-1-5"><stop id="stop3960-9-7" offset="0" stop-color="#000" stop-opacity="1"/><stop id="stop3962-9-1" offset="1" stop-color="#000" stop-opacity="0"/></linearGradient><radialGradient id="radialGradient3964-53" cx="32.5" cy="56.5" r="33.5" fx="32.5" fy="56.5" gradientTransform="matrix(1,0,0,0.10447761,0,50.597015)" gradientUnits="userSpaceOnUse" xlink:href="#linearGradient3958-8"/><linearGradient id="linearGradient3958-8"><stop id="stop3960-1" offset="0" stop-color="#000" stop-opacity="1"/><stop id="stop3962-4" offset="1" stop-color="#000" stop-opacity="0"/></linearGradient><radialGradient id="radialGradient3964-3-5" cx="32.5" cy="56.5" r="33.5" fx="32.5" fy="56.5" gradientTransform="matrix(1,0,0,0.10447761,0,50.597015)" gradientUnits="userSpaceOnUse" xlink:href="#linearGradient3958-1-6"/><linearGradient id="linearGradient3958-1-6"><stop id="stop3960-9-3" offset="0" stop-color="#000" stop-opacity="1"/><stop id="stop3962-9-8" offset="1" stop-color="#000" stop-opacity="0"/></linearGradient><radialGradient id="radialGradient3964-0" cx="32.5" cy="56.5" r="33.5" fx="32.5" fy="56.5" gradientTransform="matrix(1,0,0,0.10447761,0,50.597015)" gradientUnits="userSpaceOnUse" xlink:href="#linearGradient3958-80"/><linearGradient id="linearGradient3958-80"><stop id="stop3960-99" offset="0" stop-color="#000" stop-opacity="1"/><stop id="stop3962-43" offset="1" stop-color="#000" stop-opacity="0"/></linearGradient><radialGradient id="radialGradient3964-3-68" cx="32.5" cy="56.5" r="33.5" fx="32.5" fy="56.5" gradientTransform="matrix(1,0,0,0.10447761,0,50.597015)" gradientUnits="userSpaceOnUse" xlink:href="#linearGradient3958-1-1"/><linearGradient id="linearGradient3958-1-1"><stop id="stop3960-9-0" offset="0" stop-color="#000" stop-opacity="1"/><stop id="stop3962-9-0" offset="1" stop-color="#000" stop-opacity="0"/></linearGradient><radialGradient id="radialGradient3964-4" cx="32.5" cy="56.5" r="33.5" fx="32.5" fy="56.5" gradientTransform="matrix(1,0,0,0.10447761,0,50.597015)" gradientUnits="userSpaceOnUse" xlink:href="#linearGradient3958-4"/><linearGradient id="linearGradient3958-4"><stop id="stop3960-6" offset="0" stop-color="#000" stop-opacity="1"/><stop id="stop3962-5" offset="1" stop-color="#000" stop-opacity="0"/></linearGradient><radialGradient id="radialGradient3964-3-1" cx="32.5" cy="56.5" r="33.5" fx="32.5" fy="56.5" gradientTransform="matrix(1,0,0,0.10447761,0,50.597015)" gradientUnits="userSpaceOnUse" xlink:href="#linearGradient3958-1-56"/><linearGradient id="linearGradient3958-1-56"><stop id="stop3960-9-6" offset="0" stop-color="#000" stop-opacity="1"/><stop id="stop3962-9-3" offset="1" stop-color="#000" stop-opacity="0"/></linearGradient><radialGradient id="radialGradient3964-6" cx="32.5" cy="56.5" r="33.5" fx="32.5" fy="56.5" gradientTransform="matrix(1,0,0,0.10447761,0,50.597015)" gradientUnits="userSpaceOnUse" xlink:href="#linearGradient3958-44"/><linearGradient id="linearGradient3958-44"><stop id="stop3960-8" offset="0" stop-color="#000" stop-opacity="1"/><stop id="stop3962-1" offset="1" stop-color="#000" stop-opacity="0"/></linearGradient><radialGradient id="radialGradient3964-3-2" cx="32.5" cy="56.5" r="33.5" fx="32.5" fy="56.5" gradientTransform="matrix(1,0,0,0.10447761,0,50.597015)" gradientUnits="userSpaceOnUse" xlink:href="#linearGradient3958-1-10"/><linearGradient id="linearGradient3958-1-10"><stop id="stop3960-9-64" offset="0" stop-color="#000" stop-opacity="1"/><stop id="stop3962-9-6" offset="1" stop-color="#000" stop-opacity="0"/></linearGradient><radialGradient id="radialGradient3815-9" cx="-9" cy="93.5" r="15" fx="-9" fy="93.5" gradientTransform="matrix(1,0,0,0.36666667,0,59.216667)" gradientUnits="userSpaceOnUse" xlink:href="#linearGradient3809-5"/><radialGradient id="radialGradient3964-33" cx="32.5" cy="56.5" r="33.5" fx="32.5" fy="56.5" gradientTransform="matrix(1,0,0,0.10447761,0,50.597015)" gradientUnits="userSpaceOnUse" xlink:href="#linearGradient3958-13"/><linearGradient id="linearGradient3958-13"><stop id="stop3960-7" offset="0" stop-color="#000" stop-opacity="1"/><stop id="stop3962-8" offset="1" stop-color="#000" stop-opacity="0"/></linearGradient><linearGradient id="linearGradient3809-5"><stop id="stop3811-4" offset="0" stop-color="#000" stop-opacity="1"/><stop id="stop3813-2" offset="1" stop-color="#000" stop-opacity="0"/></linearGradient></defs><metadata id="metadata7"/><g id="layer1" transform="translate(0,-796.3622)"><path id="path3039" fill="url(#radialGradient3816)" fill-opacity="1" stroke="none" d="m 10,203.5 a 35,27.5 0 1 1 -70,0 35,27.5 0 1 1 70,0 z" opacity=".55" transform="matrix(5.0857143,0,0,1.0909091,255.14286,788.3622)"/><path id="path3029" fill="#1976d2" fill-opacity="1" stroke="none" d="m 0,832.5974 0,171.294 256,0 0,-85.6468 -12.19048,-73.412 L 148,844.3622 l -12,-24 -123.809524,0 C 6.09524,820.3622 0,826.4798 0,832.5974 z"/><rect id="rect3799" width="126.286" height="47.529" x="20" y="852.362" fill="#f2f2f2" fill-opacity="1" stroke="none"/><path id="path3790" fill="#000" fill-opacity="1" stroke="none" d="m 12.25,820.3622 c -6.095236,0 -12.25,6.1324 -12.25,12.25 l 0,8 c 0,-6.1176 6.154764,-12.25 12.25,-12.25 l 119.75,0 12,24 99.75,0.5 12.25,73.3752 0,-8 -12.25,-73.3752 -95.75,-0.5 -12,-24 z" opacity=".03"/><path id="rect2987" fill="#5a9be7" fill-opacity="1" stroke="none" d="m 256,857.0682 0,171.294 -256,0 0,-160 120,0 12,-24 111.80952,0.4704 c 6.09524,0 12.19048,6.118 12.19048,12.2356 z"/><path id="path3794" fill="#000" fill-opacity="1" stroke="none" d="m 0,1020.3622 0,8 256,0 0,-8 z" opacity=".15"/><path id="path3015" fill="#000" fill-opacity="1" stroke="none" d="m 132,844.3622 -12,24 -120,0 0,8 124,0 12,-24 107.75,0.5 c 6.09524,0 12.25,6.1324 12.25,12.25 l 0,-8 c 0,-6.1176 -6.15476,-12.25 -12.25,-12.25 z" opacity=".03"/><path style="line-height:normal" id="path4054" fill="#2a74b9" fill-opacity="1" d="m 143.43308,896.3622 c -11.23485,0 -20.50394,8.7556 -20.50394,19.712 0.0829,3.7596 0.28644,8.5212 2.4252,18.5796 l 0.22048,0 c 0.43156,1.3304 1.09478,2.6536 2.20472,4.0784 0.99344,1.276 2.31066,2.7296 3.52756,4.0784 0.37392,2.8428 0.43185,5.3284 0,8.384 -3.33601,2.6032 -9.35184,5.0324 -14.77165,7.25 -2.82452,1.156 -5.43572,2.2248 -7.49606,3.6256 -1.96567,1.3364 -3.38988,3.1552 -3.52756,5.438 -0.007,0.108 -0.22084,0.116 -0.22048,0.224 l -2.4252,19.26 0,0.228 c 0,2.3872 1.54751,4.34 3.74803,5.8912 2.20056,1.5524 5.18738,2.7692 8.8189,3.8524 7.26303,2.1664 17.11533,3.3984 28,3.3984 10.88467,0 20.73697,-1.232 28,-3.3984 3.63152,-1.0832 6.61837,-2.3 8.8189,-3.8524 2.20052,-1.5512 3.74803,-3.504 3.74803,-5.8912 l 0,-0.228 -2.64567,-19.26 c -3.9e-4,-0.072 0.004,-0.152 0,-0.224 -0.0656,-1.0904 -0.44842,-2.1624 -1.10236,-2.946 -0.69818,-0.8376 -1.61936,-1.3804 -2.64567,-2.0388 -2.05262,-1.3176 -4.6706,-2.4288 -7.49607,-3.6252 -5.48761,-2.3232 -11.49257,-4.9508 -14.77165,-7.7036 -0.24588,-2.6284 -0.25788,-5.304 0,-7.9312 1.18374,-1.438 2.51522,-2.922 3.52756,-4.3044 1.1273,-1.5392 1.98055,-2.9348 2.4252,-4.3052 2.41172,-10.4732 2.51875,-14.7468 2.64567,-18.5796 0,-10.9564 -9.26909,-19.712 -20.50394,-19.712 z m -38.14173,3.6252 c -9.227886,0 -16.75591,7.3232 -16.75591,16.314 0.06772,3.0804 0.22916,6.7008 1.984252,14.954 l 0,0.228 c 0.35756,1.1028 1.059644,1.9872 1.984252,3.172 0.809468,1.036 1.887632,2.3128 2.866144,3.3992 0.29596,2.278 0.3344,4.58 0,7.0236 -2.7255,2.1488 -7.662556,4.0776 -12.125984,5.8912 -2.313728,0.9396 -4.26418,1.8024 -5.952756,2.9456 -1.5958,1.0804 -2.731328,2.6864 -2.866144,4.5316 -0.0076,0.108 -0.22096,0.116 -0.22048,0.228 L 72,974.3086 l 0,0.224 c 0,1.472 0.684348,2.742 1.76378,3.8524 1.079404,1.11 2.577792,2.1264 4.409448,2.9448 3.612624,1.6156 8.761792,2.7388 14.992128,3.3992 l 0.22048,0 c 0.33864,10e-4 0.675808,-0.096 0.881888,-0.228 0.25504,-0.168 0.552768,-0.296 0.661416,-0.4492 0.21732,-0.312 0.34748,-0.6236 0.440948,-0.9064 0.1644,-0.4932 0.19788,-1.0812 0.22048,-1.586 0.0032,-0.072 0,-0.152 0,-0.224 l 2.425196,-19.2592 c -0.0034,-0.788 0.52758,-1.7344 1.76378,-2.7188 1.236196,-0.9856 3.107746,-1.9736 5.291336,-2.946 4.36716,-1.9452 9.90341,-3.7512 14.33071,-6.1172 l 2.4252,-1.3592 -2.4252,-1.1336 c -1.74949,-0.8732 -3.08764,-1.8312 -4.18897,-2.7188 -0.21376,-2.2372 -0.22684,-4.568 0,-6.7976 0.007,-0.072 -0.007,-0.152 0,-0.224 1.68116,-2.3264 2.96039,-4.7412 3.52755,-6.118 l 0.22048,-0.4496 -0.22048,-0.4492 c -0.19156,-1.1256 -0.12804,-1.9804 -0.44094,-2.9456 -2.11336,-9.938 -2.34491,-14.0372 -2.4252,-17.6732 0,-1.5284 0.34888,-3.308 0.88189,-4.9844 l 0.44095,-0.9068 -0.88189,-0.4492 c -2.94418,-2.418 -6.84156,-4.0784 -11.02362,-4.0784 z" color="#000" opacity="1"/></g></svg>