<svg xmlns="http://www.w3.org/2000/svg" xmlns:svg="http://www.w3.org/2000/svg" id="svg2" width="256" height="256" version="1.1"><metadata id="metadata7"/><g id="layer1" transform="translate(0,-796.3622)"><g id="layer1-5" transform="matrix(2.0000092,0,0,2.0000003,-1.112e-4,-1052.3625)"><g id="g3010" transform="matrix(1.9999909,0,0,1.9999909,-39.999763,-1096.3525)"><path id="path2996" fill="#1976d2" fill-opacity="1" stroke="none" d="m 26,1021.8916 0,21.4118 32,0 0,-10.7059 -1.523809,-9.1765 -11.976191,-0.059 -1.5,-3 -15.47619,0 C 26.761905,1020.3622 26,1021.1269 26,1021.8916 z"/><rect id="rect2998" width="15.786" height="5.941" x="28.5" y="1024.362" fill="#f2f2f2" fill-opacity="1" stroke="none"/><path id="path3000" fill="#000" fill-opacity="1" stroke="none" d="m 27.53125,1020.3622 c -0.761904,0 -1.53125,0.7665 -1.53125,1.5313 l 0,1 c 0,-0.7648 0.769346,-1.5313 1.53125,-1.5313 l 14.96875,0 1.5,3 12.46875,0.062 1.53125,9.1719 0,-1 -1.53125,-9.1719 -11.96875,-0.062 -1.5,-3 z" opacity=".03"/><path id="path3002" fill="#5a9be7" fill-opacity="1" stroke="none" d="m 58,1024.9505 0,21.4117 -32,0 0,-20 15,0 1.5,-3 13.976191,0.059 c 0.761904,0 1.523809,0.7648 1.523809,1.5295 z"/><path id="path3004" fill="#000" fill-opacity="1" stroke="none" d="m 26,1045.3622 0,1 32,0 0,-1 z" opacity=".15"/><path id="path3006" fill="none" stroke="none" d="m 42.761905,1024.1858 -3.809524,2.2941 2.285714,0 z"/><path id="path3008" fill="#000" fill-opacity="1" stroke="none" d="m 42.5,1023.3622 -1.5,3 -15,0 0,1 15.5,0 1.5,-3 13.46875,0.062 c 0.761904,0 1.53125,0.7666 1.53125,1.5313 l 0,-1 c 0,-0.7647 -0.769346,-1.5313 -1.53125,-1.5313 z" opacity=".03"/></g><path id="path3029" fill="#1976d2" fill-opacity="1" stroke="none" d="m 51.999815,983.4212 0,42.8234 63.999705,0 0,-21.4117 -3.0476,-18.3529 -23.952273,-0.118 -2.999987,-6 -30.952239,0 c -1.523803,4e-4 -3.047606,1.5298 -3.047606,3.0592 z"/><rect id="rect3799" width="31.571" height="11.882" x="57" y="988.362" fill="#f2f2f2" fill-opacity="1" stroke="none"/><path id="path3790" fill="#000" fill-opacity="1" stroke="none" d="m 55.062301,980.3624 c -1.523801,0 -3.062486,1.533 -3.062486,3.0626 l 0,2 c 0,-1.5296 1.538685,-3.0626 3.062486,-3.0626 l 29.937364,0 2.999987,6 24.937388,0.124 3.06248,18.3437 0,-2 -3.06248,-18.3437 -23.937393,-0.124 -2.999987,-6 z" opacity=".03"/><path id="rect2987" fill="#5a9be7" fill-opacity="1" stroke="none" d="m 115.99952,989.539 0,42.8232 -63.999705,0 0,-39.9998 29.999863,0 2.999987,-6 27.952255,0.118 c 1.5238,0 3.0476,1.5296 3.0476,3.059 z"/><path id="path3794" fill="#000" fill-opacity="1" stroke="none" d="m 51.999815,1030.3622 0,2 63.999705,0 0,-2 z" opacity=".15"/><path id="path3801" fill="none" stroke="none" d="m 85.523472,988.0096 -7.619013,4.5882 4.571407,0 z"/><path id="path3015" fill="#000" fill-opacity="1" stroke="none" d="m 84.999665,986.3624 -2.999987,6 -29.999863,0 0,2 30.999859,0 2.999986,-6 26.93738,0.124 c 1.5238,0 3.06248,1.5332 3.06248,3.0626 l 0,-2 c 0,-1.5294 -1.53868,-3.0626 -3.06248,-3.0626 z" opacity=".03"/></g></g></svg>