<svg xmlns="http://www.w3.org/2000/svg" xmlns:svg="http://www.w3.org/2000/svg" xmlns:xlink="http://www.w3.org/1999/xlink" id="svg2" width="256" height="256" version="1.1"><defs id="defs4"><linearGradient id="linearGradient3810"><stop id="stop3812" offset="0" stop-color="#000" stop-opacity="1"/><stop id="stop3814" offset="1" stop-color="#000" stop-opacity="0"/></linearGradient><radialGradient id="radialGradient3815" cx="-9" cy="93.5" r="15" fx="-9" fy="93.5" gradientTransform="matrix(1,0,0,0.36666667,0,59.216667)" gradientUnits="userSpaceOnUse" xlink:href="#linearGradient3809"/><radialGradient id="radialGradient3964" cx="32.5" cy="56.5" r="33.5" fx="32.5" fy="56.5" gradientTransform="matrix(1,0,0,0.10447761,0,50.597015)" gradientUnits="userSpaceOnUse" xlink:href="#linearGradient3958"/><linearGradient id="linearGradient3958"><stop id="stop3960" offset="0" stop-color="#000" stop-opacity="1"/><stop id="stop3962" offset="1" stop-color="#000" stop-opacity="0"/></linearGradient><radialGradient id="radialGradient3981" cx="32.5" cy="56.5" r="33.5" fx="32.5" fy="56.5" gradientTransform="matrix(1,0,0,0.10447761,0,50.597015)" gradientUnits="userSpaceOnUse" xlink:href="#linearGradient3958"/><linearGradient id="linearGradient3809"><stop id="stop3811" offset="0" stop-color="#000" stop-opacity="1"/><stop id="stop3813" offset="1" stop-color="#000" stop-opacity="0"/></linearGradient><radialGradient id="radialGradient3816" cx="-25" cy="203.5" r="35" fx="-25" fy="203.5" gradientTransform="matrix(1,0,0,0.78571429,0,43.607143)" gradientUnits="userSpaceOnUse" xlink:href="#linearGradient3810"/><radialGradient id="radialGradient3964-3" cx="32.5" cy="56.5" r="33.5" fx="32.5" fy="56.5" gradientTransform="matrix(1,0,0,0.10447761,0,50.597015)" gradientUnits="userSpaceOnUse" xlink:href="#linearGradient3958-1"/><linearGradient id="linearGradient3958-1"><stop id="stop3960-9" offset="0" stop-color="#000" stop-opacity="1"/><stop id="stop3962-9" offset="1" stop-color="#000" stop-opacity="0"/></linearGradient><radialGradient id="radialGradient3981-1" cx="32.5" cy="56.5" r="33.5" fx="32.5" fy="56.5" gradientTransform="matrix(1,0,0,0.10447761,0,50.597015)" gradientUnits="userSpaceOnUse" xlink:href="#linearGradient3958-1"/><radialGradient id="radialGradient3815-2" cx="-9" cy="93.5" r="15" fx="-9" fy="93.5" gradientTransform="matrix(1,0,0,0.36666667,0,59.216667)" gradientUnits="userSpaceOnUse" xlink:href="#linearGradient3809-4"/><radialGradient id="radialGradient3964-5" cx="32.5" cy="56.5" r="33.5" fx="32.5" fy="56.5" gradientTransform="matrix(1,0,0,0.10447761,0,50.597015)" gradientUnits="userSpaceOnUse" xlink:href="#linearGradient3958-0"/><linearGradient id="linearGradient3958-0"><stop id="stop3960-0" offset="0" stop-color="#000" stop-opacity="1"/><stop id="stop3962-2" offset="1" stop-color="#000" stop-opacity="0"/></linearGradient><radialGradient id="radialGradient3981-2" cx="32.5" cy="56.5" r="33.5" fx="32.5" fy="56.5" gradientTransform="matrix(1,0,0,0.10447761,0,50.597015)" gradientUnits="userSpaceOnUse" xlink:href="#linearGradient3958-0"/><linearGradient id="linearGradient3809-4"><stop id="stop3811-9" offset="0" stop-color="#000" stop-opacity="1"/><stop id="stop3813-5" offset="1" stop-color="#000" stop-opacity="0"/></linearGradient><radialGradient id="radialGradient3964-3-6" cx="32.5" cy="56.5" r="33.5" fx="32.5" fy="56.5" gradientTransform="matrix(1,0,0,0.10447761,0,50.597015)" gradientUnits="userSpaceOnUse" xlink:href="#linearGradient3958-1-5"/><linearGradient id="linearGradient3958-1-5"><stop id="stop3960-9-7" offset="0" stop-color="#000" stop-opacity="1"/><stop id="stop3962-9-1" offset="1" stop-color="#000" stop-opacity="0"/></linearGradient><radialGradient id="radialGradient3964-53" cx="32.5" cy="56.5" r="33.5" fx="32.5" fy="56.5" gradientTransform="matrix(1,0,0,0.10447761,0,50.597015)" gradientUnits="userSpaceOnUse" xlink:href="#linearGradient3958-8"/><linearGradient id="linearGradient3958-8"><stop id="stop3960-1" offset="0" stop-color="#000" stop-opacity="1"/><stop id="stop3962-4" offset="1" stop-color="#000" stop-opacity="0"/></linearGradient><radialGradient id="radialGradient3964-3-5" cx="32.5" cy="56.5" r="33.5" fx="32.5" fy="56.5" gradientTransform="matrix(1,0,0,0.10447761,0,50.597015)" gradientUnits="userSpaceOnUse" xlink:href="#linearGradient3958-1-6"/><linearGradient id="linearGradient3958-1-6"><stop id="stop3960-9-3" offset="0" stop-color="#000" stop-opacity="1"/><stop id="stop3962-9-8" offset="1" stop-color="#000" stop-opacity="0"/></linearGradient><radialGradient id="radialGradient3964-0" cx="32.5" cy="56.5" r="33.5" fx="32.5" fy="56.5" gradientTransform="matrix(1,0,0,0.10447761,0,50.597015)" gradientUnits="userSpaceOnUse" xlink:href="#linearGradient3958-80"/><linearGradient id="linearGradient3958-80"><stop id="stop3960-99" offset="0" stop-color="#000" stop-opacity="1"/><stop id="stop3962-43" offset="1" stop-color="#000" stop-opacity="0"/></linearGradient><radialGradient id="radialGradient3964-3-68" cx="32.5" cy="56.5" r="33.5" fx="32.5" fy="56.5" gradientTransform="matrix(1,0,0,0.10447761,0,50.597015)" gradientUnits="userSpaceOnUse" xlink:href="#linearGradient3958-1-1"/><linearGradient id="linearGradient3958-1-1"><stop id="stop3960-9-0" offset="0" stop-color="#000" stop-opacity="1"/><stop id="stop3962-9-0" offset="1" stop-color="#000" stop-opacity="0"/></linearGradient><radialGradient id="radialGradient3964-4" cx="32.5" cy="56.5" r="33.5" fx="32.5" fy="56.5" gradientTransform="matrix(1,0,0,0.10447761,0,50.597015)" gradientUnits="userSpaceOnUse" xlink:href="#linearGradient3958-4"/><linearGradient id="linearGradient3958-4"><stop id="stop3960-6" offset="0" stop-color="#000" stop-opacity="1"/><stop id="stop3962-5" offset="1" stop-color="#000" stop-opacity="0"/></linearGradient><radialGradient id="radialGradient3964-3-1" cx="32.5" cy="56.5" r="33.5" fx="32.5" fy="56.5" gradientTransform="matrix(1,0,0,0.10447761,0,50.597015)" gradientUnits="userSpaceOnUse" xlink:href="#linearGradient3958-1-56"/><linearGradient id="linearGradient3958-1-56"><stop id="stop3960-9-6" offset="0" stop-color="#000" stop-opacity="1"/><stop id="stop3962-9-3" offset="1" stop-color="#000" stop-opacity="0"/></linearGradient><radialGradient id="radialGradient3964-6" cx="32.5" cy="56.5" r="33.5" fx="32.5" fy="56.5" gradientTransform="matrix(1,0,0,0.10447761,0,50.597015)" gradientUnits="userSpaceOnUse" xlink:href="#linearGradient3958-44"/><linearGradient id="linearGradient3958-44"><stop id="stop3960-8" offset="0" stop-color="#000" stop-opacity="1"/><stop id="stop3962-1" offset="1" stop-color="#000" stop-opacity="0"/></linearGradient><radialGradient id="radialGradient3964-3-2" cx="32.5" cy="56.5" r="33.5" fx="32.5" fy="56.5" gradientTransform="matrix(1,0,0,0.10447761,0,50.597015)" gradientUnits="userSpaceOnUse" xlink:href="#linearGradient3958-1-10"/><linearGradient id="linearGradient3958-1-10"><stop id="stop3960-9-64" offset="0" stop-color="#000" stop-opacity="1"/><stop id="stop3962-9-6" offset="1" stop-color="#000" stop-opacity="0"/></linearGradient><radialGradient id="radialGradient3964-33" cx="32.5" cy="56.5" r="33.5" fx="32.5" fy="56.5" gradientTransform="matrix(1,0,0,0.10447761,0,50.597015)" gradientUnits="userSpaceOnUse" xlink:href="#linearGradient3958-13"/><linearGradient id="linearGradient3958-13"><stop id="stop3960-7" offset="0" stop-color="#000" stop-opacity="1"/><stop id="stop3962-8" offset="1" stop-color="#000" stop-opacity="0"/></linearGradient><radialGradient id="radialGradient3964-3-4" cx="32.5" cy="56.5" r="33.5" fx="32.5" fy="56.5" gradientTransform="matrix(1,0,0,0.10447761,0,50.597015)" gradientUnits="userSpaceOnUse" xlink:href="#linearGradient3958-1-4"/><linearGradient id="linearGradient3958-1-4"><stop id="stop3960-9-01" offset="0" stop-color="#000" stop-opacity="1"/><stop id="stop3962-9-11" offset="1" stop-color="#000" stop-opacity="0"/></linearGradient><radialGradient id="radialGradient3815-8" cx="-9" cy="93.5" r="15" fx="-9" fy="93.5" gradientTransform="matrix(1,0,0,0.36666667,0,59.216667)" gradientUnits="userSpaceOnUse" xlink:href="#linearGradient3809-0"/><radialGradient id="radialGradient3964-7" cx="32.5" cy="56.5" r="33.5" fx="32.5" fy="56.5" gradientTransform="matrix(1,0,0,0.10447761,0,50.597015)" gradientUnits="userSpaceOnUse" xlink:href="#linearGradient3958-87"/><linearGradient id="linearGradient3958-87"><stop id="stop3960-72" offset="0" stop-color="#000" stop-opacity="1"/><stop id="stop3962-10" offset="1" stop-color="#000" stop-opacity="0"/></linearGradient><linearGradient id="linearGradient3809-0"><stop id="stop3811-8" offset="0" stop-color="#000" stop-opacity="1"/><stop id="stop3813-8" offset="1" stop-color="#000" stop-opacity="0"/></linearGradient></defs><metadata id="metadata7"/><g id="layer1" transform="translate(0,-796.3622)"><path id="path3039" fill="url(#radialGradient3816)" fill-opacity="1" stroke="none" d="m 10,203.5 a 35,27.5 0 1 1 -70,0 35,27.5 0 1 1 70,0 z" opacity=".55" transform="matrix(5.0857143,0,0,1.0909091,255.14286,788.3622)"/><path id="path3029" fill="#1976d2" fill-opacity="1" stroke="none" d="m 0,832.59752 0,171.29388 256,0 0,-85.6468 -12.19048,-73.412 L 148,844.3622 l -12,-24 -123.809524,0 C 6.09524,820.3622 0,826.47984 0,832.59752 z"/><rect id="rect3799" width="126.286" height="47.529" x="20" y="852.362" fill="#f2f2f2" fill-opacity="1" stroke="none"/><path id="path3790" fill="#000" fill-opacity="1" stroke="none" d="m 12.25,820.3622 c -6.095236,0 -12.25,6.13232 -12.25,12.25 l 0,8 c 0,-6.11768 6.154764,-12.25 12.25,-12.25 l 119.75,0 12,24 99.75,0.5 12.25,73.3752 0,-8 -12.25,-73.3752 -95.75,-0.5 -12,-24 z" opacity=".03"/><path id="rect2987" fill="#5a9be7" fill-opacity="1" stroke="none" d="m 256,857.0682 0,171.294 -256,0 0,-160 120,0 12,-24 111.80952,0.4704 c 6.09524,0 12.19048,6.118 12.19048,12.2356 z"/><path id="path3794" fill="#000" fill-opacity="1" stroke="none" d="m 0,1020.3622 0,8 256,0 0,-8 z" opacity=".15"/><path id="path3015" fill="#000" fill-opacity="1" stroke="none" d="m 132,844.3622 -12,24 -120,0 0,8 124,0 12,-24 107.75,0.5 c 6.09524,0 12.25,6.1324 12.25,12.25 l 0,-8 c 0,-6.1176 -6.15476,-12.25 -12.25,-12.25 z" opacity=".03"/><g id="g4034" opacity="1" transform="matrix(4,0,0,4,0,-3157.0866)"><path id="path4017" fill="#2a74b9" fill-opacity="1" stroke="none" d="m 32,24 c -5.183873,0 -9.704989,2.812856 -12.125,7 l 3.625,0 c 2.017562,-2.44472 5.082738,-4 8.5,-4 6.075132,0 11,4.924868 11,11 0,6.075132 -4.924868,11 -11,11 -6.075132,0 -11,-4.924868 -11,-11 0,-0.337637 0.03272,-0.670117 0.0625,-1 l -3.03125,0 C 18.007972,37.330072 18,37.664005 18,38 c 0,7.731986 6.268014,14 14,14 7.731986,0 14,-6.268014 14,-14 0,-7.731986 -6.268014,-14 -14,-14 z" transform="translate(0,988.3622)"/><path id="path4025" fill="#2a74b9" fill-opacity="1" stroke="none" d="m 18,1012.3622 0,10 10,0 z"/><path style="line-height:normal" id="path4105" fill="#2a74b9" fill-opacity="1" d="m 31.812825,1017.2996 a 2.0002,2.0002 0 0 0 -0.25,0.062 2.0002,2.0002 0 0 0 -1.5625,2 l 0,7.375 a 2.0002,2.0002 0 0 0 0,0.188 2.0002,2.0002 0 0 0 0.25,1.5 2.0002,2.0002 0 0 0 0.0625,0.062 2.0002,2.0002 0 0 0 0.0625,0.124 2.0002,2.0002 0 0 0 0.0625,0.062 2.0002,2.0002 0 0 0 0.0625,0.062 2.0002,2.0002 0 0 0 0.0625,0.062 2.0002,2.0002 0 0 0 0.0625,0.062 2.0002,2.0002 0 0 0 0.125,0.062 2.0002,2.0002 0 0 0 0.0625,0.062 2.0002,2.0002 0 0 0 0.0625,0.062 2.0002,2.0002 0 0 0 0.125,0.062 2.0002,2.0002 0 0 0 0.25,0.124 l 4.937497,2.875 a 2.0155644,2.0155644 0 1 0 2,-3.5 l -4.187499,-2.4376 0,-6.8124 a 2.0002,2.0002 0 0 0 -2.187498,-2.0626 z" color="#000"/></g></g></svg>