<svg xmlns="http://www.w3.org/2000/svg" xmlns:svg="http://www.w3.org/2000/svg" xmlns:xlink="http://www.w3.org/1999/xlink" id="svg2" width="256" height="256" version="1.1"><defs id="defs4"><linearGradient id="linearGradient3810"><stop id="stop3812" offset="0" stop-color="#000" stop-opacity="1"/><stop id="stop3814" offset="1" stop-color="#000" stop-opacity="0"/></linearGradient><radialGradient id="radialGradient3815" cx="-9" cy="93.5" r="15" fx="-9" fy="93.5" gradientTransform="matrix(1,0,0,0.36666667,0,59.216667)" gradientUnits="userSpaceOnUse" xlink:href="#linearGradient3809"/><radialGradient id="radialGradient3964" cx="32.5" cy="56.5" r="33.5" fx="32.5" fy="56.5" gradientTransform="matrix(1,0,0,0.10447761,0,50.597015)" gradientUnits="userSpaceOnUse" xlink:href="#linearGradient3958"/><linearGradient id="linearGradient3958"><stop id="stop3960" offset="0" stop-color="#000" stop-opacity="1"/><stop id="stop3962" offset="1" stop-color="#000" stop-opacity="0"/></linearGradient><radialGradient id="radialGradient3981" cx="32.5" cy="56.5" r="33.5" fx="32.5" fy="56.5" gradientTransform="matrix(1,0,0,0.10447761,0,50.597015)" gradientUnits="userSpaceOnUse" xlink:href="#linearGradient3958"/><linearGradient id="linearGradient3809"><stop id="stop3811" offset="0" stop-color="#000" stop-opacity="1"/><stop id="stop3813" offset="1" stop-color="#000" stop-opacity="0"/></linearGradient><radialGradient id="radialGradient3816" cx="-25" cy="203.5" r="35" fx="-25" fy="203.5" gradientTransform="matrix(1,0,0,0.78571429,0,43.607143)" gradientUnits="userSpaceOnUse" xlink:href="#linearGradient3810"/><radialGradient id="radialGradient3964-3" cx="32.5" cy="56.5" r="33.5" fx="32.5" fy="56.5" gradientTransform="matrix(1,0,0,0.10447761,0,50.597015)" gradientUnits="userSpaceOnUse" xlink:href="#linearGradient3958-1"/><linearGradient id="linearGradient3958-1"><stop id="stop3960-9" offset="0" stop-color="#000" stop-opacity="1"/><stop id="stop3962-9" offset="1" stop-color="#000" stop-opacity="0"/></linearGradient><radialGradient id="radialGradient3981-1" cx="32.5" cy="56.5" r="33.5" fx="32.5" fy="56.5" gradientTransform="matrix(1,0,0,0.10447761,0,50.597015)" gradientUnits="userSpaceOnUse" xlink:href="#linearGradient3958-1"/><radialGradient id="radialGradient3815-2" cx="-9" cy="93.5" r="15" fx="-9" fy="93.5" gradientTransform="matrix(1,0,0,0.36666667,0,59.216667)" gradientUnits="userSpaceOnUse" xlink:href="#linearGradient3809-4"/><radialGradient id="radialGradient3964-5" cx="32.5" cy="56.5" r="33.5" fx="32.5" fy="56.5" gradientTransform="matrix(1,0,0,0.10447761,0,50.597015)" gradientUnits="userSpaceOnUse" xlink:href="#linearGradient3958-0"/><linearGradient id="linearGradient3958-0"><stop id="stop3960-0" offset="0" stop-color="#000" stop-opacity="1"/><stop id="stop3962-2" offset="1" stop-color="#000" stop-opacity="0"/></linearGradient><radialGradient id="radialGradient3981-2" cx="32.5" cy="56.5" r="33.5" fx="32.5" fy="56.5" gradientTransform="matrix(1,0,0,0.10447761,0,50.597015)" gradientUnits="userSpaceOnUse" xlink:href="#linearGradient3958-0"/><linearGradient id="linearGradient3809-4"><stop id="stop3811-9" offset="0" stop-color="#000" stop-opacity="1"/><stop id="stop3813-5" offset="1" stop-color="#000" stop-opacity="0"/></linearGradient><radialGradient id="radialGradient3964-3-6" cx="32.5" cy="56.5" r="33.5" fx="32.5" fy="56.5" gradientTransform="matrix(1,0,0,0.10447761,0,50.597015)" gradientUnits="userSpaceOnUse" xlink:href="#linearGradient3958-1-5"/><linearGradient id="linearGradient3958-1-5"><stop id="stop3960-9-7" offset="0" stop-color="#000" stop-opacity="1"/><stop id="stop3962-9-1" offset="1" stop-color="#000" stop-opacity="0"/></linearGradient><radialGradient id="radialGradient3964-53" cx="32.5" cy="56.5" r="33.5" fx="32.5" fy="56.5" gradientTransform="matrix(1,0,0,0.10447761,0,50.597015)" gradientUnits="userSpaceOnUse" xlink:href="#linearGradient3958-8"/><linearGradient id="linearGradient3958-8"><stop id="stop3960-1" offset="0" stop-color="#000" stop-opacity="1"/><stop id="stop3962-4" offset="1" stop-color="#000" stop-opacity="0"/></linearGradient><radialGradient id="radialGradient3964-3-5" cx="32.5" cy="56.5" r="33.5" fx="32.5" fy="56.5" gradientTransform="matrix(1,0,0,0.10447761,0,50.597015)" gradientUnits="userSpaceOnUse" xlink:href="#linearGradient3958-1-6"/><linearGradient id="linearGradient3958-1-6"><stop id="stop3960-9-3" offset="0" stop-color="#000" stop-opacity="1"/><stop id="stop3962-9-8" offset="1" stop-color="#000" stop-opacity="0"/></linearGradient><radialGradient id="radialGradient3815-8" cx="-9" cy="93.5" r="15" fx="-9" fy="93.5" gradientTransform="matrix(1,0,0,0.36666667,0,59.216667)" gradientUnits="userSpaceOnUse" xlink:href="#linearGradient3809-5"/><radialGradient id="radialGradient3964-0" cx="32.5" cy="56.5" r="33.5" fx="32.5" fy="56.5" gradientTransform="matrix(1,0,0,0.10447761,0,50.597015)" gradientUnits="userSpaceOnUse" xlink:href="#linearGradient3958-80"/><linearGradient id="linearGradient3958-80"><stop id="stop3960-99" offset="0" stop-color="#000" stop-opacity="1"/><stop id="stop3962-43" offset="1" stop-color="#000" stop-opacity="0"/></linearGradient><linearGradient id="linearGradient3809-5"><stop id="stop3811-4" offset="0" stop-color="#000" stop-opacity="1"/><stop id="stop3813-53" offset="1" stop-color="#000" stop-opacity="0"/></linearGradient></defs><metadata id="metadata7"/><g id="layer1" transform="translate(0,-796.3622)"><path id="path3039" fill="url(#radialGradient3816)" fill-opacity="1" stroke="none" d="m 10,203.5 a 35,27.5 0 1 1 -70,0 35,27.5 0 1 1 70,0 z" opacity=".55" transform="matrix(5.0857143,0,0,1.0909091,255.14286,788.3622)"/><path id="path3029" fill="#1976d2" fill-opacity="1" stroke="none" d="m 0,832.59752 0,171.29388 256,0 0,-85.6468 -12.19048,-73.412 L 148,844.3622 l -12,-24 -123.809524,0 C 6.09524,820.3622 0,826.47984 0,832.59752 z"/><rect id="rect3799" width="126.286" height="47.529" x="20" y="852.362" fill="#f2f2f2" fill-opacity="1" stroke="none"/><path id="path3790" fill="#000" fill-opacity="1" stroke="none" d="m 12.25,820.3622 c -6.095236,0 -12.25,6.13232 -12.25,12.25 l 0,8 c 0,-6.11768 6.154764,-12.25 12.25,-12.25 l 119.75,0 12,24 99.75,0.5 12.25,73.3752 0,-8 -12.25,-73.3752 -95.75,-0.5 -12,-24 z" opacity=".03"/><path id="rect2987" fill="#5a9be7" fill-opacity="1" stroke="none" d="m 256,857.0682 0,171.294 -256,0 0,-160 120,0 12,-24 111.80952,0.4704 c 6.09524,0 12.19048,6.118 12.19048,12.2356 z"/><path id="path3794" fill="#000" fill-opacity="1" stroke="none" d="m 0,1020.3622 0,8 256,0 0,-8 z" opacity=".15"/><path id="path3015" fill="#000" fill-opacity="1" stroke="none" d="m 132,844.3622 -12,24 -120,0 0,8 124,0 12,-24 107.75,0.5 c 6.09524,0 12.25,6.1324 12.25,12.25 l 0,-8 c 0,-6.1176 -6.15476,-12.25 -12.25,-12.25 z" opacity=".03"/><path style="line-height:normal" id="path3871" fill="#2a74b9" fill-opacity="1" d="m 100,896.3622 -28,22.0604 28,18.9092 -28,25.212 56,37.8184 56,-37.8184 -28,-25.212 28,-18.9092 -28,-22.0604 -28,22.0604 -28,-22.0604 z" color="#000" opacity="1"/></g></svg>