<svg xmlns="http://www.w3.org/2000/svg" xmlns:svg="http://www.w3.org/2000/svg" xmlns:xlink="http://www.w3.org/1999/xlink" id="svg2" width="256" height="256" version="1.1"><defs id="defs4"><linearGradient id="linearGradient3810"><stop id="stop3812" offset="0" stop-color="#000" stop-opacity="1"/><stop id="stop3814" offset="1" stop-color="#000" stop-opacity="0"/></linearGradient><radialGradient id="radialGradient3815" cx="-9" cy="93.5" r="15" fx="-9" fy="93.5" gradientTransform="matrix(1,0,0,0.36666667,0,59.216667)" gradientUnits="userSpaceOnUse" xlink:href="#linearGradient3809"/><radialGradient id="radialGradient3964" cx="32.5" cy="56.5" r="33.5" fx="32.5" fy="56.5" gradientTransform="matrix(1,0,0,0.10447761,0,50.597015)" gradientUnits="userSpaceOnUse" xlink:href="#linearGradient3958"/><linearGradient id="linearGradient3958"><stop id="stop3960" offset="0" stop-color="#000" stop-opacity="1"/><stop id="stop3962" offset="1" stop-color="#000" stop-opacity="0"/></linearGradient><radialGradient id="radialGradient3981" cx="32.5" cy="56.5" r="33.5" fx="32.5" fy="56.5" gradientTransform="matrix(1,0,0,0.10447761,0,50.597015)" gradientUnits="userSpaceOnUse" xlink:href="#linearGradient3958"/><linearGradient id="linearGradient3809"><stop id="stop3811" offset="0" stop-color="#000" stop-opacity="1"/><stop id="stop3813" offset="1" stop-color="#000" stop-opacity="0"/></linearGradient><radialGradient id="radialGradient3816" cx="-25" cy="203.5" r="35" fx="-25" fy="203.5" gradientTransform="matrix(1,0,0,0.78571429,0,43.607143)" gradientUnits="userSpaceOnUse" xlink:href="#linearGradient3810"/></defs><metadata id="metadata7"/><g id="layer1" transform="translate(0,-796.3622)"><path id="path3039" fill="url(#radialGradient3816)" fill-opacity="1" stroke="none" d="M 10,203.5 A 35,27.5 0 0 1 -25,231 35,27.5 0 0 1 -60,203.5 35,27.5 0 0 1 -25,176 35,27.5 0 0 1 10,203.5 Z" opacity=".55" transform="matrix(5.0857143,0,0,1.0909091,255.14286,788.3622)"/><path id="path3029" fill="#1976d2" fill-opacity="1" stroke="none" d="m 0,832.59752 0,171.29388 256,0 0,-85.6468 -12.19048,-73.412 L 148,844.3622 l -12,-24 -123.80952,0 C 6.09524,820.3622 0,826.47984 0,832.59752 z"/><rect id="rect3799" width="126.286" height="47.529" x="20" y="852.362" fill="#f2f2f2" fill-opacity="1" stroke="none"/><path id="path3790" fill="#000" fill-opacity="1" stroke="none" d="m 12.25,820.3622 c -6.09524,0 -12.25,6.13232 -12.25,12.25 l 0,8 c 0,-6.11768 6.15476,-12.25 12.25,-12.25 l 119.75,0 12,24 99.75,0.5 12.25,73.375 0,-8 -12.25,-73.375 -95.75,-0.5 -12,-24 z" opacity=".03"/><path id="rect2987" fill="#5a9be7" fill-opacity="1" stroke="none" d="m 256,857.0682 0,171.294 -256,0 0,-160 120,0 12,-24 111.80952,0.4704 c 6.09524,0 12.19048,6.118 12.19048,12.2356 z"/><path id="path3794" fill="#000" fill-opacity="1" stroke="none" d="m 0,1020.3622 0,8 256,0 0,-8 z" opacity=".15"/><path id="path3801-7" fill="none" stroke="none" d="m 134.09524,850.9506 -30.4762,18.3528 18.28572,0 z"/><path id="path3015" fill="#000" fill-opacity="1" stroke="none" d="m 132,844.3622 -12,24 -120,0 0,8 124,0 12,-24 107.75,0.5 c 6.09524,0 12.25,6.1324 12.25,12.25 l 0,-8 c 0,-6.1176 -6.15476,-12.25 -12.25,-12.25 z" opacity=".03"/><path id="path3447" fill="#2a74b9" fill-opacity="1" fill-rule="nonzero" stroke="none" d="m 159.02226,896.35583 c -13.12878,0 -23.86476,10.958 -23.86476,24.4172 0,4.5168 1.29823,8.7844 3.40925,12.4356 l 0,26.4524 c -2.60018,0.5552 -5.00237,1.7672 -7.03157,3.3916 l -23.65167,-10.8524 c 0,-9.5988 -7.67275,-17.41 -17.04624,-17.41 -9.35674,0 -17.04627,7.8064 -17.04627,17.41 0,9.6176 7.68534,17.63477 17.04627,17.63477 3.79626,0 7.38339,-1.4388 10.22774,-3.6172 l 23.86476,11.0776 c 0.246,9.4016 7.83861,16.9568 17.04624,16.9568 9.37351,0 17.04625,-7.792 17.04625,-17.4088 0,-4.0064 -1.38734,-7.6668 -3.62232,-10.6256 l 0.21312,0 12.57162,-22.83557 c 0.0897,-0.096 0.12388,-0.188 0.21312,-0.22 8.41405,-3.8008 14.48931,-12.392 14.48931,-22.3828 0,-13.4456 -10.75275,-24.418 -23.86475,-24.418 z m 0,8.1384 c 8.81966,0 15.76778,7.236 15.76778,16.2788 0,9.0596 -6.95232,16.278 -15.76778,16.278 -8.83224,0 -15.76778,-7.2184 -15.76778,-16.278 0,-9.0428 6.93554,-16.2788 15.76778,-16.2788 z m 0,5.8796 c -5.63921,0 -10.22776,4.59 -10.22776,10.3992 0,5.7864 4.58855,10.4 10.22776,10.4 5.656,0 10.22776,-4.608 10.22776,-10.4 0,-5.8056 -4.57176,-10.3992 -10.22776,-10.3992 z m -68.185,31.4264 c 5.59868,0 8.79142,2.3168 9.80159,7.008 l -5.9662,-2.7144 c -3.86856,-1.6872 -8.3741,0.096 -10.01466,4.07 -1.64058,3.968 0.17984,8.5052 4.04847,10.1756 l 4.47465,2.2596 c -0.74702,0.124 -1.49001,0.22 -2.34385,0.22 -6.81825,0 -10.22776,-3.6172 -10.22776,-10.624 0,-6.9904 3.40951,-10.4012 10.22776,-10.4012 z m 51.13875,23.28717 c 6.31053,0 11.29314,5.2868 11.29314,11.756 0,6.4688 -4.98261,11.5304 -11.29314,11.5304 -5.12451,0 -9.4509,-3.3796 -10.86699,-8.14 l 8.09698,3.6192 c 3.86856,1.6864 8.3741,-0.312 10.01467,-4.2968 1.64056,-3.9668 -0.17992,-8.504 -4.04849,-10.1732 l -7.45773,-3.3924 c 1.30641,-0.5392 2.76029,-0.8976 4.26156,-0.8976 z" opacity="1"/></g></svg>