<svg xmlns="http://www.w3.org/2000/svg" xmlns:svg="http://www.w3.org/2000/svg" xmlns:xlink="http://www.w3.org/1999/xlink" id="svg2" width="256" height="256" version="1.1"><defs id="defs4"><linearGradient id="linearGradient3810"><stop id="stop3812" offset="0" stop-color="#000" stop-opacity="1"/><stop id="stop3814" offset="1" stop-color="#000" stop-opacity="0"/></linearGradient><radialGradient id="radialGradient3815" cx="-9" cy="93.5" r="15" fx="-9" fy="93.5" gradientTransform="matrix(1,0,0,0.36666667,0,59.216667)" gradientUnits="userSpaceOnUse" xlink:href="#linearGradient3809"/><radialGradient id="radialGradient3964" cx="32.5" cy="56.5" r="33.5" fx="32.5" fy="56.5" gradientTransform="matrix(1,0,0,0.10447761,0,50.597015)" gradientUnits="userSpaceOnUse" xlink:href="#linearGradient3958"/><linearGradient id="linearGradient3958"><stop id="stop3960" offset="0" stop-color="#000" stop-opacity="1"/><stop id="stop3962" offset="1" stop-color="#000" stop-opacity="0"/></linearGradient><radialGradient id="radialGradient3981" cx="32.5" cy="56.5" r="33.5" fx="32.5" fy="56.5" gradientTransform="matrix(1,0,0,0.10447761,0,50.597015)" gradientUnits="userSpaceOnUse" xlink:href="#linearGradient3958"/><linearGradient id="linearGradient3809"><stop id="stop3811" offset="0" stop-color="#000" stop-opacity="1"/><stop id="stop3813" offset="1" stop-color="#000" stop-opacity="0"/></linearGradient><radialGradient id="radialGradient3816" cx="-25" cy="203.5" r="35" fx="-25" fy="203.5" gradientTransform="matrix(1,0,0,0.78571429,0,43.607143)" gradientUnits="userSpaceOnUse" xlink:href="#linearGradient3810"/></defs><metadata id="metadata7"/><g id="layer1" transform="translate(0,-796.3622)"><path id="path3039" fill="url(#radialGradient3816)" fill-opacity="1" stroke="none" d="M 10,203.5 A 35,27.5 0 0 1 -25,231 35,27.5 0 0 1 -60,203.5 35,27.5 0 0 1 -25,176 35,27.5 0 0 1 10,203.5 Z" opacity=".55" transform="matrix(5.0857143,0,0,1.0909091,255.14286,788.3622)"/><path id="path3029" fill="#1976d2" fill-opacity="1" stroke="none" d="m 0,832.59752 0,171.29388 256,0 0,-85.6468 -12.19048,-73.412 L 148,844.3622 l -12,-24 -123.80952,0 C 6.09524,820.3622 0,826.47984 0,832.59752 z"/><rect id="rect3799" width="126.286" height="47.529" x="20" y="852.362" fill="#f2f2f2" fill-opacity="1" stroke="none"/><path id="path3790" fill="#000" fill-opacity="1" stroke="none" d="m 12.25,820.3622 c -6.09524,0 -12.25,6.13232 -12.25,12.25 l 0,8 c 0,-6.11768 6.15476,-12.25 12.25,-12.25 l 119.75,0 12,24 99.75,0.5 12.25,73.375 0,-8 -12.25,-73.375 -95.75,-0.5 -12,-24 z" opacity=".03"/><path id="rect2987" fill="#5a9be7" fill-opacity="1" stroke="none" d="m 256,857.0682 0,171.294 -256,0 0,-160 120,0 12,-24 111.80952,0.4704 c 6.09524,0 12.19048,6.118 12.19048,12.2356 z"/><path id="path3794" fill="#000" fill-opacity="1" stroke="none" d="m 0,1020.3622 0,8 256,0 0,-8 z" opacity=".15"/><path id="path3801-7" fill="none" stroke="none" d="m 134.09524,850.9506 -30.4762,18.3528 18.28572,0 z"/><path id="path3015" fill="#000" fill-opacity="1" stroke="none" d="m 132,844.3622 -12,24 -120,0 0,8 124,0 12,-24 107.75,0.5 c 6.09524,0 12.25,6.1324 12.25,12.25 l 0,-8 c 0,-6.1176 -6.15476,-12.25 -12.25,-12.25 z" opacity=".03"/><path id="rect3828" fill="#2a74b9" fill-opacity="1" stroke="none" d="m 96.000004,900.36223 c -5.698284,0 -8.000004,2.6816 -8.000004,8 l 0,79.99997 c 0,5.3184 2.30172,8 8.000004,8 l 61.749986,0 c 5.69829,0 10.25,-2.6816 10.25,-8 l 0,-79.99997 c 0,-5.3184 -2.30171,-8 -8,-8 l -63.999986,0 z m 5.999986,8 c 3.31371,0 6,2.6864 6,6 0,3.3136 -2.68629,6 -6,6 -3.313696,0 -5.999986,-2.6864 -5.999986,-6 0,-3.3136 2.68629,-6 5.999986,-6 z m 52,0 c 3.31371,0 6,2.6864 6,6 0,3.3136 -2.68629,6 -6,6 -3.31371,0 -6,-2.6864 -6,-6 0,-3.3136 2.68629,-6 6,-6 z m -26,8 c 8.83655,0 16,7.1632 16,16 0,8.8368 -7.16345,16 -16,16 -8.83655,0 -16,-7.1632 -16,-16 0,-8.8368 7.16345,-16 16,-16 z m -26,28 c 3.31371,0 6,2.6864 6,6 0,3.3136 -2.68629,6 -6,6 -3.313696,0 -5.999986,-2.6864 -5.999986,-6 0,-3.3136 2.68629,-6 5.999986,-6 z m 52,0 c 3.31371,0 6,2.6864 6,6 0,3.3136 -2.68629,6 -6,6 -3.31371,0 -6,-2.6864 -6,-6 0,-3.3136 2.68629,-6 6,-6 z M 100,980.3622 l 55.99999,0 c 2.216,0 4,1.784 4,4 0,2.216 -1.784,4 -4,4 l -55.99999,0 c -2.215996,0 -3.999996,-1.784 -3.999996,-4 0,-2.216 1.784,-4 3.999996,-4 z" opacity="1"/></g></svg>