<svg xmlns="http://www.w3.org/2000/svg" xmlns:svg="http://www.w3.org/2000/svg" xmlns:xlink="http://www.w3.org/1999/xlink" id="svg2" width="256" height="256" version="1.1"><defs id="defs4"><linearGradient id="linearGradient3810"><stop id="stop3812" offset="0" stop-color="#000" stop-opacity="1"/><stop id="stop3814" offset="1" stop-color="#000" stop-opacity="0"/></linearGradient><radialGradient id="radialGradient3815" cx="-9" cy="93.5" r="15" fx="-9" fy="93.5" gradientTransform="matrix(1,0,0,0.36666667,0,59.216667)" gradientUnits="userSpaceOnUse" xlink:href="#linearGradient3809"/><radialGradient id="radialGradient3964" cx="32.5" cy="56.5" r="33.5" fx="32.5" fy="56.5" gradientTransform="matrix(1,0,0,0.10447761,0,50.597015)" gradientUnits="userSpaceOnUse" xlink:href="#linearGradient3958"/><linearGradient id="linearGradient3958"><stop id="stop3960" offset="0" stop-color="#000" stop-opacity="1"/><stop id="stop3962" offset="1" stop-color="#000" stop-opacity="0"/></linearGradient><radialGradient id="radialGradient3981" cx="32.5" cy="56.5" r="33.5" fx="32.5" fy="56.5" gradientTransform="matrix(1,0,0,0.10447761,0,50.597015)" gradientUnits="userSpaceOnUse" xlink:href="#linearGradient3958"/><linearGradient id="linearGradient3809"><stop id="stop3811" offset="0" stop-color="#000" stop-opacity="1"/><stop id="stop3813" offset="1" stop-color="#000" stop-opacity="0"/></linearGradient><radialGradient id="radialGradient3816" cx="-25" cy="203.5" r="35" fx="-25" fy="203.5" gradientTransform="matrix(1,0,0,0.78571429,0,43.607143)" gradientUnits="userSpaceOnUse" xlink:href="#linearGradient3810"/><radialGradient id="radialGradient3964-3" cx="32.5" cy="56.5" r="33.5" fx="32.5" fy="56.5" gradientTransform="matrix(1,0,0,0.10447761,0,50.597015)" gradientUnits="userSpaceOnUse" xlink:href="#linearGradient3958-1"/><linearGradient id="linearGradient3958-1"><stop id="stop3960-9" offset="0" stop-color="#000" stop-opacity="1"/><stop id="stop3962-9" offset="1" stop-color="#000" stop-opacity="0"/></linearGradient><radialGradient id="radialGradient3981-1" cx="32.5" cy="56.5" r="33.5" fx="32.5" fy="56.5" gradientTransform="matrix(1,0,0,0.10447761,0,50.597015)" gradientUnits="userSpaceOnUse" xlink:href="#linearGradient3958-1"/><radialGradient id="radialGradient3815-2" cx="-9" cy="93.5" r="15" fx="-9" fy="93.5" gradientTransform="matrix(1,0,0,0.36666667,0,59.216667)" gradientUnits="userSpaceOnUse" xlink:href="#linearGradient3809-4"/><radialGradient id="radialGradient3964-5" cx="32.5" cy="56.5" r="33.5" fx="32.5" fy="56.5" gradientTransform="matrix(1,0,0,0.10447761,0,50.597015)" gradientUnits="userSpaceOnUse" xlink:href="#linearGradient3958-0"/><linearGradient id="linearGradient3958-0"><stop id="stop3960-0" offset="0" stop-color="#000" stop-opacity="1"/><stop id="stop3962-2" offset="1" stop-color="#000" stop-opacity="0"/></linearGradient><radialGradient id="radialGradient3981-2" cx="32.5" cy="56.5" r="33.5" fx="32.5" fy="56.5" gradientTransform="matrix(1,0,0,0.10447761,0,50.597015)" gradientUnits="userSpaceOnUse" xlink:href="#linearGradient3958-0"/><linearGradient id="linearGradient3809-4"><stop id="stop3811-9" offset="0" stop-color="#000" stop-opacity="1"/><stop id="stop3813-5" offset="1" stop-color="#000" stop-opacity="0"/></linearGradient><radialGradient id="radialGradient3964-3-6" cx="32.5" cy="56.5" r="33.5" fx="32.5" fy="56.5" gradientTransform="matrix(1,0,0,0.10447761,0,50.597015)" gradientUnits="userSpaceOnUse" xlink:href="#linearGradient3958-1-5"/><linearGradient id="linearGradient3958-1-5"><stop id="stop3960-9-7" offset="0" stop-color="#000" stop-opacity="1"/><stop id="stop3962-9-1" offset="1" stop-color="#000" stop-opacity="0"/></linearGradient><radialGradient id="radialGradient3964-53" cx="32.5" cy="56.5" r="33.5" fx="32.5" fy="56.5" gradientTransform="matrix(1,0,0,0.10447761,0,50.597015)" gradientUnits="userSpaceOnUse" xlink:href="#linearGradient3958-8"/><linearGradient id="linearGradient3958-8"><stop id="stop3960-1" offset="0" stop-color="#000" stop-opacity="1"/><stop id="stop3962-4" offset="1" stop-color="#000" stop-opacity="0"/></linearGradient><radialGradient id="radialGradient3964-3-5" cx="32.5" cy="56.5" r="33.5" fx="32.5" fy="56.5" gradientTransform="matrix(1,0,0,0.10447761,0,50.597015)" gradientUnits="userSpaceOnUse" xlink:href="#linearGradient3958-1-6"/><linearGradient id="linearGradient3958-1-6"><stop id="stop3960-9-3" offset="0" stop-color="#000" stop-opacity="1"/><stop id="stop3962-9-8" offset="1" stop-color="#000" stop-opacity="0"/></linearGradient><radialGradient id="radialGradient3964-0" cx="32.5" cy="56.5" r="33.5" fx="32.5" fy="56.5" gradientTransform="matrix(1,0,0,0.10447761,0,50.597015)" gradientUnits="userSpaceOnUse" xlink:href="#linearGradient3958-80"/><linearGradient id="linearGradient3958-80"><stop id="stop3960-99" offset="0" stop-color="#000" stop-opacity="1"/><stop id="stop3962-43" offset="1" stop-color="#000" stop-opacity="0"/></linearGradient><radialGradient id="radialGradient3964-3-68" cx="32.5" cy="56.5" r="33.5" fx="32.5" fy="56.5" gradientTransform="matrix(1,0,0,0.10447761,0,50.597015)" gradientUnits="userSpaceOnUse" xlink:href="#linearGradient3958-1-1"/><linearGradient id="linearGradient3958-1-1"><stop id="stop3960-9-0" offset="0" stop-color="#000" stop-opacity="1"/><stop id="stop3962-9-0" offset="1" stop-color="#000" stop-opacity="0"/></linearGradient><radialGradient id="radialGradient3964-4" cx="32.5" cy="56.5" r="33.5" fx="32.5" fy="56.5" gradientTransform="matrix(1,0,0,0.10447761,0,50.597015)" gradientUnits="userSpaceOnUse" xlink:href="#linearGradient3958-4"/><linearGradient id="linearGradient3958-4"><stop id="stop3960-6" offset="0" stop-color="#000" stop-opacity="1"/><stop id="stop3962-5" offset="1" stop-color="#000" stop-opacity="0"/></linearGradient><radialGradient id="radialGradient3964-3-1" cx="32.5" cy="56.5" r="33.5" fx="32.5" fy="56.5" gradientTransform="matrix(1,0,0,0.10447761,0,50.597015)" gradientUnits="userSpaceOnUse" xlink:href="#linearGradient3958-1-56"/><linearGradient id="linearGradient3958-1-56"><stop id="stop3960-9-6" offset="0" stop-color="#000" stop-opacity="1"/><stop id="stop3962-9-3" offset="1" stop-color="#000" stop-opacity="0"/></linearGradient><radialGradient id="radialGradient3964-6" cx="32.5" cy="56.5" r="33.5" fx="32.5" fy="56.5" gradientTransform="matrix(1,0,0,0.10447761,0,50.597015)" gradientUnits="userSpaceOnUse" xlink:href="#linearGradient3958-44"/><linearGradient id="linearGradient3958-44"><stop id="stop3960-8" offset="0" stop-color="#000" stop-opacity="1"/><stop id="stop3962-1" offset="1" stop-color="#000" stop-opacity="0"/></linearGradient><radialGradient id="radialGradient3964-3-2" cx="32.5" cy="56.5" r="33.5" fx="32.5" fy="56.5" gradientTransform="matrix(1,0,0,0.10447761,0,50.597015)" gradientUnits="userSpaceOnUse" xlink:href="#linearGradient3958-1-10"/><linearGradient id="linearGradient3958-1-10"><stop id="stop3960-9-64" offset="0" stop-color="#000" stop-opacity="1"/><stop id="stop3962-9-6" offset="1" stop-color="#000" stop-opacity="0"/></linearGradient><radialGradient id="radialGradient3964-33" cx="32.5" cy="56.5" r="33.5" fx="32.5" fy="56.5" gradientTransform="matrix(1,0,0,0.10447761,0,50.597015)" gradientUnits="userSpaceOnUse" xlink:href="#linearGradient3958-13"/><linearGradient id="linearGradient3958-13"><stop id="stop3960-7" offset="0" stop-color="#000" stop-opacity="1"/><stop id="stop3962-8" offset="1" stop-color="#000" stop-opacity="0"/></linearGradient><radialGradient id="radialGradient3964-3-4" cx="32.5" cy="56.5" r="33.5" fx="32.5" fy="56.5" gradientTransform="matrix(1,0,0,0.10447761,0,50.597015)" gradientUnits="userSpaceOnUse" xlink:href="#linearGradient3958-1-4"/><linearGradient id="linearGradient3958-1-4"><stop id="stop3960-9-01" offset="0" stop-color="#000" stop-opacity="1"/><stop id="stop3962-9-11" offset="1" stop-color="#000" stop-opacity="0"/></linearGradient><radialGradient id="radialGradient3964-7" cx="32.5" cy="56.5" r="33.5" fx="32.5" fy="56.5" gradientTransform="matrix(1,0,0,0.10447761,0,50.597015)" gradientUnits="userSpaceOnUse" xlink:href="#linearGradient3958-87"/><linearGradient id="linearGradient3958-87"><stop id="stop3960-72" offset="0" stop-color="#000" stop-opacity="1"/><stop id="stop3962-10" offset="1" stop-color="#000" stop-opacity="0"/></linearGradient><radialGradient id="radialGradient3964-3-27" cx="32.5" cy="56.5" r="33.5" fx="32.5" fy="56.5" gradientTransform="matrix(1,0,0,0.10447761,0,50.597015)" gradientUnits="userSpaceOnUse" xlink:href="#linearGradient3958-1-52"/><linearGradient id="linearGradient3958-1-52"><stop id="stop3960-9-37" offset="0" stop-color="#000" stop-opacity="1"/><stop id="stop3962-9-2" offset="1" stop-color="#000" stop-opacity="0"/></linearGradient><radialGradient id="radialGradient3964-63" cx="32.5" cy="56.5" r="33.5" fx="32.5" fy="56.5" gradientTransform="matrix(1,0,0,0.10447761,0,50.597015)" gradientUnits="userSpaceOnUse" xlink:href="#linearGradient3958-18"/><linearGradient id="linearGradient3958-18"><stop id="stop3960-08" offset="0" stop-color="#000" stop-opacity="1"/><stop id="stop3962-50" offset="1" stop-color="#000" stop-opacity="0"/></linearGradient><radialGradient id="radialGradient3964-3-7" cx="32.5" cy="56.5" r="33.5" fx="32.5" fy="56.5" gradientTransform="matrix(1,0,0,0.10447761,0,50.597015)" gradientUnits="userSpaceOnUse" xlink:href="#linearGradient3958-1-64"/><linearGradient id="linearGradient3958-1-64"><stop id="stop3960-9-9" offset="0" stop-color="#000" stop-opacity="1"/><stop id="stop3962-9-36" offset="1" stop-color="#000" stop-opacity="0"/></linearGradient><radialGradient id="radialGradient3815-21" cx="-9" cy="93.5" r="15" fx="-9" fy="93.5" gradientTransform="matrix(1,0,0,0.36666667,0,59.216667)" gradientUnits="userSpaceOnUse" xlink:href="#linearGradient3809-9"/><radialGradient id="radialGradient3964-8" cx="32.5" cy="56.5" r="33.5" fx="32.5" fy="56.5" gradientTransform="matrix(1,0,0,0.10447761,0,50.597015)" gradientUnits="userSpaceOnUse" xlink:href="#linearGradient3958-6"/><linearGradient id="linearGradient3958-6"><stop id="stop3960-66" offset="0" stop-color="#000" stop-opacity="1"/><stop id="stop3962-0" offset="1" stop-color="#000" stop-opacity="0"/></linearGradient><linearGradient id="linearGradient3809-9"><stop id="stop3811-6" offset="0" stop-color="#000" stop-opacity="1"/><stop id="stop3813-3" offset="1" stop-color="#000" stop-opacity="0"/></linearGradient></defs><metadata id="metadata7"/><g id="layer1" transform="translate(0,-796.3622)"><path id="path3039" fill="url(#radialGradient3816)" fill-opacity="1" stroke="none" d="m 10,203.5 a 35,27.5 0 1 1 -70,0 35,27.5 0 1 1 70,0 z" opacity=".55" transform="matrix(5.0857143,0,0,1.0909091,255.14286,788.3622)"/><path id="path3029" fill="#1976d2" fill-opacity="1" stroke="none" d="m 0,832.5974 0,171.294 256,0 0,-85.6468 -12.19048,-73.412 L 148,844.3622 l -12,-24 -123.80952,0 C 6.09524,820.3622 0,826.4798 0,832.5974 z"/><rect id="rect3799" width="126.286" height="47.529" x="20" y="852.362" fill="#f2f2f2" fill-opacity="1" stroke="none"/><path id="path3790" fill="#000" fill-opacity="1" stroke="none" d="m 12.25,820.3622 c -6.09524,0 -12.25,6.1324 -12.25,12.25 l 0,8 c 0,-6.1176 6.15476,-12.25 12.25,-12.25 l 119.75,0 12,24 99.75,0.5 12.25,73.3752 0,-8 -12.25,-73.3752 -95.75,-0.5 -12,-24 z" opacity=".03"/><path id="rect2987" fill="#5a9be7" fill-opacity="1" stroke="none" d="m 256,857.0682 0,171.294 -256,0 0,-160 120,0 12,-24 111.80952,0.4704 c 6.09524,0 12.19048,6.118 12.19048,12.2356 z"/><path id="path3794" fill="#000" fill-opacity="1" stroke="none" d="m 0,1020.3622 0,8 256,0 0,-8 z" opacity=".15"/><path id="path3015" fill="#000" fill-opacity="1" stroke="none" d="m 132,844.3622 -12,24 -120,0 0,8 124,0 12,-24 107.75,0.5 c 6.09524,0 12.25,6.1324 12.25,12.25 l 0,-8 c 0,-6.1176 -6.15476,-12.25 -12.25,-12.25 z" opacity=".03"/><path style="line-height:normal" id="path3002" fill="#2a74b9" fill-opacity="1" d="m 120.44444,900.3622 c -2.66218,0 -4.88889,2.1156 -4.88889,4.7784 v 6.222 c -1.68319,0.57 -3.31644,1.2216 -4.88888,1.9992 l -4.33351,-4.3324 c -1.88245,-1.8824 -4.89529,-1.8824 -6.777596,0 l -10.888896,10.7772 c -1.882456,1.8828 -1.882456,4.896 0,6.7776 l 4.333508,4.3336 c -0.797652,1.5996 -1.424468,3.2852 -2,4.9992 h -6.11128 C 82.226696,935.917 80,938.0334 80,940.6954 v 15.3336 c 0,2.6624 2.226696,4.7784 4.888896,4.7784 h 6.11128 c 0.57546,1.7144 1.202384,3.3996 2,4.9992 l -4.333508,4.334 c -1.882456,1.8828 -1.882456,4.8948 0,6.7776 l 10.888896,10.7772 c 1.882456,1.882 4.895286,1.882 6.777596,0 l 4.33351,-4.3328 c 1.57244,0.78 3.20569,1.4336 4.88888,1.9992 v 6.222 c 0,2.6628 2.22675,4.7784 4.88889,4.7784 h 15.22204 c 2.66219,0 4.77796,-2.1156 4.77796,-4.7784 v -6.222 c 1.71492,-0.576 3.40026,-1.2024 4.99982,-1.9992 l 4.33352,4.3328 c 1.88245,1.882 4.8953,1.882 6.7776,0 l 10.8889,-10.7772 c 1.88245,-1.8828 1.8824,-4.896 0,-6.7776 l -4.44445,-4.4444 c 0.77897,-1.5724 1.43509,-3.2056 2,-4.8888 h 6.22222 c 2.66219,0 4.77795,-2.116 4.77795,-4.7784 v -15.3336 c 0,-2.662 -2.11563,-4.7784 -4.77795,-4.7784 h -6.22222 c -0.5649,-1.6828 -1.22101,-3.316 -2,-4.8888 l 4.44445,-4.444 c 1.88245,-1.8828 1.88245,-4.8948 0,-6.7776 l -10.8889,-10.7772 c -1.88246,-1.8824 -4.8953,-1.8824 -6.7776,0 l -4.33352,4.3324 c -1.59974,-0.7992 -3.28508,-1.4232 -4.99982,-1.9992 v -6.222 c 0,-2.6628 -2.11562,-4.7784 -4.77796,-4.7784 h -15.22204 z m 7.55555,35.5548 c 6.86934,0 12.44445,5.576 12.44445,12.446 0,6.8688 -5.57511,12.4444 -12.44445,12.4444 -6.86933,0 -12.44444,-5.5756 -12.44444,-12.4444 0,-6.87 5.57511,-12.446 12.44444,-12.446 z" color="#000" display="block" opacity="1"/></g></svg>