<svg xmlns="http://www.w3.org/2000/svg" xmlns:svg="http://www.w3.org/2000/svg" id="svg2" width="256" height="256" version="1.1"><metadata id="metadata7"/><g id="layer1" transform="translate(0,-796.3622)"><rect id="rect3804" width="12" height="28" x="122" y="941.362" fill="#e95c36" fill-opacity="1" stroke="none"/><rect id="rect3802" width="12" height="28" x="122" y="876.362" fill="#e95c36" fill-opacity="1" stroke="none"/><rect id="rect3000" width="210" height="50" x="23" y="964.362" fill="#21a6d7" fill-opacity="1" stroke="none" rx="10" ry="10"/><rect id="rect2998" width="210" height="50" x="23" y="899.362" fill="#e95c36" fill-opacity="1" stroke="none" rx="10" ry="10"/><rect id="rect2992" width="210" height="50" x="23" y="834.362" fill="#21a6d7" fill-opacity="1" stroke="none" rx="10" ry="10"/><rect id="rect3806" width="105" height="20" x="38" y="849.362" fill="#f9f9f9" fill-opacity="1" stroke="none"/><path id="path3808" fill="#f9f9f9" fill-opacity="1" stroke="none" d="m -5,17 a 2,2 0 1 1 -4,0 2,2 0 1 1 4,0 z" transform="matrix(5,0,0,5,208,774.36229)"/><path id="path3810" fill="#f9f9f9" fill-opacity="1" stroke="none" d="m -5,17 a 2,2 0 1 1 -4,0 2,2 0 1 1 4,0 z" transform="matrix(5,0,0,5,243,774.36229)"/><rect id="rect3812" width="105" height="20" x="38" y="979.362" fill="#f9f9f9" fill-opacity="1" stroke="none"/><path id="path3814" fill="#f9f9f9" fill-opacity="1" stroke="none" d="m -5,17 a 2,2 0 1 1 -4,0 2,2 0 1 1 4,0 z" transform="matrix(5,0,0,5,208,904.36229)"/><path id="path3816" fill="#f9f9f9" fill-opacity="1" stroke="none" d="m -5,17 a 2,2 0 1 1 -4,0 2,2 0 1 1 4,0 z" transform="matrix(5,0,0,5,243,904.36229)"/><rect id="rect3818" width="105" height="20" x="38" y="914.362" fill="#f9f9f9" fill-opacity="1" stroke="none"/><path id="path3820" fill="#f9f9f9" fill-opacity="1" stroke="none" d="m -5,17 a 2,2 0 1 1 -4,0 2,2 0 1 1 4,0 z" transform="matrix(5,0,0,5,208,839.36229)"/><path id="path3822" fill="#f9f9f9" fill-opacity="1" stroke="none" d="m -5,17 a 2,2 0 1 1 -4,0 2,2 0 1 1 4,0 z" transform="matrix(5,0,0,5,243,839.36229)"/></g></svg>