<svg xmlns="http://www.w3.org/2000/svg" xmlns:svg="http://www.w3.org/2000/svg" xmlns:xlink="http://www.w3.org/1999/xlink" id="svg2" width="128" height="128" version="1.1"><defs id="defs4"><linearGradient id="linearGradient3809"><stop id="stop3811" offset="0" stop-color="#000" stop-opacity="1"/><stop id="stop3813" offset="1" stop-color="#000" stop-opacity="0"/></linearGradient><radialGradient id="radialGradient3981" cx="32.5" cy="56.5" r="33.5" fx="32.5" fy="56.5" gradientTransform="matrix(1,0,0,0.10447761,0,50.597015)" gradientUnits="userSpaceOnUse" xlink:href="#linearGradient3958"/><linearGradient id="linearGradient3958"><stop id="stop3960" offset="0" stop-color="#000" stop-opacity="1"/><stop id="stop3962" offset="1" stop-color="#000" stop-opacity="0"/></linearGradient><radialGradient id="radialGradient3964" cx="32.5" cy="56.5" r="33.5" fx="32.5" fy="56.5" gradientTransform="matrix(1,0,0,0.10447761,0,50.597015)" gradientUnits="userSpaceOnUse" xlink:href="#linearGradient3958"/><radialGradient id="radialGradient3815" cx="-9" cy="93.5" r="15" fx="-9" fy="93.5" gradientTransform="matrix(1,0,0,0.36666667,0,59.216667)" gradientUnits="userSpaceOnUse" xlink:href="#linearGradient3809"/></defs><metadata id="metadata7"/><g id="layer1" transform="translate(0,-924.3622)"><path id="path3031" fill="url(#radialGradient3815)" fill-opacity="1" stroke="none" d="m 6,93.5 a 15,5.5 0 1 1 -30,0 15,5.5 0 1 1 30,0 z" opacity=".6" transform="matrix(6.6666667,0,0,4.5454545,124,604.3622)"/><rect id="rect3048" width="100" height="76" x="14" y="928.362" fill="#eae7d1" fill-opacity="1" stroke="none" rx="4" ry="4"/><rect id="rect3876" width="80" height="4" x="24" y="974.362" fill="#7a7a68" fill-opacity="1" stroke="none"/><path id="rect2987" fill="#5a9be7" fill-opacity="1" stroke="none" d="m 128,978.7152 0,69.647 -128,0 0,-64 60,0 6,-12 55.90476,0.2352 c 3.04762,0 6.09524,3.059 6.09524,6.1178 z"/><path id="path3794" fill="#000" fill-opacity="1" stroke="none" d="m 0,1044.3622 0,4 128,0 0,-4 z" opacity=".15"/><path id="path3015" fill="#000" fill-opacity="1" stroke="none" d="m 66,972.3622 -6,12 -60,0 0,4 62,0 6,-12 53.875,0.25 c 3.04762,0 6.125,3.0662 6.125,6.125 l 0,-4 c 0,0 -3.07738,-6.125 -6.125,-6.125 z" opacity=".03"/><rect id="rect3812" width="80" height="4" x="24" y="964.362" fill="#7a7a68" fill-opacity="1" stroke="none"/><rect id="rect3794" width="80" height="4" x="24" y="934.362" fill="#7a7a68" fill-opacity="1" stroke="none"/><rect id="rect3808" width="80" height="4" x="24" y="944.362" fill="#7a7a68" fill-opacity="1" stroke="none"/><rect id="rect3810" width="80" height="4" x="24" y="954.362" fill="#7a7a68" fill-opacity="1" stroke="none"/></g></svg>