<svg xmlns="http://www.w3.org/2000/svg" xmlns:svg="http://www.w3.org/2000/svg" xmlns:xlink="http://www.w3.org/1999/xlink" id="svg2" width="128" height="128" version="1.1"><defs id="defs4"><linearGradient id="linearGradient3809"><stop id="stop3811" offset="0" stop-color="#000" stop-opacity="1"/><stop id="stop3813" offset="1" stop-color="#000" stop-opacity="0"/></linearGradient><radialGradient id="radialGradient3981" cx="32.5" cy="56.5" r="33.5" fx="32.5" fy="56.5" gradientTransform="matrix(1,0,0,0.10447761,0,50.597015)" gradientUnits="userSpaceOnUse" xlink:href="#linearGradient3958"/><linearGradient id="linearGradient3958"><stop id="stop3960" offset="0" stop-color="#000" stop-opacity="1"/><stop id="stop3962" offset="1" stop-color="#000" stop-opacity="0"/></linearGradient><radialGradient id="radialGradient3964" cx="32.5" cy="56.5" r="33.5" fx="32.5" fy="56.5" gradientTransform="matrix(1,0,0,0.10447761,0,50.597015)" gradientUnits="userSpaceOnUse" xlink:href="#linearGradient3958"/><radialGradient id="radialGradient3815" cx="-9" cy="93.5" r="15" fx="-9" fy="93.5" gradientTransform="matrix(1,0,0,0.36666667,0,59.216667)" gradientUnits="userSpaceOnUse" xlink:href="#linearGradient3809"/></defs><metadata id="metadata7"/><g id="layer1" transform="translate(0,-924.3622)"><path id="path3031" fill="url(#radialGradient3815)" fill-opacity="1" stroke="none" d="M 6,93.5 A 15,5.5 0 0 1 -9,99 15,5.5 0 0 1 -24,93.5 15,5.5 0 0 1 -9,88 15,5.5 0 0 1 6,93.5 Z" opacity=".6" transform="matrix(6.6666667,0,0,4.5454545,124,596.3622)"/><path id="path3029" fill="#1976d2" fill-opacity="1" stroke="none" d="m 0,942.47986 0,85.64694 128,0 0,-42.8234 -6.09524,-36.706 L 74,948.3622 l -6,-12 -61.904762,0 C 3.04762,936.3622 0,939.42102 0,942.47986 z"/><rect id="rect3799" width="63.143" height="23.765" x="10" y="952.362" fill="#f2f2f2" fill-opacity="1" stroke="none"/><path id="path3790" fill="#000" fill-opacity="1" stroke="none" d="m 6.125,936.3622 c -3.047618,0 -6.125,3.06616 -6.125,6.125 l 0,4 c 0,-3.05884 3.077382,-6.125 6.125,-6.125 l 59.875,0 6,12 49.875,0.25 6.125,36.6875 0,-4 -6.125,-36.6875 -47.875,-0.25 -6,-12 z" opacity=".03"/><path id="rect2987" fill="#5a9be7" fill-opacity="1" stroke="none" d="m 128,954.7152 0,85.647 -128,0 0,-80 60,0 6,-12 55.90476,0.2352 c 3.04762,0 6.09524,3.059 6.09524,6.1178 z"/><path id="path3794" fill="#000" fill-opacity="1" stroke="none" d="m 0,1036.3622 0,4 128,0 0,-4 z" opacity=".15"/><path id="path3801" fill="none" stroke="none" d="m 67.04762,951.6564 -15.238098,9.1764 9.142858,0 z"/><path id="path3015" fill="#000" fill-opacity="1" stroke="none" d="m 66,948.3622 -6,12 -60,0 0,4 62,0 6,-12 53.875,0.25 c 3.04762,0 6.125,3.0662 6.125,6.125 l 0,-4 c 0,-3.0588 -3.07738,-6.125 -6.125,-6.125 z" opacity=".03"/><path id="rect3865-5" fill="#2a74b9" fill-opacity="1" fill-rule="evenodd" stroke="none" d="m 52,976.3622 c -2,0 -4,2 -4,4 l 32.000002,0 c 0,-2 -2,-4 -4,-4 L 52,976.3622 Z m -4,6 0,36 32.000002,0 0,-36 -32.000002,0 z m 6,4 20.000002,0 0,4 -20.000002,0 0,-4 z m 0,8 20.000002,0 0,4 -20.000002,0 0,-4 z m 10.000001,8 c 2.209138,0 4,1.7908 4,4 0,2.2092 -1.790862,4 -4,4 -2.209138,0 -4,-1.7908 -4,-4 0,-2.2092 1.790862,-4 4,-4 z M 48,1020.3622 c 0,2 2,4 4,4 l 24.000002,0 c 2,0 4,-2 4,-4 l -32.000002,0 z" opacity="1.004"/></g></svg>