<svg xmlns="http://www.w3.org/2000/svg" xmlns:svg="http://www.w3.org/2000/svg" xmlns:xlink="http://www.w3.org/1999/xlink" id="svg2" width="128" height="128" version="1.1"><defs id="defs4"><linearGradient id="linearGradient3809"><stop id="stop3811" offset="0" stop-color="#000" stop-opacity="1"/><stop id="stop3813" offset="1" stop-color="#000" stop-opacity="0"/></linearGradient><linearGradient id="linearGradient3958"><stop id="stop3960" offset="0" stop-color="#000" stop-opacity="1"/><stop id="stop3962" offset="1" stop-color="#000" stop-opacity="0"/></linearGradient><radialGradient id="radialGradient3964" cx="32.5" cy="56.5" r="33.5" fx="32.5" fy="56.5" gradientTransform="matrix(1,0,0,0.10447761,0,50.597015)" gradientUnits="userSpaceOnUse" xlink:href="#linearGradient3958"/><radialGradient id="radialGradient3815" cx="-9" cy="93.5" r="15" fx="-9" fy="93.5" gradientTransform="matrix(1,0,0,0.36666667,0,59.216667)" gradientUnits="userSpaceOnUse" xlink:href="#linearGradient3809"/><linearGradient id="linearGradient3958-1"><stop id="stop3960-9" offset="0" stop-color="#000" stop-opacity="1"/><stop id="stop3962-9" offset="1" stop-color="#000" stop-opacity="0"/></linearGradient><radialGradient id="radialGradient3964-3" cx="32.5" cy="56.5" r="33.5" fx="32.5" fy="56.5" gradientTransform="matrix(1,0,0,0.10447761,0,50.597015)" gradientUnits="userSpaceOnUse" xlink:href="#linearGradient3958-1"/></defs><metadata id="metadata7"/><g id="layer1" transform="translate(0,-924.3622)"><path id="path3031" fill="url(#radialGradient3815)" fill-opacity="1" stroke="none" d="m 6,93.5 a 15,5.5 0 1 1 -30,0 15,5.5 0 1 1 30,0 z" opacity=".6" transform="matrix(6.6666667,0,0,4.5454545,124,596.3622)"/><path id="path3029" fill="#1976d2" fill-opacity="1" stroke="none" d="m 0,942.4798 0,85.647 128,0 0,-42.8234 -6.09524,-36.706 L 74,948.3622 l -6,-12 -61.904762,0 C 3.04762,936.3622 0,939.421 0,942.4798 z"/><rect id="rect3799" width="63.143" height="23.765" x="10" y="952.362" fill="#f2f2f2" fill-opacity="1" stroke="none"/><path id="path3790" fill="#000" fill-opacity="1" stroke="none" d="m 6.125,936.3622 c -3.047618,0 -6.125,3.0662 -6.125,6.125 l 0,4 c 0,-3.0588 3.077382,-6.125 6.125,-6.125 l 59.875,0 6,12 49.875,0.25 6.125,36.6876 0,-4 -6.125,-36.6876 -47.875,-0.25 -6,-12 z" opacity=".03"/><path id="rect2987" fill="#5a9be7" fill-opacity="1" stroke="none" d="m 128,954.7152 0,85.647 -128,0 0,-80 60,0 6,-12 55.90476,0.2352 c 3.04762,0 6.09524,3.059 6.09524,6.1178 z"/><path id="path3794" fill="#000" fill-opacity="1" stroke="none" d="m 0,1036.3622 0,4 128,0 0,-4 z" opacity=".15"/><path id="path3015" fill="#000" fill-opacity="1" stroke="none" d="m 66,948.3622 -6,12 -60,0 0,4 62,0 6,-12 53.875,0.25 c 3.04762,0 6.125,3.0662 6.125,6.125 l 0,-4 c 0,-3.0588 -3.07738,-6.125 -6.125,-6.125 z" opacity=".03"/><path id="path3007" fill="#2a74b9" fill-opacity="1" stroke="none" d="m 17,38 a 3,3 0 1 1 -6,0 3,3 0 1 1 6,0 z" opacity="1" transform="matrix(2,0,0,2,4,922.3622)"/><path id="path3030" fill="#2a74b9" fill-opacity="1" stroke="none" d="m 64,974.3622 c -4.584028,0 -8.859794,1.2652 -12.5,3.5 l 5.9375,5.9376 c 2.003182,-0.9026 4.22282,-1.4376 6.5625,-1.4376 8.156576,0 14.887378,6.1112 15.875,14 l 8,0 c -0.324908,-3.8392 -1.522404,-7.4508 -3.4375,-10.5624 -0.751414,0.3386 -1.55979,0.5624 -2.4375,0.5624 -3.313708,0 -6,-2.6862 -6,-6 0,-0.8778 0.223832,-1.686 0.5625,-2.4374 C 72.908574,975.676 68.605218,974.3622 64,974.3622 z m -15.6875,5.9376 c -3.757964,3.2764 -6.531778,7.6626 -7.6875,12.6874 1.990566,0.9764 3.375,3.0082 3.375,5.375 0,2.3668 -1.384434,4.3986 -3.375,5.375 1.24513,5.4134 4.283486,10.1656 8.5,13.5 l 5.75,-5.75 C 50.724514,1008.5966 48,1003.8036 48,998.3622 c 0,-5.0206 2.319624,-9.504 5.9375,-12.4374 l -5.625,-5.625 z m 31.5625,20.0624 c -0.987622,7.8888 -7.718424,14 -15.875,14 -1.891576,0 -3.690612,-0.3974 -5.375,-1 l -6.0625,6.0626 c 3.403846,1.8598 7.285574,2.9374 11.4375,2.9374 3.025482,0 5.896464,-0.5408 8.5625,-1.5624 C 72.223832,1020.0482 72,1019.24 72,1018.3622 c 0,-3.3138 2.686292,-6 6,-6 1.608124,0 3.047716,0.6576 4.125,1.6876 3.240946,-3.7416 5.318512,-8.4626 5.75,-13.6876 l -8,0 z" opacity="1"/><path id="path3046" fill="#2a74b9" fill-opacity="1" stroke="none" d="m 17,38 a 3,3 0 1 1 -6,0 3,3 0 1 1 6,0 z" opacity="1" transform="matrix(2,0,0,2,58,900.3622)"/><path id="path3050" fill="#2a74b9" fill-opacity="1" stroke="none" d="m 17,38 a 3,3 0 1 1 -6,0 3,3 0 1 1 6,0 z" opacity="1" transform="matrix(2,0,0,2,54,946.3622)"/></g></svg>