<svg xmlns="http://www.w3.org/2000/svg" xmlns:svg="http://www.w3.org/2000/svg" xmlns:xlink="http://www.w3.org/1999/xlink" id="svg2" width="128" height="128" version="1.1"><defs id="defs4"><linearGradient id="linearGradient3809"><stop id="stop3811" offset="0" stop-color="#000" stop-opacity="1"/><stop id="stop3813" offset="1" stop-color="#000" stop-opacity="0"/></linearGradient><radialGradient id="radialGradient3981" cx="32.5" cy="56.5" r="33.5" fx="32.5" fy="56.5" gradientTransform="matrix(1,0,0,0.10447761,0,50.597015)" gradientUnits="userSpaceOnUse" xlink:href="#linearGradient3958"/><linearGradient id="linearGradient3958"><stop id="stop3960" offset="0" stop-color="#000" stop-opacity="1"/><stop id="stop3962" offset="1" stop-color="#000" stop-opacity="0"/></linearGradient><radialGradient id="radialGradient3964" cx="32.5" cy="56.5" r="33.5" fx="32.5" fy="56.5" gradientTransform="matrix(1,0,0,0.10447761,0,50.597015)" gradientUnits="userSpaceOnUse" xlink:href="#linearGradient3958"/><radialGradient id="radialGradient3815" cx="-9" cy="93.5" r="15" fx="-9" fy="93.5" gradientTransform="matrix(1,0,0,0.36666667,0,59.216667)" gradientUnits="userSpaceOnUse" xlink:href="#linearGradient3809"/><radialGradient id="radialGradient3981-1" cx="32.5" cy="56.5" r="33.5" fx="32.5" fy="56.5" gradientTransform="matrix(1,0,0,0.10447761,0,50.597015)" gradientUnits="userSpaceOnUse" xlink:href="#linearGradient3958-1"/><linearGradient id="linearGradient3958-1"><stop id="stop3960-9" offset="0" stop-color="#000" stop-opacity="1"/><stop id="stop3962-9" offset="1" stop-color="#000" stop-opacity="0"/></linearGradient><radialGradient id="radialGradient3964-3" cx="32.5" cy="56.5" r="33.5" fx="32.5" fy="56.5" gradientTransform="matrix(1,0,0,0.10447761,0,50.597015)" gradientUnits="userSpaceOnUse" xlink:href="#linearGradient3958-1"/></defs><metadata id="metadata7"/><g id="layer1" transform="translate(0,-924.3622)"><path id="path3031" fill="url(#radialGradient3815)" fill-opacity="1" stroke="none" d="m 6,93.5 a 15,5.5 0 1 1 -30,0 15,5.5 0 1 1 30,0 z" opacity=".6" transform="matrix(6.6666667,0,0,4.5454545,124,596.3622)"/><path id="path3029" fill="#1976d2" fill-opacity="1" stroke="none" d="m 0,942.47992 0,85.64698 128,0 0,-42.82344 -6.09524,-36.706 L 74,948.36226 l -6,-12 -61.904762,0 C 3.04762,936.36226 0,939.42108 0,942.47992 z"/><rect id="rect3799" width="63.143" height="23.765" x="10" y="952.362" fill="#f2f2f2" fill-opacity="1" stroke="none"/><path id="path3790" fill="#000" fill-opacity="1" stroke="none" d="m 6.125,936.36226 c -3.047618,0 -6.125,3.06616 -6.125,6.125 l 0,4 c 0,-3.05884 3.077382,-6.125 6.125,-6.125 l 59.875,0 6,12 49.875,0.25 6.125,36.68754 0,-4.00004 -6.125,-36.6875 -47.875,-0.25 -6,-12 z" opacity=".03"/><path id="rect2987" fill="#5a9be7" fill-opacity="1" stroke="none" d="m 128,954.71526 0,85.64694 -128,0 0,-79.99994 60,0 6,-12 55.90476,0.2352 c 3.04762,0 6.09524,3.059 6.09524,6.1178 z"/><path id="path3794" fill="#000" fill-opacity="1" stroke="none" d="m 0,1036.3623 0,3.9999 128,0 0,-3.9999 z" opacity=".15"/><path id="path3801" fill="none" stroke="none" d="m 67.04762,951.65646 -15.238096,9.1764 9.142856,0 z"/><g id="g3768" fill="#2a74b9" fill-opacity="1" opacity="1" transform="matrix(4,0,0,4,32,968.36226)"><path id="rect2991-3" fill="#2a74b9" fill-opacity="1" stroke="none" d="M 4,1 C 2.892,1 2,1.892 2,3 l 0,10 c 0,1.108 0.892,2 2,2 l 8,0 c 1.108,0 2,-0.892 2,-2 L 14,6 9,1 z m 0,2 6,0 1,1 1,1 0,8 -8,0 z"/><path id="path2997" fill="#2a74b9" fill-opacity="1" stroke="none" d="m 9,1 0,5 5,0 z"/><rect id="rect3767" width="4" height="1" x="5" y="7" fill="#2a74b9" fill-opacity="1" stroke="none" rx=".25" ry=".25"/><rect id="rect3771" width="6" height="1" x="5" y="9" fill="#2a74b9" fill-opacity="1" stroke="none" rx=".25" ry=".25"/><rect id="rect3775" width="6" height="1" x="5" y="11" fill="#2a74b9" fill-opacity="1" stroke="none" rx=".25" ry=".25"/></g><path id="path3015" fill="#000" fill-opacity="1" stroke="none" d="m 66,948.36226 -6,12 -60,0 0,4 62,0 6,-12 53.875,0.25 c 3.04762,0 6.125,3.0662 6.125,6.125 l 0,-4 c 0,-3.0588 -3.07738,-6.125 -6.125,-6.125 z" opacity=".03"/></g></svg>