<svg xmlns="http://www.w3.org/2000/svg" xmlns:svg="http://www.w3.org/2000/svg" xmlns:xlink="http://www.w3.org/1999/xlink" id="svg2" width="128" height="128" version="1.1"><defs id="defs4"><linearGradient id="linearGradient3809"><stop id="stop3811" offset="0" stop-color="#000" stop-opacity="1"/><stop id="stop3813" offset="1" stop-color="#000" stop-opacity="0"/></linearGradient><radialGradient id="radialGradient3981" cx="32.5" cy="56.5" r="33.5" fx="32.5" fy="56.5" gradientTransform="matrix(1,0,0,0.10447761,0,50.597015)" gradientUnits="userSpaceOnUse" xlink:href="#linearGradient3958"/><linearGradient id="linearGradient3958"><stop id="stop3960" offset="0" stop-color="#000" stop-opacity="1"/><stop id="stop3962" offset="1" stop-color="#000" stop-opacity="0"/></linearGradient><radialGradient id="radialGradient3964" cx="32.5" cy="56.5" r="33.5" fx="32.5" fy="56.5" gradientTransform="matrix(1,0,0,0.10447761,0,50.597015)" gradientUnits="userSpaceOnUse" xlink:href="#linearGradient3958"/><radialGradient id="radialGradient3815" cx="-9" cy="93.5" r="15" fx="-9" fy="93.5" gradientTransform="matrix(1,0,0,0.36666667,0,59.216667)" gradientUnits="userSpaceOnUse" xlink:href="#linearGradient3809"/></defs><metadata id="metadata7"/><g id="layer1" transform="translate(0,-924.3622)"><path id="path3031" fill="url(#radialGradient3815)" fill-opacity="1" stroke="none" d="M 6,93.5 A 15,5.5 0 0 1 -9,99 15,5.5 0 0 1 -24,93.5 15,5.5 0 0 1 -9,88 15,5.5 0 0 1 6,93.5 Z" opacity=".6" transform="matrix(6.6666667,0,0,4.5454545,124,596.3622)"/><path id="path3029" fill="#1976d2" fill-opacity="1" stroke="none" d="m 0,942.47986 0,85.64694 128,0 0,-42.8234 -6.09524,-36.706 L 74,948.3622 l -6,-12 -61.904762,0 C 3.04762,936.3622 0,939.42102 0,942.47986 z"/><rect id="rect3799" width="63.143" height="23.765" x="10" y="952.362" fill="#f2f2f2" fill-opacity="1" stroke="none"/><path id="path3790" fill="#000" fill-opacity="1" stroke="none" d="m 6.125,936.3622 c -3.047618,0 -6.125,3.06616 -6.125,6.125 l 0,4 c 0,-3.05884 3.077382,-6.125 6.125,-6.125 l 59.875,0 6,12 49.875,0.25 6.125,36.6875 0,-4 -6.125,-36.6875 -47.875,-0.25 -6,-12 z" opacity=".03"/><path id="rect2987" fill="#5a9be7" fill-opacity="1" stroke="none" d="m 128,954.7152 0,85.647 -128,0 0,-80 60,0 6,-12 55.90476,0.2352 c 3.04762,0 6.09524,3.059 6.09524,6.1178 z"/><path id="path3794" fill="#000" fill-opacity="1" stroke="none" d="m 0,1036.3622 0,4 128,0 0,-4 z" opacity=".15"/><path id="path3801" fill="none" stroke="none" d="m 67.04762,951.6564 -15.238098,9.1764 9.142858,0 z"/><path id="path3015" fill="#000" fill-opacity="1" stroke="none" d="m 66,948.3622 -6,12 -60,0 0,4 62,0 6,-12 53.875,0.25 c 3.04762,0 6.125,3.0662 6.125,6.125 l 0,-4 c 0,-3.0588 -3.07738,-6.125 -6.125,-6.125 z" opacity=".03"/><path id="path3447" fill="#2a74b9" fill-opacity="1" fill-rule="nonzero" stroke="none" d="m 79.511635,974.359 c -6.564392,0 -11.932385,5.479 -11.932385,12.2086 0,2.2584 0.649118,4.3922 1.704628,6.2178 l 0,13.2262 c -1.300092,0.2776 -2.501186,0.8836 -3.515788,1.6958 l -11.825837,-5.4262 c 0,-4.7994 -3.836372,-8.705 -8.52312,-8.705 -4.678369,0 -8.523133,3.9032 -8.523133,8.705 0,4.8088 3.842668,8.8174 8.523133,8.8174 1.898132,0 3.691698,-0.7194 5.113872,-1.8086 l 11.932379,5.5388 c 0.123,4.7008 3.919306,8.4784 8.523123,8.4784 4.686754,0 8.523128,-3.896 8.523128,-8.7044 0,-2.0032 -0.693672,-3.8334 -1.811164,-5.3128 l 0.10656,0 6.285811,-11.4178 c 0.04486,-0.048 0.06194,-0.094 0.10656,-0.11 4.207028,-1.9004 7.24466,-6.196 7.24466,-11.1914 0,-6.7228 -5.376376,-12.209 -11.932381,-12.209 z m 0,4.0692 c 4.409829,0 7.883891,3.618 7.883891,8.1394 0,4.5298 -3.476162,8.139 -7.883891,8.139 -4.41612,0 -7.883894,-3.6092 -7.883894,-8.139 0,-4.5214 3.467774,-8.1394 7.883894,-8.1394 z m 0,2.9398 c -2.819608,0 -5.11388,2.295 -5.11388,5.1996 0,2.8932 2.294272,5.2 5.11388,5.2 2.827998,0 5.113877,-2.304 5.113877,-5.2 0,-2.9028 -2.285879,-5.1996 -5.113877,-5.1996 z m -34.092504,15.7132 c 2.79934,0 4.39571,1.1584 4.900796,3.504 l -2.9831,-1.3572 c -1.934282,-0.8436 -4.187055,0.048 -5.007335,2.035 -0.820288,1.984 0.08992,4.2526 2.024239,5.0878 l 2.237324,1.1298 c -0.373512,0.062 -0.745004,0.11 -1.171924,0.11 -3.409129,0 -5.113881,-1.8086 -5.113881,-5.312 0,-3.4952 1.704752,-5.2006 5.113881,-5.2006 z m 25.569376,11.6436 c 3.155266,0 5.64657,2.6434 5.64657,5.878 0,3.2344 -2.491304,5.7652 -5.64657,5.7652 -2.562253,0 -4.725449,-1.6898 -5.433495,-4.07 l 4.04849,1.8096 c 1.934279,0.8432 4.187049,-0.156 5.007335,-2.1484 0.820282,-1.9834 -0.08996,-4.252 -2.024242,-5.0866 l -3.728869,-1.6962 c 0.653206,-0.2696 1.380146,-0.4488 2.130781,-0.4488 z" opacity="1"/></g></svg>