<svg xmlns="http://www.w3.org/2000/svg" xmlns:svg="http://www.w3.org/2000/svg" xmlns:xlink="http://www.w3.org/1999/xlink" id="svg2" width="128" height="128" version="1.1"><defs id="defs4"><linearGradient id="linearGradient3809"><stop id="stop3811" offset="0" stop-color="#000" stop-opacity="1"/><stop id="stop3813" offset="1" stop-color="#000" stop-opacity="0"/></linearGradient><linearGradient id="linearGradient3958"><stop id="stop3960" offset="0" stop-color="#000" stop-opacity="1"/><stop id="stop3962" offset="1" stop-color="#000" stop-opacity="0"/></linearGradient><radialGradient id="radialGradient3964" cx="32.5" cy="56.5" r="33.5" fx="32.5" fy="56.5" gradientTransform="matrix(1,0,0,0.10447761,0,50.597015)" gradientUnits="userSpaceOnUse" xlink:href="#linearGradient3958"/><radialGradient id="radialGradient3815" cx="-9" cy="93.5" r="15" fx="-9" fy="93.5" gradientTransform="matrix(1,0,0,0.36666667,0,59.216667)" gradientUnits="userSpaceOnUse" xlink:href="#linearGradient3809"/><linearGradient id="linearGradient3958-1"><stop id="stop3960-9" offset="0" stop-color="#000" stop-opacity="1"/><stop id="stop3962-9" offset="1" stop-color="#000" stop-opacity="0"/></linearGradient><radialGradient id="radialGradient3964-3" cx="32.5" cy="56.5" r="33.5" fx="32.5" fy="56.5" gradientTransform="matrix(1,0,0,0.10447761,0,50.597015)" gradientUnits="userSpaceOnUse" xlink:href="#linearGradient3958-1"/></defs><metadata id="metadata7"/><g id="layer1" transform="translate(0,-924.3622)"><path id="path3031" fill="url(#radialGradient3815)" fill-opacity="1" stroke="none" d="m 6,93.5 a 15,5.5 0 1 1 -30,0 15,5.5 0 1 1 30,0 z" opacity=".6" transform="matrix(6.6666667,0,0,4.5454545,124,596.3622)"/><path id="path3029" fill="#1976d2" fill-opacity="1" stroke="none" d="m 0,942.4798 0,85.647 128,0 0,-42.8234 -6.09524,-36.706 L 74,948.3622 l -6,-12 -61.90476,0 C 3.04762,936.3622 0,939.421 0,942.4798 z"/><rect id="rect3799" width="63.143" height="23.765" x="10" y="952.362" fill="#f2f2f2" fill-opacity="1" stroke="none"/><path id="path3790" fill="#000" fill-opacity="1" stroke="none" d="m 6.125,936.3622 c -3.04762,0 -6.125,3.0662 -6.125,6.125 l 0,4 c 0,-3.0588 3.07738,-6.125 6.125,-6.125 l 59.875,0 6,12 49.875,0.25 6.125,36.6876 0,-4 -6.125,-36.6876 -47.875,-0.25 -6,-12 z" opacity=".03"/><path id="rect2987" fill="#5a9be7" fill-opacity="1" stroke="none" d="m 128,954.7152 0,85.647 -128,0 0,-80 60,0 6,-12 55.90476,0.2352 c 3.04762,0 6.09524,3.059 6.09524,6.1178 z"/><path id="path3794" fill="#000" fill-opacity="1" stroke="none" d="m 0,1036.3622 0,4 128,0 0,-4 z" opacity=".15"/><path id="path3015" fill="#000" fill-opacity="1" stroke="none" d="m 66,948.3622 -6,12 -60,0 0,4 62,0 6,-12 53.875,0.25 c 3.04762,0 6.125,3.0662 6.125,6.125 l 0,-4 c 0,-3.0588 -3.07738,-6.125 -6.125,-6.125 z" opacity=".03"/><path style="line-height:normal" id="path3002" fill="#2a74b9" fill-opacity="1" d="m 60.222222,976.3622 c -1.33109,0 -2.444448,1.0578 -2.444448,2.3892 v 3.111 c -0.841592,0.285 -1.65822,0.6108 -2.444438,0.9996 l -2.166756,-2.1662 c -0.941226,-0.9412 -2.447644,-0.9412 -3.388798,0 l -5.444448,5.3886 c -0.941228,0.9414 -0.941228,2.448 0,3.3888 l 2.166754,2.1668 c -0.398826,0.7998 -0.712234,1.6426 -1,2.4996 h -3.05564 C 41.113348,994.1396 40,995.1978 40,996.5288 v 7.6668 c 0,1.3312 1.113348,2.3892 2.444448,2.3892 h 3.05564 c 0.28773,0.8572 0.601192,1.6998 1,2.4996 l -2.166754,2.167 c -0.941228,0.9414 -0.941228,2.4474 0,3.3888 l 5.444448,5.3886 c 0.941226,0.941 2.447644,0.941 3.388798,0 l 2.166756,-2.1664 c 0.786218,0.39 1.602846,0.7168 2.444438,0.9996 v 3.111 c 0,1.3314 1.113376,2.3892 2.444448,2.3892 h 7.611018 c 1.331094,0 2.388982,-1.0578 2.388982,-2.3892 v -3.111 c 0.85746,-0.288 1.700126,-0.6012 2.49991,-0.9996 l 2.166758,2.1664 c 0.941224,0.941 2.447648,0.941 3.3888,0 l 5.444448,-5.3886 c 0.941226,-0.9414 0.941204,-2.448 0,-3.3888 l -2.222224,-2.2222 c 0.389488,-0.7862 0.717544,-1.6028 1,-2.4444 h 3.11111 c 1.331094,0 2.388976,-1.058 2.388976,-2.3892 v -7.6668 c 2e-6,-1.331 -1.057816,-2.3892 -2.388976,-2.3892 h -3.11111 c -0.28245,-0.8414 -0.610506,-1.658 -1,-2.4444 l 2.222224,-2.222 c 0.941226,-0.9414 0.941226,-2.4474 0,-3.3888 l -5.444448,-5.3886 c -0.94123,-0.9412 -2.447648,-0.9412 -3.3888,0 l -2.166758,2.1662 c -0.79987,-0.3996 -1.642544,-0.7116 -2.49991,-0.9996 v -3.111 c 0,-1.3314 -1.057812,-2.3892 -2.388982,-2.3892 h -7.611018 z m 3.777774,17.7774 c 3.434668,0 6.222226,2.788 6.222226,6.223 0,3.4344 -2.787558,6.2222 -6.222226,6.2222 -3.434668,0 -6.222222,-2.7878 -6.222222,-6.2222 0,-3.435 2.787554,-6.223 6.222222,-6.223 z" color="#000" display="block" opacity="1"/></g></svg>