<svg xmlns="http://www.w3.org/2000/svg" xmlns:svg="http://www.w3.org/2000/svg" xmlns:xlink="http://www.w3.org/1999/xlink" id="svg2" width="128" height="128" version="1.1"><defs id="defs4"><linearGradient id="linearGradient3809"><stop id="stop3811" offset="0" stop-color="#000" stop-opacity="1"/><stop id="stop3813" offset="1" stop-color="#000" stop-opacity="0"/></linearGradient><linearGradient id="linearGradient3958"><stop id="stop3960" offset="0" stop-color="#000" stop-opacity="1"/><stop id="stop3962" offset="1" stop-color="#000" stop-opacity="0"/></linearGradient><radialGradient id="radialGradient3964" cx="32.5" cy="56.5" r="33.5" fx="32.5" fy="56.5" gradientTransform="matrix(1,0,0,0.10447761,0,50.597015)" gradientUnits="userSpaceOnUse" xlink:href="#linearGradient3958"/><radialGradient id="radialGradient3815" cx="-9" cy="93.5" r="15" fx="-9" fy="93.5" gradientTransform="matrix(1,0,0,0.36666667,0,59.216667)" gradientUnits="userSpaceOnUse" xlink:href="#linearGradient3809"/><linearGradient id="linearGradient3958-1"><stop id="stop3960-9" offset="0" stop-color="#000" stop-opacity="1"/><stop id="stop3962-9" offset="1" stop-color="#000" stop-opacity="0"/></linearGradient><radialGradient id="radialGradient3964-3" cx="32.5" cy="56.5" r="33.5" fx="32.5" fy="56.5" gradientTransform="matrix(1,0,0,0.10447761,0,50.597015)" gradientUnits="userSpaceOnUse" xlink:href="#linearGradient3958-1"/></defs><metadata id="metadata7"/><g id="layer1" transform="translate(0,-924.3622)"><path id="path3031" fill="url(#radialGradient3815)" fill-opacity="1" stroke="none" d="m 6,93.5 a 15,5.5 0 1 1 -30,0 15,5.5 0 1 1 30,0 z" opacity=".6" transform="matrix(6.6666667,0,0,4.5454545,124,596.3622)"/><path id="path3029" fill="#1976d2" fill-opacity="1" stroke="none" d="m 0,942.4798 0,85.647 128,0 0,-42.8234 -6.09524,-36.706 L 74,948.3622 l -6,-12 -61.904762,0 C 3.04762,936.3622 0,939.421 0,942.4798 z"/><rect id="rect3799" width="63.143" height="23.765" x="10" y="952.362" fill="#f2f2f2" fill-opacity="1" stroke="none"/><path id="path3790" fill="#000" fill-opacity="1" stroke="none" d="m 6.125,936.3622 c -3.047618,0 -6.125,3.0662 -6.125,6.125 l 0,4 c 0,-3.0588 3.077382,-6.125 6.125,-6.125 l 59.875,0 6,12 49.875,0.25 6.125,36.6876 0,-4 -6.125,-36.6876 -47.875,-0.25 -6,-12 z" opacity=".03"/><path id="rect2987" fill="#5a9be7" fill-opacity="1" stroke="none" d="m 128,954.7152 0,85.647 -128,0 0,-80 60,0 6,-12 55.90476,0.2352 c 3.04762,0 6.09524,3.059 6.09524,6.1178 z"/><path id="path3794" fill="#000" fill-opacity="1" stroke="none" d="m 0,1036.3622 0,4 128,0 0,-4 z" opacity=".15"/><path id="path3015" fill="#000" fill-opacity="1" stroke="none" d="m 66,948.3622 -6,12 -60,0 0,4 62,0 6,-12 53.875,0.25 c 3.04762,0 6.125,3.0662 6.125,6.125 l 0,-4 c 0,-3.0588 -3.07738,-6.125 -6.125,-6.125 z" opacity=".03"/><path id="path3974" fill="#2a74b9" fill-opacity="1" d="m 82.079254,976.3654 c -2.07277,0.032 -4.11189,1.3068 -4.438228,3.6826 -0.522144,3.802 3.39394,2.3762 6.526806,2.3762 3.132866,0 4.177154,6.178 3.39394,9.5044 -0.783218,3.3268 -9.110314,11.1842 -27.934734,3.3268 C 44.12859,988.7862 36.390502,997.3996 36,997.572 c 1.466746,12.8522 13.425412,26.7902 27.93473,26.7902 15.50002,0 28.06527,-15.3564 28.06527,-29.4634 0,-1.6202 -0.205208,-3.2158 -0.522146,-4.752 -0.288196,-0.7766 -0.571624,-1.5512 -0.783214,-2.2574 -0.37929,-1.2656 -0.807616,-2.3334 -1.174828,-3.3268 -0.0158,-0.032 0.0162,-0.086 0,-0.12 -1.483716,-2.999 -3.563952,-5.7102 -6.135196,-7.9602 -0.0118,-0.026 -0.05372,0.028 -0.06528,0 -0.401808,-0.094 -0.825538,-0.124 -1.240094,-0.12 z" color="#000" opacity="1" style="line-height:normal"/><path id="path3976" fill="#2a74b9" fill-opacity="1" d="m 76,988.3626 c 0,2.2092 -1.79086,3.9996 -4,3.9996 -2.20914,0 -4,-1.7904 -4,-3.9996 0,-2.2092 1.79086,-4.0004 4,-4.0004 2.20914,0 4,1.7912 4,4.0004 z" color="#000" opacity="1" style="line-height:normal"/><path id="path3978" fill="#2a74b9" fill-opacity="1" d="m 64,982.3622 c 0,1.1048 -0.895432,2 -2,2 -1.104568,0 -2,-0.8952 -2,-2 0,-1.1048 0.895432,-2 2,-2 1.104568,0 2,0.8952 2,2 z" color="#000" opacity="1" style="line-height:normal"/></g></svg>