<svg xmlns="http://www.w3.org/2000/svg" xmlns:svg="http://www.w3.org/2000/svg" id="svg2" width="128" height="128" version="1.1" viewBox="0 0 128 128"><metadata id="metadata20"/><path id="rect2999" fill="#5a9be7" fill-opacity="1" stroke="none" d="m 17.488318,38 93.023362,0 c 3.03147,0 5.72371,2.495522 5.47197,5.57143 l -5.47197,66.85715 C 110.25995,113.50448 108.07119,116 105.03972,116 l -82.079438,0 c -3.031469,0 -5.220214,-2.49552 -5.471964,-5.57144 L 12.016355,43.57143 C 11.764607,40.495522 14.456851,38 17.488318,38 z"/><path id="rect3769" fill="#1976d2" fill-opacity="1" stroke="none" d="M 12.181818,28 115.81818,28 C 121.27273,28 124,30.666666 124,36 l 0,8 -120,0 0,-8 c 0,-5.333334 2.7272728,-8 8.181818,-8 z"/><path id="path3776" fill="#1976d2" fill-opacity="1" stroke="none" d="M 50.363636,12 C 47.636364,12 44,15.263156 44,18 l 0,10 0,6 6,0 0,-5.473686 L 50,24 c 0,-3.05263 2,-6 6,-6 l 16,0 c 4,0 6,2 6,6 l 0,4 0,6 6,0 0,-6 0,-10 c 0,-2.736844 -3.636364,-6 -6.363636,-6 z"/><rect id="rect3785" width="12" height="50" x="58" y="58" fill="#1976d2" fill-opacity="1" stroke="none" rx="6" ry="5.556"/><path id="rect2992" fill="#000" fill-opacity="1" stroke="none" d="m 64,58 c -3.324,0 -6,2.484722 -6,5.5625 l 0,4 C 58,64.484722 60.676,62 64,62 c 3.324,0 6,2.484722 6,5.5625 l 0,-4 C 70,60.484722 67.324,58 64,58 z" opacity=".15"/><path id="rect3765" fill="#1976d2" fill-opacity="1" stroke="none" d="m 96.000686,58 c 3.324,0 6.469304,2.513768 6.000004,5.555556 l -6.000004,38.888884 c -0.469304,3.0418 -2.676,5.55556 -6,5.55556 -3.324,0 -6.469304,-2.51376 -6,-5.55556 l 6,-38.888884 C 90.46999,60.513768 92.676686,58 96.000686,58 z"/><path id="path3772" fill="#000" fill-opacity="1" stroke="none" d="m 96,58 c -3.324,0 -5.530696,2.520712 -6,5.5625 L 89.375,67.5 c 0.48851,-3.015332 2.69743,-5.5 6,-5.5 3.324,0 6.4693,2.520712 6,5.5625 l 0.625,-4 C 102.4693,60.520712 99.324,58 96,58 z" opacity=".15"/><path id="path3777" fill="#1976d2" fill-opacity="1" stroke="none" d="m 32.000686,58 c -3.324,0 -6.469304,2.513768 -6,5.555556 l 6,38.888884 c 0.469304,3.0418 2.676,5.55556 6,5.55556 3.324,0 6.469304,-2.51376 6,-5.55556 l -6,-38.888884 C 37.531382,60.513768 35.324686,58 32.000686,58 z"/><path id="path3779" fill="#000" fill-opacity="1" stroke="none" d="m 32.001372,58 c 3.324,0 5.530696,2.520712 6,5.5625 l 0.625,3.9375 c -0.48851,-3.015332 -2.69743,-5.5 -6,-5.5 -3.324,0 -6.469304,2.520712 -6,5.5625 l -0.625,-4 c -0.469304,-3.041788 2.676,-5.5625 6,-5.5625 z" opacity=".15"/><path id="path3781" fill="#000" fill-opacity="1" stroke="none" d="m 12.0625,44 0.625,8 102.625,0 0.625,-8 -103.875,0 z" opacity=".05"/></svg>