<?xml version="1.0" encoding="UTF-8" standalone="no"?>
<svg
   xmlns:dc="http://purl.org/dc/elements/1.1/"
   xmlns:cc="http://creativecommons.org/ns#"
   xmlns:rdf="http://www.w3.org/1999/02/22-rdf-syntax-ns#"
   xmlns:svg="http://www.w3.org/2000/svg"
   xmlns="http://www.w3.org/2000/svg"
   xmlns:sodipodi="http://sodipodi.sourceforge.net/DTD/sodipodi-0.dtd"
   xmlns:inkscape="http://www.inkscape.org/namespaces/inkscape"
   width="16"
   height="16"
   viewBox="0 0 16 16"
   id="svg2"
   version="1.1"
   inkscape:version="0.91 r13725"
   sodipodi:docname="user-trash-full-symbolic.svg">
  <metadata
     id="metadata20">
    <rdf:RDF>
      <cc:Work
         rdf:about="">
        <dc:format>image/svg+xml</dc:format>
        <dc:type
           rdf:resource="http://purl.org/dc/dcmitype/StillImage" />
      </cc:Work>
    </rdf:RDF>
  </metadata>
  <defs
     id="defs18" />
  <sodipodi:namedview
     pagecolor="#ffffff"
     bordercolor="#666666"
     borderopacity="1"
     objecttolerance="10"
     gridtolerance="10"
     guidetolerance="10"
     inkscape:pageopacity="0"
     inkscape:pageshadow="2"
     inkscape:window-width="1237"
     inkscape:window-height="821"
     id="namedview16"
     showgrid="true"
     inkscape:zoom="256"
     inkscape:cx="2.1477888"
     inkscape:cy="4.5625043"
     inkscape:window-x="2177"
     inkscape:window-y="49"
     inkscape:window-maximized="0"
     inkscape:current-layer="svg2">
    <inkscape:grid
       type="xygrid"
       id="grid2997" />
  </sodipodi:namedview>
  <path
     style="fill:#bebebe;fill-opacity:1;stroke:none"
     d="m 1.9999992,7 0,7 c 0,1.108 1.0704001,2 2.4000003,2 L 11.6,16 c 1.329601,0 2.4,-0.892 2.4,-2 l 0,-7 z m 4.2000005,2 c 0.3324002,0 0.6000002,0.223 0.6000002,0.5 l 0,4 c 0,0.277 -0.2676,0.5 -0.6000002,0.5 -0.3324,0 -0.6,-0.223 -0.6,-0.5 l 0,-4 c 0,-0.277 0.2676,-0.5 0.6,-0.5 z M 9.8000003,9 C 10.132401,9 10.4,9.223 10.4,9.5 l 0,4 c 0,0.277 -0.267599,0.5 -0.5999997,0.5 -0.3324001,0 -0.6,-0.223 -0.6,-0.5 l 0,-4 c 0,-0.277 0.2675999,-0.5 0.6,-0.5 z"
     id="rect2999"
     inkscape:connector-curvature="0"
     sodipodi:nodetypes="cssssccssssssssssssss" />
  <path
     style="fill:#bebebe;fill-opacity:1;stroke:none"
     d="M 1,6 15,6 C 16.166667,6 16.166667,6 15,4.5 13.833333,3 13.833333,3 12.666667,3 L 3.3333333,3 C 2.1666667,3 2.1666667,3 1,4.5 -0.16666667,6 -0.16666667,6 1,6 z"
     id="path3002"
     inkscape:connector-curvature="0"
     sodipodi:nodetypes="ccccccc" />
  <path
     style="fill:#bebebe;fill-opacity:1;stroke:none"
     d="M 8,0 C 6.0670033,0 4.5,1.3431457 4.5,3 4.5,4.6568543 6.0670033,6 8,6 9.9329963,6 11.5,4.6568543 11.5,3 11.5,1.3431457 9.9329963,0 8,0 z M 8,1.5 C 8.9664984,1.5 9.75,2.1715729 9.75,3 9.75,3.8284271 8.9664984,4.5 8,4.5 7.0335016,4.5 6.25,3.8284271 6.25,3 6.25,2.1715729 7.0335016,1.5 8,1.5 z"
     id="path3772"
     inkscape:connector-curvature="0" />
</svg>
