<?xml version="1.0" encoding="UTF-8" standalone="no"?>
<svg
   xmlns:dc="http://purl.org/dc/elements/1.1/"
   xmlns:cc="http://creativecommons.org/ns#"
   xmlns:rdf="http://www.w3.org/1999/02/22-rdf-syntax-ns#"
   xmlns:svg="http://www.w3.org/2000/svg"
   xmlns="http://www.w3.org/2000/svg"
   xmlns:xlink="http://www.w3.org/1999/xlink"
   xmlns:sodipodi="http://sodipodi.sourceforge.net/DTD/sodipodi-0.dtd"
   xmlns:inkscape="http://www.inkscape.org/namespaces/inkscape"
   width="48"
   viewBox="0 0 13.546667 13.546667"
   height="48"
   id="svg2"
   version="1.1"
   inkscape:version="0.48.4 r9939"
   sodipodi:docname="easystroke.svg">
  <metadata
     id="metadata24">
    <rdf:RDF>
      <cc:Work
         rdf:about="">
        <dc:format>image/svg+xml</dc:format>
        <dc:type
           rdf:resource="http://purl.org/dc/dcmitype/StillImage" />
        <dc:title />
      </cc:Work>
    </rdf:RDF>
  </metadata>
  <sodipodi:namedview
     pagecolor="#ffffff"
     bordercolor="#666666"
     borderopacity="1"
     objecttolerance="10"
     gridtolerance="10"
     guidetolerance="10"
     inkscape:pageopacity="0"
     inkscape:pageshadow="2"
     inkscape:window-width="1204"
     inkscape:window-height="690"
     id="namedview22"
     showgrid="false"
     inkscape:zoom="5.28125"
     inkscape:cx="-7.6783664"
     inkscape:cy="23.710675"
     inkscape:window-x="412"
     inkscape:window-y="253"
     inkscape:window-maximized="0"
     inkscape:current-layer="svg2" />
  <defs
     id="defs4">
    <linearGradient
       id="linearGradient4460">
      <stop
         offset="0"
         style="stop-color:#215987"
         id="stop7" />
      <stop
         offset="1"
         style="stop-color:#8cb2d6"
         id="stop9" />
    </linearGradient>
    <linearGradient
       gradientTransform="matrix(1.10525 0 0 1.10525 -134.27874 -295.76183)"
       xlink:href="#linearGradient4460"
       id="linearGradient3002"
       y1="279.096"
       y2="268.33"
       gradientUnits="userSpaceOnUse"
       x2="0" />
  </defs>
  <g
     style="fill-rule:evenodd;fill:#d35f5f"
     id="g12">
    <rect
       width="12.982"
       x=".282"
       y=".282"
       rx="6.491"
       height="12.982"
       style="opacity:0.50000000000000000;fill:#d35f5f"
       id="rect14" />
    <rect
       width="11.853"
       x=".847"
       y=".847"
       rx="5.926"
       height="11.853"
       style="fill:#d35f5f"
       id="rect16" />
  </g>
  <g
     transform="matrix(0.30044659,0,0,0.29592346,2.0410598,1.4010859)"
     id="surface0">
    <path
       inkscape:connector-curvature="0"
       style="fill:none;stroke:#0000ff;stroke-width:0.0714286;stroke-linecap:round;stroke-linejoin:miter;stroke-miterlimit:10;stroke-opacity:1"
       d="M 0.23284,0.449498 C 0.213309,0.459263 0.160296,0.486049 0.115374,0.522461"
       transform="matrix(28,0,0,28,2,2)"
       id="path5" />
    <path
       inkscape:connector-curvature="0"
       style="fill:none;stroke:#0005f8;stroke-width:0.0714286;stroke-linecap:round;stroke-linejoin:miter;stroke-miterlimit:10;stroke-opacity:1"
       d="M 0.115374,0.522461 C 0.070452,0.558733 0.0337612,0.604492 0.0115792,0.660156"
       transform="matrix(28,0,0,28,2,2)"
       id="path7" />
    <path
       inkscape:connector-curvature="0"
       style="fill:none;stroke:#000fee;stroke-width:0.0714286;stroke-linecap:round;stroke-linejoin:miter;stroke-miterlimit:10;stroke-opacity:1"
       d="M 0.0115792,0.660156 C -0.0106027,0.71582 -0.0182757,0.78139 0,0.837333"
       transform="matrix(28,0,0,28,2,2)"
       id="path9" />
    <path
       inkscape:connector-curvature="0"
       style="fill:none;stroke:#0019e3;stroke-width:0.0714286;stroke-linecap:round;stroke-linejoin:miter;stroke-miterlimit:10;stroke-opacity:1"
       d="m 0,0.837333 c 0.0182757,0.055943 0.0623605,0.10226 0.117188,0.126255"
       transform="matrix(28,0,0,28,2,2)"
       id="path11" />
    <path
       inkscape:connector-curvature="0"
       style="fill:none;stroke:#0021dc;stroke-width:0.0714286;stroke-linecap:round;stroke-linejoin:miter;stroke-miterlimit:10;stroke-opacity:1"
       d="m 0.117188,0.963588 c 0.054966,0.023996 0.120535,0.02567 0.17871,0.012974"
       transform="matrix(28,0,0,28,2,2)"
       id="path13" />
    <path
       inkscape:connector-curvature="0"
       style="fill:none;stroke:#002bd1;stroke-width:0.0714286;stroke-linecap:round;stroke-linejoin:miter;stroke-miterlimit:10;stroke-opacity:1"
       d="M 0.295898,0.976562 C 0.354074,0.963867 0.404855,0.936942 0.444615,0.908622"
       transform="matrix(28,0,0,28,2,2)"
       id="path15" />
    <path
       inkscape:connector-curvature="0"
       style="fill:none;stroke:#0035c7;stroke-width:0.0714286;stroke-linecap:round;stroke-linejoin:miter;stroke-miterlimit:10;stroke-opacity:1"
       d="M 0.444615,0.908622 C 0.484515,0.880301 0.513393,0.850725 0.536133,0.824358"
       transform="matrix(28,0,0,28,2,2)"
       id="path17" />
    <path
       inkscape:connector-curvature="0"
       style="fill:none;stroke:#003ac2;stroke-width:0.0714286;stroke-linecap:round;stroke-linejoin:miter;stroke-miterlimit:10;stroke-opacity:1"
       d="M 0.536133,0.824358 C 0.558733,0.798131 0.575195,0.775112 0.588867,0.754325"
       transform="matrix(28,0,0,28,2,2)"
       id="path19" />
    <path
       inkscape:connector-curvature="0"
       style="fill:none;stroke:#003fbd;stroke-width:0.0714286;stroke-linecap:round;stroke-linejoin:miter;stroke-miterlimit:10;stroke-opacity:1"
       d="M 0.588867,0.754325 C 0.602679,0.733677 0.613839,0.715402 0.623744,0.697963"
       transform="matrix(28,0,0,28,2,2)"
       id="path21" />
    <path
       inkscape:connector-curvature="0"
       style="fill:none;stroke:#0042ba;stroke-width:0.0714286;stroke-linecap:round;stroke-linejoin:miter;stroke-miterlimit:10;stroke-opacity:1"
       d="M 0.623744,0.697963 C 0.63365,0.680525 0.642299,0.663783 0.650391,0.646903"
       transform="matrix(28,0,0,28,2,2)"
       id="path23" />
    <path
       inkscape:connector-curvature="0"
       style="fill:none;stroke:#0047b5;stroke-width:0.0714286;stroke-linecap:round;stroke-linejoin:miter;stroke-miterlimit:10;stroke-opacity:1"
       d="M 0.650391,0.646903 C 0.658343,0.629883 0.665737,0.612584 0.672991,0.59389"
       transform="matrix(28,0,0,28,2,2)"
       id="path25" />
    <path
       inkscape:connector-curvature="0"
       style="fill:none;stroke:#004ab3;stroke-width:0.0714286;stroke-linecap:round;stroke-linejoin:miter;stroke-miterlimit:10;stroke-opacity:1"
       d="M 0.672991,0.59389 C 0.680106,0.575056 0.687221,0.554967 0.694475,0.53111"
       transform="matrix(28,0,0,28,2,2)"
       id="path27" />
    <path
       inkscape:connector-curvature="0"
       style="fill:none;stroke:#004cb0;stroke-width:0.0714286;stroke-linecap:round;stroke-linejoin:miter;stroke-miterlimit:10;stroke-opacity:1"
       d="M 0.694475,0.53111 C 0.70159,0.507394 0.709124,0.48005 0.714983,0.445871"
       transform="matrix(28,0,0,28,2,2)"
       id="path29" />
    <path
       inkscape:connector-curvature="0"
       style="fill:none;stroke:#0051ab;stroke-width:0.0714286;stroke-linecap:round;stroke-linejoin:miter;stroke-miterlimit:10;stroke-opacity:1"
       d="M 0.714983,0.445871 C 0.720982,0.411691 0.725446,0.370536 0.722098,0.321847"
       transform="matrix(28,0,0,28,2,2)"
       id="path31" />
    <path
       inkscape:connector-curvature="0"
       style="fill:none;stroke:#0059a3;stroke-width:0.0714286;stroke-linecap:round;stroke-linejoin:miter;stroke-miterlimit:10;stroke-opacity:1"
       d="M 0.722098,0.321847 C 0.71861,0.273158 0.70731,0.216797 0.680106,0.163783"
       transform="matrix(28,0,0,28,2,2)"
       id="path33" />
    <path
       inkscape:connector-curvature="0"
       style="fill:none;stroke:#00619c;stroke-width:0.0714286;stroke-linecap:round;stroke-linejoin:miter;stroke-miterlimit:10;stroke-opacity:1"
       d="M 0.680106,0.163783 C 0.653041,0.110631 0.610073,0.0609654 0.55678,0.0339007"
       transform="matrix(28,0,0,28,2,2)"
       id="path35" />
    <path
       inkscape:connector-curvature="0"
       style="fill:none;stroke:#006b91;stroke-width:0.0714286;stroke-linecap:round;stroke-linejoin:miter;stroke-miterlimit:10;stroke-opacity:1"
       d="M 0.55678,0.0339007 C 0.503348,0.00669643 0.439732,0.00237165 0.384766,0.0234375"
       transform="matrix(28,0,0,28,2,2)"
       id="path37" />
    <path
       inkscape:connector-curvature="0"
       style="fill:none;stroke:#00738a;stroke-width:0.0714286;stroke-linecap:round;stroke-linejoin:miter;stroke-miterlimit:10;stroke-opacity:1"
       d="M 0.384766,0.0234375 C 0.329799,0.0445033 0.283761,0.0910993 0.255162,0.14481"
       transform="matrix(28,0,0,28,2,2)"
       id="path39" />
    <path
       inkscape:connector-curvature="0"
       style="fill:none;stroke:#007d7f;stroke-width:0.0714286;stroke-linecap:round;stroke-linejoin:miter;stroke-miterlimit:10;stroke-opacity:1"
       d="M 0.255162,0.14481 C 0.226562,0.198382 0.215681,0.259068 0.214565,0.31236"
       transform="matrix(28,0,0,28,2,2)"
       id="path41" />
    <path
       inkscape:connector-curvature="0"
       style="fill:none;stroke:#008775;stroke-width:0.0714286;stroke-linecap:round;stroke-linejoin:miter;stroke-miterlimit:10;stroke-opacity:1"
       d="M 0.214565,0.31236 C 0.213449,0.365792 0.222377,0.411691 0.23284,0.449498"
       transform="matrix(28,0,0,28,2,2)"
       id="path43" />
    <path
       inkscape:connector-curvature="0"
       style="fill:none;stroke:#008f6e;stroke-width:0.0714286;stroke-linecap:round;stroke-linejoin:miter;stroke-miterlimit:10;stroke-opacity:1"
       d="M 0.23284,0.449498 C 0.243304,0.487305 0.255441,0.516741 0.266881,0.541853"
       transform="matrix(28,0,0,28,2,2)"
       id="path45" />
    <path
       inkscape:connector-curvature="0"
       style="fill:none;stroke:#009468;stroke-width:0.0714286;stroke-linecap:round;stroke-linejoin:miter;stroke-miterlimit:10;stroke-opacity:1"
       d="M 0.266881,0.541853 C 0.27832,0.566825 0.288923,0.587333 0.299247,0.605748"
       transform="matrix(28,0,0,28,2,2)"
       id="path47" />
    <path
       inkscape:connector-curvature="0"
       style="fill:none;stroke:#009766;stroke-width:0.0714286;stroke-linecap:round;stroke-linejoin:miter;stroke-miterlimit:10;stroke-opacity:1"
       d="M 0.299247,0.605748 C 0.30957,0.624302 0.319615,0.640904 0.329939,0.656669"
       transform="matrix(28,0,0,28,2,2)"
       id="path49" />
    <path
       inkscape:connector-curvature="0"
       style="fill:none;stroke:#009c61;stroke-width:0.0714286;stroke-linecap:round;stroke-linejoin:miter;stroke-miterlimit:10;stroke-opacity:1"
       d="M 0.329939,0.656669 C 0.340262,0.672573 0.351004,0.68764 0.362863,0.702985"
       transform="matrix(28,0,0,28,2,2)"
       id="path51" />
    <path
       inkscape:connector-curvature="0"
       style="fill:none;stroke:#009e5e;stroke-width:0.0714286;stroke-linecap:round;stroke-linejoin:miter;stroke-miterlimit:10;stroke-opacity:1"
       d="m 0.362863,0.702985 c 0.011858,0.015346 0.024693,0.030832 0.03976,0.047852"
       transform="matrix(28,0,0,28,2,2)"
       id="path53" />
    <path
       inkscape:connector-curvature="0"
       style="fill:none;stroke:#00a15c;stroke-width:0.0714286;stroke-linecap:round;stroke-linejoin:miter;stroke-miterlimit:10;stroke-opacity:1"
       d="M 0.402623,0.750837 C 0.41769,0.767857 0.435128,0.786412 0.457589,0.807338"
       transform="matrix(28,0,0,28,2,2)"
       id="path55" />
    <path
       inkscape:connector-curvature="0"
       style="fill:none;stroke:#00a657;stroke-width:0.0714286;stroke-linecap:round;stroke-linejoin:miter;stroke-miterlimit:10;stroke-opacity:1"
       d="M 0.457589,0.807338 C 0.48019,0.828265 0.508092,0.851562 0.545619,0.874581"
       transform="matrix(28,0,0,28,2,2)"
       id="path57" />
    <path
       inkscape:connector-curvature="0"
       style="fill:none;stroke:#00ab51;stroke-width:0.0714286;stroke-linecap:round;stroke-linejoin:miter;stroke-miterlimit:10;stroke-opacity:1"
       d="M 0.545619,0.874581 C 0.583008,0.8976 0.630301,0.920201 0.686105,0.93192"
       transform="matrix(28,0,0,28,2,2)"
       id="path59" />
    <path
       inkscape:connector-curvature="0"
       style="fill:none;stroke:#00b34a;stroke-width:0.0714286;stroke-linecap:round;stroke-linejoin:miter;stroke-miterlimit:10;stroke-opacity:1"
       d="M 0.686105,0.93192 C 0.741908,0.943638 0.806362,0.944336 0.8637,0.924107"
       transform="matrix(28,0,0,28,2,2)"
       id="path61" />
    <path
       inkscape:connector-curvature="0"
       style="fill:none;stroke:#00bd3f;stroke-width:0.0714286;stroke-linecap:round;stroke-linejoin:miter;stroke-miterlimit:10;stroke-opacity:1"
       d="M 0.8637,0.924107 C 0.920898,0.904018 0.970982,0.863002 0.995954,0.810268"
       transform="matrix(28,0,0,28,2,2)"
       id="path63" />
    <path
       inkscape:connector-curvature="0"
       style="fill:none;stroke:#00c735;stroke-width:0.0714286;stroke-linecap:round;stroke-linejoin:miter;stroke-miterlimit:10;stroke-opacity:1"
       d="M 0.995954,0.810268 C 1.020926,0.757394 1.020787,0.692801 1,0.635742"
       transform="matrix(28,0,0,28,2,2)"
       id="path65" />
    <path
       inkscape:connector-curvature="0"
       style="fill:none;stroke:#00cf2e;stroke-width:0.0714286;stroke-linecap:round;stroke-linejoin:miter;stroke-miterlimit:10;stroke-opacity:1"
       d="M 1,0.635742 C 0.979213,0.578683 0.937779,0.529297 0.893276,0.493583"
       transform="matrix(28,0,0,28,2,2)"
       id="path67" />
    <path
       inkscape:connector-curvature="0"
       style="fill:none;stroke:#00d923;stroke-width:0.0714286;stroke-linecap:round;stroke-linejoin:miter;stroke-miterlimit:10;stroke-opacity:1"
       d="M 0.893276,0.493583 C 0.848912,0.457868 0.801479,0.435686 0.759905,0.421317"
       transform="matrix(28,0,0,28,2,2)"
       id="path69" />
    <path
       inkscape:connector-curvature="0"
       style="fill:none;stroke:#00e11c;stroke-width:0.0714286;stroke-linecap:round;stroke-linejoin:miter;stroke-miterlimit:10;stroke-opacity:1"
       d="M 0.759905,0.421317 C 0.718192,0.406948 0.682478,0.400251 0.652065,0.396205"
       transform="matrix(28,0,0,28,2,2)"
       id="path71" />
    <path
       inkscape:connector-curvature="0"
       style="fill:none;stroke:#00e814;stroke-width:0.0714286;stroke-linecap:round;stroke-linejoin:miter;stroke-miterlimit:10;stroke-opacity:1"
       d="M 0.652065,0.396205 C 0.621512,0.39202 0.596261,0.390346 0.573521,0.389509"
       transform="matrix(28,0,0,28,2,2)"
       id="path73" />
    <path
       inkscape:connector-curvature="0"
       style="fill:none;stroke:#00eb11;stroke-width:0.0714286;stroke-linecap:round;stroke-linejoin:miter;stroke-miterlimit:10;stroke-opacity:1"
       d="M 0.573521,0.389509 C 0.550642,0.388532 0.530413,0.388532 0.5113,0.38909"
       transform="matrix(28,0,0,28,2,2)"
       id="path75" />
    <path
       inkscape:connector-curvature="0"
       style="fill:none;stroke:#00ee0f;stroke-width:0.0714286;stroke-linecap:round;stroke-linejoin:miter;stroke-miterlimit:10;stroke-opacity:1"
       d="M 0.5113,0.38909 C 0.492048,0.389648 0.473772,0.390765 0.45452,0.392997"
       transform="matrix(28,0,0,28,2,2)"
       id="path77" />
    <path
       inkscape:connector-curvature="0"
       style="fill:none;stroke:#00f30a;stroke-width:0.0714286;stroke-linecap:round;stroke-linejoin:miter;stroke-miterlimit:10;stroke-opacity:1"
       d="M 0.45452,0.392997 C 0.435407,0.395229 0.415318,0.398577 0.395787,0.401646"
       transform="matrix(28,0,0,28,2,2)"
       id="path79" />
    <path
       inkscape:connector-curvature="0"
       style="fill:none;stroke:#00f507;stroke-width:0.0714286;stroke-linecap:round;stroke-linejoin:miter;stroke-miterlimit:10;stroke-opacity:1"
       d="M 0.395787,0.401646 C 0.376395,0.404715 0.357561,0.407506 0.325753,0.417271"
       transform="matrix(28,0,0,28,2,2)"
       id="path81" />
    <path
       inkscape:connector-curvature="0"
       style="fill:none;stroke:#00f805;stroke-width:0.0714286;stroke-linecap:round;stroke-linejoin:miter;stroke-miterlimit:10;stroke-opacity:1"
       d="M 0.325753,0.417271 C 0.293945,0.426897 0.249163,0.443499 0.23284,0.449498"
       transform="matrix(28,0,0,28,2,2)"
       id="path83" />
  </g>
</svg>
