<?xml version="1.0" encoding="UTF-8" standalone="no"?>
<svg
   xmlns:dc="http://purl.org/dc/elements/1.1/"
   xmlns:cc="http://creativecommons.org/ns#"
   xmlns:rdf="http://www.w3.org/1999/02/22-rdf-syntax-ns#"
   xmlns:svg="http://www.w3.org/2000/svg"
   xmlns="http://www.w3.org/2000/svg"
   xmlns:sodipodi="http://sodipodi.sourceforge.net/DTD/sodipodi-0.dtd"
   xmlns:inkscape="http://www.inkscape.org/namespaces/inkscape"
   viewBox="0 0 48 48"
   id="svg2"
   version="1.1"
   inkscape:version="0.48.5 r10040"
   width="100%"
   height="100%"
   sodipodi:docname="firefox.svg">
  <metadata
     id="metadata59">
    <rdf:RDF>
      <cc:Work
         rdf:about="">
        <dc:format>image/svg+xml</dc:format>
        <dc:type
           rdf:resource="http://purl.org/dc/dcmitype/StillImage" />
        <dc:title></dc:title>
      </cc:Work>
    </rdf:RDF>
  </metadata>
  <sodipodi:namedview
     pagecolor="#ffffff"
     bordercolor="#666666"
     borderopacity="1"
     objecttolerance="10"
     gridtolerance="10"
     guidetolerance="10"
     inkscape:pageopacity="0"
     inkscape:pageshadow="2"
     inkscape:window-width="640"
     inkscape:window-height="480"
     id="namedview57"
     showgrid="false"
     inkscape:zoom="4.9166667"
     inkscape:cx="24"
     inkscape:cy="24"
     inkscape:window-x="0"
     inkscape:window-y="0"
     inkscape:window-maximized="0"
     inkscape:current-layer="svg2" />
  <defs
     id="defs4">
    <clipPath
       id="clipPath6">
      <g
         transform="translate(0,-1004.3622)"
         id="g8">
        <path
           d="m -24 13 c 0 1.105 -0.672 2 -1.5 2 -0.828 0 -1.5 -0.895 -1.5 -2 0 -1.105 0.672 -2 1.5 -2 0.828 0 1.5 0.895 1.5 2 z"
           transform="matrix(15.333333,0,0,11.5,414.99999,878.8622)"
           fill="#1890d0"
           id="path10" />
      </g>
    </clipPath>
    <clipPath
       id="clipPath12">
      <g
         transform="translate(0,-1004.3622)"
         id="g14">
        <path
           d="m -24 13 c 0 1.105 -0.672 2 -1.5 2 -0.828 0 -1.5 -0.895 -1.5 -2 0 -1.105 0.672 -2 1.5 -2 0.828 0 1.5 0.895 1.5 2 z"
           transform="matrix(15.333333,0,0,11.5,414.99999,878.8622)"
           fill="#1890d0"
           id="path16" />
      </g>
    </clipPath>
    <linearGradient
       id="linearGradient3996"
       gradientUnits="userSpaceOnUse"
       gradientTransform="matrix(0,-1,1,0,-1.5e-6,47.999998)"
       x1="1"
       x2="47">
      <stop
         stop-color="#60c3e0"
         stop-opacity="1"
         id="stop19" />
      <stop
         offset="1"
         stop-color="#71cae3"
         stop-opacity="1"
         id="stop21" />
    </linearGradient>
  </defs>
  <path
     d="m 36.31,5 c 5.859,4.062 9.688,10.831 9.688,18.5 0,12.426 -10.07,22.5 -22.5,22.5 -7.669,0 -14.438,-3.828 -18.5,-9.688 1.037,1.822 2.306,3.499 3.781,4.969 4.085,3.712 9.514,5.969 15.469,5.969 12.703,0 23,-10.298 23,-23 0,-5.954 -2.256,-11.384 -5.969,-15.469 C 39.81,7.306 38.132,6.037 36.31,5 z m 4.969,3.781 c 3.854,4.113 6.219,9.637 6.219,15.719 0,12.703 -10.297,23 -23,23 -6.081,0 -11.606,-2.364 -15.719,-6.219 4.16,4.144 9.883,6.719 16.219,6.719 12.703,0 23,-10.298 23,-23 0,-6.335 -2.575,-12.06 -6.719,-16.219 z"
     opacity="0.05"
     id="path23" />
  <path
     d="m 41.28 8.781 c 3.712 4.085 5.969 9.514 5.969 15.469 0 12.703 -10.297 23 -23 23 -5.954 0 -11.384 -2.256 -15.469 -5.969 4.113 3.854 9.637 6.219 15.719 6.219 12.703 0 23 -10.298 23 -23 0 -6.081 -2.364 -11.606 -6.219 -15.719 z"
     opacity="0.1"
     id="path25" />
  <path
     d="M 31.25,2.375 C 39.865,5.529 46,13.792 46,23.505 c 0,12.426 -10.07,22.5 -22.5,22.5 -9.708,0 -17.971,-6.135 -21.12,-14.75 a 23,23 0 0 0 44.875,-7 23,23 0 0 0 -16,-21.875 z"
     opacity="0.2"
     id="path27" />
  <path
     d="m 24 1 c -6.757 0 -12.823 2.923 -17.03 7.563 c 0.088 0.579 0.152 1.058 0.219 1.469 c -3.155 3.792 -5.063 8.65 -5.063 13.969 c 0 12.09 9.79 21.875 21.875 21.875 c 12.09 0 21.875 -9.79 21.875 -21.875 c 0 -3.857 -0.998 -7.478 -2.75 -10.625 c -0.046 -0.788 -0.12 -1.667 -0.313 -2.594 c -4.162 -5.915 -11.03 -9.781 -18.813 -9.781 z m -18.344 9.156 c -0.426 0.563 -0.814 1.117 -1.188 1.719 c 0.367 -0.587 0.771 -1.169 1.188 -1.719 z m -1.313 1.906 c -0.276 0.454 -0.536 0.932 -0.781 1.406 c 0.247 -0.476 0.503 -0.95 0.781 -1.406 z m -1.938 4.03 c -0.181 0.493 -0.353 0.992 -0.5 1.5 c 0.148 -0.508 0.319 -1.01 0.5 -1.5 z"
     fill="url(#linearGradient3996)"
     fill-opacity="1"
     id="path29" />
  <path
     d="m 42.04 16.418 c 0.055 0.098 0.098 0.195 0.148 0.289 -0.004 0.02 0.004 0.043 0 0.055 -0.012 -0.016 -0.031 -0.039 -0.031 -0.055 -0.043 -0.098 -0.07 -0.191 -0.117 -0.289 m 0 0"
     opacity="0.1"
     fill="#000"
     fill-rule="nonzero"
     stroke="none"
     fill-opacity="1"
     id="path33" />
  <path
     d="m 20.773 17.465 1.723 1.805 c 0.242 -0.16 0.535 -0.293 0.652 -0.852 0.023 -0.039 0.055 -0.063 0.109 -0.07 0.207 -0.41 0 -0.551 -0.254 -0.746 -0.73 0.012 -1.258 -0.023 -2.23 -0.137 m 0 0"
     opacity="0.1"
     fill="#000"
     fill-rule="nonzero"
     stroke="none"
     fill-opacity="1"
     id="path35" />
  <path
     d="m 19.703 21.363 c -0.215 -0.504 -0.605 -1.195 -1.082 -1.574 l 2.969 -1.477 0.918 0.945 c -1.047 0.637 -1.992 1.281 -2.805 2.105 m 0 0"
     opacity="0.1"
     fill="#000"
     fill-rule="nonzero"
     stroke="none"
     fill-opacity="1"
     id="path37" />
  <path
     d="m 18.02,15.258 c -0.531,1.66 -0.199,3.156 0.594,4.531 l 2.977,-1.477 C 21.196,17.886 20.786,17.468 20.786,17.468 20.481,17.386 20.091,17.136 19.614,16.695 L 18.395,15.539 M 18.02,15.258"
     opacity="0.1"
     fill="#000"
     fill-rule="nonzero"
     stroke="none"
     fill-opacity="1"
     id="path39" />
  <path
     d="m 29.06 6.813 c 1.137 0.219 2.094 0.47 2.875 0.813 1.203 0.516 1.977 1.215 2.344 2 -1.117 -0.199 -2.109 -0.149 -3 0.188 6.383 2.434 9.415 5.343 9.06 8.688 -0.465 -0.699 -1.093 -1.175 -1.875 -1.406 0.977 3.668 1.062 6.675 0.281 9.06 -0.543 -1.594 -1.063 -2.508 -1.5 -2.844 0.613 4.918 -0.211 8.539 -2.5 10.906 0.441 -1.445 0.598 -2.628 0.5 -3.563 -2.691 3.891 -5.753 5.904 -9.188 6.03 -1.352 -0.016 -2.641 -0.216 -3.844 -0.594 -1.77 -0.57 -3.359 -1.55 -4.781 -2.938 2.219 0.176 4.243 -0.191 6.03 -1.063 l 2.938 -1.844 c 0.371 -0.266 0.715 -0.227 1.063 -0.063 0.719 -0.098 0.89 -0.321 0.688 -0.969 -0.457 -0.383 -0.859 -0.883 -1.531 -1.25 -1.465 -0.734 -2.977 -0.777 -4.563 0.344 -1.52 0.828 -2.985 0.785 -4.406 -0.094 -0.934 -0.617 -1.82 -1.461 -2.688 -2.5 l -0.313 -0.469 0 -0.031 c 0.043 -1.027 0.437 -1.563 1.281 -1.688 0.957 0.082 2.051 0.281 3.281 0.625 0.207 -1.141 -0.063 -2.335 -0.813 -3.563 l 0.031 -0.125 c 0.075 -0.067 0.395 -0.358 0.469 -0.422 -0.215 -0.504 -0.609 -0.957 -1.086 -1.336 c -0.793 -1.375 -1.445 -2.676 -0.914 -4.336 l 0.313 0.281 -0.313 -0.313 -0.344 -0.438 0.031 -0.156 c 0.145 -0.988 0.633 -1.777 1.031 -2.531 0.434 -0.691 1.269 -1.454 2.5 -2.25 -2.281 0.273 -4.352 1.27 -6.188 2.969 -1.52 -0.535 -3.332 -0.422 -5.406 0.344 c -1.223 -0.556 -1.204 -1.355 -1.563 -3.719 -3.703 4.082 -5.969 9.491 -5.969 15.438 0 12.703 10.297 23 23 23 12.703 0 23 -10.297 23 -23 c 0 -4.93 -1.547 -9.506 -4.188 -13.25 0.321 1.531 0.362 3.11 0.375 3.969 -0.949 -3.211 -3.586 -5.883 -7.406 -7 c -1.883 -0.545 -4.134 -0.831 -6.719 -0.906 z"
     fill="#cf5225"
     fill-rule="nonzero"
     stroke="none"
     fill-opacity="1"
     id="path43" />
  <path
     d="m 41.04 15.418 c 0.055 0.098 0.098 0.195 0.148 0.289 -0.004 0.02 0.004 0.043 0 0.055 -0.012 -0.016 -0.031 -0.039 -0.031 -0.055 -0.043 -0.098 -0.07 -0.191 -0.117 -0.289 m 0 0"
     fill="#ec7f43"
     fill-rule="nonzero"
     stroke="none"
     fill-opacity="1"
     id="path45" />
  <path
     d="m 26.598 30.16 c 0.328 -0.184 0.746 -0.082 1.059 0 0.309 -0.027 0.91 -0.195 0.672 -0.973 -0.398 -0.469 -1 -1.027 -2.188 -1.438 m 0.457 2.41"
     fill="#fbf4ce"
     fill-rule="nonzero"
     stroke="none"
     fill-opacity="1"
     id="path47" />
  <path
     d="m 19.773 16.465 1.723 1.805 c 0.242 -0.16 0.535 -0.293 0.652 -0.852 0.023 -0.039 0.055 -0.063 0.109 -0.07 0.207 -0.41 -0.18 -0.785 -0.254 -0.746 -0.73 0.012 -1.258 -0.023 -2.23 -0.137"
     fill="#2d2d2d"
     fill-rule="nonzero"
     stroke="none"
     fill-opacity="1"
     id="path49" />
  <path
     d="m 18.66 20.297 c -0.215 -0.504 -0.562 -1.129 -1.039 -1.508 l 2.969 -1.477 0.91 0.961 c -1.047 0.637 -1.988 1.261 -2.844 2.01"
     fill="#fbf4ce"
     fill-rule="nonzero"
     stroke="none"
     fill-opacity="1"
     id="path51" />
  <path
     d="m 16.883 14.32 c -0.531 1.66 -0.062 3.094 0.731 4.469 l 2.977 -1.477 c -0.395 -0.426 -0.805 -0.844 -0.805 -0.844 -0.305 -0.082 -0.695 -0.332 -1.172 -0.773 l -1.328 -1.01"
     fill="#b93620"
     fill-rule="nonzero"
     stroke="none"
     fill-opacity="1"
     id="path53" />
  <path
     d="m 40.03,7.531 c 3.712,4.084 5.969,9.514 5.969,15.469 0,12.703 -10.297,23 -23,23 C 17.045,46 11.615,43.744 7.53,40.031 11.708,44.322 17.54,47 23.999,47 c 12.703,0 23,-10.298 23,-23 0,-6.462 -2.677,-12.291 -6.969,-16.469 z"
     opacity="0.1"
     id="path55" />
</svg>
