<?xml version="1.0" encoding="UTF-8" standalone="no"?>
<svg
   xmlns:dc="http://purl.org/dc/elements/1.1/"
   xmlns:cc="http://creativecommons.org/ns#"
   xmlns:rdf="http://www.w3.org/1999/02/22-rdf-syntax-ns#"
   xmlns:svg="http://www.w3.org/2000/svg"
   xmlns="http://www.w3.org/2000/svg"
   xmlns:xlink="http://www.w3.org/1999/xlink"
   xmlns:sodipodi="http://sodipodi.sourceforge.net/DTD/sodipodi-0.dtd"
   xmlns:inkscape="http://www.inkscape.org/namespaces/inkscape"
   width="48"
   viewBox="0 0 13.546667 13.546667"
   height="48"
   id="svg2"
   version="1.1"
   inkscape:version="0.48.4 r9939"
   sodipodi:docname="gconf-cleaner.svg">
  <metadata
     id="metadata26">
    <rdf:RDF>
      <cc:Work
         rdf:about="">
        <dc:format>image/svg+xml</dc:format>
        <dc:type
           rdf:resource="http://purl.org/dc/dcmitype/StillImage" />
      </cc:Work>
    </rdf:RDF>
  </metadata>
  <sodipodi:namedview
     pagecolor="#ffffff"
     bordercolor="#666666"
     borderopacity="1"
     objecttolerance="10"
     gridtolerance="10"
     guidetolerance="10"
     inkscape:pageopacity="0"
     inkscape:pageshadow="2"
     inkscape:window-width="1034"
     inkscape:window-height="778"
     id="namedview24"
     showgrid="false"
     inkscape:zoom="6.9532167"
     inkscape:cx="1.1130093"
     inkscape:cy="41.358618"
     inkscape:window-x="1970"
     inkscape:window-y="175"
     inkscape:window-maximized="0"
     inkscape:current-layer="svg2" />
  <defs
     id="defs4">
    <linearGradient
       id="linearGradient4460">
      <stop
         offset="0"
         style="stop-color:#322424"
         id="stop7" />
      <stop
         offset="1"
         style="stop-color:#543e3e"
         id="stop9" />
    </linearGradient>
    <linearGradient
       gradientTransform="matrix(1.10525 0 0 1.10525 -134.22538 -295.81512)"
       xlink:href="#linearGradient4460"
       id="linearGradient3004"
       y1="279.096"
       y2="268.33"
       gradientUnits="userSpaceOnUse"
       x2="0" />
  </defs>
  <g
     style="fill-rule:evenodd"
     id="g12">
    <rect
       width="12.982"
       x=".282"
       y=".282"
       rx="6.491"
       height="12.982"
       style="opacity:.5;fill:#fff"
       id="rect14" />
    <rect
       width="11.853"
       x=".9"
       y=".793"
       rx="5.926"
       height="11.853"
       style="fill:url(#linearGradient3004)"
       id="rect16" />
  </g>
  <rect
     width="4.8240337"
     x="4.6859975"
     y="7.9450593"
     rx="1.0436118"
     height="2.894933"
     style="fill:#f9f9f9"
     id="rect18" />
  <path
     style="fill:#e79489"
     d="m 7.0978861,9.3922953 a 1.6885614,1.6885143 0 0 1 -3.3771227,0 1.6885614,1.6885143 0 1 1 3.3771227,0 z"
     id="path20"
     inkscape:connector-curvature="0" />
  <path
     style="fill:#c9d5f6"
     d="m 6.3741956,9.3923637 a 0.9648922,0.96487511 0 0 1 -1.9297844,0 0.9648922,0.96487511 0 1 1 1.9297844,0 z"
     id="path22"
     inkscape:connector-curvature="0" />
  <g
     style="fill:#ffffff;fill-rule:evenodd"
     transform="matrix(0.01003986,0,0,0.01003986,6.0225945,-9.3426054)"
     id="g18">
    <path
       inkscape:connector-curvature="0"
       d="m 56.158741,1617.7293 0,-135.3604 -128.289364,0 22.332934,-38.6818 41.0541297,0 -59.4999537,-103.0569 -130.156187,0 28.36488,16.3764 -37.90806,65.6587 101.79851,176.3202 9.684027,16.7732 2.4043,4.1644 z"
       id="path20-9" />
    <path
       inkscape:connector-curvature="0"
       d="m 290.22673,1300.6731 -117.22554,67.6802 64.14468,111.1018 -44.66589,0 -20.52706,-35.5539 -59.49992,103.0569 65.07809,112.7186 -6e-5,-32.7529 75.81613,0 101.79852,-176.3202 9.68401,-16.7732 2.40432,-4.1644 z"
       id="path22-4" />
    <path
       inkscape:connector-curvature="0"
       d="m -101.71339,1228.6175 117.225538,67.6802 64.14467,-111.1018 22.332952,38.6818 -20.527092,35.5539 118.999892,0 65.07813,-112.7186 -28.36481,16.3766 -37.90807,-65.6587 -203.597073,0 -19.368019,0 -4.80864,0 z"
       id="path24" />
  </g>
</svg>
