<?xml version="1.0" encoding="UTF-8" standalone="no"?>
<svg
   xmlns:dc="http://purl.org/dc/elements/1.1/"
   xmlns:cc="http://creativecommons.org/ns#"
   xmlns:rdf="http://www.w3.org/1999/02/22-rdf-syntax-ns#"
   xmlns:svg="http://www.w3.org/2000/svg"
   xmlns="http://www.w3.org/2000/svg"
   xmlns:xlink="http://www.w3.org/1999/xlink"
   xmlns:sodipodi="http://sodipodi.sourceforge.net/DTD/sodipodi-0.dtd"
   xmlns:inkscape="http://www.inkscape.org/namespaces/inkscape"
   width="48"
   viewBox="0 0 13.546667 13.546667"
   height="48"
   id="svg2"
   version="1.1"
   inkscape:version="0.48.4 r9939"
   sodipodi:docname="gnome-split.svg">
  <metadata
     id="metadata30">
    <rdf:RDF>
      <cc:Work
         rdf:about="">
        <dc:format>image/svg+xml</dc:format>
        <dc:type
           rdf:resource="http://purl.org/dc/dcmitype/StillImage" />
      </cc:Work>
    </rdf:RDF>
  </metadata>
  <sodipodi:namedview
     pagecolor="#ffffff"
     bordercolor="#666666"
     borderopacity="1"
     objecttolerance="10"
     gridtolerance="10"
     guidetolerance="10"
     inkscape:pageopacity="0"
     inkscape:pageshadow="2"
     inkscape:window-width="1168"
     inkscape:window-height="740"
     id="namedview28"
     showgrid="false"
     inkscape:zoom="13.906433"
     inkscape:cx="19.539124"
     inkscape:cy="22.234781"
     inkscape:window-x="2029"
     inkscape:window-y="23"
     inkscape:window-maximized="0"
     inkscape:current-layer="svg2" />
  <defs
     id="defs4">
    <linearGradient
       id="linearGradient4460">
      <stop
         offset="0"
         style="stop-color:#1b1b1b"
         id="stop7" />
      <stop
         offset="1"
         style="stop-color:#383838"
         id="stop9" />
    </linearGradient>
    <linearGradient
       gradientTransform="matrix(1.09524 0 0 1.09524 -132.99191 -9.4948)"
       xlink:href="#linearGradient4460"
       id="linearGradient4500"
       y1="279.096"
       y2="268.33"
       gradientUnits="userSpaceOnUse"
       x2="0" />
    <linearGradient
       inkscape:collect="always"
       xlink:href="#linearGradient4460"
       id="linearGradient3007"
       gradientUnits="userSpaceOnUse"
       gradientTransform="matrix(1.09524,0,0,1.09524,-132.99191,-9.4948)"
       y1="279.096"
       x2="0"
       y2="268.33" />
  </defs>
  <g
     style="fill-rule:evenodd"
     id="g14"
     transform="translate(0,-283.45331)">
    <rect
       id="rect16"
       style="opacity:0.5;fill:#ffffff"
       height="12.982"
       rx="6.4910002"
       y="283.73599"
       x="0.28200001"
       width="12.982" />
    <rect
       id="rect18"
       style="fill:url(#linearGradient3007)"
       height="11.746"
       rx="5.8730001"
       y="284.42801"
       x="0.91000003"
       width="11.746" />
  </g>
  <g
     transform="matrix(0.14583378,0,0,0.16553991,4.851009,2.2222851)"
     id="g3016">
    <path
       inkscape:connector-curvature="0"
       id="path4"
       d="M 8,1 C 6.9714285,1 6,1.9714285 6,3 l 0,42 c 0,0.971429 1.0285714,2 2,2 l 32,0 c 0.971429,0 2,-1.028571 2,-2 L 42,14 29,1 z"
       style="fill:#dcdcdc" />
    <path
       inkscape:connector-curvature="0"
       id="path6"
       d="M 29,12 29.0625,12.0625 29.21875,12 29,12 z m 2,2 11,11 0,-11 -11,0 z"
       style="fill-opacity:0.19599998" />
    <path
       inkscape:connector-curvature="0"
       id="path8"
       d="m 29,1 13,13 -11,0 c -0.971429,0 -2,-1.028571 -2,-2 L 29,1 z"
       style="fill:#ffffff;fill-opacity:0.39200003" />
  </g>
  <path
     style="fill:#c83737"
     d="M 6.9518904,6.3382031 C 7.5248139,6.1499077 7.4909187,6.1803811 8.0812927,5.992648 8.4461985,5.8766099 9.3524853,5.524174 9.4075909,5.4768552 9.4278254,5.4594791 9.4369623,5.4382826 9.4279152,5.429842 9.3817519,5.3867254 8.2636128,5.5712674 6.9573256,5.8375936 6.4867557,5.9335335 6.0481421,6.0221408 5.9824495,6.0346885 5.83626,6.0626123 5.5959221,6.0081196 5.1169684,5.8380465 4.6272821,5.6641563 4.5138492,5.7303091 4.3832414,5.5764609 4.2719823,5.4454039 4.2641743,5.4408491 4.1441209,5.4403933 3.9951718,5.439826 3.7483266,5.3831682 3.605857,5.3165306 3.4406512,5.2392583 3.367656,5.159364 3.3071979,4.9892446 3.2072033,4.7078685 3.0755812,4.5801613 2.8216958,4.5186577 2.6529299,4.4777737 2.4131949,4.5225389 2.159031,4.6420681 2.0310697,4.7022489 1.9838468,4.8169799 1.9411362,4.8722999 c -0.068273,0.088431 -0.086573,0.2077053 -0.086572,0.2426151 0,0.208488 0.1919826,0.4912814 0.4133794,0.6093669 0.2508246,0.1337831 0.4513442,0.1189958 0.8601566,-0.064191 0.173438,-0.077717 0.2167283,-0.08733 0.3867564,-0.08589 0.22082,0.00187 0.3603104,0.046865 0.6767013,0.2187938 0.2398256,0.1303218 0.668278,0.370136 0.7337308,0.50569 l 0.044044,0.091315 -0.1181076,0.1817246 C 4.7123577,6.7853394 4.5775319,6.8197159 3.954414,7.2075834 3.3905843,7.5585465 3.384476,7.560466 3.0008357,7.4968983 2.8355287,7.4695124 2.6698649,7.4471719 2.6329572,7.4471719 c -0.041172,0 -0.08173,-0.020556 -0.1050384,-0.053342 -0.032831,-0.046179 -0.048157,-0.050169 -0.111816,-0.029381 -0.051228,0.016731 -0.075539,0.042326 -0.080836,0.084534 -0.00445,0.03566 -0.036427,0.076451 -0.076964,0.099 -0.1210949,0.067354 -0.2315191,0.1856465 -0.3030146,0.3245718 -0.05703,0.1108163 -0.069826,0.1711796 -0.073092,0.3363278 -0.00255,0.1288166 0.0094,0.2331446 0.033401,0.2902171 0.093872,0.2231767 0.4093073,0.4283101 0.6776704,0.4403 0.08685,0.00381 0.1865771,-0.00463 0.2216956,-0.018535 0.035112,-0.013978 0.104395,-0.041922 0.1534415,-0.061934 C 3.0174585,8.8389192 3.1149069,8.7666958 3.1852592,8.6980011 3.3222933,8.5641929 3.3959512,8.4147599 3.4645565,8.1329356 3.5172339,7.9165277 3.5579766,7.8328474 3.6605974,7.7301565 3.7968667,7.59379 4.1691445,7.3767277 4.6403138,7.1587627 4.8787226,7.0484714 5.1177492,6.9950779 5.1339125,6.9812828 5.1500839,6.9674877 5.3102728,6.9097186 5.4901729,6.8533527 5.8117019,6.752611 5.8170288,6.7543862 5.9651108,6.7083681 6.1402928,6.6539284 6.9010881,6.3548996 6.9518904,6.3382031 z M 2.6706726,4.7125882 c 0.00954,-2.743e-4 0.019008,-2.201e-4 0.02856,0 0.035237,8.575e-4 0.070271,0.00532 0.1050382,0.013109 0.080064,0.017936 0.1657301,0.058413 0.2183076,0.1035202 0.301238,0.2584398 0.00306,0.7848251 -0.4525877,0.7992289 -0.035114,0.00111 -0.1096752,-0.00947 -0.1655453,-0.023958 -0.056556,-0.014663 -0.1443365,-0.066534 -0.1979777,-0.1166295 -0.090215,-0.084251 -0.096326,-0.098993 -0.096326,-0.2341633 0,-0.185237 0.025278,-0.2437551 0.159252,-0.3688748 C 2.3850538,4.7768071 2.5275045,4.7166395 2.6706726,4.7125882 z m 3.4231133,1.4057275 c 0.2261023,0.084462 0.4767468,0.1168265 0.7018727,0.196642 l -0.00576,0.013563 C 6.5670213,6.2495107 6.316966,6.2172304 6.0884794,6.1318765 z M 5.7031566,6.2900952 c 0.0032,0.0744 0.084559,0.1342605 0.1849074,0.1342605 0.085799,0 0.1575116,-0.043932 0.1786147,-0.103069 7.95e-5,0.00156 5.264e-4,0.00334 5.264e-4,0.00497 0,0.076471 -0.083037,0.1383288 -0.1853909,0.1383288 -0.1023539,0 -0.1853909,-0.061861 -0.1853909,-0.1383288 0,-0.012542 0.0027,-0.024602 0.00677,-0.036163 z M 5.0743765,6.461876 c 0.2223642,0.092712 0.471089,0.1339235 0.6926745,0.2219573 l -0.00627,0.013564 C 5.5414365,6.6102522 5.2923312,6.569125 5.0676206,6.4754363 z M 2.6876586,7.6338702 C 2.8615035,7.6336354 2.9567588,7.6667919 3.0647332,7.7640609 3.3389335,8.0110698 3.1905815,8.4951822 2.789793,8.6604816 2.6291936,8.72672 2.4422722,8.7250586 2.3023547,8.6559196 2.136352,8.5739307 2.0397717,8.3937795 2.0559731,8.1970789 2.0703363,8.0226861 2.1211473,7.924722 2.2616949,7.8010816 2.4002201,7.6792177 2.5150626,7.6340426 2.6876586,7.6338226 z"
     inkscape:connector-curvature="0"
     sodipodi:nodetypes="sscsssssssssssssssscccssssscsscssscssssssssccsscsssscccccccscsssccccccccssssccc"
     id="path18" />
</svg>
