<?xml version="1.0" encoding="UTF-8" standalone="no"?>
<svg
   xmlns:dc="http://purl.org/dc/elements/1.1/"
   xmlns:cc="http://creativecommons.org/ns#"
   xmlns:rdf="http://www.w3.org/1999/02/22-rdf-syntax-ns#"
   xmlns:svg="http://www.w3.org/2000/svg"
   xmlns="http://www.w3.org/2000/svg"
   xmlns:xlink="http://www.w3.org/1999/xlink"
   xmlns:sodipodi="http://sodipodi.sourceforge.net/DTD/sodipodi-0.dtd"
   xmlns:inkscape="http://www.inkscape.org/namespaces/inkscape"
   width="48"
   viewBox="0 0 13.546667 13.546667"
   height="48"
   id="svg2"
   version="1.1"
   inkscape:version="0.48.4 r9939"
   sodipodi:docname="gprename.svg">
  <metadata
     id="metadata26">
    <rdf:RDF>
      <cc:Work
         rdf:about="">
        <dc:format>image/svg+xml</dc:format>
        <dc:type
           rdf:resource="http://purl.org/dc/dcmitype/StillImage" />
        <dc:title />
      </cc:Work>
    </rdf:RDF>
  </metadata>
  <sodipodi:namedview
     pagecolor="#ffffff"
     bordercolor="#666666"
     borderopacity="1"
     objecttolerance="10"
     gridtolerance="10"
     guidetolerance="10"
     inkscape:pageopacity="0"
     inkscape:pageshadow="2"
     inkscape:window-width="1092"
     inkscape:window-height="829"
     id="namedview24"
     showgrid="false"
     inkscape:zoom="9.8333333"
     inkscape:cx="20.930307"
     inkscape:cy="25.626579"
     inkscape:window-x="2237"
     inkscape:window-y="124"
     inkscape:window-maximized="0"
     inkscape:current-layer="svg2" />
  <defs
     id="defs4">
    <linearGradient
       id="linearGradient4226">
      <stop
         offset="0"
         style="stop-color:#94b4cf;stop-opacity:1;"
         id="stop7" />
      <stop
         offset="1"
         style="stop-color:#c9d5f6;stop-opacity:1;"
         id="stop9" />
    </linearGradient>
    <linearGradient
       gradientTransform="matrix(1.10525,0,0,1.10525,-134.27874,-295.76183)"
       xlink:href="#linearGradient4226"
       id="linearGradient3004"
       y1="279.096"
       y2="268.33"
       gradientUnits="userSpaceOnUse"
       x2="0" />
    <linearGradient
       inkscape:collect="always"
       xlink:href="#linearGradient4226"
       id="linearGradient3005"
       gradientUnits="userSpaceOnUse"
       gradientTransform="matrix(1.10525,0,0,1.10525,-134.27874,-295.76183)"
       y1="279.096"
       x2="0"
       y2="268.33" />
  </defs>
  <rect
     id="rect14"
     style="opacity:0.5;fill:#ffffff;fill-rule:evenodd"
     height="12.982"
     rx="6.4910002"
     y="0.28200001"
     x="0.28200001"
     width="12.982" />
  <rect
     id="rect16"
     style="fill:url(#linearGradient3005);fill-rule:evenodd"
     height="11.853"
     rx="5.9260001"
     y="0.847"
     x="0.847"
     width="11.853" />
  <g
     id="g2993"
     style="line-height:normal;color:#000000;fill:#ececec"
     transform="matrix(0.18683509,0,0,0.19689899,2.0881071,1.974122)">
    <path
       id="path2995"
       d="M 8.8125,5 C 8.370586,5.04603 7.9976238,5.46472 8,5.90625 l 0,22.1875 C 8.0000474,28.564952 8.4320605,28.999953 8.90625,29 L 24,29 24,41.09375 c 4.7e-5,0.471202 0.432061,0.906203 0.90625,0.90625 l 16.1875,0 C 41.56794,41.999953 41.999953,41.564952 42,41.09375 l 0,-20.6875 C 41.4,19.794982 38.978857,18.598779 38.40625,18 L 26,18 26,7.40625 C 25.4,6.794982 22.978857,5.598779 22.40625,5 l -13.5,0 C 8.874834,4.9984 8.843919,4.9984 8.8125,5 z M 11,8 l 9,0 0,2 3,0 0,16 -12,0 0,-18 z m 16,13 9,0 0,2 3,0 0,16 -12,0 0,-18 z"
       inkscape:connector-curvature="0"
       style="fill:#ececec" />
    <path
       id="path2997"
       d="m 12,12.042377 0,1 10,0 0,-1 -10,0 z"
       inkscape:connector-curvature="0"
       style="fill:#ececec" />
    <path
       id="path2999"
       d="m 12,13.974563 0,1 3,0 0,-1 -3,0 z"
       inkscape:connector-curvature="0"
       style="fill:#ececec" />
    <path
       id="path3001"
       d="m 20,16.974536 0,1 2,0 0,-1 -2,0 z"
       inkscape:connector-curvature="0"
       style="fill:#ececec" />
    <path
       id="path3003"
       d="m 12,19.008416 0,1 5,0 0,-1 -5,0 z"
       inkscape:connector-curvature="0"
       style="fill:#ececec" />
    <path
       id="path3005"
       d="m 18,19.008416 0,1 4,0 0,-1 -4,0 z"
       inkscape:connector-curvature="0"
       style="fill:#ececec" />
    <path
       id="path3007"
       d="m 16,13.974563 0,1 6,0 0,-1 -6,0 z"
       inkscape:connector-curvature="0"
       style="fill:#ececec" />
    <path
       id="path3009"
       d="m 12,17 0,1 7,0 0,-1 -7,0 z"
       inkscape:connector-curvature="0"
       style="fill:#ececec" />
    <path
       id="path3011"
       d="m 28,25 0,1 10,0 0,-1 -10,0 z"
       inkscape:connector-curvature="0"
       style="fill:#ececec" />
    <path
       id="path3013"
       d="m 28,26.932186 0,1 3,0 0,-1 -3,0 z"
       inkscape:connector-curvature="0"
       style="fill:#ececec" />
    <path
       id="path3015"
       d="m 36,29.932159 0,1 2,0 0,-1 -2,0 z"
       inkscape:connector-curvature="0"
       style="fill:#ececec" />
    <path
       id="path3017"
       d="m 28,31.966039 0,1 5,0 0,-1 -5,0 z"
       inkscape:connector-curvature="0"
       style="fill:#ececec" />
    <path
       id="path3019"
       d="m 34,31.966039 0,1 4,0 0,-1 -4,0 z"
       inkscape:connector-curvature="0"
       style="fill:#ececec" />
    <path
       id="path3021"
       d="m 32,26.932186 0,1 6,0 0,-1 -6,0 z"
       inkscape:connector-curvature="0"
       style="fill:#ececec" />
    <path
       id="path3023"
       d="m 28,29.957623 0,1 7,0 0,-1 -7,0 z"
       inkscape:connector-curvature="0"
       style="fill:#ececec" />
  </g>
</svg>
