<?xml version="1.0" encoding="UTF-8" standalone="no"?>
<svg
   xmlns:dc="http://purl.org/dc/elements/1.1/"
   xmlns:cc="http://creativecommons.org/ns#"
   xmlns:rdf="http://www.w3.org/1999/02/22-rdf-syntax-ns#"
   xmlns:svg="http://www.w3.org/2000/svg"
   xmlns="http://www.w3.org/2000/svg"
   xmlns:xlink="http://www.w3.org/1999/xlink"
   xmlns:sodipodi="http://sodipodi.sourceforge.net/DTD/sodipodi-0.dtd"
   xmlns:inkscape="http://www.inkscape.org/namespaces/inkscape"
   width="48"
   viewBox="0 0 13.546667 13.546667"
   height="48"
   id="svg2"
   version="1.1"
   inkscape:version="0.48.4 r9939"
   sodipodi:docname="superbeam.svg">
  <metadata
     id="metadata30">
    <rdf:RDF>
      <cc:Work
         rdf:about="">
        <dc:format>image/svg+xml</dc:format>
        <dc:type
           rdf:resource="http://purl.org/dc/dcmitype/StillImage" />
      </cc:Work>
    </rdf:RDF>
  </metadata>
  <sodipodi:namedview
     pagecolor="#ffffff"
     bordercolor="#666666"
     borderopacity="1"
     objecttolerance="10"
     gridtolerance="10"
     guidetolerance="10"
     inkscape:pageopacity="0"
     inkscape:pageshadow="2"
     inkscape:window-width="1680"
     inkscape:window-height="1027"
     id="namedview28"
     showgrid="false"
     showguides="true"
     inkscape:guide-bbox="true"
     inkscape:zoom="13.906433"
     inkscape:cx="17.087627"
     inkscape:cy="21.687061"
     inkscape:window-x="1920"
     inkscape:window-y="23"
     inkscape:window-maximized="1"
     inkscape:current-layer="svg2" />
  <defs
     id="defs4">
    <linearGradient
       id="linearGradient4460">
      <stop
         offset="0"
         style="stop-color:#2d2d2d"
         id="stop7" />
      <stop
         offset="1"
         style="stop-color:#4b4b4b"
         id="stop9" />
    </linearGradient>
    <linearGradient
       gradientTransform="matrix(1.10525 0 0 1.10525 -134.27882 -295.76197)"
       xlink:href="#linearGradient4460"
       id="linearGradient3101"
       y1="279.096"
       y2="268.33"
       gradientUnits="userSpaceOnUse"
       x2="0" />
    <linearGradient
       inkscape:collect="always"
       xlink:href="#linearGradient4460"
       id="linearGradient3795"
       gradientUnits="userSpaceOnUse"
       gradientTransform="matrix(1.10525,0,0,1.10525,-134.27882,-295.76197)"
       y1="279.096"
       x2="0"
       y2="268.33" />
    <linearGradient
       inkscape:collect="always"
       xlink:href="#linearGradient4460"
       id="linearGradient3806"
       gradientUnits="userSpaceOnUse"
       gradientTransform="matrix(1.10525,0,0,1.10525,-134.27882,-295.76197)"
       y1="279.096"
       x2="0"
       y2="268.33" />
  </defs>
  <g
     style="fill-rule:evenodd"
     id="g14"
     transform="translate(0.12176619,-0.16235492)">
    <rect
       id="rect16"
       style="opacity:0.5;fill:#ffffff"
       height="12.982"
       rx="6.4910002"
       y="0.28200001"
       x="0.28200001"
       width="12.982" />
    <rect
       id="rect18"
       style="fill:url(#linearGradient3806)"
       height="11.853"
       rx="5.9260001"
       y="0.847"
       x="0.847"
       width="11.853" />
  </g>
  <g
     style="fill:#33b5e5;fill-opacity:1;enable-background:new"
     transform="matrix(0.01096369,0,0,0.01607521,2.7976315,-1.2710075)"
     id="g4">
    <path
       inkscape:connector-curvature="0"
       style="line-height:normal;color:#000000;fill:#33b5e5;fill-opacity:1"
       d="m 372.85059,247.44685 c -127.99511,0 -247.42253,36.86174 -348.012357,100.7627 l 6.77396,9.3142 65.199397,77.05384 c 81.0361,-48.61348 175.66702,-77.05384 276.88574,-77.05384 101.10547,0 195.06252,28.54088 276.03902,77.05384 l 64.35264,-77.05384 6.77396,-9.3142 C 620.27285,284.30859 500.84545,247.44685 372.85059,247.44685 z m 0.84539,145.6402 c -92.67051,0 -179.37807,25.17017 -254.02362,68.58638 l 61.81242,73.66686 c 57.29227,-30.5186 123.05907,-48.26448 192.2112,-48.26448 69.15187,0 134.23855,17.74588 191.36446,48.26448 l 61.81242,-73.66686 C 552.4774,418.25722 466.36624,393.08705 373.69598,393.08705 z m 0,129.55206 c -60.79767,0 -118.55357,14.98996 -169.34908,40.64378 l 63.5059,75.36034 c 32.52181,-13.34688 67.85344,-21.16864 104.99644,-21.16864 37.39038,0 73.22139,7.65241 105.84318,21.16864 l 62.65916,-75.36034 C 490.87633,537.8407 434.22487,522.63911 373.69598,522.63911 z m -0.84539,131.24554 c -28.34036,0 -55.1593,5.5636 -80.44082,14.39466 l 80.44082,95.68224 80.44082,-96.52898 c -25.07098,-8.71158 -52.30151,-13.54792 -80.44082,-13.54792 z"
       id="path6" />
  </g>
</svg>
