<?xml version="1.0" encoding="UTF-8" standalone="no"?>
<svg
   xmlns:dc="http://purl.org/dc/elements/1.1/"
   xmlns:cc="http://creativecommons.org/ns#"
   xmlns:rdf="http://www.w3.org/1999/02/22-rdf-syntax-ns#"
   xmlns:svg="http://www.w3.org/2000/svg"
   xmlns="http://www.w3.org/2000/svg"
   xmlns:xlink="http://www.w3.org/1999/xlink"
   xmlns:sodipodi="http://sodipodi.sourceforge.net/DTD/sodipodi-0.dtd"
   xmlns:inkscape="http://www.inkscape.org/namespaces/inkscape"
   width="48"
   viewBox="0 0 13.546667 13.546667"
   height="48"
   id="svg2"
   version="1.1"
   inkscape:version="0.48.4 r9939"
   sodipodi:docname="file-manager.svg">
  <metadata
     id="metadata26">
    <rdf:RDF>
      <cc:Work
         rdf:about="">
        <dc:format>image/svg+xml</dc:format>
        <dc:type
           rdf:resource="http://purl.org/dc/dcmitype/StillImage" />
        <dc:title></dc:title>
      </cc:Work>
    </rdf:RDF>
  </metadata>
  <sodipodi:namedview
     pagecolor="#ffffff"
     bordercolor="#666666"
     borderopacity="1"
     objecttolerance="10"
     gridtolerance="10"
     guidetolerance="10"
     inkscape:pageopacity="0"
     inkscape:pageshadow="2"
     inkscape:window-width="1092"
     inkscape:window-height="829"
     id="namedview24"
     showgrid="false"
     inkscape:zoom="9.8333333"
     inkscape:cx="20.726917"
     inkscape:cy="25.626579"
     inkscape:window-x="2545"
     inkscape:window-y="100"
     inkscape:window-maximized="0"
     inkscape:current-layer="svg2" />
  <defs
     id="defs4">
    <linearGradient
       id="linearGradient4226">
      <stop
         offset="0"
         style="stop-color:#94b4cf;stop-opacity:1;"
         id="stop7" />
      <stop
         offset="1"
         style="stop-color:#c9d5f6;stop-opacity:1;"
         id="stop9" />
    </linearGradient>
    <linearGradient
       gradientTransform="matrix(1.10525,0,0,1.10525,-134.27874,-295.76183)"
       xlink:href="#linearGradient4226"
       id="linearGradient3004"
       y1="279.096"
       y2="268.33"
       gradientUnits="userSpaceOnUse"
       x2="0" />
    <linearGradient
       inkscape:collect="always"
       xlink:href="#linearGradient4226"
       id="linearGradient3005"
       gradientUnits="userSpaceOnUse"
       gradientTransform="matrix(1.10525,0,0,1.10525,-134.27874,-295.76183)"
       y1="279.096"
       x2="0"
       y2="268.33" />
  </defs>
  <rect
     id="rect14"
     style="opacity:0.5;fill:#ffffff;fill-rule:evenodd"
     height="12.982"
     rx="6.4910002"
     y="0.28200001"
     x="0.28200001"
     width="12.982" />
  <rect
     id="rect16"
     style="fill:url(#linearGradient3005);fill-rule:evenodd"
     height="11.853"
     rx="5.9260001"
     y="0.847"
     x="0.847"
     width="11.853" />
  <g
     style="line-height:normal;color:#000"
     transform="matrix(.73044 0 0 .74918 1.82594 -210.9409)"
     id="g18">
    <path
       style="fill:#bca5a6"
       d="m 3.0198259,293.20112 c -0.1447351,-0.0164 -0.2671274,-0.16346 -0.2664518,-0.32209 l 0,-6.09739 c 1.44e-5,-0.16859 0.1406074,-0.32208 0.2951462,-0.3221 l 7.2802627,0 c 0.154531,2e-5 0.29513,0.1534 0.295147,0.3221 l 0,5.53149 c -1.7e-5,0.1686 -0.140608,0.32208 -0.295147,0.3221 l -2.8428283,0 0,0.2438 c -1.44e-5,0.16859 -0.1406075,0.32207 -0.2951442,0.32209 l -4.1422902,0 c -0.00965,4.8e-4 -0.019098,4.8e-4 -0.028688,0 z"
       id="path20" />
    <path
       style="fill:#ecf0f1"
       d="m 2.4506358,287.25515 c -0.1705278,0.0164 -0.3147248,0.16325 -0.3139281,0.32195 l 0,6.09469 c 1.85e-5,0.1686 0.1656609,0.32194 0.3477359,0.32196 l 8.5774984,0 c 0.182069,-2e-5 0.34772,-0.1534 0.347738,-0.32196 l 0,-5.52904 c -1.8e-5,-0.1686 -0.165661,-0.32194 -0.347738,-0.32196 l -3.3493767,0 0,-0.24369 c -1.85e-5,-0.1686 -0.1656609,-0.32193 -0.3477359,-0.32195 l -4.8803858,0 c -0.011294,-5e-4 -0.022548,-5e-4 -0.033802,0 z"
       id="path22" />
  </g>
</svg>
