<?xml version="1.0" encoding="UTF-8" standalone="no"?>
<svg
   xmlns:dc="http://purl.org/dc/elements/1.1/"
   xmlns:cc="http://creativecommons.org/ns#"
   xmlns:rdf="http://www.w3.org/1999/02/22-rdf-syntax-ns#"
   xmlns:svg="http://www.w3.org/2000/svg"
   xmlns="http://www.w3.org/2000/svg"
   xmlns:xlink="http://www.w3.org/1999/xlink"
   xmlns:sodipodi="http://sodipodi.sourceforge.net/DTD/sodipodi-0.dtd"
   xmlns:inkscape="http://www.inkscape.org/namespaces/inkscape"
   width="48"
   viewBox="0 0 13.546667 13.546667"
   height="48"
   id="svg2"
   version="1.1"
   inkscape:version="0.48.4 r9939"
   sodipodi:docname="system-software-update.svg">
  <metadata
     id="metadata42">
    <rdf:RDF>
      <cc:Work
         rdf:about="">
        <dc:format>image/svg+xml</dc:format>
        <dc:type
           rdf:resource="http://purl.org/dc/dcmitype/StillImage" />
        <dc:title></dc:title>
      </cc:Work>
    </rdf:RDF>
  </metadata>

 <g>
  <title>Layer 1</title>
  <rect opacity="0.5" fill="#ffffff" fill-rule="evenodd" width="12.982" x="0.282" y="0.283" rx="6.491" height="12.982" id="rect14"/>
  <rect fill="#4a8cce" fill-rule="evenodd" width="11.853" x="0.847" y="0.847" rx="5.926" height="11.853" id="rect16"/>
  <rect opacity="0.97" fill="none" id="rect18" height="1.767" y="6.999" x="6.651" width="1.816"/>
  <path fill="#f9f9f9" id="path20" transform="scale(0.28222223,0.28222223)" d="m11,18l0,18l26,0l0,-18l-26,0zm10.84375,3l4.0625,0l0,5.375l3.09375,0l-5.0625,6.625l-4.9375,-6.625l2.84375,0l0,-5.375z"/>
  <g fill="#2d2d2d" id="g22">
   <g fill="#2d2d2d" id="g24" transform="matrix(0 .05879 -.07691 0 6.94584 4.62125)">
    <path fill="#2d2d2d" id="path26" d="m-12.08831,-9.46601c-3.13803,0.00002 -5.6185,1.0482 -7.441401,3.14453c-1.80991,2.08335 -2.714849,4.94142 -2.714849,8.57422c0,3.73699 0.872391,6.62761 2.617189,8.67187c1.757801,2.03126 4.257801,3.04688 7.500001,3.04688c1.99217,0 4.2643,-0.35807 6.81641,-1.07422l0,2.91016c-1.97919,0.74218 -4.42059,1.113279 -7.324221,1.113279c-4.205739,0 -7.45444,-1.27604 -9.7461,-3.82813c-2.278648,-2.55208 -3.417969,-6.17838 -3.417959,-10.87891c-0.00001,-2.94269 0.546869,-5.52081 1.640619,-7.73437c1.106771,-2.21352 2.695311,-3.91924 4.765631,-5.11719c2.083321,-1.19789 4.53123,-1.79684 7.34375,-1.79687c2.99477,0.000031 5.61195,0.5469 7.85156,1.64062l-1.40625,2.85156c-2.16148,-1.01559 -4.32294,-1.52341 -6.48438,-1.52343"/>
   </g>
   <rect fill="#2d2d2d" id="rect28" height="1.129" y="3.951" x="3.104" width="7.338"/>
  </g>
  <g fill="#f9f9f9" id="g30">
   <g id="g32" transform="matrix(0 .05879 -.07691 0 6.94584 5.75014)">
    <path id="path34" d="m-12.08831,-9.46601c-3.13803,0.00002 -5.6185,1.0482 -7.441401,3.14453c-1.80991,2.08335 -2.714849,4.94142 -2.714849,8.57422c0,3.73699 0.872391,6.62761 2.617189,8.67187c1.757801,2.03126 4.257801,3.04688 7.500001,3.04688c1.99217,0 4.2643,-0.35807 6.81641,-1.07422l0,2.91016c-1.97919,0.74218 -4.42059,1.113279 -7.324221,1.113279c-4.205739,0 -7.45444,-1.27604 -9.7461,-3.82813c-2.278648,-2.55208 -3.417969,-6.17838 -3.417959,-10.87891c-0.00001,-2.94269 0.546869,-5.52081 1.640619,-7.73437c1.106771,-2.21352 2.695311,-3.91924 4.765631,-5.11719c2.083321,-1.19789 4.53123,-1.79684 7.34375,-1.79687c2.99477,0.000031 5.61195,0.5469 7.85156,1.64062l-1.40625,2.85156c-2.16148,-1.01559 -4.32294,-1.52341 -6.48438,-1.52343"/>
   </g>
   <path id="path36" d="m3.10444,3.95112l0.84667,0.56444l-0.84667,0.56445l0,-1.12889z"/>
   <path id="path38" d="m10.44222,3.95112l-0.84666,0.56444l0.84666,0.56445l0,-1.12889z"/>
  </g>
 </g>
</svg>
