<svg xmlns="http://www.w3.org/2000/svg" xmlns:svg="http://www.w3.org/2000/svg" xmlns:xlink="http://www.w3.org/1999/xlink" id="svg2" width="96" height="96" version="1.1"><defs id="defs4"><linearGradient id="linearGradient3855"><stop id="stop3857" offset="0" stop-color="#000" stop-opacity="1"/><stop id="stop3859" offset="1" stop-color="#000" stop-opacity=".294"/></linearGradient><linearGradient id="linearGradient3833"><stop id="stop3835" offset="0" stop-color="#fdfeff" stop-opacity="1"/><stop id="stop3837" offset="1" stop-color="#dfe4e4" stop-opacity="1"/></linearGradient><linearGradient id="linearGradient3823"><stop id="stop3825" offset="0" stop-color="#49b7ef" stop-opacity="1"/><stop id="stop3827" offset="1" stop-color="#1d8de2" stop-opacity="1"/></linearGradient><linearGradient id="linearGradient3956"><stop id="stop3958" offset="0" stop-color="#f8f4e1" stop-opacity="1"/><stop id="stop3960" offset="1" stop-color="#eae5c8" stop-opacity="1"/></linearGradient><linearGradient id="linearGradient3915"><stop id="stop3917" offset="0" stop-color="#f8f4e1" stop-opacity="1"/><stop id="stop3919" offset="1" stop-color="#ad9e57" stop-opacity="1"/></linearGradient><linearGradient id="linearGradient3861"><stop id="stop3863" offset="0" stop-color="#000" stop-opacity="1"/><stop id="stop3865" offset="1" stop-color="#000" stop-opacity="0"/></linearGradient><linearGradient id="linearGradient3844"><stop id="stop3846" offset="0" stop-color="#000" stop-opacity=".392"/><stop id="stop3848" offset="1" stop-color="#000" stop-opacity="0"/></linearGradient><linearGradient id="linearGradient3810"><stop id="stop3812" offset="0" stop-color="#f2c66f" stop-opacity="1"/><stop id="stop3814" offset="1" stop-color="#fbd68f" stop-opacity="1"/></linearGradient><linearGradient id="linearGradient3816" x1="24" x2="24" y1="1046.362" y2="1014.362" gradientUnits="userSpaceOnUse" xlink:href="#linearGradient3810"/><radialGradient id="radialGradient3850" cx="24.076" cy="41.383" r="21.076" fx="24.076" fy="41.383" gradientTransform="matrix(1.992819,0,0,0.23724036,0.0215431,1032.5444)" gradientUnits="userSpaceOnUse" xlink:href="#linearGradient3844"/><linearGradient id="linearGradient3856" x1="24" x2="24" y1="1046.362" y2="1014.362" gradientTransform="translate(0,-3)" gradientUnits="userSpaceOnUse" xlink:href="#linearGradient3810"/><linearGradient id="linearGradient3858" x1="24" x2="24" y1="1046.362" y2="1014.362" gradientTransform="translate(0,-1004.3622)" gradientUnits="userSpaceOnUse" xlink:href="#linearGradient3810"/><linearGradient id="linearGradient3867" x1="1.995" x2="46.005" y1="28.563" y2="28.563" gradientUnits="userSpaceOnUse" xlink:href="#linearGradient3861"/><linearGradient id="linearGradient3921" x1="35" x2="38" y1="8" y2="5" gradientUnits="userSpaceOnUse" xlink:href="#linearGradient3915"/><linearGradient id="linearGradient3933" x1="35" x2="38" y1="8" y2="5" gradientTransform="matrix(1.0436562,0,0,1.2222222,26.301501,1003.2511)" gradientUnits="userSpaceOnUse" xlink:href="#linearGradient3915"/><linearGradient id="linearGradient3954" x1="35" x2="44" y1="11" y2="5" gradientTransform="translate(22,1004.3622)" gradientUnits="userSpaceOnUse" xlink:href="#linearGradient3915"/><linearGradient id="linearGradient3829" x1="21" x2="20" y1="14" y2="24" gradientUnits="userSpaceOnUse" xlink:href="#linearGradient3823"/><linearGradient id="linearGradient3839" x1="21" x2="20" y1="14" y2="26" gradientUnits="userSpaceOnUse" xlink:href="#linearGradient3833"/><linearGradient id="linearGradient3862" x1="22" x2="20" y1="15" y2="30" gradientUnits="userSpaceOnUse" xlink:href="#linearGradient3855"/><linearGradient id="linearGradient3862-0" x1="22" x2="20" y1="15" y2="30" gradientUnits="userSpaceOnUse" xlink:href="#linearGradient3855-4"/><linearGradient id="linearGradient3839-8" x1="21" x2="20" y1="14" y2="26" gradientUnits="userSpaceOnUse" xlink:href="#linearGradient3833-5"/><linearGradient id="linearGradient3829-0" x1="21" x2="20" y1="14" y2="24" gradientUnits="userSpaceOnUse" xlink:href="#linearGradient3823-8"/><linearGradient id="linearGradient3954-3" x1="35" x2="44" y1="11" y2="5" gradientTransform="translate(22,1004.3622)" gradientUnits="userSpaceOnUse" xlink:href="#linearGradient3915-5"/><linearGradient id="linearGradient3933-5" x1="35" x2="38" y1="8" y2="5" gradientTransform="matrix(1.0436562,0,0,1.2222222,26.301501,1003.2511)" gradientUnits="userSpaceOnUse" xlink:href="#linearGradient3915-5"/><linearGradient id="linearGradient3921-0" x1="35" x2="38" y1="8" y2="5" gradientUnits="userSpaceOnUse" xlink:href="#linearGradient3915-5"/><linearGradient id="linearGradient3867-7" x1="1.995" x2="46.005" y1="28.563" y2="28.563" gradientUnits="userSpaceOnUse" xlink:href="#linearGradient3861-2"/><linearGradient id="linearGradient3858-7" x1="24" x2="24" y1="1046.362" y2="1014.362" gradientTransform="translate(0,-1004.3622)" gradientUnits="userSpaceOnUse" xlink:href="#linearGradient3810-7"/><linearGradient id="linearGradient3856-4" x1="24" x2="24" y1="1046.362" y2="1014.362" gradientTransform="translate(0,-3)" gradientUnits="userSpaceOnUse" xlink:href="#linearGradient3810-7"/><radialGradient id="radialGradient3850-8" cx="24.076" cy="41.383" r="21.076" fx="24.076" fy="41.383" gradientTransform="matrix(1,0,0,0.11307633,0,36.703704)" gradientUnits="userSpaceOnUse" xlink:href="#linearGradient3844-0"/><linearGradient id="linearGradient3816-8" x1="24" x2="24" y1="1046.362" y2="1014.362" gradientUnits="userSpaceOnUse" xlink:href="#linearGradient3810-7"/><linearGradient id="linearGradient3810-7"><stop id="stop3812-4" offset="0" stop-color="#f2c66f" stop-opacity="1"/><stop id="stop3814-3" offset="1" stop-color="#fbd68f" stop-opacity="1"/></linearGradient><linearGradient id="linearGradient3844-0"><stop id="stop3846-1" offset="0" stop-color="#000" stop-opacity=".392"/><stop id="stop3848-3" offset="1" stop-color="#000" stop-opacity="0"/></linearGradient><linearGradient id="linearGradient3861-2"><stop id="stop3863-9" offset="0" stop-color="#000" stop-opacity="1"/><stop id="stop3865-7" offset="1" stop-color="#000" stop-opacity="0"/></linearGradient><linearGradient id="linearGradient3915-5"><stop id="stop3917-8" offset="0" stop-color="#f8f4e1" stop-opacity="1"/><stop id="stop3919-6" offset="1" stop-color="#ad9e57" stop-opacity="1"/></linearGradient><linearGradient id="linearGradient3956-5"><stop id="stop3958-8" offset="0" stop-color="#f8f4e1" stop-opacity="1"/><stop id="stop3960-2" offset="1" stop-color="#eae5c8" stop-opacity="1"/></linearGradient><linearGradient id="linearGradient3823-8"><stop id="stop3825-2" offset="0" stop-color="#49b7ef" stop-opacity="1"/><stop id="stop3827-8" offset="1" stop-color="#1d8de2" stop-opacity="1"/></linearGradient><linearGradient id="linearGradient3833-5"><stop id="stop3835-5" offset="0" stop-color="#fdfeff" stop-opacity="1"/><stop id="stop3837-3" offset="1" stop-color="#dfe4e4" stop-opacity="1"/></linearGradient><linearGradient id="linearGradient3855-4"><stop id="stop3857-0" offset="0" stop-color="#000" stop-opacity="1"/><stop id="stop3859-1" offset="1" stop-color="#000" stop-opacity=".294"/></linearGradient></defs><metadata id="metadata7"/><g id="layer1" transform="translate(0,-956.3622)"><ellipse id="path3842" cx="48" cy="1042.362" fill="url(#radialGradient3850)" fill-opacity="1" stroke="none" opacity=".65" rx="42" ry="5"/><g id="layer1-8" transform="matrix(1.9999991,0,0,1.9999991,2.7e-6,-1048.3613)"><rect id="rect3799" width="30" height="23" x="9" y="1006.362" fill="#eae7d1" fill-opacity="1" stroke="none" rx="2" ry="2"/><rect id="rect3812" width="24" height="2" x="12" y="1021.362" fill="#7a7a68" fill-opacity="1" stroke="none"/><path id="rect2987" fill="#5a9be7" fill-opacity="1" stroke="none" d="m 45,1024.3622 0,22 -42,0 0,-20 20,0 2,-4 18,0 c 1,0 2,1 2,2 z"/><path id="path3794" fill="#000" fill-opacity="1" stroke="none" d="m 3,1045.3622 0,1 42,0 0,-1 z" opacity=".15"/><path id="path3801" fill="none" stroke="none" d="m 25,13 -5,3 3,0 z" transform="translate(0,1004.3622)"/><path id="path3805" fill="#000" fill-opacity="1" stroke="none" d="m 25,1022.3622 -2,4 -20,0 0,1 21,0 2,-4 17,0 c 1,0 2,1 2,2 l 0,-1 c 0,-1 -1,-2 -2,-2 z" opacity=".03"/><rect id="rect3794" width="24" height="2" x="12" y="1009.362" fill="#7a7a68" fill-opacity="1" stroke="none"/><rect id="rect3808" width="24" height="2" x="12" y="1013.362" fill="#7a7a68" fill-opacity="1" stroke="none"/><rect id="rect3810" width="24" height="2" x="12" y="1017.362" fill="#7a7a68" fill-opacity="1" stroke="none"/></g><g id="g4224" transform="translate(-9.5617522,950.63847)"><path id="path2993" fill="#4caf50" fill-opacity="1" fill-rule="evenodd" d="m 95.557958,68.727477 c 0.13686,6.7392 -3.45175,13.027 -9.38966,16.438 -5.93031,3.411 -13.28237,3.411 -19.220288,0 -5.937914,-3.411 -9.526509,-9.6988 -9.382055,-16.438 -0.14446,-6.747 3.444141,-13.0344 9.382055,-16.4454 5.937918,-3.4112 13.289978,-3.4112 19.220288,0 5.93791,3.411 9.52651,9.6984 9.38966,16.4454 z"/><path id="path2995" fill="#fff" d="m 86.951398,56.777277 c -0.40295,0.142 -0.74509,0.4144 -0.97318,0.7682 l -10.35523,10.0224 -6.46251,-6.167 c -0.25851,-0.8508 -1.07202,-1.4232 -1.976778,-1.3782 -0.897148,0.052 -1.64224,0.708 -1.809504,1.5814 -0.15966,0.8812 0.31172,1.7546 1.140444,2.1084 l 7.785428,7.7108 c 0.7451,0.6928 1.90075,0.6928 2.64584,0 l 11.67815,-11.566 c 0.45617,-0.595 0.517,-1.4082 0.15966,-2.0708 -0.35734,-0.6628 -1.07962,-1.0542 -1.83232,-1.0092 z"/></g></g></svg>