<?xml version="1.0" encoding="UTF-8" standalone="no"?>
<svg
   xmlns:dc="http://purl.org/dc/elements/1.1/"
   xmlns:cc="http://creativecommons.org/ns#"
   xmlns:rdf="http://www.w3.org/1999/02/22-rdf-syntax-ns#"
   xmlns:svg="http://www.w3.org/2000/svg"
   xmlns="http://www.w3.org/2000/svg"
   xmlns:sodipodi="http://sodipodi.sourceforge.net/DTD/sodipodi-0.dtd"
   xmlns:inkscape="http://www.inkscape.org/namespaces/inkscape"
   width="48"
   viewBox="0 0 48 48"
   height="48"
   id="svg2"
   version="1.1"
   inkscape:version="0.48.4 r9939"
   sodipodi:docname="folder-coding.svg">
  <metadata
     id="metadata20">
    <rdf:RDF>
      <cc:Work
         rdf:about="">
        <dc:format>image/svg+xml</dc:format>
        <dc:type
           rdf:resource="http://purl.org/dc/dcmitype/StillImage" />
      </cc:Work>
    </rdf:RDF>
  </metadata>
  <defs
     id="defs18" />
  <sodipodi:namedview
     pagecolor="#ffffff"
     bordercolor="#666666"
     borderopacity="1"
     objecttolerance="10"
     gridtolerance="10"
     guidetolerance="10"
     inkscape:pageopacity="0"
     inkscape:pageshadow="2"
     inkscape:window-width="1198"
     inkscape:window-height="792"
     id="namedview16"
     showgrid="false"
     inkscape:zoom="13.906433"
     inkscape:cx="19.452207"
     inkscape:cy="21.919426"
     inkscape:window-x="2356"
     inkscape:window-y="208"
     inkscape:window-maximized="0"
     inkscape:current-layer="svg2" />
  <g
     id="g6"
     transform="translate(0,0.02821)"
     style="line-height:normal;stroke:#94b4cf">
    <path
       inkscape:connector-curvature="0"
       id="path8"
       d="M 5.7726797,37.763615 C 5.072828,37.691952 4.4809845,37.005311 4.4842511,36.268818 l 0,-28.2972824 C 4.4843243,7.1888845 5.1641834,6.476821 5.9114331,6.4767411 l 35.2038309,0 c 0.747251,7.99e-5 1.427108,0.7121434 1.427185,1.4947945 l 0,25.6710124 c -7.7e-5,0.782652 -0.679934,1.494713 -1.427185,1.494793 l -13.74654,0 0,1.131477 c -7.4e-5,0.782651 -0.679932,1.494718 -1.427182,1.494797 l -20.0301089,0 c -0.046215,0.0023 -0.092541,0.0023 -0.1387534,0 z"
       style="fill:#94b4cf" />
    <path
       inkscape:connector-curvature="0"
       id="path10"
       d="m 3.0135456,10.496092 c -0.8278953,0.07094 -1.5280205,0.750639 -1.5241566,1.479691 l 0,28.01137 c 8.85e-5,0.774744 0.8043308,1.479612 1.6882966,1.479689 l 41.6446434,0 c 0.883968,-7.7e-5 1.688208,-0.704945 1.688298,-1.479689 l 0,-25.411636 c -9e-5,-0.774743 -0.80433,-1.479612 -1.688298,-1.479691 l -16.261576,0 0,-1.120043 c -8.9e-5,-0.774743 -0.804331,-1.479613 -1.688296,-1.479691 l -23.6947714,0 c -0.05467,-0.0023 -0.1094698,-0.0023 -0.16414,0 z"
       style="fill:#c9d5f6" />
  </g>
  <text
     sodipodi:linespacing="125%"
     x="11.08947"
     y="31.696001"
     style="font-size:17.50482558999999938px;line-height:125%;letter-spacing:0;word-spacing:0;fill:#94b4cf;font-family:Open Sans;fill-opacity:1"
     xml:space="preserve"
     transform="scale(0.95409415,1.0481146)"
     id="text10"><tspan
       x="11.08947"
       y="31.696001"
       id="tspan12"
       style="fill:#94b4cf;fill-opacity:1">{ }</tspan></text>
</svg>
