<?xml version="1.0" encoding="UTF-8" standalone="no"?>
<svg
   xmlns:osb="http://www.openswatchbook.org/uri/2009/osb"
   xmlns:dc="http://purl.org/dc/elements/1.1/"
   xmlns:cc="http://creativecommons.org/ns#"
   xmlns:rdf="http://www.w3.org/1999/02/22-rdf-syntax-ns#"
   xmlns:svg="http://www.w3.org/2000/svg"
   xmlns="http://www.w3.org/2000/svg"
   xmlns:sodipodi="http://sodipodi.sourceforge.net/DTD/sodipodi-0.dtd"
   xmlns:inkscape="http://www.inkscape.org/namespaces/inkscape"
   width="48"
   viewBox="0 0 48 48"
   height="48"
   id="svg2"
   version="1.1"
   inkscape:version="0.48.4 r9939"
   sodipodi:docname="folder-cgi.svg">
  <metadata
     id="metadata20">
    <rdf:RDF>
      <cc:Work
         rdf:about="">
        <dc:format>image/svg+xml</dc:format>
        <dc:type
           rdf:resource="http://purl.org/dc/dcmitype/StillImage" />
      </cc:Work>
    </rdf:RDF>
  </metadata>
  <defs
     id="defs18">
    <linearGradient
       id="linearGradient3790"
       osb:paint="solid">
      <stop
         style="stop-color:#000000;stop-opacity:1;"
         offset="0"
         id="stop3792" />
    </linearGradient>
  </defs>
  <sodipodi:namedview
     pagecolor="#ffffff"
     bordercolor="#666666"
     borderopacity="1"
     objecttolerance="10"
     gridtolerance="10"
     guidetolerance="10"
     inkscape:pageopacity="0"
     inkscape:pageshadow="2"
     inkscape:window-width="1680"
     inkscape:window-height="1027"
     id="namedview16"
     showgrid="false"
     inkscape:zoom="4.9166666"
     inkscape:cx="-18.741335"
     inkscape:cy="-10.997249"
     inkscape:window-x="1920"
     inkscape:window-y="23"
     inkscape:window-maximized="1"
     inkscape:current-layer="svg2" />
  <g
     id="g6"
     transform="translate(0,0.02821)"
     style="line-height:normal;stroke:#94b4cf">
    <path
       inkscape:connector-curvature="0"
       id="path8"
       d="M 5.7726797,37.763615 C 5.072828,37.691952 4.4809845,37.005311 4.4842511,36.268818 l 0,-28.2972824 C 4.4843243,7.1888845 5.1641834,6.476821 5.9114331,6.4767411 l 35.2038309,0 c 0.747251,7.99e-5 1.427108,0.7121434 1.427185,1.4947945 l 0,25.6710124 c -7.7e-5,0.782652 -0.679934,1.494713 -1.427185,1.494793 l -13.74654,0 0,1.131477 c -7.4e-5,0.782651 -0.679932,1.494718 -1.427182,1.494797 l -20.0301089,0 c -0.046215,0.0023 -0.092541,0.0023 -0.1387534,0 z"
       style="fill:#94b4cf" />
    <path
       inkscape:connector-curvature="0"
       id="path10"
       d="m 3.0135456,10.496092 c -0.8278953,0.07094 -1.5280205,0.750639 -1.5241566,1.479691 l 0,28.01137 c 8.85e-5,0.774744 0.8043308,1.479612 1.6882966,1.479689 l 41.6446434,0 c 0.883968,-7.7e-5 1.688208,-0.704945 1.688298,-1.479689 l 0,-25.411636 c -9e-5,-0.774743 -0.80433,-1.479612 -1.688298,-1.479691 l -16.261576,0 0,-1.120043 c -8.9e-5,-0.774743 -0.804331,-1.479613 -1.688296,-1.479691 l -23.6947714,0 c -0.05467,-0.0023 -0.1094698,-0.0023 -0.16414,0 z"
       style="fill:#c9d5f6" />
  </g>
  <path
     id="path28"
     d="m 24.083493,14.70909 c -0.436357,0 -0.880428,0.160512 -1.247999,0.446976 -0.369265,0.286629 -0.609398,0.668526 -0.639999,1.117565 -0.03061,0.448956 0.139963,0.901624 0.479999,1.213245 l 0,0.03134 c 0.797522,0.69987 1.627695,1.42168 2.431998,2.139202 l -9.023993,0 c -0.641434,0 -1.184834,0.148882 -1.599999,0.478897 -0.415166,0.330016 -0.679817,0.823348 -0.767999,1.372933 -0.172619,1.075911 0.586531,2.298807 1.823998,2.298807 l 3.935997,0 -8.223994,6.768737 c 8.26e-4,0 -0.0074,-0.01732 -0.032,0 -0.502604,0.4285 -0.857346,1.022049 -0.991999,1.628218 -0.134652,0.606169 -0.06912,1.247228 0.288,1.756067 0.726125,1.03401 2.184005,1.007533 3.199998,0.09609 l 4.319997,-3.927108 c 0.0069,0.45836 0.115283,1.173077 0.287999,1.787989 0.354636,1.256796 0.959385,2.427233 1.791999,3.44821 0.853701,1.047124 1.895198,1.894887 3.103998,2.490333 1.27179,0.62547 2.639136,0.928431 4.063997,0.925874 1.424789,0 2.79296,-0.327871 4.063997,-0.957878 1.207625,-0.60089 2.282862,-1.440404 3.135998,-2.490332 0.830421,-1.024689 1.405505,-2.191084 1.759999,-3.448211 0.179539,-0.63644 0.3054,-1.29878 0.351999,-1.94751 0.04481,-0.638091 0.01763,-1.27816 -0.064,-1.915673 -0.158561,-1.244424 -0.525991,-2.417995 -1.119999,-3.480214 -0.465553,-0.83308 -1.084134,-1.558107 -1.759998,-2.202961 l 0.032,-0.03134 -0.352,-0.287289 -7.999994,-6.832578 c 5.25e-4,4.12e-4 -0.02969,-0.02887 -0.032,-0.03134 -0.0045,0 -0.02745,0 -0.032,0 -0.347211,-0.289763 -0.753315,-0.447801 -1.183999,-0.446976 z M 27.187,22.293 c 4.135505,0 7.088,2.944823 7.088,7.071045 0,4.126222 -2.952004,7.070955 -7.087509,7.070955 -4.135506,0 -7.088491,-2.944733 -7.088491,-7.070955 0,-4.126222 2.952494,-7.071045 7.088,-7.071045 z"
     style="line-height:normal;color:#000000;fill:#94b4cf;fill-opacity:1;fill-rule:evenodd;stroke:none"
     inkscape:connector-curvature="0"
     sodipodi:nodetypes="ccccccsscscccscccccccccccccccccccccsssss" />
  <path
     style="fill:#94b4cf;fill-opacity:1;stroke:none"
     id="path30"
     d="m 30.876457,29.427989 c 0,2.079922 -1.68992,3.766033 -3.774542,3.766033 -2.084621,0 -3.774543,-1.686111 -3.774543,-3.766033 0,-2.079922 1.689922,-3.766032 3.774543,-3.766032 2.084622,0 3.774542,1.68611 3.774542,3.766032 z"
     inkscape:connector-curvature="0" />
</svg>
