<?xml version="1.0" encoding="UTF-8" standalone="no"?>
<svg
   xmlns:dc="http://purl.org/dc/elements/1.1/"
   xmlns:cc="http://creativecommons.org/ns#"
   xmlns:rdf="http://www.w3.org/1999/02/22-rdf-syntax-ns#"
   xmlns:svg="http://www.w3.org/2000/svg"
   xmlns="http://www.w3.org/2000/svg"
   xmlns:sodipodi="http://sodipodi.sourceforge.net/DTD/sodipodi-0.dtd"
   xmlns:inkscape="http://www.inkscape.org/namespaces/inkscape"
   width="48"
   viewBox="0 0 48 48"
   height="48"
   id="svg2"
   version="1.1"
   inkscape:version="0.48.4 r9939"
   sodipodi:docname="folder-university.svg">
  <metadata
     id="metadata20">
    <rdf:RDF>
      <cc:Work
         rdf:about="">
        <dc:format>image/svg+xml</dc:format>
        <dc:type
           rdf:resource="http://purl.org/dc/dcmitype/StillImage" />
      </cc:Work>
    </rdf:RDF>
  </metadata>
  <defs
     id="defs18" />
  <sodipodi:namedview
     pagecolor="#ffffff"
     bordercolor="#666666"
     borderopacity="1"
     objecttolerance="10"
     gridtolerance="10"
     guidetolerance="10"
     inkscape:pageopacity="0"
     inkscape:pageshadow="2"
     inkscape:window-width="1680"
     inkscape:window-height="1027"
     id="namedview16"
     showgrid="false"
     inkscape:zoom="22.627417"
     inkscape:cx="25.461487"
     inkscape:cy="24.675045"
     inkscape:window-x="1920"
     inkscape:window-y="23"
     inkscape:window-maximized="1"
     inkscape:current-layer="svg2" />
  <g
     id="g6"
     transform="translate(0,0.02821)"
     style="line-height:normal;stroke:#94b4cf">
    <path
       inkscape:connector-curvature="0"
       id="path8"
       d="M 5.7726797,37.763615 C 5.072828,37.691952 4.4809845,37.005311 4.4842511,36.268818 l 0,-28.2972824 C 4.4843243,7.1888845 5.1641834,6.476821 5.9114331,6.4767411 l 35.2038309,0 c 0.747251,7.99e-5 1.427108,0.7121434 1.427185,1.4947945 l 0,25.6710124 c -7.7e-5,0.782652 -0.679934,1.494713 -1.427185,1.494793 l -13.74654,0 0,1.131477 c -7.4e-5,0.782651 -0.679932,1.494718 -1.427182,1.494797 l -20.0301089,0 c -0.046215,0.0023 -0.092541,0.0023 -0.1387534,0 z"
       style="fill:#94b4cf" />
    <path
       inkscape:connector-curvature="0"
       id="path10"
       d="m 3.0135456,10.496092 c -0.8278953,0.07094 -1.5280205,0.750639 -1.5241566,1.479691 l 0,28.01137 c 8.85e-5,0.774744 0.8043308,1.479612 1.6882966,1.479689 l 41.6446434,0 c 0.883968,-7.7e-5 1.688208,-0.704945 1.688298,-1.479689 l 0,-25.411636 c -9e-5,-0.774743 -0.80433,-1.479612 -1.688298,-1.479691 l -16.261576,0 0,-1.120043 c -8.9e-5,-0.774743 -0.804331,-1.479613 -1.688296,-1.479691 l -23.6947714,0 c -0.05467,-0.0023 -0.1094698,-0.0023 -0.16414,0 z"
       style="fill:#c9d5f6" />
  </g>
  <g
     id="g3913">
    <path
       style="fill:#94b4cf;fill-opacity:1"
       inkscape:connector-curvature="0"
       d="m 39.392223,27.250942 0.104993,-0.134952 c 0.61799,0.371478 1.155279,0.823657 1.709123,1.259373 0.06271,0.452449 -0.152586,0.627077 -0.08997,1.079436 -2.75716,0.250201 -5.278424,0.556902 -7.916107,0.899591 -0.830405,0.107871 -1.786676,0.150696 -2.518746,0.359782 -1.087893,0.310929 -1.481503,1.094011 -2.788649,1.259462 -0.638683,0.0807 -1.111555,-0.161492 -1.799181,-0.08997 -0.831574,0.08646 -1.825002,0.660186 -2.698771,0.989469 -2.600436,0.980292 -5.316302,2.048032 -7.646294,3.238489 C 15.04903,35.394037 14.647772,34.446944 14.129376,33.592787 12.62781,31.118486 10.979775,28.567532 9.451668,26.036551 9.371147,25.746045 9.7450538,25.910146 9.8115401,25.766647 l 0.1349521,0.04498 0.1349518,-0.04498 c 1.877363,3.100209 3.811316,6.143828 5.757235,9.175481 0.05353,-0.186234 -0.1112,-0.59082 0.08997,-0.629686 l 0.104993,0.134952 0.164911,-0.04498 c 0.119388,0.394509 -0.170039,0.84255 -0.08997,0.89959 3.300568,-1.617086 5.811666,-4.023731 10.794726,-3.958144 -0.07629,-1.035712 0.471972,-1.447046 0.809532,-2.068995 -0.14233,-0.0075 -0.342958,0.04328 -0.359692,-0.08997 l 0.04498,-0.134862 -0.04498,-0.134952 c 0.07656,0.01664 0.08475,-0.03509 0.08997,-0.08997 l 0.121906,-0.109221 -0.03194,-0.160683 c 0.347636,0.01223 0.354654,0.365 0.629596,0.44984 l 0.109311,0.121997 0.160593,-0.03203 c -0.0601,0.389652 -0.416282,0.483218 -0.44984,0.8995 0.423839,-0.026 0.636974,-0.262616 1.169405,-0.179846 0.354654,0.09519 0.342958,0.556723 0.539808,0.809533 1.756806,-2.171199 6.08004,-1.775969 9.895225,-1.889059 -0.106882,-0.522805 -0.373728,-0.885646 -0.359872,-1.529187 l 0.164911,0.04498 z"
       id="path7" />
    <g
       transform="matrix(1.030301,0,0,1.030301,0.02459433,-0.04984752)"
       id="g3868">
      <path
         id="path5"
         d="m 38.387344,25.286463 c 0.276921,-0.06703 0.172918,0.246873 0.44984,0.179937 0.147547,0.192531 -0.229329,0.436704 -0.08997,0.89959 l -0.164912,-0.04498 -0.104992,0.134952 c -0.201079,-0.03887 -0.03644,-0.443452 -0.08997,-0.629776 l 0.03995,-0.244983 -0.219882,-0.114799 c 0,-0.02996 0,-0.06001 0,-0.08997 l 0.134952,0.04498 0.04498,-0.134952 z"
         inkscape:connector-curvature="0"
         style="fill:#909ec8;fill-opacity:1" />
      <path
         id="path9"
         d="m 9.2263626,24.881697 -0.1649114,0.04498 c 0.00747,-0.142419 -0.043275,-0.343138 0.089968,-0.359872 l 0.1049927,0.134952 0.1649114,-0.04498 c -0.00747,0.14242 0.043275,0.342958 -0.089968,0.359872 L 9.2263626,24.881697 z"
         inkscape:connector-curvature="0"
         style="fill:#94b4cf;fill-opacity:1" />
      <path
         style="fill:none;stroke:#909ec8;stroke-width:0.28446996;stroke-linecap:round;stroke-opacity:1"
         inkscape:connector-curvature="0"
         d="m 38.582304,26.270159 c 0.01997,0.06001 0.03995,0.119927 0.05992,0.179936"
         id="path13" />
      <path
         style="fill:none;stroke:#94b4cf;stroke-width:0.377;stroke-linecap:round;stroke-miterlimit:4;stroke-opacity:1;stroke-dasharray:none"
         inkscape:connector-curvature="0"
         d="m 9.1964032,25.061633 c 0.0036,-0.06001 0.016554,-0.119927 0.029959,-0.179936"
         id="path15" />
      <path
         style="fill:none;stroke:#94b4cf;stroke-width:0.3003763;stroke-linecap:round;stroke-opacity:1"
         inkscape:connector-curvature="0"
         d="m 9.2564119,24.701761 c 0.075933,-0.444262 0.1425994,-1.01376 0.6056649,-1.223565"
         id="path17" />
      <path
         style="fill:none;stroke:#94b4cf;stroke-width:0.505;stroke-linecap:round;stroke-miterlimit:4;stroke-opacity:1;stroke-dasharray:none"
         inkscape:connector-curvature="0"
         d="M 9.8620768,23.478376 C 12.676097,21.610999 16.614538,18.644753 19.888475,21.399034"
         id="path19" />
      <path
         style="fill:none;stroke:#94b4cf;stroke-width:0.509;stroke-linecap:round;stroke-miterlimit:4;stroke-opacity:1;stroke-dasharray:none"
         inkscape:connector-curvature="0"
         d="m 19.888475,21.399034 c 1.937282,-3.23489 6.171358,-1.629501 9.264369,-2.315957 3.041729,2.137911 6.216252,4.129713 9.189605,6.338428"
         id="path21" />
      <path
         style="fill:none;stroke:#94b4cf;stroke-width:0.35896349;stroke-linecap:round;stroke-opacity:1"
         inkscape:connector-curvature="0"
         d="m 27.521813,28.377136 c 2.479699,-3.389546 7.279674,-2.16949 10.905566,-2.795757"
         id="path23" />
      <path
         style="fill:none;stroke:#94b4cf;stroke-width:0.57300001;stroke-linecap:round;stroke-miterlimit:4;stroke-opacity:1;stroke-dasharray:none"
         inkscape:connector-curvature="0"
         d="m 19.888475,21.399034 c 2.343937,2.149427 4.572266,4.434705 6.926639,6.566768"
         id="path25" />
      <path
         style="fill:none;stroke:#94b4cf;stroke-width:0.53500003;stroke-linecap:round;stroke-miterlimit:4;stroke-opacity:1;stroke-dasharray:none"
         inkscape:connector-curvature="0"
         d="m 9.8620768,23.478376 c 1.9808262,2.782711 3.6285912,5.831008 5.5862952,8.644849"
         id="path27" />
      <path
         style="fill:none;stroke:#94b4cf;stroke-width:0.46799999;stroke-linecap:round;stroke-miterlimit:4;stroke-opacity:1;stroke-dasharray:none"
         inkscape:connector-curvature="0"
         d="m 15.448462,32.123135 c 3.579559,-1.630671 7.01031,-4.379374 11.199492,-3.823102"
         id="path29" />
      <path
         style="fill:none;stroke:#94b4cf;stroke-width:0.53500003;stroke-linecap:round;stroke-miterlimit:4;stroke-opacity:1;stroke-dasharray:none"
         inkscape:connector-curvature="0"
         d="m 15.448462,32.123135 c -0.05002,0.525053 -0.08367,1.051996 -0.164911,1.574261"
         id="path31" />
    </g>
  </g>
</svg>
