<?xml version="1.0" encoding="UTF-8" standalone="no"?>
<!-- Created with Inkscape (http://www.inkscape.org/) -->

<svg
   xmlns:dc="http://purl.org/dc/elements/1.1/"
   xmlns:cc="http://creativecommons.org/ns#"
   xmlns:rdf="http://www.w3.org/1999/02/22-rdf-syntax-ns#"
   xmlns:svg="http://www.w3.org/2000/svg"
   xmlns="http://www.w3.org/2000/svg"
   xmlns:sodipodi="http://sodipodi.sourceforge.net/DTD/sodipodi-0.dtd"
   xmlns:inkscape="http://www.inkscape.org/namespaces/inkscape"
   id="svg7384"
   height="16"
   width="16"
   version="1.1"
   inkscape:version="0.48.4 r9939"
   sodipodi:docname="folder-remote-symbolic.svg">
  <defs
     id="defs10" />
  <sodipodi:namedview
     pagecolor="#ffffff"
     bordercolor="#666666"
     borderopacity="1"
     objecttolerance="10"
     gridtolerance="10"
     guidetolerance="10"
     inkscape:pageopacity="0"
     inkscape:pageshadow="2"
     inkscape:window-width="822"
     inkscape:window-height="698"
     id="namedview8"
     showgrid="false"
     inkscape:zoom="22.627418"
     inkscape:cx="8.1627754"
     inkscape:cy="5.5193901"
     inkscape:window-x="184"
     inkscape:window-y="130"
     inkscape:window-maximized="0"
     inkscape:current-layer="svg7384"
     showguides="true"
     inkscape:guide-bbox="true" />
  <metadata
     id="metadata90">
    <rdf:RDF>
      <cc:Work
         rdf:about="">
        <dc:format>image/svg+xml</dc:format>
        <dc:type
           rdf:resource="http://purl.org/dc/dcmitype/StillImage" />
        <dc:title>Gnome Symbolic Icon Theme</dc:title>
      </cc:Work>
    </rdf:RDF>
  </metadata>
  <title
     id="title9167">Gnome Symbolic Icon Theme</title>
  <g
     id="layer13"
     transform="translate(-462,-176)">
    <g
       id="g14176"
       transform="translate(234 -820)">
      <path
         id="rect3861"
         style="fill:#bebebe"
         d="m 228.53,996 c -0.28913,0 -0.53125,0.24212 -0.53125,0.53125 l 0,11.55665 c 0,0.2985 0.23264,0.5312 0.53125,0.5312 l 7.46113,0 0,1.3813 -7.52353,0 c -0.26299,0 -0.46875,0.2057 -0.46875,0.4688 l 0,1.0625 c 0,0.263 0.20576,0.4687 0.46875,0.4687 l 15.05433,0 c 0.26299,0 0.35871,-0.203 0.46875,-0.4687 0.11004,-0.2657 0.11006,-0.7968 0,-1.0625 -0.11006,-0.2657 -0.20575,-0.4688 -0.46875,-0.4688 l -5.5312,0 0,-1.3813 5.4688,0 c 0.2986,0 0.53125,-0.2326 0.53125,-0.5312 l 0,-6.5562 c 0,-0.2891 -0.24212,-0.5313 -0.53125,-0.5313 l -11.61805,0 0,4.5 c 0,0.2771 -0.223,0.5 -0.5,0.5 -0.277,0 -0.5,-0.2229 -0.5,-0.5 l 0,-5 c 0,-0.277 0.223,-0.5 0.5,-0.5 l 4.11785,0 6.5312,0 0,-1.40615 c 0,-0.32713 -0.26666,-0.59375 -0.59375,-0.59375 l -6.375,0 0,-1.4688 c -0.01,-0.39 -0.25,-0.63 -0.54,-0.63 z"
         inkscape:connector-curvature="0"
         sodipodi:nodetypes="csssccssssszzsccsssscsssssccsscccc" />
    </g>
  </g>
</svg>
