<svg xmlns="http://www.w3.org/2000/svg" xmlns:svg="http://www.w3.org/2000/svg" xmlns:xlink="http://www.w3.org/1999/xlink" id="svg2" width="32" height="32" version="1.1"><defs id="defs4"><radialGradient id="radialGradient3981" cx="32.5" cy="56.5" r="33.5" fx="32.5" fy="56.5" gradientTransform="matrix(1,0,0,0.10447761,0,50.597015)" gradientUnits="userSpaceOnUse" xlink:href="#linearGradient3958"/><linearGradient id="linearGradient3958"><stop id="stop3960" offset="0" stop-color="#000" stop-opacity="1"/><stop id="stop3962" offset="1" stop-color="#000" stop-opacity="0"/></linearGradient><radialGradient id="radialGradient3964" cx="32.5" cy="56.5" r="33.5" fx="32.5" fy="56.5" gradientTransform="matrix(1,0,0,0.10447761,0,50.597015)" gradientUnits="userSpaceOnUse" xlink:href="#linearGradient3958"/><radialGradient id="radialGradient3031" cx="32.5" cy="56.5" r="33.5" fx="32.5" fy="56.5" gradientTransform="matrix(1,0,0,0.10447761,0,50.597015)" gradientUnits="userSpaceOnUse" xlink:href="#linearGradient3958"/><linearGradient id="linearGradient3958-1"><stop id="stop3960-7" offset="0" stop-color="#000" stop-opacity="1"/><stop id="stop3962-1" offset="1" stop-color="#000" stop-opacity="0"/></linearGradient><radialGradient id="radialGradient3964-6" cx="32.5" cy="56.5" r="33.5" fx="32.5" fy="56.5" gradientTransform="matrix(1,0,0,0.10447761,0,50.597015)" gradientUnits="userSpaceOnUse" xlink:href="#linearGradient3958-1"/></defs><metadata id="metadata7"/><g id="layer1" transform="translate(0,-1020.3622)"><path id="path3956" fill="url(#radialGradient3031)" fill-opacity="1" stroke="none" d="m 66,56.5 a 33.5,3.5 0 1 1 -67,0 33.5,3.5 0 1 1 67,0 z" opacity=".3" transform="matrix(0.71641791,0,0,0.85714286,-7.2835821,1002.9336)"/><rect id="rect3048" width="26" height="19" x="3" y="1020.362" fill="#eae7d1" fill-opacity="1" stroke="none"/><rect id="rect3794" width="20" height="2" x="6" y="1022.362" fill="#7a7a68" fill-opacity="1" stroke="none"/><rect id="rect3912" width="20" height="2" x="6" y="1026.362" fill="#7a7a68" fill-opacity="1" stroke="none"/><rect id="rect3914" width="20" height="2" x="6" y="1030.362" fill="#7a7a68" fill-opacity="1" stroke="none"/><path id="rect2987-7" fill="#5a9be7" fill-opacity="1" stroke="none" d="m 32,1033.0341 0,18.3281 -32,0 0,-17 15,0 1.5,-3 13.976191,0.062 c 0.761904,0 1.523809,0.8051 1.523809,1.61 z"/><path id="path3794-5" fill="#000" fill-opacity="1" stroke="none" d="m 0,1050.3622 0,1 32,0 0,-1 z" opacity=".15"/><path id="path3015-2" fill="#000" fill-opacity="1" stroke="none" d="m 16.5,1031.3622 -1.5,3 -15,0 0,1 15.5,0 1.5,-3 13.46875,0.062 c 0.761904,0 1.53125,0.7666 1.53125,1.5313 l 0,-1 c 0,0 -0.769346,-1.5313 -1.53125,-1.5313 z" opacity=".03"/></g></svg>