<svg xmlns="http://www.w3.org/2000/svg" xmlns:svg="http://www.w3.org/2000/svg" xmlns:xlink="http://www.w3.org/1999/xlink" id="svg2" width="32" height="32" version="1.1"><defs id="defs4"><linearGradient id="linearGradient3958"><stop id="stop3960" offset="0" stop-color="#000" stop-opacity="1"/><stop id="stop3962" offset="1" stop-color="#000" stop-opacity="0"/></linearGradient><radialGradient id="radialGradient3964" cx="32.5" cy="56.5" r="33.5" fx="32.5" fy="56.5" gradientTransform="matrix(1,0,0,0.10447761,0,50.597015)" gradientUnits="userSpaceOnUse" xlink:href="#linearGradient3958"/><radialGradient id="radialGradient3031" cx="32.5" cy="56.5" r="33.5" fx="32.5" fy="56.5" gradientTransform="matrix(1,0,0,0.10447761,0,50.597015)" gradientUnits="userSpaceOnUse" xlink:href="#linearGradient3958"/><radialGradient id="radialGradient3964-3" cx="32.5" cy="56.5" r="33.5" fx="32.5" fy="56.5" gradientTransform="matrix(1,0,0,0.10447761,0,50.597015)" gradientUnits="userSpaceOnUse" xlink:href="#linearGradient3958-5"/><linearGradient id="linearGradient3958-5"><stop id="stop3960-1" offset="0" stop-color="#000" stop-opacity="1"/><stop id="stop3962-5" offset="1" stop-color="#000" stop-opacity="0"/></linearGradient><radialGradient id="radialGradient3964-1" cx="32.5" cy="56.5" r="33.5" fx="32.5" fy="56.5" gradientTransform="matrix(1,0,0,0.10447761,0,50.597015)" gradientUnits="userSpaceOnUse" xlink:href="#linearGradient3958-3"/><linearGradient id="linearGradient3958-3"><stop id="stop3960-6" offset="0" stop-color="#000" stop-opacity="1"/><stop id="stop3962-1" offset="1" stop-color="#000" stop-opacity="0"/></linearGradient></defs><metadata id="metadata7"/><g id="layer1" transform="translate(0,-1020.3622)"><path id="path3956" fill="url(#radialGradient3031)" fill-opacity="1" stroke="none" d="M 66,56.5 C 66,58.432997 51.001539,60 32.5,60 13.998461,60 -1,58.432997 -1,56.5 -1,54.567003 13.998461,53 32.5,53 51.001539,53 66,54.567003 66,56.5 z" opacity=".3" transform="matrix(0.71641791,0,0,0.85714286,-7.2835821,999.9336)"/><path id="path3029" fill="#1976d2" fill-opacity="1" stroke="none" d="m 0,1024.8916 0,21.4118 32,0 0,-10.7059 -1.523809,-9.1765 -11.976191,-0.059 -1.5,-3 -15.476191,0 C 0.761905,1023.362 0,1024.1267 0,1024.8914 z"/><rect id="rect3799" width="15.786" height="5.941" x="2.5" y="1027.362" fill="#f2f2f2" fill-opacity="1" stroke="none"/><path id="path3790" fill="#000" fill-opacity="1" stroke="none" d="M 1.53125,1023.3622 C 0.769346,1023.3622 0,1024.1288 0,1024.8935 l 0,1 c 0,-0.7647 0.769346,-1.5313 1.53125,-1.5313 l 14.96875,0 1.5,3 12.46875,0.062 1.53125,9.1719 0,-1 -1.53125,-9.1719 -11.96875,-0.062 -1.5,-3 z" opacity=".03"/><path id="rect2987" fill="#5a9be7" fill-opacity="1" stroke="none" d="m 32,1027.9505 0,21.4117 -32,0 0,-20 15,0 1.5,-3 13.976191,0.059 c 0.761904,0 1.523809,0.7648 1.523809,1.5295 z"/><path id="path3794" fill="#000" fill-opacity="1" stroke="none" d="m 0,1048.3622 0,1 32,0 0,-1 z" opacity=".15"/><path id="path3015" fill="#000" fill-opacity="1" stroke="none" d="m 16.5,1026.3622 -1.5,3 -15,0 0,1 15.5,0 1.5,-3 13.46875,0.062 c 0.761905,0 1.53125,0.7666 1.53125,1.5313 l 0,-1 c 0,-0.7647 -0.769345,-1.5313 -1.53125,-1.5313 z" opacity=".03"/><path id="path3007" fill="#2a74b9" fill-opacity="1" stroke="none" d="m 17,38 a 3,3 0 1 1 -6,0 3,3 0 1 1 6,0 z" opacity="1" transform="matrix(0.5,0,0,0.5,1,1019.8622)"/><path id="path3030" fill="#2a74b9" fill-opacity="1" stroke="none" d="m 16,1032.8622 c -1.146007,0 -2.214948,0.3163 -3.125,0.875 l 1.484375,1.4844 c 0.500795,-0.2256 1.055705,-0.3594 1.640625,-0.3594 2.039144,0 3.721845,1.5278 3.96875,3.5 l 2,0 c -0.08123,-0.9598 -0.380601,-1.8627 -0.859375,-2.6406 -0.187854,0.085 -0.389948,0.1406 -0.609375,0.1406 -0.828427,0 -1.5,-0.6715 -1.5,-1.5 0,-0.2194 0.05596,-0.4215 0.140625,-0.6093 -0.913482,-0.5622 -1.989321,-0.8907 -3.140625,-0.8907 z m -3.921875,1.4844 c -0.939491,0.8191 -1.632945,1.9157 -1.921875,3.1719 0.497642,0.2441 0.84375,0.752 0.84375,1.3437 0,0.5917 -0.346108,1.0997 -0.84375,1.3438 0.311283,1.3533 1.070871,2.5414 2.125,3.375 l 1.4375,-1.4375 C 12.681129,1041.4208 12,1040.2226 12,1038.8622 c 0,-1.2551 0.579906,-2.376 1.484375,-3.1093 l -1.40625,-1.4063 z m 7.890625,5.0156 c -0.246905,1.9722 -1.929606,3.5 -3.96875,3.5 -0.472894,0 -0.922653,-0.099 -1.34375,-0.25 l -1.515625,1.5157 c 0.850961,0.4649 1.821394,0.7343 2.859375,0.7343 0.756371,0 1.474116,-0.1352 2.140625,-0.3906 C 18.055955,1044.2837 18,1044.0817 18,1043.8622 c 0,-0.8284 0.671573,-1.5 1.5,-1.5 0.402031,0 0.761929,0.1644 1.03125,0.4219 0.810237,-0.9354 1.329628,-2.1156 1.4375,-3.4219 l -2,0 z" opacity="1"/><path id="path3046" fill="#2a74b9" fill-opacity="1" stroke="none" d="m 17,38 a 3,3 0 1 1 -6,0 3,3 0 1 1 6,0 z" opacity="1" transform="matrix(0.5,0,0,0.5,14.5,1014.3622)"/><path id="path3050" fill="#2a74b9" fill-opacity="1" stroke="none" d="m 17,38 a 3,3 0 1 1 -6,0 3,3 0 1 1 6,0 z" opacity="1" transform="matrix(0.5,0,0,0.5,13.5,1025.8622)"/></g></svg>