<svg xmlns="http://www.w3.org/2000/svg" xmlns:svg="http://www.w3.org/2000/svg" xmlns:xlink="http://www.w3.org/1999/xlink" id="svg2" width="32" height="32" version="1.1"><defs id="defs4"><linearGradient id="linearGradient3958"><stop id="stop3960" offset="0" stop-color="#000" stop-opacity="1"/><stop id="stop3962" offset="1" stop-color="#000" stop-opacity="0"/></linearGradient><radialGradient id="radialGradient3964" cx="32.5" cy="56.5" r="33.5" fx="32.5" fy="56.5" gradientTransform="matrix(1,0,0,0.10447761,0,50.597015)" gradientUnits="userSpaceOnUse" xlink:href="#linearGradient3958"/><radialGradient id="radialGradient3031" cx="32.5" cy="56.5" r="33.5" fx="32.5" fy="56.5" gradientTransform="matrix(1,0,0,0.10447761,0,50.597015)" gradientUnits="userSpaceOnUse" xlink:href="#linearGradient3958"/><radialGradient id="radialGradient3964-4" cx="32.5" cy="56.5" r="33.5" fx="32.5" fy="56.5" gradientTransform="matrix(1,0,0,0.10447761,0,50.597015)" gradientUnits="userSpaceOnUse" xlink:href="#linearGradient3958-4"/><linearGradient id="linearGradient3958-4"><stop id="stop3960-2" offset="0" stop-color="#000" stop-opacity="1"/><stop id="stop3962-1" offset="1" stop-color="#000" stop-opacity="0"/></linearGradient><radialGradient id="radialGradient3964-3" cx="32.5" cy="56.5" r="33.5" fx="32.5" fy="56.5" gradientTransform="matrix(1,0,0,0.10447761,0,50.597015)" gradientUnits="userSpaceOnUse" xlink:href="#linearGradient3958-3"/><linearGradient id="linearGradient3958-3"><stop id="stop3960-1" offset="0" stop-color="#000" stop-opacity="1"/><stop id="stop3962-10" offset="1" stop-color="#000" stop-opacity="0"/></linearGradient></defs><metadata id="metadata7"/><g id="layer1" transform="translate(0,-1020.3622)"><path id="path3956" fill="url(#radialGradient3031)" fill-opacity="1" stroke="none" d="m 66,56.5 a 33.5,3.5 0 1 1 -67,0 33.5,3.5 0 1 1 67,0 z" opacity=".3" transform="matrix(0.71641791,0,0,0.85714286,-7.2835821,999.9336)"/><path id="path3029" fill="#1976d2" fill-opacity="1" stroke="none" d="m 0,1024.8917 0,21.4117 32,0 0,-10.7059 -1.52381,-9.1765 -11.97619,-0.059 -1.5,-3 -15.476191,0 C 0.761905,1023.362 0,1024.1267 0,1024.8915 z"/><rect id="rect3799" width="15.786" height="5.941" x="2.5" y="1027.362" fill="#f2f2f2" fill-opacity="1" stroke="none"/><path id="path3790" fill="#000" fill-opacity="1" stroke="none" d="M 1.53125,1023.3622 C 0.769345,1023.3622 0,1024.1288 0,1024.8935 l 0,1 c 0,-0.7647 0.769345,-1.5313 1.53125,-1.5313 l 14.96875,0 1.5,3 12.46875,0.062 1.53125,9.1719 0,-1 -1.53125,-9.1719 -11.96875,-0.062 -1.5,-3 z" opacity=".03"/><path id="rect2987" fill="#5a9be7" fill-opacity="1" stroke="none" d="m 32,1027.9504 0,21.4118 -32,0 0,-20 15,0 1.5,-3 13.97619,0.059 c 0.761905,0 1.52381,0.7648 1.52381,1.5294 z"/><path id="path3794" fill="#000" fill-opacity="1" stroke="none" d="m 0,1048.3622 0,1 32,0 0,-1 z" opacity=".15"/><path id="path3015" fill="#000" fill-opacity="1" stroke="none" d="m 16.5,1026.3622 -1.5,3 -15,0 0,1 15.5,0 1.5,-3 13.46875,0.062 c 0.761904,0 1.53125,0.7666 1.53125,1.5313 l 0,-1 c 0,-0.7647 -0.769346,-1.5313 -1.53125,-1.5313 z" opacity=".03"/><path id="path3974" fill="#2a74b9" fill-opacity="1" d="m 20.519813,1033.363 c -0.518192,0.01 -1.027972,0.3267 -1.109557,0.9207 -0.130536,0.9505 0.848485,0.594 1.631702,0.594 0.783216,0 1.044288,1.5445 0.848485,2.3761 -0.195805,0.8317 -2.277579,2.7961 -6.983684,0.8317 -3.874611,-1.6173 -5.809133,0.5361 -5.906759,0.5792 0.366686,3.213 3.356353,6.6975 6.983682,6.6975 3.875005,0 7.016318,-3.8391 7.016318,-7.3658 0,-0.4051 -0.0513,-0.804 -0.130537,-1.1881 -0.07205,-0.1941 -0.142906,-0.3877 -0.195803,-0.5643 -0.09482,-0.3164 -0.201904,-0.5834 -0.293707,-0.8317 -0.004,-0.01 0.004,-0.022 0,-0.03 -0.370929,-0.7497 -0.890988,-1.4275 -1.533799,-1.99 -0.0029,-0.01 -0.01343,0.01 -0.01632,0 -0.100452,-0.024 -0.206385,-0.031 -0.310024,-0.03 z" color="#000" opacity="1" style="line-height:normal"/><path id="path3976" fill="#2a74b9" fill-opacity="1" d="m 19,1036.3623 c 0,0.5523 -0.447715,0.9999 -1,0.9999 -0.552285,0 -1,-0.4476 -1,-0.9999 0,-0.5523 0.447715,-1.0001 1,-1.0001 0.552285,0 1,0.4478 1,1.0001 z" color="#000" opacity="1" style="line-height:normal"/><path id="path3978" fill="#2a74b9" fill-opacity="1" d="m 16,1034.8622 c 0,0.2762 -0.223858,0.5 -0.5,0.5 -0.276142,0 -0.5,-0.2238 -0.5,-0.5 0,-0.2762 0.223858,-0.5 0.5,-0.5 0.276142,0 0.5,0.2238 0.5,0.5 z" color="#000" opacity="1" style="line-height:normal"/></g></svg>