<svg xmlns="http://www.w3.org/2000/svg" xmlns:svg="http://www.w3.org/2000/svg" xmlns:xlink="http://www.w3.org/1999/xlink" id="svg2" width="32" height="32" version="1.1"><defs id="defs4"><linearGradient id="linearGradient3958"><stop id="stop3960" offset="0" stop-color="#000" stop-opacity="1"/><stop id="stop3962" offset="1" stop-color="#000" stop-opacity="0"/></linearGradient><radialGradient id="radialGradient3964" cx="32.5" cy="56.5" r="33.5" fx="32.5" fy="56.5" gradientTransform="matrix(1,0,0,0.10447761,0,50.597015)" gradientUnits="userSpaceOnUse" xlink:href="#linearGradient3958"/><radialGradient id="radialGradient3031" cx="32.5" cy="56.5" r="33.5" fx="32.5" fy="56.5" gradientTransform="matrix(1,0,0,0.10447761,0,50.597015)" gradientUnits="userSpaceOnUse" xlink:href="#linearGradient3958"/><radialGradient id="radialGradient3964-4" cx="32.5" cy="56.5" r="33.5" fx="32.5" fy="56.5" gradientTransform="matrix(1,0,0,0.10447761,0,50.597015)" gradientUnits="userSpaceOnUse" xlink:href="#linearGradient3958-4"/><linearGradient id="linearGradient3958-4"><stop id="stop3960-2" offset="0" stop-color="#000" stop-opacity="1"/><stop id="stop3962-1" offset="1" stop-color="#000" stop-opacity="0"/></linearGradient></defs><metadata id="metadata7"/><g id="layer1" transform="translate(0,-1020.3622)"><path id="path3956" fill="url(#radialGradient3031)" fill-opacity="1" stroke="none" d="m 66,56.5 a 33.5,3.5 0 1 1 -67,0 33.5,3.5 0 1 1 67,0 z" opacity=".3" transform="matrix(0.71641791,0,0,0.85714286,-7.2835821,999.9336)"/><g id="g4325" transform="matrix(0.5,0,0,0.5,20.823632,508.499)"><path id="path3029" fill="#1976d2" fill-opacity="1" stroke="none" d="m -41.647264,1032.7853 0,42.8234 64,0 0,-21.4117 -3.047619,-18.353 -23.952381,-0.1176 -3,-6 -30.952381,0 c -1.523809,0 -3.047619,1.5295 -3.047619,3.0589 z"/><rect id="rect3799" width="31.571" height="11.882" x="-36.647" y="1037.726" fill="#f2f2f2" fill-opacity="1" stroke="none"/><path id="path3790" fill="#000" fill-opacity="1" stroke="none" d="m -38.584764,1029.7264 c -1.523809,0 -3.0625,1.5331 -3.0625,3.0625 l 0,2 c 0,-1.5294 1.538691,-3.0625 3.0625,-3.0625 l 29.9375,0 3,6 24.9375,0.125 3.0625,18.3438 0,-2 -3.0625,-18.3438 -23.9375,-0.125 -3,-6 z" opacity=".03"/><path id="rect2987" fill="#5a9be7" fill-opacity="1" stroke="none" d="m 22.352736,1038.9029 0,42.8235 -64,0 0,-40 30,0 3,-6 27.952381,0.1176 c 1.523809,0 3.047619,1.5295 3.047619,3.0589 z"/><path id="path3794" fill="#000" fill-opacity="1" stroke="none" d="m -41.647264,1079.7264 0,2 64,0 0,-2 z" opacity=".15"/><path id="path3015" fill="#000" fill-opacity="1" stroke="none" d="m -8.647264,1035.7264 -3,6 -30,0 0,2 31,0 3,-6 26.9375,0.125 c 1.523809,0 3.0625,1.5331 3.0625,3.0625 l 0,-2 c 0,-1.5294 -1.538691,-3.0625 -3.0625,-3.0625 z" opacity=".03"/><path id="rect3007" fill="#2a74b9" fill-opacity="1" d="m -18.647264,1049.7264 c -1.662,0 -3,1.338 -3,3 l 0,18 c 0,1.662 1.338,3 3,3 l 18,0 c 1.662,0 3,-1.338 3,-3 l 0,-18 c 0,-1.662 -1.338,-3 -3,-3 z m 1,2 4,0 0,4 -4,0 z m 12,0 4,0 0,4 -4,0 z m -12,8 4,0 0,4 -4,0 z m 12,0 4,0 0,4 -4,0 z m -12,8 4,0 0,4 -4,0 z m 12,0 4,0 0,4 -4,0 z" opacity="1"/></g></g></svg>