<svg xmlns="http://www.w3.org/2000/svg" xmlns:svg="http://www.w3.org/2000/svg" xmlns:xlink="http://www.w3.org/1999/xlink" id="svg2" width="32" height="32" version="1.1"><defs id="defs4"><linearGradient id="linearGradient3958"><stop id="stop3960" offset="0" stop-color="#000" stop-opacity="1"/><stop id="stop3962" offset="1" stop-color="#000" stop-opacity="0"/></linearGradient><radialGradient id="radialGradient3964" cx="32.5" cy="56.5" r="33.5" fx="32.5" fy="56.5" gradientTransform="matrix(1,0,0,0.10447761,0,50.597015)" gradientUnits="userSpaceOnUse" xlink:href="#linearGradient3958"/><radialGradient id="radialGradient3031" cx="32.5" cy="56.5" r="33.5" fx="32.5" fy="56.5" gradientTransform="matrix(1,0,0,0.10447761,0,50.597015)" gradientUnits="userSpaceOnUse" xlink:href="#linearGradient3958"/><radialGradient id="radialGradient3964-4" cx="32.5" cy="56.5" r="33.5" fx="32.5" fy="56.5" gradientTransform="matrix(1,0,0,0.10447761,0,50.597015)" gradientUnits="userSpaceOnUse" xlink:href="#linearGradient3958-4"/><linearGradient id="linearGradient3958-4"><stop id="stop3960-2" offset="0" stop-color="#000" stop-opacity="1"/><stop id="stop3962-1" offset="1" stop-color="#000" stop-opacity="0"/></linearGradient></defs><metadata id="metadata7"/><g id="layer1" transform="translate(0,-1020.3622)"><path id="path3956" fill="url(#radialGradient3031)" fill-opacity="1" stroke="none" d="m 66,56.5 a 33.5,3.5 0 1 1 -67,0 33.5,3.5 0 1 1 67,0 z" opacity=".3" transform="matrix(0.71641791,0,0,0.85714286,-7.2835821,999.9336)"/><path id="path3029" fill="#1976d2" fill-opacity="1" stroke="none" d="m 0,1024.8917 0,21.4117 32,0 0,-10.7059 -1.523809,-9.1765 -11.976191,-0.059 -1.5,-3 -15.4761905,0 C 0.761905,1023.3622 0,1024.1269 0,1024.8917 z"/><rect id="rect3799" width="15.786" height="5.941" x="2.5" y="1027.362" fill="#f2f2f2" fill-opacity="1" stroke="none"/><path id="path3790" fill="#000" fill-opacity="1" stroke="none" d="M 1.53125,1023.3622 C 0.7693455,1023.3622 0,1024.1288 0,1024.8935 l 0,1 c 0,-0.7647 0.7693455,-1.5313 1.53125,-1.5313 l 14.96875,0 1.5,3 12.46875,0.062 1.53125,9.1719 0,-1 -1.53125,-9.1719 -11.96875,-0.062 -1.5,-3 z" opacity=".03"/><path id="rect2987" fill="#5a9be7" fill-opacity="1" stroke="none" d="m 32,1027.9505 0,21.4117 -32,0 0,-20 15,0 1.5,-3 13.976191,0.059 c 0.761904,0 1.523809,0.7648 1.523809,1.5295 z"/><path id="path3794" fill="#000" fill-opacity="1" stroke="none" d="m 0,1048.3622 0,1 32,0 0,-1 z" opacity=".15"/><path id="path3015" fill="#000" fill-opacity="1" stroke="none" d="m 16.5,1026.3622 -1.5,3 -15,0 0,1 15.5,0 1.5,-3 13.46875,0.062 c 0.761904,0 1.53125,0.7666 1.53125,1.5313 l 0,-1 c 0,-0.7647 -0.769346,-1.5313 -1.53125,-1.5313 z" opacity=".03"/><polygon id="polygon3475-1" fill="#2a74b9" fill-opacity="1" fill-rule="evenodd" points="22194 115341 44385 76894 133156 76894 110963 115341" opacity="1" transform="matrix(8.955039e-5,0,0,7.8028193e-5,10.271888,1035.3624)"/><polygon id="polygon3477-6" fill="#2a74b9" fill-opacity="1" fill-rule="evenodd" points="44385 0 88772 76894 133156 76894 88772 0" opacity="1" transform="matrix(8.8510347e-5,0,0,9.1034411e-5,10.410376,1033.3623)"/><path id="polygon3479-9" fill="#2a74b9" fill-opacity="1" fill-rule="evenodd" d="m 13.710336,1033.9909 -3.910336,6.306 1.830997,3.6656 3.807912,-6.6716 z" opacity="1"/></g></svg>