<svg xmlns="http://www.w3.org/2000/svg" xmlns:svg="http://www.w3.org/2000/svg" xmlns:xlink="http://www.w3.org/1999/xlink" id="svg2" width="32" height="32" version="1.1"><defs id="defs4"><linearGradient id="linearGradient3958"><stop id="stop3960" offset="0" stop-color="#000" stop-opacity="1"/><stop id="stop3962" offset="1" stop-color="#000" stop-opacity="0"/></linearGradient><radialGradient id="radialGradient3964" cx="32.5" cy="56.5" r="33.5" fx="32.5" fy="56.5" gradientTransform="matrix(1,0,0,0.10447761,0,50.597015)" gradientUnits="userSpaceOnUse" xlink:href="#linearGradient3958"/><radialGradient id="radialGradient3031" cx="32.5" cy="56.5" r="33.5" fx="32.5" fy="56.5" gradientTransform="matrix(1,0,0,0.10447761,0,50.597015)" gradientUnits="userSpaceOnUse" xlink:href="#linearGradient3958"/><radialGradient id="radialGradient3964-4" cx="32.5" cy="56.5" r="33.5" fx="32.5" fy="56.5" gradientTransform="matrix(1,0,0,0.10447761,0,50.597015)" gradientUnits="userSpaceOnUse" xlink:href="#linearGradient3958-4"/><linearGradient id="linearGradient3958-4"><stop id="stop3960-2" offset="0" stop-color="#000" stop-opacity="1"/><stop id="stop3962-1" offset="1" stop-color="#000" stop-opacity="0"/></linearGradient></defs><metadata id="metadata7"/><g id="layer1" transform="translate(0,-1020.3622)"><path id="path3956" fill="url(#radialGradient3031)" fill-opacity="1" stroke="none" d="M 66,56.5 C 66,58.432997 51.001539,60 32.5,60 13.998461,60 -1,58.432997 -1,56.5 -1,54.567003 13.998461,53 32.5,53 51.001539,53 66,54.567003 66,56.5 z" opacity=".3" transform="matrix(0.71641791,0,0,0.85714286,-7.2835821,999.9336)"/><path id="path3029" fill="#1976d2" fill-opacity="1" stroke="none" d="m 0,1024.8917 0,21.4117 32,0 0,-10.7059 -1.523809,-9.1765 -11.976191,-0.059 -1.5,-3 -15.4761905,0 C 0.761905,1023.3622 0,1024.1269 0,1024.8917 z"/><rect id="rect3799" width="15.786" height="5.941" x="2.5" y="1027.362" fill="#f2f2f2" fill-opacity="1" stroke="none"/><path id="path3790" fill="#000" fill-opacity="1" stroke="none" d="M 1.53125,1023.3622 C 0.7693455,1023.3622 0,1024.1288 0,1024.8935 l 0,1 c 0,-0.7647 0.7693455,-1.5313 1.53125,-1.5313 l 14.96875,0 1.5,3 12.46875,0.062 1.53125,9.1719 0,-1 -1.53125,-9.1719 -11.96875,-0.062 -1.5,-3 z" opacity=".03"/><path id="rect2987" fill="#5a9be7" fill-opacity="1" stroke="none" d="m 32,1027.9505 0,21.4117 -32,0 0,-20 15,0 1.5,-3 13.976191,0.059 c 0.761904,0 1.523809,0.7648 1.523809,1.5295 z"/><path id="path3794" fill="#000" fill-opacity="1" stroke="none" d="m 0,1048.3622 0,1 32,0 0,-1 z" opacity=".15"/><path id="path3015" fill="#000" fill-opacity="1" stroke="none" d="m 16.5,1026.3622 -1.5,3 -15,0 0,1 15.5,0 1.5,-3 13.46875,0.062 c 0.761904,0 1.53125,0.7666 1.53125,1.5313 l 0,-1 c 0,-0.7647 -0.769346,-1.5313 -1.53125,-1.5313 z" opacity=".03"/><path id="path3447" fill="#2a74b9" fill-opacity="1" fill-rule="nonzero" stroke="none" d="m 19.748008,1033.3618 c -1.607379,0 -2.921804,1.3416 -2.921804,2.9894 0,0.553 0.158945,1.0755 0.417401,1.5225 l 0,3.2386 c -0.318345,0.068 -0.612449,0.2164 -0.860888,0.4153 l -2.895714,-1.3287 c 0,-1.1752 -0.939387,-2.1315 -2.087,-2.1315 -1.145561,0 -2.087003,0.9557 -2.087003,2.1315 0,1.1775 0.940929,2.1591 2.087003,2.1591 0.464783,0 0.903962,-0.1762 1.2522,-0.4429 l 2.921802,1.3563 c 0.03012,1.151 0.959695,2.076 2.087001,2.076 1.147614,0 2.087002,-0.954 2.087002,-2.1314 0,-0.4905 -0.169855,-0.9387 -0.443488,-1.3009 l 0.02609,0 1.539164,-2.7958 c 0.01098,-0.012 0.01517,-0.023 0.02609,-0.027 1.030147,-0.4654 1.773952,-1.5172 1.773952,-2.7404 0,-1.6461 -1.316478,-2.9895 -2.921803,-2.9895 z m 0,0.9964 c 1.079805,0 1.930476,0.8859 1.930476,1.993 0,1.1092 -0.851185,1.993 -1.930476,1.993 -1.081346,0 -1.930477,-0.8838 -1.930477,-1.993 0,-1.1071 0.849131,-1.993 1.930477,-1.993 z m 0,0.7198 c -0.690419,0 -1.252202,0.562 -1.252202,1.2732 0,0.7085 0.561783,1.2733 1.252202,1.2733 0.692473,0 1.252201,-0.5642 1.252201,-1.2733 0,-0.7108 -0.559728,-1.2732 -1.252201,-1.2732 z m -8.348006,3.8476 c 0.685456,0 1.076349,0.2837 1.200026,0.858 l -0.730452,-0.3323 c -0.473635,-0.2066 -1.025256,0.012 -1.226113,0.4983 -0.200858,0.4858 0.02202,1.0413 0.495662,1.2458 l 0.547839,0.2766 c -0.09146,0.015 -0.182424,0.027 -0.286962,0.027 -0.83477,0 -1.252201,-0.4429 -1.252201,-1.3008 0,-0.8558 0.417431,-1.2734 1.252201,-1.2734 z m 6.261004,2.8511 c 0.772609,0 1.382638,0.6473 1.382638,1.4393 0,0.792 -0.610029,1.4117 -1.382638,1.4117 -0.627402,0 -1.157089,-0.4138 -1.330464,-0.9966 l 0.991327,0.4431 c 0.473634,0.2065 1.025255,-0.038 1.226113,-0.526 0.200857,-0.4857 -0.02203,-1.0412 -0.495663,-1.2456 l -0.913063,-0.4153 c 0.159946,-0.066 0.337947,-0.1099 0.52175,-0.1099 z" opacity="1"/></g></svg>