<?xml version="1.0" encoding="UTF-8" standalone="no"?>
<!-- Created with Inkscape (http://www.inkscape.org/) -->

<svg
   xmlns:osb="http://www.openswatchbook.org/uri/2009/osb"
   xmlns:dc="http://purl.org/dc/elements/1.1/"
   xmlns:cc="http://creativecommons.org/ns#"
   xmlns:rdf="http://www.w3.org/1999/02/22-rdf-syntax-ns#"
   xmlns:svg="http://www.w3.org/2000/svg"
   xmlns="http://www.w3.org/2000/svg"
   xmlns:sodipodi="http://sodipodi.sourceforge.net/DTD/sodipodi-0.dtd"
   xmlns:inkscape="http://www.inkscape.org/namespaces/inkscape"
   width="48"
   height="48"
   id="svg2"
   version="1.1"
   inkscape:version="0.48.5 r10040"
   sodipodi:docname="folder-guitar (another copy).svg"
   inkscape:export-filename="/media/Data/Main/Visuals/Icons/Numix/Desktop/repos/numix-wiki/Gjorgi/Numix-folders/48/New/folder-144.png"
   inkscape:export-xdpi="270"
   inkscape:export-ydpi="270">
  <defs
     id="defs4">
    <linearGradient
       osb:paint="solid"
       id="linearGradient3790">
      <stop
         id="stop3792"
         offset="0"
         style="stop-color:#000000;stop-opacity:1;" />
    </linearGradient>
    <clipPath
       id="clipPath-817735736">
      <g
         id="g12"
         transform="translate(0,-1004.3622)">
        <path
           id="path14"
           transform="matrix(15.333333,0,0,11.5,414.99999,878.8622)"
           d="m -24,13 c 0,1.105 -0.672,2 -1.5,2 -0.828,0 -1.5,-0.895 -1.5,-2 0,-1.105 0.672,-2 1.5,-2 0.828,0 1.5,0.895 1.5,2 z"
           inkscape:connector-curvature="0"
           style="fill:#1890d0" />
      </g>
    </clipPath>
    <clipPath
       id="clipPath-823433458">
      <g
         id="g17"
         transform="translate(0,-1004.3622)">
        <path
           id="path19"
           transform="matrix(15.333333,0,0,11.5,414.99999,878.8622)"
           d="m -24,13 c 0,1.105 -0.672,2 -1.5,2 -0.828,0 -1.5,-0.895 -1.5,-2 0,-1.105 0.672,-2 1.5,-2 0.828,0 1.5,0.895 1.5,2 z"
           inkscape:connector-curvature="0"
           style="fill:#1890d0" />
      </g>
    </clipPath>
    <clipPath
       id="clipPath7137"
       clipPathUnits="userSpaceOnUse">
      <path
         inkscape:connector-curvature="0"
         style="color:#bebebe;fill:#555753;fill-opacity:1;fill-rule:nonzero;stroke:none;stroke-width:2;marker:none;visibility:visible;display:inline;overflow:visible;enable-background:accumulate"
         d="m 1799,552 c -0.554,0 -1,0.446 -1,1 l 0,1.1875 c -1.1584,0.41551 -2,1.51118 -2,2.8125 0,0.86863 0.3788,1.63965 0.9688,2.1875 l -1.8126,7.8125 -2.6562,0 c -0.277,0 -0.5,0.223 -0.5,0.5 0,0.277 0.223,0.5 0.5,0.5 l 2.4375,0 -0.9375,4 c -0.5,1.5 0.5,1.5 0.5,1.5 l 0.5,1.5 1.8125,-7 1.1875,0 c 0,0.554 0.446,1 1,1 0.554,0 1,-0.446 1,-1 l 1.1875,0 1.8125,7 0.5,-1.5 c 0,0 1,0 0.5,-1.5 l -0.9375,-4 2.4375,0 c 0.277,0 0.5,-0.223 0.5,-0.5 0,-0.277 -0.223,-0.5 -0.5,-0.5 l -2.6562,0 -1.8126,-7.8125 c 0.59,-0.54785 0.9688,-1.31887 0.9688,-2.1875 0,-1.30132 -0.8416,-2.39699 -2,-2.8125 L 1800,553 c 0,-0.554 -0.446,-1 -1,-1 z m 0,3 c 1.1046,0 2,0.89543 2,2 0,1.10457 -0.8954,2 -2,2 -1.1046,0 -2,-0.89543 -2,-2 0,-1.10457 0.8954,-2 2,-2 z m -0.125,5 c 0.043,0.002 0.082,0 0.125,0 0.043,0 0.082,0.002 0.125,0 l 1.8125,7 -0.9375,0 c 0,-0.554 -0.446,-1 -1,-1 -0.554,0 -1,0.446 -1,1 l -0.9375,0 1.8125,-7 z"
         id="path7139" />
    </clipPath>
  </defs>
  <sodipodi:namedview
     id="base"
     pagecolor="#ffffff"
     bordercolor="#666666"
     borderopacity="1.0"
     inkscape:pageopacity="0.0"
     inkscape:pageshadow="2"
     inkscape:zoom="9.848163"
     inkscape:cx="37.234914"
     inkscape:cy="20.63534"
     inkscape:document-units="px"
     inkscape:current-layer="layer1"
     showgrid="true"
     inkscape:window-width="1158"
     inkscape:window-height="943"
     inkscape:window-x="681"
     inkscape:window-y="92"
     inkscape:window-maximized="0"
     showguides="true"
     inkscape:guide-bbox="true">
    <inkscape:grid
       type="xygrid"
       id="grid2985"
       empspacing="5"
       visible="true"
       enabled="true"
       snapvisiblegridlinesonly="true" />
  </sodipodi:namedview>
  <metadata
     id="metadata7">
    <rdf:RDF>
      <cc:Work
         rdf:about="">
        <dc:format>image/svg+xml</dc:format>
        <dc:type
           rdf:resource="http://purl.org/dc/dcmitype/StillImage" />
        <dc:title />
      </cc:Work>
    </rdf:RDF>
  </metadata>
  <g
     inkscape:label="Layer 1"
     inkscape:groupmode="layer"
     id="layer1"
     transform="translate(0,-1004.3622)">
    <path
       style="fill:#829fa9;fill-opacity:1;stroke:none"
       d="m 6.9,1013.3622 34.2,0 c 0.9,0 1.9,1 1.9,2 l 0,4 c 0,1.108 -0.8474,2 -1.9,2 l -34.2,0 c -1.0526,0 -1.9,-0.892 -1.9,-2 l 0,-6 z"
       id="path3811"
       inkscape:connector-curvature="0" />
    <path
       style="fill:#829fa9;fill-opacity:1;stroke:none"
       d="m 5,1014.3622 c 0,-2 1e-7,-3 1.8181819,-3 l 6.3636361,0 c 1.818182,0 1.818182,1 1.818182,3 z"
       id="rect3760"
       inkscape:connector-curvature="0"
       sodipodi:nodetypes="csscc" />
    <path
       style="opacity:0.02999998;fill:#000000;fill-opacity:1;stroke:none"
       d="m 5,1017.3622 0,5 38,0 0,-5 z"
       id="path3807"
       inkscape:connector-curvature="0" />
    <rect
       style="fill:#aad0de;fill-opacity:1;stroke:none"
       id="rect2990"
       width="42"
       height="25"
       x="3"
       y="1019.3622"
       rx="2"
       ry="2" />
    <path
       style="opacity:0.05;fill:#000000;fill-opacity:1;stroke:none"
       d="m 15,1013.3622 0,1 1.90625,0 24.1875,0 c 0.9,0 1.90625,1 1.90625,2 l 0,-1 c 0,-1 -1.00625,-2 -1.90625,-2 l -24.1875,0 z"
       id="path3813"
       inkscape:connector-curvature="0"
       sodipodi:nodetypes="cccscsscc" />
    <path
       style="opacity:0.05;fill:#000000;fill-opacity:1;stroke:none"
       d="m 6.8125,1011.3622 c -1.8181818,0 -1.8125,1 -1.8125,3 l 0.03125,0 c 0.053418,-1.3105 0.3094499,-2 1.78125,-2 l 6.375,0 c 1.4718,0 1.727832,0.6895 1.78125,2 l 0.03125,0 c 0,-2 0.0057,-3 -1.8125,-3 l -6.375,0 z"
       id="path3818"
       inkscape:connector-curvature="0" />
    <path
       style="opacity:0.1;fill:#ffffff;fill-opacity:1;stroke:none"
       d="m 5,1019.3622 c -1.108,0 -2,0.892 -2,2 l 0,1 c 0,-1.108 0.892,-2 2,-2 l 38,0 c 1.108,0 2,0.892 2,2 l 0,-1 c 0,-1.108 -0.892,-2 -2,-2 l -38,0 z"
       id="rect2991"
       inkscape:connector-curvature="0" />
    <path
       inkscape:connector-curvature="0"
       id="path6459"
       d="m 1799,552 c -0.554,0 -1,0.446 -1,1 l 0,1.1875 c -1.1584,0.41551 -2,1.51118 -2,2.8125 0,0.86863 0.3788,1.63965 0.9688,2.1875 l -1.8126,7.8125 -2.6562,0 c -0.277,0 -0.5,0.223 -0.5,0.5 0,0.277 0.223,0.5 0.5,0.5 l 2.4375,0 -0.9375,4 c -0.5,1.5 0.5,1.5 0.5,1.5 l 0.5,1.5 1.8125,-7 1.1875,0 c 0,0.554 0.446,1 1,1 0.554,0 1,-0.446 1,-1 l 1.1875,0 1.8125,7 0.5,-1.5 c 0,0 1,0 0.5,-1.5 l -0.9375,-4 2.4375,0 c 0.277,0 0.5,-0.223 0.5,-0.5 0,-0.277 -0.223,-0.5 -0.5,-0.5 l -2.6562,0 -1.8126,-7.8125 c 0.59,-0.54785 0.9688,-1.31887 0.9688,-2.1875 0,-1.30132 -0.8416,-2.39699 -2,-2.8125 L 1800,553 c 0,-0.554 -0.446,-1 -1,-1 z m 0,3 c 1.1046,0 2,0.89543 2,2 0,1.10457 -0.8954,2 -2,2 -1.1046,0 -2,-0.89543 -2,-2 0,-1.10457 0.8954,-2 2,-2 z m -0.125,5 c 0.043,0.002 0.082,0 0.125,0 0.043,0 0.082,0.002 0.125,0 l 1.8125,7 -0.9375,0 c 0,-0.554 -0.446,-1 -1,-1 -0.554,0 -1,0.446 -1,1 l -0.9375,0 1.8125,-7 z"
       style="color:#bebebe;fill:#829fa9;fill-opacity:1;stroke:#93b4cf;stroke-width:0.1875;stroke-miterlimit:4;stroke-opacity:1;stroke-dasharray:none;marker:none;visibility:visible;display:inline;overflow:visible;enable-background:accumulate"
       transform="matrix(0.85564386,0,0,0.85564386,-1515.3399,549.07418)"
       clip-path="url(#clipPath7137)" />
  </g>
</svg>
