<?xml version="1.0" encoding="UTF-8" standalone="no"?>
<!-- Created with Inkscape (http://www.inkscape.org/) -->

<svg
   xmlns:osb="http://www.openswatchbook.org/uri/2009/osb"
   xmlns:dc="http://purl.org/dc/elements/1.1/"
   xmlns:cc="http://creativecommons.org/ns#"
   xmlns:rdf="http://www.w3.org/1999/02/22-rdf-syntax-ns#"
   xmlns:svg="http://www.w3.org/2000/svg"
   xmlns="http://www.w3.org/2000/svg"
   xmlns:sodipodi="http://sodipodi.sourceforge.net/DTD/sodipodi-0.dtd"
   xmlns:inkscape="http://www.inkscape.org/namespaces/inkscape"
   width="48"
   height="48"
   id="svg2"
   version="1.1"
   inkscape:version="0.48.5 r10040"
   sodipodi:docname="folder-android (copy).svg"
   inkscape:export-filename="/media/Data/Main/Visuals/Icons/Numix/Desktop/repos/numix-wiki/Gjorgi/Numix-folders/48/New/folder-144.png"
   inkscape:export-xdpi="270"
   inkscape:export-ydpi="270">
  <defs
     id="defs4">
    <linearGradient
       osb:paint="solid"
       id="linearGradient3790">
      <stop
         id="stop3792"
         offset="0"
         style="stop-color:#000000;stop-opacity:1;" />
    </linearGradient>
  </defs>
  <sodipodi:namedview
     id="base"
     pagecolor="#ffffff"
     bordercolor="#666666"
     borderopacity="1.0"
     inkscape:pageopacity="0.0"
     inkscape:pageshadow="2"
     inkscape:zoom="4.9240815"
     inkscape:cx="-31.499393"
     inkscape:cy="32.942803"
     inkscape:document-units="px"
     inkscape:current-layer="layer1"
     showgrid="true"
     inkscape:window-width="1158"
     inkscape:window-height="943"
     inkscape:window-x="681"
     inkscape:window-y="92"
     inkscape:window-maximized="0"
     showguides="true"
     inkscape:guide-bbox="true">
    <inkscape:grid
       type="xygrid"
       id="grid2985"
       empspacing="5"
       visible="true"
       enabled="true"
       snapvisiblegridlinesonly="true" />
  </sodipodi:namedview>
  <metadata
     id="metadata7">
    <rdf:RDF>
      <cc:Work
         rdf:about="">
        <dc:format>image/svg+xml</dc:format>
        <dc:type
           rdf:resource="http://purl.org/dc/dcmitype/StillImage" />
        <dc:title />
      </cc:Work>
    </rdf:RDF>
  </metadata>
  <g
     inkscape:label="Layer 1"
     inkscape:groupmode="layer"
     id="layer1"
     transform="translate(0,-1004.3622)">
    <path
       style="fill:#829fa9;fill-opacity:1;stroke:none"
       d="m 6.9,1013.3622 34.2,0 c 0.9,0 1.9,1 1.9,2 l 0,4 c 0,1.108 -0.8474,2 -1.9,2 l -34.2,0 c -1.0526,0 -1.9,-0.892 -1.9,-2 l 0,-6 z"
       id="path3811"
       inkscape:connector-curvature="0" />
    <path
       style="fill:#829fa9;fill-opacity:1;stroke:none"
       d="m 5,1014.3622 c 0,-2 1e-7,-3 1.8181819,-3 l 6.3636361,0 c 1.818182,0 1.818182,1 1.818182,3 z"
       id="rect3760"
       inkscape:connector-curvature="0"
       sodipodi:nodetypes="csscc" />
    <path
       style="opacity:0.02999998;fill:#000000;fill-opacity:1;stroke:none"
       d="m 5,1017.3622 0,5 38,0 0,-5 z"
       id="path3807"
       inkscape:connector-curvature="0" />
    <rect
       style="fill:#aad0de;fill-opacity:1;stroke:none"
       id="rect2990"
       width="42"
       height="25"
       x="3"
       y="1019.3622"
       rx="2"
       ry="2" />
    <path
       style="opacity:0.05;fill:#000000;fill-opacity:1;stroke:none"
       d="m 15,1013.3622 0,1 1.90625,0 24.1875,0 c 0.9,0 1.90625,1 1.90625,2 l 0,-1 c 0,-1 -1.00625,-2 -1.90625,-2 l -24.1875,0 z"
       id="path3813"
       inkscape:connector-curvature="0"
       sodipodi:nodetypes="cccscsscc" />
    <path
       style="opacity:0.05;fill:#000000;fill-opacity:1;stroke:none"
       d="m 6.8125,1011.3622 c -1.8181818,0 -1.8125,1 -1.8125,3 l 0.03125,0 c 0.053418,-1.3105 0.3094499,-2 1.78125,-2 l 6.375,0 c 1.4718,0 1.727832,0.6895 1.78125,2 l 0.03125,0 c 0,-2 0.0057,-3 -1.8125,-3 l -6.375,0 z"
       id="path3818"
       inkscape:connector-curvature="0" />
    <path
       style="opacity:0.1;fill:#ffffff;fill-opacity:1;stroke:none"
       d="m 5,1019.3622 c -1.108,0 -2,0.892 -2,2 l 0,1 c 0,-1.108 0.892,-2 2,-2 l 38,0 c 1.108,0 2,0.892 2,2 l 0,-1 c 0,-1.108 -0.892,-2 -2,-2 l -38,0 z"
       id="rect2991"
       inkscape:connector-curvature="0" />
    <g
       id="g3065"
       transform="matrix(0.73479459,0,0,0.73479459,46.136972,300.50691)">
      <path
         sodipodi:nodetypes="ccccccsscscccscccccccccccccccccccccsssss"
         inkscape:connector-curvature="0"
         style="line-height:normal;color:#000000;fill:#829fa9;fill-opacity:1;fill-rule:evenodd;stroke:none"
         d="m -30.392003,983.26324 c -0.436357,0 -0.880428,0.16051 -1.247999,0.44698 -0.369265,0.28662 -0.609398,0.66852 -0.639999,1.11756 -0.03061,0.44896 0.139963,0.90163 0.479999,1.21325 l 0,0.0313 c 0.797522,0.69987 1.627695,1.42168 2.431998,2.1392 l -9.023993,0 c -0.641434,0 -1.184834,0.14888 -1.599999,0.4789 -0.415166,0.33001 -0.679817,0.82334 -0.767999,1.37293 -0.172619,1.07591 0.586531,2.29881 1.823998,2.29881 l 3.935997,0 -8.223994,6.76873 c 8.26e-4,0 -0.0074,-0.0173 -0.032,0 -0.502604,0.4285 -0.857346,1.0221 -0.991999,1.6283 -0.134652,0.6061 -0.06912,1.2472 0.288,1.756 0.726125,1.034 2.184005,1.0076 3.199998,0.096 l 4.319997,-3.92713 c 0.0069,0.45836 0.115283,1.17308 0.287999,1.78803 0.354636,1.2568 0.959385,2.4272 1.791999,3.4482 0.853701,1.0471 1.895198,1.8949 3.103998,2.4903 1.27179,0.6255 2.639136,0.9285 4.063997,0.9259 1.424789,0 2.79296,-0.3279 4.063997,-0.9579 1.207625,-0.6009 2.282862,-1.4404 3.135998,-2.4903 0.830421,-1.0247 1.405505,-2.1911 1.759999,-3.4482 0.179539,-0.63649 0.3054,-1.29883 0.351999,-1.94756 0.04481,-0.63809 0.01763,-1.27816 -0.064,-1.91567 -0.158561,-1.24442 -0.525991,-2.41799 -1.119999,-3.48021 -0.465553,-0.83308 -1.084134,-1.55811 -1.759998,-2.20296 l 0.032,-0.0313 -0.352,-0.28729 -7.999994,-6.83258 c 5.25e-4,4.1e-4 -0.02969,-0.0289 -0.032,-0.0313 -0.0045,0 -0.02745,0 -0.032,0 -0.347211,-0.28976 -0.753315,-0.4478 -1.183999,-0.44698 z m 3.103507,7.58391 c 4.135505,0 7.088,2.94482 7.088,7.07105 0,4.1262 -2.952004,7.0709 -7.087509,7.0709 -4.135506,0 -7.088491,-2.9447 -7.088491,-7.0709 0,-4.12623 2.952494,-7.07105 7.088,-7.07105 z"
         id="path28" />
      <path
         inkscape:connector-curvature="0"
         d="m -23.599039,997.98214 c 0,2.07996 -1.68992,3.76606 -3.774542,3.76606 -2.084621,0 -3.774543,-1.6861 -3.774543,-3.76606 0,-2.07992 1.689922,-3.76603 3.774543,-3.76603 2.084622,0 3.774542,1.68611 3.774542,3.76603 z"
         id="path30"
         style="fill:#829fa9;fill-opacity:1;stroke:none" />
    </g>
  </g>
</svg>
