<?xml version="1.0" encoding="UTF-8" standalone="no"?>
<!-- Created with Inkscape (http://www.inkscape.org/) -->

<svg
   xmlns:dc="http://purl.org/dc/elements/1.1/"
   xmlns:cc="http://creativecommons.org/ns#"
   xmlns:rdf="http://www.w3.org/1999/02/22-rdf-syntax-ns#"
   xmlns:svg="http://www.w3.org/2000/svg"
   xmlns="http://www.w3.org/2000/svg"
   xmlns:xlink="http://www.w3.org/1999/xlink"
   xmlns:sodipodi="http://sodipodi.sourceforge.net/DTD/sodipodi-0.dtd"
   xmlns:inkscape="http://www.inkscape.org/namespaces/inkscape"
   width="48"
   height="48"
   id="svg2"
   version="1.1"
   inkscape:version="0.48.5 r10040"
   sodipodi:docname="folder-android.svg"
   inkscape:export-filename="/media/Data/Main/Visuals/Icons/Numix/Desktop/repos/numix-wiki/Gjorgi/Numix-folders/48/New/folder-144.png"
   inkscape:export-xdpi="270"
   inkscape:export-ydpi="270">
  <defs
     id="defs4" />
  <sodipodi:namedview
     id="base"
     pagecolor="#ffffff"
     bordercolor="#666666"
     borderopacity="1.0"
     inkscape:pageopacity="0.0"
     inkscape:pageshadow="2"
     inkscape:zoom="6.9637028"
     inkscape:cx="5.6460642"
     inkscape:cy="31.651459"
     inkscape:document-units="px"
     inkscape:current-layer="layer1"
     showgrid="true"
     inkscape:window-width="1158"
     inkscape:window-height="943"
     inkscape:window-x="681"
     inkscape:window-y="92"
     inkscape:window-maximized="0"
     showguides="true"
     inkscape:guide-bbox="true">
    <inkscape:grid
       type="xygrid"
       id="grid2985"
       empspacing="5"
       visible="true"
       enabled="true"
       snapvisiblegridlinesonly="true" />
  </sodipodi:namedview>
  <metadata
     id="metadata7">
    <rdf:RDF>
      <cc:Work
         rdf:about="">
        <dc:format>image/svg+xml</dc:format>
        <dc:type
           rdf:resource="http://purl.org/dc/dcmitype/StillImage" />
        <dc:title />
      </cc:Work>
    </rdf:RDF>
  </metadata>
  <g
     inkscape:label="Layer 1"
     inkscape:groupmode="layer"
     id="layer1"
     transform="translate(0,-1004.3622)">
    <path
       style="fill:#829fa9;fill-opacity:1;stroke:none"
       d="m 6.9,1013.3622 34.2,0 c 0.9,0 1.9,1 1.9,2 l 0,4 c 0,1.108 -0.8474,2 -1.9,2 l -34.2,0 c -1.0526,0 -1.9,-0.892 -1.9,-2 l 0,-6 z"
       id="path3811"
       inkscape:connector-curvature="0" />
    <path
       style="fill:#829fa9;fill-opacity:1;stroke:none"
       d="m 5,1014.3622 c 0,-2 1e-7,-3 1.8181819,-3 l 6.3636361,0 c 1.818182,0 1.818182,1 1.818182,3 z"
       id="rect3760"
       inkscape:connector-curvature="0"
       sodipodi:nodetypes="csscc" />
    <path
       style="opacity:0.02999998;fill:#000000;fill-opacity:1;stroke:none"
       d="m 5,1017.3622 0,5 38,0 0,-5 z"
       id="path3807"
       inkscape:connector-curvature="0" />
    <rect
       style="fill:#aad0de;fill-opacity:1;stroke:none"
       id="rect2990"
       width="42"
       height="25"
       x="3"
       y="1019.3622"
       rx="2"
       ry="2" />
    <path
       style="opacity:0.05;fill:#000000;fill-opacity:1;stroke:none"
       d="m 15,1013.3622 0,1 1.90625,0 24.1875,0 c 0.9,0 1.90625,1 1.90625,2 l 0,-1 c 0,-1 -1.00625,-2 -1.90625,-2 l -24.1875,0 z"
       id="path3813"
       inkscape:connector-curvature="0"
       sodipodi:nodetypes="cccscsscc" />
    <path
       style="opacity:0.05;fill:#000000;fill-opacity:1;stroke:none"
       d="m 6.8125,1011.3622 c -1.8181818,0 -1.8125,1 -1.8125,3 l 0.03125,0 c 0.053418,-1.3105 0.3094499,-2 1.78125,-2 l 6.375,0 c 1.4718,0 1.727832,0.6895 1.78125,2 l 0.03125,0 c 0,-2 0.0057,-3 -1.8125,-3 l -6.375,0 z"
       id="path3818"
       inkscape:connector-curvature="0" />
    <path
       style="opacity:0.1;fill:#ffffff;fill-opacity:1;stroke:none"
       d="m 5,1019.3622 c -1.108,0 -2,0.892 -2,2 l 0,1 c 0,-1.108 0.892,-2 2,-2 l 38,0 c 1.108,0 2,0.892 2,2 l 0,-1 c 0,-1.108 -0.892,-2 -2,-2 l -38,0 z"
       id="rect2991"
       inkscape:connector-curvature="0" />
    <g
       id="g3841"
       transform="matrix(0.65834338,0,0,0.65834338,9.0658591,1013.6297)">
      <g
         style="fill:#829fa9;fill-opacity:1;stroke:none"
         id="use3005"
         transform="matrix(0.07124141,0,0,0.07124141,24.203389,19.548749)">
        <ellipse
           id="ellipse3913"
           ry="84"
           rx="91"
           cy="41"
           cx="0"
           sodipodi:cx="0"
           sodipodi:cy="41"
           sodipodi:rx="91"
           sodipodi:ry="84"
           d="m 91,41 c 0,46.391919 -40.742088,84 -91,84 -50.257912,0 -91,-37.608081 -91,-84 0,-46.391919 40.742088,-84 91,-84 50.257912,0 91,37.608081 91,84 z"
           style="fill:#829fa9;fill-opacity:1;stroke:none" />
        <rect
           id="rect3915"
           x="-91"
           y="20"
           width="182"
           height="182"
           rx="22"
           style="fill:#829fa9;fill-opacity:1;stroke:none" />
      </g>
      <use
         height="1"
         width="1"
         y="0"
         x="0"
         xlink:href="#a"
         transform="matrix(-1,0,0,1,48.406778,0)"
         id="use3007"
         style="fill:#829fa9;fill-opacity:1;stroke:none" />
      <g
         transform="matrix(0.07124141,0,0,0.07124141,24.203389,19.548749)"
         style="fill:#829fa9;fill-opacity:1;stroke:none"
         id="a">
        <rect
           style="fill:#829fa9;fill-opacity:1;stroke:none"
           rx="6.5"
           transform="matrix(0.87461971,0.48480962,-0.48480962,0.87461971,0,0)"
           height="86"
           width="13"
           y="-86"
           x="14"
           id="rect3010" />
        <rect
           style="fill:#829fa9;fill-opacity:1;stroke:none"
           id="c"
           rx="24"
           height="133"
           width="48"
           y="41"
           x="-143" />
        <use
           style="fill:#829fa9;fill-opacity:1;stroke:none"
           height="1"
           width="1"
           y="97"
           x="85"
           xlink:href="#c"
           id="use3013" />
      </g>
      <circle
         transform="matrix(0.07124141,0,0,0.07124141,24.203389,19.548749)"
         d="m -38,0 c 0,2.209139 -1.790861,4 -4,4 -2.209139,0 -4,-1.790861 -4,-4 0,-2.209139 1.790861,-4 4,-4 2.209139,0 4,1.790861 4,4 z"
         sodipodi:ry="4"
         sodipodi:rx="4"
         sodipodi:cy="0"
         sodipodi:cx="-42"
         cy="0"
         cx="-42"
         r="4"
         id="circle3024"
         style="fill:#afc5e3;fill-opacity:1;stroke:#bacde8;stroke-width:7.20086813;stroke-miterlimit:4;stroke-opacity:1;stroke-dasharray:none" />
      <circle
         inkscape:transform-center-x="0.0703125"
         transform="matrix(0.07124141,0,0,0.07124141,24.203389,19.548749)"
         d="m 46,0 c 0,2.209139 -1.790861,4 -4,4 -2.209139,0 -4,-1.790861 -4,-4 0,-2.209139 1.790861,-4 4,-4 2.209139,0 4,1.790861 4,4 z"
         sodipodi:ry="4"
         sodipodi:rx="4"
         sodipodi:cy="0"
         sodipodi:cx="42"
         cy="0"
         cx="42"
         r="4"
         id="circle3026"
         style="fill:#829fa9;fill-opacity:1;stroke:#bacde8;stroke-width:7.19999981;stroke-opacity:1" />
      <path
         inkscape:connector-curvature="0"
         d="M 17.716876,22.718992 H 30.69683"
         id="path3022"
         style="fill:#afc5e3;fill-opacity:1;stroke:#bacde8;stroke-width:0.50199997;stroke-miterlimit:4;stroke-opacity:1;stroke-dasharray:none" />
    </g>
  </g>
</svg>
