<?xml version="1.0" encoding="UTF-8" standalone="no"?>
<!-- Created with Inkscape (http://www.inkscape.org/) -->

<svg
   xmlns:dc="http://purl.org/dc/elements/1.1/"
   xmlns:cc="http://creativecommons.org/ns#"
   xmlns:rdf="http://www.w3.org/1999/02/22-rdf-syntax-ns#"
   xmlns:svg="http://www.w3.org/2000/svg"
   xmlns="http://www.w3.org/2000/svg"
   xmlns:xlink="http://www.w3.org/1999/xlink"
   xmlns:sodipodi="http://sodipodi.sourceforge.net/DTD/sodipodi-0.dtd"
   xmlns:inkscape="http://www.inkscape.org/namespaces/inkscape"
   width="64"
   height="64"
   id="svg2"
   version="1.1"
   inkscape:version="0.91 r13725"
   sodipodi:docname="folder-university.svg"
   inkscape:export-filename="/media/Data/Main/Visuals/Icons/Numix/Desktop/repos/numix-wiki/Gjorgi/Numix-folders/48/New/folder-144.png"
   inkscape:export-xdpi="270"
   inkscape:export-ydpi="270">
  <defs
     id="defs4">
    <radialGradient
       inkscape:collect="always"
       xlink:href="#linearGradient3958"
       id="radialGradient3964"
       cx="32.5"
       cy="56.5"
       fx="32.5"
       fy="56.5"
       r="33.5"
       gradientTransform="matrix(1,0,0,0.10447761,0,50.597015)"
       gradientUnits="userSpaceOnUse" />
    <linearGradient
       inkscape:collect="always"
       id="linearGradient3958">
      <stop
         style="stop-color:#000000;stop-opacity:1;"
         offset="0"
         id="stop3960" />
      <stop
         style="stop-color:#000000;stop-opacity:0;"
         offset="1"
         id="stop3962" />
    </linearGradient>
    <radialGradient
       r="33.5"
       fy="56.5"
       fx="32.5"
       cy="56.5"
       cx="32.5"
       gradientTransform="matrix(1,0,0,0.10447761,0,50.597015)"
       gradientUnits="userSpaceOnUse"
       id="radialGradient3981"
       xlink:href="#linearGradient3958"
       inkscape:collect="always" />
    <clipPath
       id="clipPath7137"
       clipPathUnits="userSpaceOnUse">
      <path
         inkscape:connector-curvature="0"
         style="color:#bebebe;display:inline;overflow:visible;visibility:visible;fill:#555753;fill-opacity:1;fill-rule:nonzero;stroke:none;stroke-width:2;marker:none;enable-background:accumulate"
         d="m 1799,552 c -0.554,0 -1,0.446 -1,1 l 0,1.1875 c -1.1584,0.41551 -2,1.51118 -2,2.8125 0,0.86863 0.3788,1.63965 0.9688,2.1875 l -1.8126,7.8125 -2.6562,0 c -0.277,0 -0.5,0.223 -0.5,0.5 0,0.277 0.223,0.5 0.5,0.5 l 2.4375,0 -0.9375,4 c -0.5,1.5 0.5,1.5 0.5,1.5 l 0.5,1.5 1.8125,-7 1.1875,0 c 0,0.554 0.446,1 1,1 0.554,0 1,-0.446 1,-1 l 1.1875,0 1.8125,7 0.5,-1.5 c 0,0 1,0 0.5,-1.5 l -0.9375,-4 2.4375,0 c 0.277,0 0.5,-0.223 0.5,-0.5 0,-0.277 -0.223,-0.5 -0.5,-0.5 l -2.6562,0 -1.8126,-7.8125 c 0.59,-0.54785 0.9688,-1.31887 0.9688,-2.1875 0,-1.30132 -0.8416,-2.39699 -2,-2.8125 L 1800,553 c 0,-0.554 -0.446,-1 -1,-1 z m 0,3 c 1.1046,0 2,0.89543 2,2 0,1.10457 -0.8954,2 -2,2 -1.1046,0 -2,-0.89543 -2,-2 0,-1.10457 0.8954,-2 2,-2 z m -0.125,5 c 0.043,0.002 0.082,0 0.125,0 0.043,0 0.082,0.002 0.125,0 l 1.8125,7 -0.9375,0 c 0,-0.554 -0.446,-1 -1,-1 -0.554,0 -1,0.446 -1,1 l -0.9375,0 1.8125,-7 z"
         id="path7139" />
    </clipPath>
  </defs>
  <sodipodi:namedview
     id="base"
     pagecolor="#ffffff"
     bordercolor="#666666"
     borderopacity="1.0"
     inkscape:pageopacity="0.0"
     inkscape:pageshadow="2"
     inkscape:zoom="7.9949407"
     inkscape:cx="2.9933478"
     inkscape:cy="25.09794"
     inkscape:document-units="px"
     inkscape:current-layer="layer1"
     showgrid="true"
     inkscape:window-width="1680"
     inkscape:window-height="1050"
     inkscape:window-x="1920"
     inkscape:window-y="0"
     inkscape:window-maximized="1"
     showguides="true"
     inkscape:guide-bbox="true">
    <inkscape:grid
       type="xygrid"
       id="grid2985"
       empspacing="5"
       visible="true"
       enabled="true"
       snapvisiblegridlinesonly="true" />
  </sodipodi:namedview>
  <metadata
     id="metadata7">
    <rdf:RDF>
      <cc:Work
         rdf:about="">
        <dc:format>image/svg+xml</dc:format>
        <dc:type
           rdf:resource="http://purl.org/dc/dcmitype/StillImage" />
        <dc:title></dc:title>
      </cc:Work>
    </rdf:RDF>
  </metadata>
  <g
     inkscape:label="Layer 1"
     inkscape:groupmode="layer"
     id="layer1"
     transform="translate(0,-988.3622)">
    <path
       sodipodi:type="arc"
       style="opacity:0.6;fill:url(#radialGradient3981);fill-opacity:1;stroke:none"
       id="path3956"
       sodipodi:cx="32.5"
       sodipodi:cy="56.5"
       sodipodi:rx="33.5"
       sodipodi:ry="3.5"
       d="M 66,56.5 A 33.5,3.5 0 0 1 32.5,60 33.5,3.5 0 0 1 -1,56.5 33.5,3.5 0 0 1 32.5,53 33.5,3.5 0 0 1 66,56.5 Z"
       transform="matrix(1.1343284,0,0,1.1428571,-4.8656716,979.79077)" />
    <path
       sodipodi:nodetypes="ccccccccc"
       inkscape:connector-curvature="0"
       id="path3029"
       d="m 0,997.42103 0,42.82347 64,0 0,-21.4117 -3.047619,-18.353 L 37,1000.3622 l -3,-6 -30.952381,0 C 1.52381,994.3622 0,995.89161 0,997.42103 z"
       style="fill:#1976d2;fill-opacity:1;stroke:none" />
    <rect
       style="fill:#f2f2f2;fill-opacity:1;stroke:none"
       id="rect3799"
       width="31.571428"
       height="11.882284"
       x="5"
       y="1002.3622" />
    <path
       style="fill:#000000;fill-opacity:1;stroke:none;opacity:0.03"
       d="M 3.0625,6 C 1.538691,6 0,7.53308 0,9.0625 l 0,2 C 0,9.53308 1.538691,8 3.0625,8 L 33,8 36,14 60.9375,14.125 64,32.46875 l 0,-2 L 60.9375,12.125 37,12 34,6 z"
       transform="translate(0,988.3622)"
       id="path3790"
       inkscape:connector-curvature="0"
       sodipodi:nodetypes="sscsccccccccs" />
    <path
       style="fill:#5a9be7;fill-opacity:1;stroke:none"
       d="m 64,1003.5387 0,42.8235 -64,0 0,-40 30,0 3,-6 27.952381,0.1176 c 1.523809,0 3.047619,1.5295 3.047619,3.0589 z"
       id="rect2987"
       inkscape:connector-curvature="0"
       sodipodi:nodetypes="cccccccc" />
    <path
       sodipodi:nodetypes="ccccc"
       id="path3794"
       d="m 0,1044.3622 0,2 64,0 0,-2 z"
       style="opacity:0.15;fill:#000000;fill-opacity:1;stroke:none"
       inkscape:connector-curvature="0" />
    <path
       style="fill:none;stroke:none"
       d="m 33.52381,1002.0093 -7.619048,4.5882 4.571428,0 z"
       id="path3801"
       inkscape:connector-curvature="0" />
    <path
       style="fill:#000000;fill-opacity:1;stroke:none;opacity:0.03"
       d="m 33,12 -3,6 -30,0 0,2 31,0 3,-6 26.9375,0.125 c 1.523809,0 3.0625,1.5331 3.0625,3.0625 l 0,-2 C 64,13.6581 62.461309,12.125 60.9375,12.125 z"
       transform="translate(0,988.3622)"
       id="path3015"
       inkscape:connector-curvature="0"
       sodipodi:nodetypes="ccccccccscc" />
    <g
       id="g3913"
       transform="matrix(1.2930516,0,0,1.3477586,-0.52405366,987.80344)">
      <path
         style="fill:#2a74b9;fill-opacity:1"
         inkscape:connector-curvature="0"
         d="m 39.392223,27.250942 0.104993,-0.134952 c 0.61799,0.371478 1.155279,0.823657 1.709123,1.259373 0.06271,0.452449 -0.152586,0.627077 -0.08997,1.079436 -2.75716,0.250201 -5.278424,0.556902 -7.916107,0.899591 -0.830405,0.107871 -1.786676,0.150696 -2.518746,0.359782 -1.087893,0.310929 -1.481503,1.094011 -2.788649,1.259462 -0.638683,0.0807 -1.111555,-0.161492 -1.799181,-0.08997 -0.831574,0.08646 -1.825002,0.660186 -2.698771,0.989469 -2.600436,0.980292 -5.316302,2.048032 -7.646294,3.238489 C 15.04903,35.394037 14.647772,34.446944 14.129376,33.592787 12.62781,31.118486 10.979775,28.567532 9.451668,26.036551 9.371147,25.746045 9.7450538,25.910146 9.8115401,25.766647 l 0.1349521,0.04498 0.1349518,-0.04498 c 1.877363,3.100209 3.811316,6.143828 5.757235,9.175481 0.05353,-0.186234 -0.1112,-0.59082 0.08997,-0.629686 l 0.104993,0.134952 0.164911,-0.04498 c 0.119388,0.394509 -0.170039,0.84255 -0.08997,0.89959 3.300568,-1.617086 5.811666,-4.023731 10.794726,-3.958144 -0.07629,-1.035712 0.471972,-1.447046 0.809532,-2.068995 -0.14233,-0.0075 -0.342958,0.04328 -0.359692,-0.08997 l 0.04498,-0.134862 -0.04498,-0.134952 c 0.07656,0.01664 0.08475,-0.03509 0.08997,-0.08997 l 0.121906,-0.109221 -0.03194,-0.160683 c 0.347636,0.01223 0.354654,0.365 0.629596,0.44984 l 0.109311,0.121997 0.160593,-0.03203 c -0.0601,0.389652 -0.416282,0.483218 -0.44984,0.8995 0.423839,-0.026 0.636974,-0.262616 1.169405,-0.179846 0.354654,0.09519 0.342958,0.556723 0.539808,0.809533 1.756806,-2.171199 6.08004,-1.775969 9.895225,-1.889059 -0.106882,-0.522805 -0.373728,-0.885646 -0.359872,-1.529187 l 0.164911,0.04498 z"
         id="path7" />
      <g
         transform="matrix(1.030301,0,0,1.030301,0.02459433,-0.04984752)"
         id="g3868">
        <path
           id="path5"
           d="m 38.387344,25.286463 c 0.276921,-0.06703 0.172918,0.246873 0.44984,0.179937 0.147547,0.192531 -0.229329,0.436704 -0.08997,0.89959 l -0.164912,-0.04498 -0.104992,0.134952 c -0.201079,-0.03887 -0.03644,-0.443452 -0.08997,-0.629776 l 0.03995,-0.244983 -0.219882,-0.114799 c 0,-0.02996 0,-0.06001 0,-0.08997 l 0.134952,0.04498 0.04498,-0.134952 z"
           inkscape:connector-curvature="0"
           style="fill:#909ec8;fill-opacity:1" />
        <path
           id="path9"
           d="m 9.2263626,24.881697 -0.1649114,0.04498 c 0.00747,-0.142419 -0.043275,-0.343138 0.089968,-0.359872 l 0.1049927,0.134952 0.1649114,-0.04498 c -0.00747,0.14242 0.043275,0.342958 -0.089968,0.359872 L 9.2263626,24.881697 Z"
           inkscape:connector-curvature="0"
           style="fill:#2a74b9;fill-opacity:1" />
        <path
           style="fill:none;stroke:#909ec8;stroke-width:0.28446996;stroke-linecap:round;stroke-opacity:1"
           inkscape:connector-curvature="0"
           d="m 38.582304,26.270159 c 0.01997,0.06001 0.03995,0.119927 0.05992,0.179936"
           id="path13" />
        <path
           style="fill:none;stroke:#2a74b9;stroke-width:0.377;stroke-linecap:round;stroke-miterlimit:4;stroke-dasharray:none;stroke-opacity:1"
           inkscape:connector-curvature="0"
           d="m 9.1964032,25.061633 c 0.0036,-0.06001 0.016554,-0.119927 0.029959,-0.179936"
           id="path15" />
        <path
           style="fill:none;stroke:#2a74b9;stroke-width:0.3003763;stroke-linecap:round;stroke-opacity:1"
           inkscape:connector-curvature="0"
           d="m 9.2564119,24.701761 c 0.075933,-0.444262 0.1425994,-1.01376 0.6056649,-1.223565"
           id="path17" />
        <path
           style="fill:none;stroke:#2a74b9;stroke-width:0.505;stroke-linecap:round;stroke-miterlimit:4;stroke-dasharray:none;stroke-opacity:1"
           inkscape:connector-curvature="0"
           d="M 9.8620768,23.478376 C 12.676097,21.610999 16.614538,18.644753 19.888475,21.399034"
           id="path19-3" />
        <path
           style="fill:none;stroke:#2a74b9;stroke-width:0.509;stroke-linecap:round;stroke-miterlimit:4;stroke-dasharray:none;stroke-opacity:1"
           inkscape:connector-curvature="0"
           d="m 19.888475,21.399034 c 1.937282,-3.23489 6.171358,-1.629501 9.264369,-2.315957 3.041729,2.137911 6.216252,4.129713 9.189605,6.338428"
           id="path21" />
        <path
           style="fill:none;stroke:#2a74b9;stroke-width:0.35896349;stroke-linecap:round;stroke-opacity:1"
           inkscape:connector-curvature="0"
           d="m 27.521813,28.377136 c 2.479699,-3.389546 7.279674,-2.16949 10.905566,-2.795757"
           id="path23" />
        <path
           style="fill:none;stroke:#2a74b9;stroke-width:0.57300001;stroke-linecap:round;stroke-miterlimit:4;stroke-dasharray:none;stroke-opacity:1"
           inkscape:connector-curvature="0"
           d="m 19.888475,21.399034 c 2.343937,2.149427 4.572266,4.434705 6.926639,6.566768"
           id="path25" />
        <path
           style="fill:none;stroke:#2a74b9;stroke-width:0.53500003;stroke-linecap:round;stroke-miterlimit:4;stroke-dasharray:none;stroke-opacity:1"
           inkscape:connector-curvature="0"
           d="m 9.8620768,23.478376 c 1.9808262,2.782711 3.6285912,5.831008 5.5862952,8.644849"
           id="path27" />
        <path
           style="fill:none;stroke:#2a74b9;stroke-width:0.46799999;stroke-linecap:round;stroke-miterlimit:4;stroke-dasharray:none;stroke-opacity:1"
           inkscape:connector-curvature="0"
           d="m 15.448462,32.123135 c 3.579559,-1.630671 7.01031,-4.379374 11.199492,-3.823102"
           id="path29" />
        <path
           style="fill:none;stroke:#2a74b9;stroke-width:0.53500003;stroke-linecap:round;stroke-miterlimit:4;stroke-dasharray:none;stroke-opacity:1"
           inkscape:connector-curvature="0"
           d="m 15.448462,32.123135 c -0.05002,0.525053 -0.08367,1.051996 -0.164911,1.574261"
           id="path31" />
      </g>
    </g>
  </g>
</svg>
