<svg xmlns="http://www.w3.org/2000/svg" xmlns:svg="http://www.w3.org/2000/svg" xmlns:xlink="http://www.w3.org/1999/xlink" id="svg2" width="64" height="64" version="1.1"><defs id="defs4"><linearGradient id="linearGradient3958"><stop id="stop3960" offset="0" stop-color="#000" stop-opacity="1"/><stop id="stop3962" offset="1" stop-color="#000" stop-opacity="0"/></linearGradient><radialGradient id="radialGradient3964" cx="32.5" cy="56.5" r="33.5" fx="32.5" fy="56.5" gradientTransform="matrix(1,0,0,0.10447761,0,50.597015)" gradientUnits="userSpaceOnUse" xlink:href="#linearGradient3958"/></defs><metadata id="metadata7"/><g id="layer1" transform="translate(0,-988.3622)"><rect id="rect3048" width="50" height="38" x="7" y="988.362" fill="#eae7d1" fill-opacity="1" stroke="none" rx="2" ry="2"/><path id="path3956" fill="url(#radialGradient3964)" fill-opacity="1" stroke="none" d="m 66,56.5 a 33.5,3.5 0 1 1 -67,0 33.5,3.5 0 1 1 67,0 z" opacity=".6" transform="matrix(1.1343284,0,0,1.1428571,-4.8656716,981.79077)"/><rect id="rect3876" width="40" height="2" x="12" y="1011.362" fill="#7a7a68" fill-opacity="1" stroke="none"/><path id="rect2987" fill="#5a9be7" fill-opacity="1" stroke="none" d="m 64,1013.5387 0,34.8235 -64,0 0,-32 30,0 3,-6 27.952381,0.1176 c 1.523809,0 3.047619,1.5295 3.047619,3.0589 z"/><path id="path3794" fill="#000" fill-opacity="1" stroke="none" d="m 0,1046.3622 0,2 64,0 0,-2 z" opacity=".15"/><path id="path3015" fill="#000" fill-opacity="1" stroke="none" d="m 33,1010.3622 -3,6 -30,0 0,2 31,0 3,-6 26.9375,0.125 c 1.523809,0 3.0625,1.5331 3.0625,3.0625 l 0,-2 c 0,0 -1.538691,-3.0625 -3.0625,-3.0625 z" opacity=".03"/><rect id="rect3812" width="40" height="2" x="12" y="1006.362" fill="#7a7a68" fill-opacity="1" stroke="none"/><rect id="rect3794" width="40" height="2" x="12" y="991.362" fill="#7a7a68" fill-opacity="1" stroke="none"/><rect id="rect3808" width="40" height="2" x="12" y="996.362" fill="#7a7a68" fill-opacity="1" stroke="none"/><rect id="rect3810" width="40" height="2" x="12" y="1001.362" fill="#7a7a68" fill-opacity="1" stroke="none"/></g></svg>