<svg xmlns="http://www.w3.org/2000/svg" xmlns:svg="http://www.w3.org/2000/svg" xmlns:xlink="http://www.w3.org/1999/xlink" id="svg2" width="64" height="64" version="1.1"><defs id="defs4"><linearGradient id="linearGradient3958"><stop id="stop3960" offset="0" stop-color="#000" stop-opacity="1"/><stop id="stop3962" offset="1" stop-color="#000" stop-opacity="0"/></linearGradient><radialGradient id="radialGradient3964" cx="32.5" cy="56.5" r="33.5" fx="32.5" fy="56.5" gradientTransform="matrix(1,0,0,0.10447761,0,50.597015)" gradientUnits="userSpaceOnUse" xlink:href="#linearGradient3958"/></defs><metadata id="metadata7"/><g id="layer1" transform="translate(0,-988.3622)"><path id="path3956" fill="url(#radialGradient3964)" fill-opacity="1" stroke="none" d="M 66,56.5 C 66,58.432997 51.001539,60 32.5,60 13.998461,60 -1,58.432997 -1,56.5 -1,54.567003 13.998461,53 32.5,53 51.001539,53 66,54.567003 66,56.5 z" opacity=".6" transform="matrix(1.1343284,0,0,1.1428571,-4.8656716,979.79077)"/><path id="path3029" fill="#1976d2" fill-opacity="1" stroke="none" d="m 0,997.42103 0,42.82347 64,0 0,-21.4117 -3.047619,-18.353 L 37,1000.3622 l -3,-6 -30.952381,0 C 1.52381,994.3622 0,995.89161 0,997.42103 z"/><rect id="rect3799" width="31.571" height="11.882" x="5" y="1002.362" fill="#f2f2f2" fill-opacity="1" stroke="none"/><path id="path3790" fill="#000" fill-opacity="1" stroke="none" d="M 3.0625,6 C 1.538691,6 0,7.53308 0,9.0625 l 0,2 C 0,9.53308 1.538691,8 3.0625,8 L 33,8 36,14 60.9375,14.125 64,32.46875 l 0,-2 L 60.9375,12.125 37,12 34,6 z" opacity=".03" transform="translate(0,988.3622)"/><path id="rect2987" fill="#5a9be7" fill-opacity="1" stroke="none" d="m 64,1003.5387 0,42.8235 -64,0 0,-40 30,0 3,-6 27.952381,0.1176 c 1.523809,0 3.047619,1.5295 3.047619,3.0589 z"/><path id="path3794" fill="#000" fill-opacity="1" stroke="none" d="m 0,1044.3622 0,2 64,0 0,-2 z" opacity=".15"/><path id="path3015" fill="#000" fill-opacity="1" stroke="none" d="m 33,12 -3,6 -30,0 0,2 31,0 3,-6 26.9375,0.125 c 1.523809,0 3.0625,1.5331 3.0625,3.0625 l 0,-2 C 64,13.6581 62.461309,12.125 60.9375,12.125 z" opacity=".03" transform="translate(0,988.3622)"/><g id="g4034" opacity="1"><path id="path4017" fill="#2a74b9" fill-opacity="1" stroke="none" d="M 32 24 C 26.816127 24 22.295011 26.812856 19.875 31 L 23.5 31 C 25.517562 28.55528 28.582738 27 32 27 C 38.075132 27 43 31.924868 43 38 C 43 44.075132 38.075132 49 32 49 C 25.924868 49 21 44.075132 21 38 C 21 37.662363 21.032724 37.329883 21.0625 37 L 18.03125 37 C 18.007972 37.330072 18 37.664005 18 38 C 18 45.731986 24.268014 52 32 52 C 39.731986 52 46 45.731986 46 38 C 46 30.268014 39.731986 24 32 24 z" opacity="1" transform="translate(0,988.3622)"/><path id="path4025" fill="#2a74b9" fill-opacity="1" stroke="none" d="m 18,1012.3622 0,10 10,0 z"/><path style="line-height:normal" id="path4105" fill="#2a74b9" fill-opacity="1" d="m 31.812825,1017.2996 a 2.0002,2.0002 0 0 0 -0.25,0.062 2.0002,2.0002 0 0 0 -1.5625,2 l 0,7.375 a 2.0002,2.0002 0 0 0 0,0.188 2.0002,2.0002 0 0 0 0.25,1.5 2.0002,2.0002 0 0 0 0.0625,0.062 2.0002,2.0002 0 0 0 0.0625,0.124 2.0002,2.0002 0 0 0 0.0625,0.062 2.0002,2.0002 0 0 0 0.0625,0.062 2.0002,2.0002 0 0 0 0.0625,0.062 2.0002,2.0002 0 0 0 0.0625,0.062 2.0002,2.0002 0 0 0 0.125,0.062 2.0002,2.0002 0 0 0 0.0625,0.062 2.0002,2.0002 0 0 0 0.0625,0.062 2.0002,2.0002 0 0 0 0.125,0.062 2.0002,2.0002 0 0 0 0.25,0.124 l 4.937497,2.875 a 2.0155644,2.0155644 0 1 0 2,-3.5 l -4.187499,-2.4376 0,-6.8124 a 2.0002,2.0002 0 0 0 -2.187498,-2.0626 z" color="#000" opacity="1"/></g></g></svg>