<svg xmlns="http://www.w3.org/2000/svg" xmlns:svg="http://www.w3.org/2000/svg" xmlns:xlink="http://www.w3.org/1999/xlink" id="svg2" width="64" height="64" version="1.1"><defs id="defs4"><linearGradient id="linearGradient3958"><stop id="stop3960" offset="0" stop-color="#000" stop-opacity="1"/><stop id="stop3962" offset="1" stop-color="#000" stop-opacity="0"/></linearGradient><radialGradient id="radialGradient3964" cx="32.5" cy="56.5" r="33.5" fx="32.5" fy="56.5" gradientTransform="matrix(1,0,0,0.10447761,0,50.597015)" gradientUnits="userSpaceOnUse" xlink:href="#linearGradient3958"/></defs><metadata id="metadata7"/><g id="layer1" transform="translate(0,-988.3622)"><path id="path3956" fill="url(#radialGradient3964)" fill-opacity="1" stroke="none" d="M 66,56.5 C 66,58.432997 51.001539,60 32.5,60 13.998461,60 -1,58.432997 -1,56.5 -1,54.567003 13.998461,53 32.5,53 51.001539,53 66,54.567003 66,56.5 z" opacity=".6" transform="matrix(1.1343284,0,0,1.1428571,-4.8656716,979.79077)"/><path id="path3029" fill="#1976d2" fill-opacity="1" stroke="none" d="m 0,997.42103 0,42.82347 64,0 0,-21.4117 -3.047619,-18.353 L 37,1000.3622 l -3,-6 -30.952381,0 C 1.52381,994.3622 0,995.89161 0,997.42103 z"/><rect id="rect3799" width="31.571" height="11.882" x="5" y="1002.362" fill="#f2f2f2" fill-opacity="1" stroke="none"/><path id="path3790" fill="#000" fill-opacity="1" stroke="none" d="M 3.0625,6 C 1.538691,6 0,7.53308 0,9.0625 l 0,2 C 0,9.53308 1.538691,8 3.0625,8 L 33,8 36,14 60.9375,14.125 64,32.46875 l 0,-2 L 60.9375,12.125 37,12 34,6 z" opacity=".03" transform="translate(0,988.3622)"/><path id="rect2987" fill="#5a9be7" fill-opacity="1" stroke="none" d="m 64,1003.5387 0,42.8235 -64,0 0,-40 30,0 3,-6 27.952381,0.1176 c 1.523809,0 3.047619,1.5295 3.047619,3.0589 z"/><path id="path3794" fill="#000" fill-opacity="1" stroke="none" d="m 0,1044.3622 0,2 64,0 0,-2 z" opacity=".15"/><path id="path3015" fill="#000" fill-opacity="1" stroke="none" d="m 33,12 -3,6 -30,0 0,2 31,0 3,-6 26.9375,0.125 c 1.523809,0 3.0625,1.5331 3.0625,3.0625 l 0,-2 C 64,13.6581 62.461309,12.125 60.9375,12.125 z" opacity=".03" transform="translate(0,988.3622)"/><path id="path3447" fill="#2a74b9" fill-opacity="1" fill-rule="nonzero" stroke="none" d="m 39.755568,1013.3605 c -3.282196,0 -5.966192,2.7395 -5.966192,6.1043 0,1.1292 0.324559,2.1961 0.852314,3.1089 l 0,6.6131 c -0.650046,0.1388 -1.250593,0.4418 -1.757894,0.8479 l -5.912918,-2.7131 c 0,-2.3997 -1.918186,-4.3525 -4.26156,-4.3525 -2.339184,0 -4.261566,1.9516 -4.261566,4.3525 0,2.4044 1.921334,4.4087 4.261566,4.4087 0.949066,0 1.845849,-0.3597 2.556936,-0.9043 l 5.966189,2.7694 c 0.0615,2.3504 1.959653,4.2392 4.261561,4.2392 2.343377,0 4.261564,-1.948 4.261564,-4.3522 0,-1.0016 -0.346836,-1.9167 -0.905582,-2.6564 l 0.05328,0 3.142905,-5.7089 c 0.02243,-0.024 0.03097,-0.047 0.05328,-0.055 2.103514,-0.9502 3.62233,-3.098 3.62233,-5.5957 0,-3.3614 -2.688188,-6.1045 -5.96619,-6.1045 z m 0,2.0346 c 2.204914,0 3.941945,1.809 3.941945,4.0697 0,2.2649 -1.738081,4.0695 -3.941945,4.0695 -2.20806,0 -3.941947,-1.8046 -3.941947,-4.0695 0,-2.2607 1.733887,-4.0697 3.941947,-4.0697 z m 0,1.4699 c -1.409804,0 -2.55694,1.1475 -2.55694,2.5998 0,1.4466 1.147136,2.6 2.55694,2.6 1.413999,0 2.556938,-1.152 2.556938,-2.6 0,-1.4514 -1.142939,-2.5998 -2.556938,-2.5998 z m -17.046251,7.8566 c 1.39967,0 2.197855,0.5792 2.450398,1.752 l -1.49155,-0.6786 c -0.967141,-0.4218 -2.093527,0.024 -2.503667,1.0175 -0.410144,0.992 0.04496,2.1263 1.012119,2.5439 l 1.118662,0.5649 c -0.186756,0.031 -0.372502,0.055 -0.585962,0.055 -1.704564,0 -2.55694,-0.9043 -2.55694,-2.656 0,-1.7476 0.852376,-2.6003 2.55694,-2.6003 z m 12.784687,5.8218 c 1.577633,0 2.823285,1.3217 2.823285,2.939 0,1.6172 -1.245652,2.8826 -2.823285,2.8826 -1.281126,0 -2.362724,-0.8449 -2.716747,-2.035 l 2.024245,0.9048 c 0.967139,0.4216 2.093524,-0.078 2.503667,-1.0742 0.410141,-0.9917 -0.04498,-2.126 -1.012121,-2.5433 l -1.864434,-0.8481 c 0.326603,-0.1348 0.690073,-0.2244 1.06539,-0.2244 z" opacity="1"/></g></svg>