<svg xmlns="http://www.w3.org/2000/svg" xmlns:svg="http://www.w3.org/2000/svg" xmlns:xlink="http://www.w3.org/1999/xlink" id="svg2" width="64" height="64" version="1.1"><defs id="defs4"><linearGradient id="linearGradient3958"><stop id="stop3960" offset="0" stop-color="#000" stop-opacity="1"/><stop id="stop3962" offset="1" stop-color="#000" stop-opacity="0"/></linearGradient><radialGradient id="radialGradient3964" cx="32.5" cy="56.5" r="33.5" fx="32.5" fy="56.5" gradientTransform="matrix(1,0,0,0.10447761,0,50.597015)" gradientUnits="userSpaceOnUse" xlink:href="#linearGradient3958"/></defs><metadata id="metadata7"/><g id="layer1" transform="translate(0,-988.3622)"><path id="path3956" fill="url(#radialGradient3964)" fill-opacity="1" stroke="none" d="M 66,56.5 C 66,58.432997 51.001539,60 32.5,60 13.998461,60 -1,58.432997 -1,56.5 -1,54.567003 13.998461,53 32.5,53 51.001539,53 66,54.567003 66,56.5 z" opacity=".6" transform="matrix(1.1343284,0,0,1.1428571,-4.8656716,979.79077)"/><path id="path3029" fill="#1976d2" fill-opacity="1" stroke="none" d="m 0,997.42103 0,42.82347 64,0 0,-21.4117 -3.047619,-18.353 L 37,1000.3622 l -3,-6 -30.952381,0 C 1.52381,994.3622 0,995.89161 0,997.42103 z"/><rect id="rect3799" width="31.571" height="11.882" x="5" y="1002.362" fill="#f2f2f2" fill-opacity="1" stroke="none"/><path id="path3790" fill="#000" fill-opacity="1" stroke="none" d="M 3.0625,6 C 1.538691,6 0,7.53308 0,9.0625 l 0,2 C 0,9.53308 1.538691,8 3.0625,8 L 33,8 36,14 60.9375,14.125 64,32.46875 l 0,-2 L 60.9375,12.125 37,12 34,6 z" opacity=".03" transform="translate(0,988.3622)"/><path id="rect2987" fill="#5a9be7" fill-opacity="1" stroke="none" d="m 64,1003.5387 0,42.8235 -64,0 0,-40 30,0 3,-6 27.952381,0.1176 c 1.523809,0 3.047619,1.5295 3.047619,3.0589 z"/><path id="path3794" fill="#000" fill-opacity="1" stroke="none" d="m 0,1044.3622 0,2 64,0 0,-2 z" opacity=".15"/><path id="path3015" fill="#000" fill-opacity="1" stroke="none" d="m 33,12 -3,6 -30,0 0,2 31,0 3,-6 26.9375,0.125 c 1.523809,0 3.0625,1.5331 3.0625,3.0625 l 0,-2 C 64,13.6581 62.461309,12.125 60.9375,12.125 z" opacity=".03" transform="translate(0,988.3622)"/><path id="path10643" fill="#2a74b9" fill-opacity="1" fill-rule="nonzero" stroke="none" d="m 21.302668,1015.2842 c -0.77086,0.024 -1.499358,0.096 -2.232892,0.3506 -0.23063,1.5648 0.14958,3.1884 0.569168,4.688 1.067318,3.4402 3.048365,6.705 5.954375,8.8948 0.10652,0.102 0.25798,0.124 0.218904,0.3066 -0.0154,0.7622 -0.0015,1.5582 0,2.3226 0.03126,1.336 0.835442,2.6124 2.013974,3.2422 1.398731,0.7368 2.794467,1.4202 4.203085,2.1468 0.648442,0.3438 1.547758,-0.05 1.751288,-0.7446 0.12384,-0.457 0.03722,-0.9362 0.04378,-1.4022 -0.0048,-0.9816 -0.12558,-1.9668 -0.08756,-2.936 1.281999,-0.158 2.570829,-0.7804 3.327443,-1.84 0.674342,-0.9038 0.914484,-2.0742 0.831862,-3.1986 1.371492,-0.2446 2.784809,-0.4524 4.159301,-0.701 0.813506,-0.164 1.16628,-1.2216 0.656734,-1.8842 -0.999728,-1.2678 -2.004598,-2.5094 -3.020969,-3.7684 -0.820552,-0.9808 -2.105726,-1.5252 -3.371224,-1.3584 -0.858202,0.138 -1.736952,0.3226 -2.583147,0.4826 -2.732666,-2.6052 -6.406045,-4.049 -10.113675,-4.4692 -0.761404,-0.07 -1.549595,-0.144 -2.320455,-0.132 z m 4.640907,2.8478 c 0.895714,-0.08 1.794086,0.168 2.539365,0.7888 1.490552,1.2424 1.722734,3.4594 0.481604,4.9512 -1.241137,1.4916 -3.456827,1.724 -4.947383,0.4816 -1.490552,-1.2418 -1.722737,-3.459 -0.481604,-4.9512 0.620566,-0.7456 1.5123,-1.1884 2.408018,-1.2704 z m 14.316766,10.7352 c -0.306682,-0.028 -0.612434,0.2048 -0.656736,0.5258 -0.39086,1.7778 -1.653944,3.3224 -3.327436,4.031 -0.43575,0.138 -0.533062,0.7218 -0.17514,1.0076 0.734476,0.6122 1.58298,1.3198 2.320452,1.9282 0.358844,0.3054 0.82584,-0.026 0.831864,-0.4818 -0.0116,-0.3732 -0.05398,-0.7714 -0.08758,-1.1394 0.914422,0.196 1.809667,0.4568 2.714493,0.6572 0.42639,0.088 0.830254,-0.4258 0.656732,-0.8324 -0.357706,-0.8582 -0.72725,-1.6876 -1.094554,-2.5414 0.370248,-0.044 0.72626,-0.074 1.094554,-0.132 0.45586,-0.09 0.634124,-0.7542 0.262692,-1.0516 -0.73868,-0.6216 -1.484614,-1.223 -2.23289,-1.8402 -0.08754,-0.07 -0.204243,-0.122 -0.306477,-0.132 z" opacity="1"/><path id="path3002" fill="#2a74b9" fill-opacity="1" fill-rule="evenodd" stroke="none" d="m 29,33 a 2,2 0 1 1 -4,0 2,2 0 1 1 4,0 z" opacity="1" transform="translate(-0.66828031,988.69392)"/></g></svg>