<svg xmlns="http://www.w3.org/2000/svg" xmlns:svg="http://www.w3.org/2000/svg" xmlns:xlink="http://www.w3.org/1999/xlink" id="svg2" width="64" height="64" version="1.1"><defs id="defs4"><linearGradient id="linearGradient3958"><stop id="stop3960" offset="0" stop-color="#000" stop-opacity="1"/><stop id="stop3962" offset="1" stop-color="#000" stop-opacity="0"/></linearGradient><radialGradient id="radialGradient3964" cx="32.5" cy="56.5" r="33.5" fx="32.5" fy="56.5" gradientTransform="matrix(1,0,0,0.10447761,0,50.597015)" gradientUnits="userSpaceOnUse" xlink:href="#linearGradient3958"/></defs><metadata id="metadata7"/><g id="layer1" transform="translate(0,-988.3622)"><path id="path3956" fill="url(#radialGradient3964)" fill-opacity="1" stroke="none" d="m 66,56.5 a 33.5,3.5 0 1 1 -67,0 33.5,3.5 0 1 1 67,0 z" opacity=".6" transform="matrix(1.1343284,0,0,1.1428571,-4.8656716,979.79077)"/><path id="path3029" fill="#1976d2" fill-opacity="1" stroke="none" d="m 0,997.42103 0,42.82347 64,0 0,-21.4117 -3.047619,-18.353 L 37,1000.3622 l -3,-6 -30.952381,0 C 1.52381,994.3622 0,995.89161 0,997.42103 z"/><rect id="rect3799" width="31.571" height="11.882" x="5" y="1002.362" fill="#f2f2f2" fill-opacity="1" stroke="none"/><path id="path3790" fill="#000" fill-opacity="1" stroke="none" d="M 3.0625,6 C 1.538691,6 0,7.53308 0,9.0625 l 0,2 C 0,9.53308 1.538691,8 3.0625,8 L 33,8 36,14 60.9375,14.125 64,32.46875 l 0,-2 L 60.9375,12.125 37,12 34,6 z" opacity=".03" transform="translate(0,988.3622)"/><path id="rect2987" fill="#5a9be7" fill-opacity="1" stroke="none" d="m 64,1003.5387 0,42.8235 -64,0 0,-40 30,0 3,-6 27.952381,0.1176 c 1.523809,0 3.047619,1.5295 3.047619,3.0589 z"/><path id="path3794" fill="#000" fill-opacity="1" stroke="none" d="m 0,1044.3622 0,2 64,0 0,-2 z" opacity=".15"/><path id="path3015" fill="#000" fill-opacity="1" stroke="none" d="m 33,12 -3,6 -30,0 0,2 31,0 3,-6 26.9375,0.125 c 1.523809,0 3.0625,1.5331 3.0625,3.0625 l 0,-2 C 64,13.6581 62.461309,12.125 60.9375,12.125 z" opacity=".03" transform="translate(0,988.3622)"/><g id="g4064" opacity="1" transform="translate(0.99999962,0)"><path id="path3001" fill="#2a74b9" fill-opacity="1" stroke="none" d="m -4.9999999,8.2585173 c 0,0.9617941 -0.8161087,1.7414823 -1.8228298,1.7414823 -1.0067211,0 -1.8228299,-0.7796882 -1.8228299,-1.7414823 0,-0.9617942 0.8161088,-1.7414824 1.8228299,-1.7414824 1.0067211,0 1.8228298,0.7796882 1.8228298,1.7414824 z" transform="matrix(2.1943902,0,0,2.2968937,37.971951,1015.3933)"/><path id="path3003" fill="#2a74b9" fill-opacity="1" stroke="none" d="m -4.9999999,8.2585173 c 0,0.9617941 -0.8161087,1.7414823 -1.8228298,1.7414823 -1.0067211,0 -1.8228299,-0.7796882 -1.8228299,-1.7414823 0,-0.9617942 0.8161088,-1.7414824 1.8228299,-1.7414824 1.0067211,0 1.8228298,0.7796882 1.8228298,1.7414824 z" transform="matrix(2.1943902,0,0,2.2968937,53.971951,1015.3933)"/><rect id="rect3005" width="4" height="19" x="23" y="1017.362" fill="#2a74b9" fill-opacity="1" stroke="none" rx="1.917" ry="2"/><rect id="rect3007" width="4" height="20" x="39" y="1016.362" fill="#2a74b9" fill-opacity="1" stroke="none" rx="2" ry="2"/><rect id="rect3009" width="20" height="8" x="23" y="1014.362" fill="#2a74b9" fill-opacity="1" stroke="none" rx="4" ry="3.897"/></g></g></svg>