<svg xmlns="http://www.w3.org/2000/svg" xmlns:svg="http://www.w3.org/2000/svg" xmlns:xlink="http://www.w3.org/1999/xlink" id="svg2" width="64" height="64" version="1.1"><defs id="defs4"><linearGradient id="linearGradient3958"><stop id="stop3960" offset="0" stop-color="#000" stop-opacity="1"/><stop id="stop3962" offset="1" stop-color="#000" stop-opacity="0"/></linearGradient><radialGradient id="radialGradient3964" cx="32.5" cy="56.5" r="33.5" fx="32.5" fy="56.5" gradientTransform="matrix(1,0,0,0.10447761,0,50.597015)" gradientUnits="userSpaceOnUse" xlink:href="#linearGradient3958"/></defs><metadata id="metadata7"/><g id="layer1" transform="translate(0,-988.3622)"><path id="path3956" fill="url(#radialGradient3964)" fill-opacity="1" stroke="none" d="M 66,56.5 C 66,58.432997 51.001539,60 32.5,60 13.998461,60 -1,58.432997 -1,56.5 -1,54.567003 13.998461,53 32.5,53 51.001539,53 66,54.567003 66,56.5 z" opacity=".6" transform="matrix(1.1343284,0,0,1.1428571,-4.8656716,979.79077)"/><path id="path3029" fill="#1976d2" fill-opacity="1" stroke="none" d="m 0,997.42103 0,42.82347 64,0 0,-21.4117 -3.047619,-18.353 L 37,1000.3622 l -3,-6 -30.952381,0 C 1.52381,994.3622 0,995.89161 0,997.42103 z"/><rect id="rect3799" width="31.571" height="11.882" x="5" y="1002.362" fill="#f2f2f2" fill-opacity="1" stroke="none"/><path id="path3790" fill="#000" fill-opacity="1" stroke="none" d="M 3.0625,6 C 1.538691,6 0,7.53308 0,9.0625 l 0,2 C 0,9.53308 1.538691,8 3.0625,8 L 33,8 36,14 60.9375,14.125 64,32.46875 l 0,-2 L 60.9375,12.125 37,12 34,6 z" opacity=".03" transform="translate(0,988.3622)"/><path id="rect2987" fill="#5a9be7" fill-opacity="1" stroke="none" d="m 64,1003.5387 0,42.8235 -64,0 0,-40 30,0 3,-6 27.952381,0.1176 c 1.523809,0 3.047619,1.5295 3.047619,3.0589 z"/><path id="path3794" fill="#000" fill-opacity="1" stroke="none" d="m 0,1044.3622 0,2 64,0 0,-2 z" opacity=".15"/><path id="path3015" fill="#000" fill-opacity="1" stroke="none" d="m 33,12 -3,6 -30,0 0,2 31,0 3,-6 26.9375,0.125 c 1.523809,0 3.0625,1.5331 3.0625,3.0625 l 0,-2 C 64,13.6581 62.461309,12.125 60.9375,12.125 z" opacity=".03" transform="translate(0,988.3622)"/><path id="rect3828" fill="#2a74b9" fill-opacity="1" stroke="none" d="M 24 26 C 22.57543 26 22 26.6704 22 28 L 22 48 C 22 49.3296 22.57543 50 24 50 L 39.4375 50 C 40.862072 50 42 49.3296 42 48 L 42 28 C 42 26.6704 41.424572 26 40 26 L 24 26 z M 25.5 28 C 26.328427 28 27 28.671573 27 29.5 C 27 30.328427 26.328427 31 25.5 31 C 24.671573 31 24 30.328427 24 29.5 C 24 28.671573 24.671573 28 25.5 28 z M 38.5 28 C 39.328427 28 40 28.671573 40 29.5 C 40 30.328427 39.328427 31 38.5 31 C 37.671573 31 37 30.328427 37 29.5 C 37 28.671573 37.671573 28 38.5 28 z M 32 30 C 34.209138 30 36 31.7908 36 34 C 36 36.2092 34.209138 38 32 38 C 29.790862 38 28 36.2092 28 34 C 28 31.7908 29.790862 30 32 30 z M 25.5 37 C 26.328427 37 27 37.671573 27 38.5 C 27 39.328427 26.328427 40 25.5 40 C 24.671573 40 24 39.328427 24 38.5 C 24 37.671573 24.671573 37 25.5 37 z M 38.5 37 C 39.328427 37 40 37.671573 40 38.5 C 40 39.328427 39.328427 40 38.5 40 C 37.671573 40 37 39.328427 37 38.5 C 37 37.671573 37.671573 37 38.5 37 z M 25 46 L 39 46 C 39.554 46 40 46.446 40 47 C 40 47.554 39.554 48 39 48 L 25 48 C 24.446 48 24 47.554 24 47 C 24 46.446 24.446 46 25 46 z" opacity="1" transform="translate(0,988.3622)"/><path id="path2995" fill="#2a74b9" fill-opacity="1" fill-rule="evenodd" stroke="none" d="m 34,34 a 2,2 0 1 1 -4,0 2,2 0 1 1 4,0 z" opacity="1" transform="translate(0,988.3622)"/></g></svg>