<svg xmlns="http://www.w3.org/2000/svg" xmlns:svg="http://www.w3.org/2000/svg" xmlns:xlink="http://www.w3.org/1999/xlink" id="svg2" width="64" height="64" version="1.1"><defs id="defs4"><linearGradient id="linearGradient3958"><stop id="stop3960" offset="0" stop-color="#000" stop-opacity="1"/><stop id="stop3962" offset="1" stop-color="#000" stop-opacity="0"/></linearGradient><radialGradient id="radialGradient3964" cx="32.5" cy="56.5" r="33.5" fx="32.5" fy="56.5" gradientTransform="matrix(1,0,0,0.10447761,0,50.597015)" gradientUnits="userSpaceOnUse" xlink:href="#linearGradient3958"/></defs><metadata id="metadata7"/><g id="layer1" transform="translate(0,-988.3622)"><path id="path3956" fill="url(#radialGradient3964)" fill-opacity="1" stroke="none" d="M 66,56.5 C 66,58.432997 51.001539,60 32.5,60 13.998461,60 -1,58.432997 -1,56.5 -1,54.567003 13.998461,53 32.5,53 51.001539,53 66,54.567003 66,56.5 z" opacity=".6" transform="matrix(1.1343284,0,0,1.1428571,-4.8656716,979.79077)"/><path id="path3029" fill="#1976d2" fill-opacity="1" stroke="none" d="m 0,997.42103 0,42.82347 64,0 0,-21.4117 -3.047619,-18.353 L 37,1000.3622 l -3,-6 -30.952381,0 C 1.52381,994.3622 0,995.89161 0,997.42103 z"/><rect id="rect3799" width="31.571" height="11.882" x="5" y="1002.362" fill="#f2f2f2" fill-opacity="1" stroke="none"/><path id="path3790" fill="#000" fill-opacity="1" stroke="none" d="M 3.0625,6 C 1.538691,6 0,7.53308 0,9.0625 l 0,2 C 0,9.53308 1.538691,8 3.0625,8 L 33,8 36,14 60.9375,14.125 64,32.46875 l 0,-2 L 60.9375,12.125 37,12 34,6 z" opacity=".03" transform="translate(0,988.3622)"/><path id="rect2987" fill="#5a9be7" fill-opacity="1" stroke="none" d="m 64,1003.5387 0,42.8235 -64,0 0,-40 30,0 3,-6 27.952381,0.1176 c 1.523809,0 3.047619,1.5295 3.047619,3.0589 z"/><path id="path3794" fill="#000" fill-opacity="1" stroke="none" d="m 0,1044.3622 0,2 64,0 0,-2 z" opacity=".15"/><path id="path3015" fill="#000" fill-opacity="1" stroke="none" d="m 33,12 -3,6 -30,0 0,2 31,0 3,-6 26.9375,0.125 c 1.523809,0 3.0625,1.5331 3.0625,3.0625 l 0,-2 C 64,13.6581 62.461309,12.125 60.9375,12.125 z" opacity=".03" transform="translate(0,988.3622)"/><path id="path3974" fill="#2a74b9" fill-opacity="1" d="m 41.039627,1014.3638 c -1.036385,0.016 -2.055945,0.6534 -2.219114,1.8413 -0.261072,1.901 1.69697,1.1881 3.263403,1.1881 1.566433,0 2.088577,3.089 1.69697,4.7522 -0.391609,1.6634 -4.555157,5.5921 -13.967367,1.6634 -7.749224,-3.2346 -11.618268,1.0721 -11.813519,1.1583 0.733373,6.4261 6.712706,13.3951 13.967365,13.3951 7.75001,0 14.032635,-7.6782 14.032635,-14.7317 0,-0.8101 -0.102604,-1.6079 -0.261073,-2.376 -0.144098,-0.3883 -0.285812,-0.7756 -0.391607,-1.1287 -0.189645,-0.6328 -0.403808,-1.1667 -0.587414,-1.6634 -0.0079,-0.016 0.0081,-0.043 0,-0.06 -0.741858,-1.4995 -1.781976,-2.8551 -3.067598,-3.9801 -0.0059,-0.013 -0.02686,0.014 -0.03264,0 -0.200904,-0.047 -0.412769,-0.062 -0.620047,-0.06 z" color="#000" opacity="1" style="line-height:normal"/><path id="path3976" fill="#2a74b9" fill-opacity="1" d="m 38,1020.3624 c 0,1.1046 -0.89543,1.9998 -2,1.9998 -1.10457,0 -2,-0.8952 -2,-1.9998 0,-1.1046 0.89543,-2.0002 2,-2.0002 1.10457,0 2,0.8956 2,2.0002 z" color="#000" opacity="1" style="line-height:normal"/><path id="path3978" fill="#2a74b9" fill-opacity="1" d="m 32,1017.3622 c 0,0.5524 -0.447716,1 -1,1 -0.552284,0 -1,-0.4476 -1,-1 0,-0.5524 0.447716,-1 1,-1 0.552284,0 1,0.4476 1,1 z" color="#000" opacity="1" style="line-height:normal"/></g></svg>