<svg xmlns="http://www.w3.org/2000/svg" xmlns:svg="http://www.w3.org/2000/svg" id="svg2" width="64" height="64" version="1.1" viewBox="0 0 64 64"><metadata id="metadata22"/><rect id="rect3804" width="3" height="7" x="30" y="37.5" fill="#e95c36" fill-opacity="1" stroke="none"/><rect id="rect3802" width="3" height="7" x="30" y="21.5" fill="#e95c36" fill-opacity="1" stroke="none"/><rect id="rect3000" width="52" height="12" x="6" y="43" fill="#21a6d7" fill-opacity="1" stroke="none" rx="2.5" ry="2.5"/><rect id="rect2998" width="52" height="12" x="6" y="27" fill="#e95c36" fill-opacity="1" stroke="none" rx="2.5" ry="2.5"/><rect id="rect2992" width="52" height="12" x="6" y="11" fill="#21a6d7" fill-opacity="1" stroke="none" rx="2.5" ry="2.5"/><rect id="rect3806" width="26" height="6" x="9" y="14" fill="#f9f9f9" fill-opacity="1" stroke="none"/><path id="path3808" fill="#f9f9f9" fill-opacity="1" stroke="none" d="m -5,17 a 2,2 0 1 1 -4,0 2,2 0 1 1 4,0 z" transform="matrix(1.5000001,0,0,1.5,53.5,-8.5)"/><path id="path3810" fill="#f9f9f9" fill-opacity="1" stroke="none" d="m -5,17 a 2,2 0 1 1 -4,0 2,2 0 1 1 4,0 z" transform="matrix(1.5,0,0,1.5,62.5,-8.5)"/><rect id="rect3812" width="26" height="6" x="10" y="46" fill="#f9f9f9" fill-opacity="1" stroke="none"/><rect id="rect3818" width="26" height="6" x="9" y="30" fill="#f9f9f9" fill-opacity="1" stroke="none"/><path id="path3053" fill="#f9f9f9" fill-opacity="1" stroke="none" d="m -5,17 a 2,2 0 1 1 -4,0 2,2 0 1 1 4,0 z" transform="matrix(1.5000001,0,0,1.5,53.5,7.5)"/><path id="path3055" fill="#f9f9f9" fill-opacity="1" stroke="none" d="m -5,17 a 2,2 0 1 1 -4,0 2,2 0 1 1 4,0 z" transform="matrix(1.5,0,0,1.5,62.5,7.5)"/><path id="path3057" fill="#f9f9f9" fill-opacity="1" stroke="none" d="m -5,17 a 2,2 0 1 1 -4,0 2,2 0 1 1 4,0 z" transform="matrix(1.5000001,0,0,1.5,53.5,23.5)"/><path id="path3059" fill="#f9f9f9" fill-opacity="1" stroke="none" d="m -5,17 a 2,2 0 1 1 -4,0 2,2 0 1 1 4,0 z" transform="matrix(1.5,0,0,1.5,62.5,23.5)"/></svg>