<svg xmlns="http://www.w3.org/2000/svg" xmlns:svg="http://www.w3.org/2000/svg" id="svg2" width="64" height="64" version="1.1" viewBox="0 0 64 64"><metadata id="metadata20"/><path id="rect2999" fill="#ababab" fill-opacity="1" stroke="none" d="m 8.744159,19 46.511682,0 c 1.515734,0 2.861856,1.247761 2.735982,2.785715 l -2.735982,33.42857 C 55.129973,56.752239 54.035594,58 52.51986,58 L 11.480141,58 C 9.9644066,58 8.8700338,56.752239 8.744159,55.214285 L 6.0081777,21.785715 C 5.8823035,20.247761 7.2284253,19 8.744159,19 z"/><path id="rect3769" fill="#999" fill-opacity="1" stroke="none" d="M 6.0909091,14 57.909091,14 C 60.636364,14 62,15.333333 62,18 l 0,4 -60,0 0,-4 c 0,-2.666667 1.3636364,-4 4.0909091,-4 z"/><path id="path3776" fill="#999" fill-opacity="1" stroke="none" d="M 25.181818,6 C 23.818182,6 22,7.6315784 22,9 l 0,5 0,3 3,0 0,-2.736843 L 25,12 c 0,-1.526315 1,-3 3,-3 l 8,0 c 2,0 3,1 3,3 l 0,2 0,3 3,0 0,-3 0,-5 C 42,7.6315784 40.181818,6 38.818182,6 z"/><rect id="rect3785" width="6" height="25" x="29" y="29" fill="#999" fill-opacity="1" stroke="none" rx="3" ry="2.778"/><path id="rect2992" fill="#000" fill-opacity="1" stroke="none" d="M 32 29 C 30.338 29 29 30.242361 29 31.78125 L 29 33.78125 C 29 32.242361 30.338 31 32 31 C 33.662 31 35 32.242361 35 33.78125 L 35 31.78125 C 35 30.242361 33.662 29 32 29 z" opacity=".15"/><path id="rect3765" fill="#999" fill-opacity="1" stroke="none" d="m 48.000343,29 c 1.662,0 3.234652,1.256884 3,2.777778 l -3,19.444444 c -0.234652,1.520894 -1.338,2.777778 -3,2.777778 -1.662,0 -3.234652,-1.256884 -3,-2.777778 l 3,-19.444444 C 45.234995,30.256884 46.338343,29 48.000343,29 z"/><path id="path3772" fill="#000" fill-opacity="1" stroke="none" d="M 48 29 C 46.338 29 45.234652 30.260356 45 31.78125 L 44.6875 33.75 C 44.931755 32.242334 46.036215 31 47.6875 31 C 49.3495 31 50.922152 32.260356 50.6875 33.78125 L 51 31.78125 C 51.234652 30.260356 49.662 29 48 29 z" opacity=".15"/><path id="path3777" fill="#999" fill-opacity="1" stroke="none" d="m 16.000343,29 c -1.662,0 -3.234652,1.256884 -3,2.777778 l 3,19.444444 c 0.234652,1.520894 1.338,2.777778 3,2.777778 1.662,0 3.234652,-1.256884 3,-2.777778 l -3,-19.444444 C 18.765691,30.256884 17.662343,29 16.000343,29 z"/><path id="path3779" fill="#000" fill-opacity="1" stroke="none" d="m 16.000686,29 c 1.662,0 2.765348,1.260356 3,2.78125 l 0.3125,1.96875 c -0.244255,-1.507666 -1.348715,-2.75 -3,-2.75 -1.662,0 -3.234652,1.260356 -3,2.78125 l -0.3125,-2 c -0.234652,-1.520894 1.338,-2.78125 3,-2.78125 z" opacity=".15"/><path id="path3781" fill="#000" fill-opacity="1" stroke="none" stroke-linecap="butt" stroke-linejoin="miter" stroke-opacity="1" stroke-width="1" d="M 6.03125 22 L 6.34375 26 L 57.65625 26 L 57.96875 22 L 6.03125 22 z" opacity=".05"/></svg>