<svg xmlns="http://www.w3.org/2000/svg" xmlns:svg="http://www.w3.org/2000/svg" xmlns:xlink="http://www.w3.org/1999/xlink" id="svg2" width="24" height="24" version="1.1"><defs id="defs4"><radialGradient id="radialGradient3766" cx="11" cy="19" r="11" fx="11" fy="19" gradientTransform="matrix(1,0,0,0.09090909,0,17.272727)" gradientUnits="userSpaceOnUse" xlink:href="#linearGradient3760"/><linearGradient id="linearGradient3760"><stop id="stop3762" offset="0" stop-color="#000" stop-opacity="1"/><stop id="stop3764" offset="1" stop-color="#000" stop-opacity="0"/></linearGradient><radialGradient id="radialGradient3783" cx="11" cy="19" r="11" fx="11" fy="19" gradientTransform="matrix(1,0,0,0.09090909,0,17.272727)" gradientUnits="userSpaceOnUse" xlink:href="#linearGradient3760"/></defs><metadata id="metadata7"/><g id="layer1" transform="translate(0,-1028.3622)"><path id="path2990" fill="url(#radialGradient3783)" fill-opacity="1" stroke="none" d="m 22,19 c 0,0.552285 -4.924868,1 -11,1 -6.0751322,0 -11,-0.447715 -11,-1 0,-0.552285 4.9248678,-1 11,-1 6.075132,0 11,0.447715 11,1 z" opacity=".25" transform="matrix(1.1818182,0,0,1,-1,1030.3622)"/><path id="path3029" fill="#1976d2" fill-opacity="1" stroke="none" d="m 0.99999997,1032.3622 0,14 22.00000003,0 0,-7 -1,-6 -8,0 -1,-2 -11,0 c -0.5,0 -1.00000003,0.5 -1.00000003,1 z"/><path id="path3806" fill="#000" fill-opacity="1" stroke="none" d="m 2,1031.3622 c -0.5,0 -1.00000003,0.5 -1.00000003,1 l 0,1 c 0,-0.5 0.50000003,-1 1.00000003,-1 l 10,0 1,2 9,0 0,6 0,-1 0,-6 -8,0 -1,-2 z" opacity=".03"/><rect id="rect3799" width="10" height="4" x="3" y="1034.362" fill="#f2f2f2" fill-opacity="1" stroke="none"/><path id="rect2987" fill="#5a9be7" fill-opacity="1" stroke="none" d="m 23,1034.4289 0,14.9333 -22.00000003,0 0,-14 11.00000003,0 1,-2 9,0 c 0.5,0 1,0.5333 1,1.0667 z"/><path id="path3794" fill="#000" fill-opacity="1" stroke="none" d="m 0.99999997,1048.3622 0,1 22.00000003,0 0,-1 z" opacity=".15"/><path id="path3801" fill="none" stroke="none" d="m 12,1033.8622 -2.5000002,1.5 1.5000002,0 z"/><path id="path3033" fill="#000" fill-opacity="1" stroke="none" d="m 13,1033.3622 -1,2 -11.00000003,0 0,1 12.00000003,0 1,-2 8,0 c 0.5,0 1,0.5 1,1 l 0,-1 c 0,-0.5 -0.5,-1 -1,-1 z" opacity=".03"/><path id="path3843" fill="#2a74b9" fill-opacity="1" stroke="none" d="m 11.375,1038.3622 c -2.4961646,0.056 -4.3750001,1.7233 -4.3750001,3.4375 0,1.7143 1.25,1.7188 1.8749999,1.7188 0.6250001,0 1.2500002,-0.018 1.2500002,1.125 0,1.1428 0.625,1.7187 1.875,1.7187 4.375,0 5,-2.8572 5,-4 0,-1.7142 -1.875,-4 -5.625,-4 z m -0.875,1 c 0.276142,0 0.5,0.2239 0.5,0.5 0,0.2761 -0.223858,0.5 -0.5,0.5 -0.276142,0 -0.5000002,-0.2239 -0.5000002,-0.5 0,-0.2761 0.2238582,-0.5 0.5000002,-0.5 z m 2,0 c 0.276142,0 0.5,0.2239 0.5,0.5 0,0.2761 -0.223858,0.5 -0.5,0.5 -0.276142,0 -0.5,-0.2239 -0.5,-0.5 0,-0.2761 0.223858,-0.5 0.5,-0.5 z m -4.0000001,1 c 0.2761423,0 0.4999999,0.2239 0.4999999,0.5 0,0.2761 -0.2238576,0.5 -0.4999999,0.5 -0.2761424,0 -0.5,-0.2239 -0.5,-0.5 0,-0.2761 0.2238576,-0.5 0.5,-0.5 z m 6.0000001,0 c 0.276142,0 0.5,0.2239 0.5,0.5 0,0.2761 -0.223858,0.5 -0.5,0.5 -0.276142,0 -0.5,-0.2239 -0.5,-0.5 0,-0.2761 0.223858,-0.5 0.5,-0.5 z m -2.5,3 c 0.552285,0 1,0.4477 1,1 0,0.5523 -0.447715,1 -1,1 -0.552285,0 -1,-0.4477 -1,-1 0,-0.5523 0.447715,-1 1,-1 z" opacity="1"/></g></svg>