<svg xmlns="http://www.w3.org/2000/svg" xmlns:svg="http://www.w3.org/2000/svg" id="svg2" width="24" height="24" version="1.1"><metadata id="metadata7"/><g id="layer1" transform="translate(0,-1028.3622)"><g id="g3787" opacity=".5" transform="translate(1,-3)"><path id="path3773" fill="#1976d2" fill-opacity="1" stroke="none" d="m 2,1035.8622 0,7 11,0 0,-3.5 -0.5,-3 -4,0 -0.5,-1 -5.5,0 c -0.25,0 -0.5,0.25 -0.5,0.5 z"/><rect id="rect3775" width="4" height="2.5" x="4" y="1036.362" fill="#f2f2f2" fill-opacity="1" stroke="none"/><path id="path3777" fill="#000" fill-opacity="1" stroke="none" d="m 2.5,1035.3622 c -0.25,0 -0.5,0.25 -0.5,0.5 l 0,1 c 0,-0.25 0.25,-0.5 0.5,-0.5 l 5.5,0 0.5,1 4,0 0.5,3 0,-1 -0.5,-3 -4,0 -0.5,-1 -5.5,0 z" opacity=".03"/><path id="path3779" fill="#5a9be7" fill-opacity="1" stroke="none" d="m 13,1036.8956 0,7.4666 -11,0 0,-7 5.5,0 0.5,-1 4.5,0 c 0.25,0 0.5,0.2667 0.5,0.5334 z"/><path id="path3781" fill="#000" fill-opacity="1" stroke="none" d="m 2,1043.3622 0,1 11,0 0,-1 z" opacity=".15"/><path id="path3783" fill="none" stroke="none" d="m 7.5,1036.6122 -1.25,0.75 0.75,0 z"/><path id="path3785" fill="#000" fill-opacity="1" stroke="none" d="m 8,1036.3622 -0.5,1 -5.5,0 0,1 6.25,0 0.5,-1 3.75,0 c 0.25,0 0.5,0.2646 0.5,0.5313 l 0,-1 c 0,-0.2667 -0.25,-0.5313 -0.5,-0.5313 z" opacity=".03"/></g><path id="path3029" fill="#1976d2" fill-opacity="1" stroke="none" d="m 10,1039.8622 0,7 11,0 0,-3.5 -0.5,-3 -4,0 -0.5,-1 -5.5,0 c -0.25,0 -0.5,0.25 -0.5,0.5 z"/><rect id="rect3799" width="4" height="2.5" x="12" y="1040.362" fill="#f2f2f2" fill-opacity="1" stroke="none"/><path id="path3768" fill="#000" fill-opacity="1" stroke="none" d="m 10.5,1039.3622 c -0.25,0 -0.5,0.25 -0.5,0.5 l 0,1 c 0,-0.25 0.25,-0.5 0.5,-0.5 l 5.5,0 0.5,1 4,0 0.5,3 0,-1 -0.5,-3 -4,0 -0.5,-1 -5.5,0 z" opacity=".03"/><path id="rect2987" fill="#5a9be7" fill-opacity="1" stroke="none" d="m 21,1040.8956 0,7.4666 -11,0 0,-7 5.5,0 0.5,-1 4.5,0 c 0.25,0 0.5,0.2667 0.5,0.5334 z"/><path id="path3794" fill="#000" fill-opacity="1" stroke="none" d="m 10,1047.3622 0,1 11,0 0,-1 z" opacity=".15"/><path id="path3801" fill="none" stroke="none" d="m 15.5,1040.6122 -1.25,0.75 0.75,0 z"/><path id="path2995" fill="#000" fill-opacity="1" stroke="none" d="m 16,1040.3622 -0.5,1 -5.5,0 0,1 6.25,0 0.5,-1 3.75,0 c 0.25,0 0.5,0.2646 0.5,0.5313 l 0,-1 c 0,-0.2667 -0.25,-0.5313 -0.5,-0.5313 z" opacity=".03"/></g></svg>