<svg xmlns="http://www.w3.org/2000/svg" xmlns:svg="http://www.w3.org/2000/svg" xmlns:xlink="http://www.w3.org/1999/xlink" id="svg2" width="24" height="24" version="1.1"><defs id="defs4"><linearGradient id="linearGradient3760"><stop id="stop3762" offset="0" stop-color="#000" stop-opacity="1"/><stop id="stop3764" offset="1" stop-color="#000" stop-opacity="0"/></linearGradient><radialGradient id="radialGradient3766" cx="11" cy="19" r="11" fx="11" fy="19" gradientTransform="matrix(1,0,0,0.09090909,0,17.272727)" gradientUnits="userSpaceOnUse" xlink:href="#linearGradient3760"/></defs><metadata id="metadata7"/><g id="layer1" transform="translate(0,-1028.3622)"><path id="path2990" fill="url(#radialGradient3766)" fill-opacity="1" stroke="none" d="M 22,19 A 11,1 0 1 1 0,19 11,1 0 1 1 22,19 z" opacity=".25" transform="matrix(1.1818182,0,0,1,-1,1030.3622)"/><path id="path3029" fill="#1976d2" fill-opacity="1" stroke="none" d="m 1,1032.3622 0,14 22,0 0,-7 -1,-6 -8,0 -1,-2 -11,0 c -0.5,0 -1,0.5 -1,1 z"/><path id="path3806" fill="#000" fill-opacity="1" stroke="none" d="m 2,1031.3622 c -0.5,0 -1,0.5 -1,1 l 0,1 c 0,-0.5 0.5,-1 1,-1 l 10,0 1,2 9,0 0,6 0,-1 0,-6 -8,0 -1,-2 z" opacity=".03"/><rect id="rect3799" width="10" height="4" x="3" y="1034.362" fill="#f2f2f2" fill-opacity="1" stroke="none"/><path id="rect2987" fill="#5a9be7" fill-opacity="1" stroke="none" d="m 23,1034.4289 0,14.9333 -22,0 0,-14 11,0 1,-2 9,0 c 0.5,0 1,0.5333 1,1.0667 z"/><path id="path3794" fill="#000" fill-opacity="1" stroke="none" d="m 1,1048.3622 0,1 22,0 0,-1 z" opacity=".15"/><path id="path3801" fill="none" stroke="none" d="m 12,1033.8622 -2.5,1.5 1.5,0 z"/><path id="path3033" fill="#000" fill-opacity="1" stroke="none" d="m 13,1033.3622 -1,2 -11,0 0,1 12,0 1,-2 8,0 c 0.5,0 1,0.5 1,1 l 0,-1 c 0,-0.5 -0.5,-1 -1,-1 z" opacity=".03"/><path id="path3030" fill="#2a74b9" fill-opacity="1" stroke="none" d="m 12,1037.3622 c -2.2194943,0 -4.0656537,1.4673 -4.71875,3.4688 0.4392155,0.3668 0.71875,0.9141 0.71875,1.5312 0,0.6171 -0.2795345,1.1644 -0.71875,1.5313 0.6530963,2.0014 2.4992557,3.4687 4.71875,3.4687 0.345178,0 0.674512,-0.027 1,-0.094 0.04933,-1.0608 0.927106,-1.9063 2,-1.9063 0.291093,0 0.563018,0.076 0.8125,0.1875 0.729874,-0.869 1.1875,-1.9638 1.1875,-3.1875 0,-1.2237 -0.457626,-2.3185 -1.1875,-3.1875 -0.249482,0.1118 -0.521407,0.1875 -0.8125,0.1875 -1.072894,0 -1.950665,-0.8455 -2,-1.9062 -0.325488,-0.067 -0.654822,-0.094 -1,-0.094 z m 0,2 c 1.656854,0 3,1.3431 3,3 0,1.6569 -1.343146,3 -3,3 -1.656854,0 -3,-1.3431 -3,-3 0,-1.6569 1.343146,-3 3,-3 z" opacity="1"/><path id="path3804" fill="#2a74b9" fill-opacity="1" stroke="none" d="m 6,13 a 2,2 0 1 1 -4,0 2,2 0 1 1 4,0 z" opacity="1" transform="matrix(0.5,0,0,0.5,4,1035.8622)"/><path id="path3811" fill="#2a74b9" fill-opacity="1" stroke="none" d="m 6,13 a 2,2 0 1 1 -4,0 2,2 0 1 1 4,0 z" opacity="1" transform="matrix(0.5,0,0,0.5,13,1040.8622)"/><path id="path3815" fill="#2a74b9" fill-opacity="1" stroke="none" d="m 6,13 a 2,2 0 1 1 -4,0 2,2 0 1 1 4,0 z" opacity="1" transform="matrix(0.5,0,0,0.5,13,1030.8622)"/></g></svg>