<svg xmlns="http://www.w3.org/2000/svg" xmlns:svg="http://www.w3.org/2000/svg" id="svg2" width="24" height="24" version="1.1" viewBox="0 0 24 24"><metadata id="metadata22"/><path id="path4" fill="#268bd2" d="m 3,23 18,0 c 2,0 2,0 2,-2 L 23,8 12,1 1,8 1,21 c 0,2 0,2 2,2 z"/><path id="path6" fill-opacity=".102" d="m 3,23 18,0 c 2,0 2,0 2,-2 L 23,8 12,1 1,8 1,21 c 0,2 0,2 2,2 z"/><path id="path4152" fill="#859900" fill-rule="evenodd" d="m 6.6275923,9.422033 4.2273667,5.284209 c 1.059844,1.059844 1.056842,1.056842 2.113683,0 l 4.227367,-5.284209 c 0.589974,-0.7355847 0.370984,-0.7355847 -1.087619,-0.7355847 -0.52842,-0.015007 -1.122141,-0.033029 -1.890753,0 0,-0.012014 0,0.012014 0,0 0,-5.251182 -3.362678,-7.7191478 -7.6230712,-7.6861213 2.1467099,2.0806568 3.0774515,4.515596 3.0113985,7.6861213 -0.7566018,0 -1.0268174,-0.015007 -1.5372242,0 -0.7686121,0 -1.9633021,0 -1.4411478,0.7355847 z"/><g id="g10" fill="#268bd2" transform="translate(1,1)"><path id="path12" d="m 2,22 18,0 c 2,0 2,0 2,-2 L 22,8 0,20 c 0,2 0,2 2,2 z"/><path id="path14" d="M 20,22 2,22 C 0,22 0,22 0,20 L 0,8 22,20 c 0,2 0,2 -2,2 z"/></g><path id="path16" fill="#fff" fill-opacity=".102" d="M 21,23 3,23 C 1,23 1,23 1,21 L 1,9 23,21 c 0,2 0,2 -2,2 z"/></svg>