<svg xmlns="http://www.w3.org/2000/svg" xmlns:svg="http://www.w3.org/2000/svg" id="svg2" width="24" height="24" version="1.1" viewBox="0 0 24 24"><metadata id="metadata22"/><path id="path4" fill="#268bd2" d="m 3,23 18,0 c 2,0 2,0 2,-2 L 23,8 12,1 1,8 1,21 c 0,2 0,2 2,2 z"/><path id="path6" fill-opacity=".102" d="m 3,23 18,0 c 2,0 2,0 2,-2 L 23,8 12,1 1,8 1,21 c 0,2 0,2 2,2 z"/><path id="path4152" fill="#ffee3a" fill-opacity="1" fill-rule="evenodd" d="m 16.922032,11.872024 5.284209,-4.2273678 c 1.059844,-1.059844 1.056842,-1.056842 0,-2.113683 l -5.284209,-4.227367 c -0.735584,-0.589974 -0.735584,-0.370984 -0.735584,1.087619 -0.01501,0.52842 -0.03303,1.122141 0,1.890753 -0.01201,0 0.01201,0 0,0 -5.251182,0 -7.7191475,3.362678 -7.686121,7.6230718 2.080657,-2.1467108 4.515596,-3.0774518 7.686121,-3.0113988 0,0.756602 -0.01501,1.026817 0,1.5372238 0,0.768613 0,1.963303 0.735584,1.441149 z"/><g id="g10" fill="#268bd2" transform="translate(1,1)"><path id="path12" d="m 2,22 18,0 c 2,0 2,0 2,-2 L 22,8 0,20 c 0,2 0,2 2,2 z"/><path id="path14" d="M 20,22 2,22 C 0,22 0,22 0,20 L 0,8 22,20 c 0,2 0,2 -2,2 z"/></g><path id="path16" fill="#fff" fill-opacity=".102" d="M 21,23 3,23 C 1,23 1,23 1,21 L 1,9 23,21 c 0,2 0,2 -2,2 z"/></svg>