<svg xmlns="http://www.w3.org/2000/svg" xmlns:svg="http://www.w3.org/2000/svg" id="svg2" width="24" height="24" version="1.1" viewBox="0 0 24 24"><metadata id="metadata22"/><rect id="rect3804" width="2" height="4" x="10" y="14" fill="#e95c36" fill-opacity="1" stroke="none"/><rect id="rect3802" width="2" height="4" x="10" y="6" fill="#e95c36" fill-opacity="1" stroke="none"/><rect id="rect2998" width="22" height="6" x="1" y="9" fill="#e95c36" fill-opacity="1" stroke="none" rx="1" ry="1"/><rect id="rect2992" width="22" height="6" x="1" y="1" fill="#21a6d7" fill-opacity="1" stroke="none" rx="1" ry="1"/><rect id="rect3806" width="11" height="2" x="2" y="3" fill="#f9f9f9" fill-opacity="1" stroke="none"/><path id="path3808" fill="#f9f9f9" fill-opacity="1" stroke="none" d="m -5,17 a 2,2 0 1 1 -4,0 2,2 0 1 1 4,0 z" transform="matrix(0.5,0,0,0.5,19.5,-4.5)"/><path id="path3810" fill="#f9f9f9" fill-opacity="1" stroke="none" d="m -5,17 a 2,2 0 1 1 -4,0 2,2 0 1 1 4,0 z" transform="matrix(0.5,0,0,0.5,23.5,-4.5)"/><rect id="rect3000" width="22" height="6" x="1" y="17" fill="#21a6d7" fill-opacity="1" stroke="none" rx="1" ry="1"/><rect id="rect3812" width="11" height="2" x="2" y="19" fill="#f9f9f9" fill-opacity="1" stroke="none"/><path id="path3814" fill="#f9f9f9" fill-opacity="1" stroke="none" d="m -5,17 a 2,2 0 1 1 -4,0 2,2 0 1 1 4,0 z" transform="matrix(0.5,0,0,0.5,20.931103,11.5)"/><path id="path3816" fill="#f9f9f9" fill-opacity="1" stroke="none" d="m -5,17 a 2,2 0 1 1 -4,0 2,2 0 1 1 4,0 z" transform="matrix(0.5,0,0,0.5,24.5,11.5)"/><rect id="rect3818" width="11" height="2" x="2" y="11" fill="#f9f9f9" fill-opacity="1" stroke="none"/><path id="path3820" fill="#f9f9f9" fill-opacity="1" stroke="none" d="m -5,17 a 2,2 0 1 1 -4,0 2,2 0 1 1 4,0 z" transform="matrix(0.5,0,0,0.5,19.5,3.5)"/><path id="path3822" fill="#f9f9f9" fill-opacity="1" stroke="none" d="m -5,17 a 2,2 0 1 1 -4,0 2,2 0 1 1 4,0 z" transform="matrix(0.5,0,0,0.5,23.5,3.5)"/></svg>