<svg xmlns="http://www.w3.org/2000/svg" xmlns:svg="http://www.w3.org/2000/svg" id="svg2" width="24" height="24" version="1.1" viewBox="0 0 24 24"><metadata id="metadata20"/><path id="rect2999" fill="#ababab" fill-opacity="1" stroke="none" d="m 3.5,8 17,0 c 0.554,0 1.046007,0.447914 1,1 l -1,12 c -0.04601,0.552086 -0.446,1 -1,1 l -15,0 C 3.946,22 3.5460072,21.552086 3.5,21 L 2.5,9 C 2.453993,8.447914 2.946,8 3.5,8 z"/><path id="rect3769" fill="#999" fill-opacity="1" stroke="none" d="m 2.5,6 19,0 c 1,0 1.5,0.5 1.5,1.5 L 23,9 1,9 1,7.5 C 1,6.5 1.5,6 2.5,6 z"/><path id="path3776" fill="#999" fill-opacity="1" stroke="none" d="M 9.5,3 C 9,3 8.5,3.5 8.5,4 l 0,2 0,1 1,0 0,-1 0,-1 c 0,-0.5 0.5,-1 1,-1 l 3,0 c 0.5,0 1,0.5 1,1 l 0,1 0,1 1,0 0,-1 0,-2 c 0,-0.5 -0.5,-1 -1,-1 z"/><path id="rect3783" fill="#999" fill-opacity="1" stroke="none" d="m 6.5,11.5 c 0.554,0 0.9216385,0.45157 1,1 l 1.000186,7 c 0.078362,0.54843 -0.446,1 -1,1 -0.554,0 -0.9216385,-0.45157 -1,-1 L 5.5,12.5 c -0.078361,-0.54843 0.446,-1 1,-1 z"/><rect id="rect3785" width="2" height="9" x="11" y="11.5" fill="#999" fill-opacity="1" stroke="none" rx="1" ry="1"/><path id="rect3787" fill="#999" fill-opacity="1" stroke="none" d="m 17.500186,11.5 c 0.554,0 1.078347,0.451568 1,1 l -1,7 c -0.07835,0.548431 -0.446,1 -1,1 -0.554,0 -1.078348,-0.451568 -1,-1 l 1,-7 c 0.07835,-0.548431 0.446,-1 1,-1 z"/><path id="rect3791" fill="#000" fill-opacity="1" stroke="none" d="m 2.5,9 0.078125,1 18.84375,0 L 21.5,9 2.5,9 z" opacity=".05"/><path id="rect3797" fill="#000" fill-opacity="1" stroke="none" d="m 12,11.5 c -0.554,0 -1,0.446 -1,1 l 0,0.5 c 0,-0.554 0.446,-1 1,-1 0.554,0 1,0.446 1,1 l 0,-0.5 c 0,-0.554 -0.446,-1 -1,-1 z" opacity=".15"/><path id="path3803" fill="#000" fill-opacity="1" stroke="none" d="m 6.5,11.5 c -0.554,0 -1.0783615,0.45157 -1,1 L 5.578125,13 c -0.078361,-0.54843 0.446,-1 1,-1 0.527545,0 0.8836705,0.409213 0.984375,0.921875 L 7.5,12.5 c -0.078361,-0.54843 -0.446,-1 -1,-1 z" opacity=".15"/><path id="path3813" fill="#000" fill-opacity="1" stroke="none" d="m 17.5,11.5 c -0.554,0 -0.921653,0.451569 -1,1 L 16.4375,13 c 0.07835,-0.548431 0.446,-1 1,-1 0.532692,0 1.031571,0.417831 1,0.9375 L 18.5,12.5 c 0.07835,-0.548432 -0.446,-1 -1,-1 z" opacity=".15"/></svg>