<svg xmlns="http://www.w3.org/2000/svg" xmlns:svg="http://www.w3.org/2000/svg" id="svg2" width="16" height="16" version="1.1"><metadata id="metadata7"/><g id="layer1" transform="translate(0,-1036.3622)"><g id="layer1-1"><rect id="rect3794-8" width="12" height="9" x="2" y="0" fill="#eae7d1" fill-opacity="1" stroke="none" transform="translate(0,1036.3622)"/><rect id="rect3863" width="8" height="1" x="4" y="1041.362" fill="#7a7a68" fill-opacity="1" stroke="none"/><path id="rect2987-8" fill="#5a9be7" fill-opacity="1" stroke="none" d="m 16,1042.3622 0,10 -16,0 0,-9 7,0 1,-2 7,0 c 0.5,0 1,0.5 1,1 z"/><path id="path3794-6" fill="#000" fill-opacity="1" stroke="none" d="m 0,1051.3622 0,1 16,0 0,-1 z" opacity=".15"/><path id="path3801-5" fill="none" stroke="none" d="m 11,1037.8622 -2.5,1.5 1.5,0 z"/><path id="path3784-2" fill="#000" fill-opacity="1" stroke="none" d="M 8,5 7,7 0,7 0,8 8,8 9,6 15,6 c 0.5,0 1,0.5 1,1 L 16,6 C 16,5.5 15.5,5 15,5 Z" opacity=".03" transform="translate(0,1036.3622)"/><rect id="rect3794-3" width="8" height="1" x="4" y="1037.362" fill="#7a7a68" fill-opacity="1" stroke="none"/><rect id="rect3861" width="8" height="1" x="4" y="1039.362" fill="#7a7a68" fill-opacity="1" stroke="none"/></g><path id="path10" fill="#4caf50" fill-opacity="1" fill-rule="evenodd" d="m 15.999139,1048.3621 a 3.9999795,3.9206464 0 1 1 -7.9983195,0 3.9999795,3.9206464 0 1 1 7.9983195,0 z"/><path style="line-height:normal" id="path12" fill="#fff" d="m 14.187225,1045.8471 a 0.40975,0.40578 0 0 0 -0.204875,0.1624 l -2.17987,2.11 -1.36037,-1.2985 a 0.40975,0.40578 0 1 0 -0.55726,0.487 l 1.639,1.6231 a 0.40975,0.40578 0 0 0 0.55726,0 l 2.4585,-2.4347 a 0.40975,0.40578 0 0 0 -0.352385,-0.6493 z" color="#000"/></g></svg>