<?xml version="1.0" encoding="UTF-8" standalone="no"?>
<svg
   xmlns:dc="http://purl.org/dc/elements/1.1/"
   xmlns:cc="http://creativecommons.org/ns#"
   xmlns:rdf="http://www.w3.org/1999/02/22-rdf-syntax-ns#"
   xmlns:svg="http://www.w3.org/2000/svg"
   xmlns="http://www.w3.org/2000/svg"
   xmlns:sodipodi="http://sodipodi.sourceforge.net/DTD/sodipodi-0.dtd"
   xmlns:inkscape="http://www.inkscape.org/namespaces/inkscape"
   viewBox="0 0 48 48"
   id="svg2"
   version="1.1"
   inkscape:version="0.48.5 r10040"
   width="100%"
   height="100%"
   sodipodi:docname="chrome-dlppkpafhbajpcmmoheippocdidnckmm-Default.svg">
  <metadata
     id="metadata65">
    <rdf:RDF>
      <cc:Work
         rdf:about="">
        <dc:format>image/svg+xml</dc:format>
        <dc:type
           rdf:resource="http://purl.org/dc/dcmitype/StillImage" />
        <dc:title></dc:title>
      </cc:Work>
    </rdf:RDF>
  </metadata>
  <sodipodi:namedview
     pagecolor="#ffffff"
     bordercolor="#666666"
     borderopacity="1"
     objecttolerance="10"
     gridtolerance="10"
     guidetolerance="10"
     inkscape:pageopacity="0"
     inkscape:pageshadow="2"
     inkscape:window-width="640"
     inkscape:window-height="480"
     id="namedview63"
     showgrid="false"
     inkscape:zoom="4.9166667"
     inkscape:cx="24"
     inkscape:cy="24"
     inkscape:window-x="0"
     inkscape:window-y="0"
     inkscape:window-maximized="0"
     inkscape:current-layer="svg2" />
  <defs
     id="defs4">
    <linearGradient
       id="linearGradient3764"
       x1="1"
       x2="47"
       gradientUnits="userSpaceOnUse"
       gradientTransform="matrix(0,-1,1,0,-1.5e-6,47.999998)">
      <stop
         stop-color="#d84430"
         stop-opacity="1"
         id="stop7" />
      <stop
         offset="1"
         stop-color="#db5441"
         stop-opacity="1"
         id="stop9" />
    </linearGradient>
    <clipPath
       id="clipPath-651806404">
      <g
         transform="translate(0,-1004.3622)"
         id="g12">
        <path
           d="m -24 13 c 0 1.105 -0.672 2 -1.5 2 -0.828 0 -1.5 -0.895 -1.5 -2 0 -1.105 0.672 -2 1.5 -2 0.828 0 1.5 0.895 1.5 2 z"
           transform="matrix(15.333333,0,0,11.5,414.99999,878.8622)"
           fill="#1890d0"
           id="path14" />
      </g>
    </clipPath>
    <clipPath
       id="clipPath-664114963">
      <g
         transform="translate(0,-1004.3622)"
         id="g17">
        <path
           d="m -24 13 c 0 1.105 -0.672 2 -1.5 2 -0.828 0 -1.5 -0.895 -1.5 -2 0 -1.105 0.672 -2 1.5 -2 0.828 0 1.5 0.895 1.5 2 z"
           transform="matrix(15.333333,0,0,11.5,414.99999,878.8622)"
           fill="#1890d0"
           id="path19" />
      </g>
    </clipPath>
  </defs>
  <g
     id="g21">
    <path
       d="m 36.31 5 c 5.859 4.062 9.688 10.831 9.688 18.5 c 0 12.426 -10.07 22.5 -22.5 22.5 c -7.669 0 -14.438 -3.828 -18.5 -9.688 c 1.037 1.822 2.306 3.499 3.781 4.969 c 4.085 3.712 9.514 5.969 15.469 5.969 c 12.703 0 23 -10.298 23 -23 c 0 -5.954 -2.256 -11.384 -5.969 -15.469 c -1.469 -1.475 -3.147 -2.744 -4.969 -3.781 z m 4.969 3.781 c 3.854 4.113 6.219 9.637 6.219 15.719 c 0 12.703 -10.297 23 -23 23 c -6.081 0 -11.606 -2.364 -15.719 -6.219 c 4.16 4.144 9.883 6.719 16.219 6.719 c 12.703 0 23 -10.298 23 -23 c 0 -6.335 -2.575 -12.06 -6.719 -16.219 z"
       opacity="0.05"
       id="path23" />
    <path
       d="m 41.28 8.781 c 3.712 4.085 5.969 9.514 5.969 15.469 c 0 12.703 -10.297 23 -23 23 c -5.954 0 -11.384 -2.256 -15.469 -5.969 c 4.113 3.854 9.637 6.219 15.719 6.219 c 12.703 0 23 -10.298 23 -23 c 0 -6.081 -2.364 -11.606 -6.219 -15.719 z"
       opacity="0.1"
       id="path25" />
    <path
       d="m 31.25 2.375 c 8.615 3.154 14.75 11.417 14.75 21.13 c 0 12.426 -10.07 22.5 -22.5 22.5 c -9.708 0 -17.971 -6.135 -21.12 -14.75 a 23 23 0 0 0 44.875 -7 a 23 23 0 0 0 -16 -21.875 z"
       opacity="0.2"
       id="path27" />
  </g>
  <g
     id="g29">
    <path
       d="m 24 1 c 12.703 0 23 10.297 23 23 c 0 12.703 -10.297 23 -23 23 -12.703 0 -23 -10.297 -23 -23 0 -12.703 10.297 -23 23 -23 z"
       fill="url(#linearGradient3764)"
       fill-opacity="1"
       id="path31" />
  </g>
  <g
     id="g33" />
  <g
     id="g59">
    <path
       d="m 40.03 7.531 c 3.712 4.084 5.969 9.514 5.969 15.469 0 12.703 -10.297 23 -23 23 c -5.954 0 -11.384 -2.256 -15.469 -5.969 4.178 4.291 10.01 6.969 16.469 6.969 c 12.703 0 23 -10.298 23 -23 0 -6.462 -2.677 -12.291 -6.969 -16.469 z"
       opacity="0.1"
       id="path61" />
  </g>
  <g
     transform="matrix(1.0645745,0,0,1.0485477,7.7066605,5.0661717)"
     id="surface0">
    <path
       inkscape:connector-curvature="0"
       style="fill:none;stroke:#0000ff;stroke-width:0.0714286;stroke-linecap:round;stroke-linejoin:miter;stroke-miterlimit:10;stroke-opacity:1"
       d="M 0.23284,0.449498 C 0.213309,0.459263 0.160296,0.486049 0.115374,0.522461"
       transform="matrix(28,0,0,28,2,2)"
       id="path5" />
    <path
       inkscape:connector-curvature="0"
       style="fill:none;stroke:#0005f8;stroke-width:0.0714286;stroke-linecap:round;stroke-linejoin:miter;stroke-miterlimit:10;stroke-opacity:1"
       d="M 0.115374,0.522461 C 0.070452,0.558733 0.0337612,0.604492 0.0115792,0.660156"
       transform="matrix(28,0,0,28,2,2)"
       id="path7" />
    <path
       inkscape:connector-curvature="0"
       style="fill:none;stroke:#000fee;stroke-width:0.0714286;stroke-linecap:round;stroke-linejoin:miter;stroke-miterlimit:10;stroke-opacity:1"
       d="M 0.0115792,0.660156 C -0.0106027,0.71582 -0.0182757,0.78139 0,0.837333"
       transform="matrix(28,0,0,28,2,2)"
       id="path9" />
    <path
       inkscape:connector-curvature="0"
       style="fill:none;stroke:#0019e3;stroke-width:0.0714286;stroke-linecap:round;stroke-linejoin:miter;stroke-miterlimit:10;stroke-opacity:1"
       d="m 0,0.837333 c 0.0182757,0.055943 0.0623605,0.10226 0.117188,0.126255"
       transform="matrix(28,0,0,28,2,2)"
       id="path11" />
    <path
       inkscape:connector-curvature="0"
       style="fill:none;stroke:#0021dc;stroke-width:0.0714286;stroke-linecap:round;stroke-linejoin:miter;stroke-miterlimit:10;stroke-opacity:1"
       d="m 0.117188,0.963588 c 0.054966,0.023996 0.120535,0.02567 0.17871,0.012974"
       transform="matrix(28,0,0,28,2,2)"
       id="path13" />
    <path
       inkscape:connector-curvature="0"
       style="fill:none;stroke:#002bd1;stroke-width:0.0714286;stroke-linecap:round;stroke-linejoin:miter;stroke-miterlimit:10;stroke-opacity:1"
       d="M 0.295898,0.976562 C 0.354074,0.963867 0.404855,0.936942 0.444615,0.908622"
       transform="matrix(28,0,0,28,2,2)"
       id="path15" />
    <path
       inkscape:connector-curvature="0"
       style="fill:none;stroke:#0035c7;stroke-width:0.0714286;stroke-linecap:round;stroke-linejoin:miter;stroke-miterlimit:10;stroke-opacity:1"
       d="M 0.444615,0.908622 C 0.484515,0.880301 0.513393,0.850725 0.536133,0.824358"
       transform="matrix(28,0,0,28,2,2)"
       id="path17" />
    <path
       inkscape:connector-curvature="0"
       style="fill:none;stroke:#003ac2;stroke-width:0.0714286;stroke-linecap:round;stroke-linejoin:miter;stroke-miterlimit:10;stroke-opacity:1"
       d="M 0.536133,0.824358 C 0.558733,0.798131 0.575195,0.775112 0.588867,0.754325"
       transform="matrix(28,0,0,28,2,2)"
       id="path19-4" />
    <path
       inkscape:connector-curvature="0"
       style="fill:none;stroke:#003fbd;stroke-width:0.0714286;stroke-linecap:round;stroke-linejoin:miter;stroke-miterlimit:10;stroke-opacity:1"
       d="M 0.588867,0.754325 C 0.602679,0.733677 0.613839,0.715402 0.623744,0.697963"
       transform="matrix(28,0,0,28,2,2)"
       id="path21" />
    <path
       inkscape:connector-curvature="0"
       style="fill:none;stroke:#0042ba;stroke-width:0.0714286;stroke-linecap:round;stroke-linejoin:miter;stroke-miterlimit:10;stroke-opacity:1"
       d="M 0.623744,0.697963 C 0.63365,0.680525 0.642299,0.663783 0.650391,0.646903"
       transform="matrix(28,0,0,28,2,2)"
       id="path23-3" />
    <path
       inkscape:connector-curvature="0"
       style="fill:none;stroke:#0047b5;stroke-width:0.0714286;stroke-linecap:round;stroke-linejoin:miter;stroke-miterlimit:10;stroke-opacity:1"
       d="M 0.650391,0.646903 C 0.658343,0.629883 0.665737,0.612584 0.672991,0.59389"
       transform="matrix(28,0,0,28,2,2)"
       id="path25-3" />
    <path
       inkscape:connector-curvature="0"
       style="fill:none;stroke:#004ab3;stroke-width:0.0714286;stroke-linecap:round;stroke-linejoin:miter;stroke-miterlimit:10;stroke-opacity:1"
       d="M 0.672991,0.59389 C 0.680106,0.575056 0.687221,0.554967 0.694475,0.53111"
       transform="matrix(28,0,0,28,2,2)"
       id="path27-5" />
    <path
       inkscape:connector-curvature="0"
       style="fill:none;stroke:#004cb0;stroke-width:0.0714286;stroke-linecap:round;stroke-linejoin:miter;stroke-miterlimit:10;stroke-opacity:1"
       d="M 0.694475,0.53111 C 0.70159,0.507394 0.709124,0.48005 0.714983,0.445871"
       transform="matrix(28,0,0,28,2,2)"
       id="path29" />
    <path
       inkscape:connector-curvature="0"
       style="fill:none;stroke:#0051ab;stroke-width:0.0714286;stroke-linecap:round;stroke-linejoin:miter;stroke-miterlimit:10;stroke-opacity:1"
       d="M 0.714983,0.445871 C 0.720982,0.411691 0.725446,0.370536 0.722098,0.321847"
       transform="matrix(28,0,0,28,2,2)"
       id="path31-9" />
    <path
       inkscape:connector-curvature="0"
       style="fill:none;stroke:#0059a3;stroke-width:0.0714286;stroke-linecap:round;stroke-linejoin:miter;stroke-miterlimit:10;stroke-opacity:1"
       d="M 0.722098,0.321847 C 0.71861,0.273158 0.70731,0.216797 0.680106,0.163783"
       transform="matrix(28,0,0,28,2,2)"
       id="path33" />
    <path
       inkscape:connector-curvature="0"
       style="fill:none;stroke:#00619c;stroke-width:0.0714286;stroke-linecap:round;stroke-linejoin:miter;stroke-miterlimit:10;stroke-opacity:1"
       d="M 0.680106,0.163783 C 0.653041,0.110631 0.610073,0.0609654 0.55678,0.0339007"
       transform="matrix(28,0,0,28,2,2)"
       id="path35" />
    <path
       inkscape:connector-curvature="0"
       style="fill:none;stroke:#006b91;stroke-width:0.0714286;stroke-linecap:round;stroke-linejoin:miter;stroke-miterlimit:10;stroke-opacity:1"
       d="M 0.55678,0.0339007 C 0.503348,0.00669643 0.439732,0.00237165 0.384766,0.0234375"
       transform="matrix(28,0,0,28,2,2)"
       id="path37" />
    <path
       inkscape:connector-curvature="0"
       style="fill:none;stroke:#00738a;stroke-width:0.0714286;stroke-linecap:round;stroke-linejoin:miter;stroke-miterlimit:10;stroke-opacity:1"
       d="M 0.384766,0.0234375 C 0.329799,0.0445033 0.283761,0.0910993 0.255162,0.14481"
       transform="matrix(28,0,0,28,2,2)"
       id="path39" />
    <path
       inkscape:connector-curvature="0"
       style="fill:none;stroke:#007d7f;stroke-width:0.0714286;stroke-linecap:round;stroke-linejoin:miter;stroke-miterlimit:10;stroke-opacity:1"
       d="M 0.255162,0.14481 C 0.226562,0.198382 0.215681,0.259068 0.214565,0.31236"
       transform="matrix(28,0,0,28,2,2)"
       id="path41" />
    <path
       inkscape:connector-curvature="0"
       style="fill:none;stroke:#008775;stroke-width:0.0714286;stroke-linecap:round;stroke-linejoin:miter;stroke-miterlimit:10;stroke-opacity:1"
       d="M 0.214565,0.31236 C 0.213449,0.365792 0.222377,0.411691 0.23284,0.449498"
       transform="matrix(28,0,0,28,2,2)"
       id="path43" />
    <path
       inkscape:connector-curvature="0"
       style="fill:none;stroke:#008f6e;stroke-width:0.0714286;stroke-linecap:round;stroke-linejoin:miter;stroke-miterlimit:10;stroke-opacity:1"
       d="M 0.23284,0.449498 C 0.243304,0.487305 0.255441,0.516741 0.266881,0.541853"
       transform="matrix(28,0,0,28,2,2)"
       id="path45" />
    <path
       inkscape:connector-curvature="0"
       style="fill:none;stroke:#009468;stroke-width:0.0714286;stroke-linecap:round;stroke-linejoin:miter;stroke-miterlimit:10;stroke-opacity:1"
       d="M 0.266881,0.541853 C 0.27832,0.566825 0.288923,0.587333 0.299247,0.605748"
       transform="matrix(28,0,0,28,2,2)"
       id="path47" />
    <path
       inkscape:connector-curvature="0"
       style="fill:none;stroke:#009766;stroke-width:0.0714286;stroke-linecap:round;stroke-linejoin:miter;stroke-miterlimit:10;stroke-opacity:1"
       d="M 0.299247,0.605748 C 0.30957,0.624302 0.319615,0.640904 0.329939,0.656669"
       transform="matrix(28,0,0,28,2,2)"
       id="path49" />
    <path
       inkscape:connector-curvature="0"
       style="fill:none;stroke:#009c61;stroke-width:0.0714286;stroke-linecap:round;stroke-linejoin:miter;stroke-miterlimit:10;stroke-opacity:1"
       d="M 0.329939,0.656669 C 0.340262,0.672573 0.351004,0.68764 0.362863,0.702985"
       transform="matrix(28,0,0,28,2,2)"
       id="path51" />
    <path
       inkscape:connector-curvature="0"
       style="fill:none;stroke:#009e5e;stroke-width:0.0714286;stroke-linecap:round;stroke-linejoin:miter;stroke-miterlimit:10;stroke-opacity:1"
       d="m 0.362863,0.702985 c 0.011858,0.015346 0.024693,0.030832 0.03976,0.047852"
       transform="matrix(28,0,0,28,2,2)"
       id="path53" />
    <path
       inkscape:connector-curvature="0"
       style="fill:none;stroke:#00a15c;stroke-width:0.0714286;stroke-linecap:round;stroke-linejoin:miter;stroke-miterlimit:10;stroke-opacity:1"
       d="M 0.402623,0.750837 C 0.41769,0.767857 0.435128,0.786412 0.457589,0.807338"
       transform="matrix(28,0,0,28,2,2)"
       id="path55" />
    <path
       inkscape:connector-curvature="0"
       style="fill:none;stroke:#00a657;stroke-width:0.0714286;stroke-linecap:round;stroke-linejoin:miter;stroke-miterlimit:10;stroke-opacity:1"
       d="M 0.457589,0.807338 C 0.48019,0.828265 0.508092,0.851562 0.545619,0.874581"
       transform="matrix(28,0,0,28,2,2)"
       id="path57" />
    <path
       inkscape:connector-curvature="0"
       style="fill:none;stroke:#00ab51;stroke-width:0.0714286;stroke-linecap:round;stroke-linejoin:miter;stroke-miterlimit:10;stroke-opacity:1"
       d="M 0.545619,0.874581 C 0.583008,0.8976 0.630301,0.920201 0.686105,0.93192"
       transform="matrix(28,0,0,28,2,2)"
       id="path59" />
    <path
       inkscape:connector-curvature="0"
       style="fill:none;stroke:#00b34a;stroke-width:0.0714286;stroke-linecap:round;stroke-linejoin:miter;stroke-miterlimit:10;stroke-opacity:1"
       d="M 0.686105,0.93192 C 0.741908,0.943638 0.806362,0.944336 0.8637,0.924107"
       transform="matrix(28,0,0,28,2,2)"
       id="path61-4" />
    <path
       inkscape:connector-curvature="0"
       style="fill:none;stroke:#00bd3f;stroke-width:0.0714286;stroke-linecap:round;stroke-linejoin:miter;stroke-miterlimit:10;stroke-opacity:1"
       d="M 0.8637,0.924107 C 0.920898,0.904018 0.970982,0.863002 0.995954,0.810268"
       transform="matrix(28,0,0,28,2,2)"
       id="path63" />
    <path
       inkscape:connector-curvature="0"
       style="fill:none;stroke:#00c735;stroke-width:0.0714286;stroke-linecap:round;stroke-linejoin:miter;stroke-miterlimit:10;stroke-opacity:1"
       d="M 0.995954,0.810268 C 1.020926,0.757394 1.020787,0.692801 1,0.635742"
       transform="matrix(28,0,0,28,2,2)"
       id="path65" />
    <path
       inkscape:connector-curvature="0"
       style="fill:none;stroke:#00cf2e;stroke-width:0.0714286;stroke-linecap:round;stroke-linejoin:miter;stroke-miterlimit:10;stroke-opacity:1"
       d="M 1,0.635742 C 0.979213,0.578683 0.937779,0.529297 0.893276,0.493583"
       transform="matrix(28,0,0,28,2,2)"
       id="path67" />
    <path
       inkscape:connector-curvature="0"
       style="fill:none;stroke:#00d923;stroke-width:0.0714286;stroke-linecap:round;stroke-linejoin:miter;stroke-miterlimit:10;stroke-opacity:1"
       d="M 0.893276,0.493583 C 0.848912,0.457868 0.801479,0.435686 0.759905,0.421317"
       transform="matrix(28,0,0,28,2,2)"
       id="path69" />
    <path
       inkscape:connector-curvature="0"
       style="fill:none;stroke:#00e11c;stroke-width:0.0714286;stroke-linecap:round;stroke-linejoin:miter;stroke-miterlimit:10;stroke-opacity:1"
       d="M 0.759905,0.421317 C 0.718192,0.406948 0.682478,0.400251 0.652065,0.396205"
       transform="matrix(28,0,0,28,2,2)"
       id="path71" />
    <path
       inkscape:connector-curvature="0"
       style="fill:none;stroke:#00e814;stroke-width:0.0714286;stroke-linecap:round;stroke-linejoin:miter;stroke-miterlimit:10;stroke-opacity:1"
       d="M 0.652065,0.396205 C 0.621512,0.39202 0.596261,0.390346 0.573521,0.389509"
       transform="matrix(28,0,0,28,2,2)"
       id="path73" />
    <path
       inkscape:connector-curvature="0"
       style="fill:none;stroke:#00eb11;stroke-width:0.0714286;stroke-linecap:round;stroke-linejoin:miter;stroke-miterlimit:10;stroke-opacity:1"
       d="M 0.573521,0.389509 C 0.550642,0.388532 0.530413,0.388532 0.5113,0.38909"
       transform="matrix(28,0,0,28,2,2)"
       id="path75" />
    <path
       inkscape:connector-curvature="0"
       style="fill:none;stroke:#00ee0f;stroke-width:0.0714286;stroke-linecap:round;stroke-linejoin:miter;stroke-miterlimit:10;stroke-opacity:1"
       d="M 0.5113,0.38909 C 0.492048,0.389648 0.473772,0.390765 0.45452,0.392997"
       transform="matrix(28,0,0,28,2,2)"
       id="path77" />
    <path
       inkscape:connector-curvature="0"
       style="fill:none;stroke:#00f30a;stroke-width:0.0714286;stroke-linecap:round;stroke-linejoin:miter;stroke-miterlimit:10;stroke-opacity:1"
       d="M 0.45452,0.392997 C 0.435407,0.395229 0.415318,0.398577 0.395787,0.401646"
       transform="matrix(28,0,0,28,2,2)"
       id="path79" />
    <path
       inkscape:connector-curvature="0"
       style="fill:none;stroke:#00f507;stroke-width:0.0714286;stroke-linecap:round;stroke-linejoin:miter;stroke-miterlimit:10;stroke-opacity:1"
       d="M 0.395787,0.401646 C 0.376395,0.404715 0.357561,0.407506 0.325753,0.417271"
       transform="matrix(28,0,0,28,2,2)"
       id="path81" />
    <path
       inkscape:connector-curvature="0"
       style="fill:none;stroke:#00f805;stroke-width:0.0714286;stroke-linecap:round;stroke-linejoin:miter;stroke-miterlimit:10;stroke-opacity:1"
       d="M 0.325753,0.417271 C 0.293945,0.426897 0.249163,0.443499 0.23284,0.449498"
       transform="matrix(28,0,0,28,2,2)"
       id="path83" />
  </g>
</svg>
