<?xml version="1.0" encoding="UTF-8" standalone="no"?>
<svg
   xmlns:dc="http://purl.org/dc/elements/1.1/"
   xmlns:cc="http://creativecommons.org/ns#"
   xmlns:rdf="http://www.w3.org/1999/02/22-rdf-syntax-ns#"
   xmlns:svg="http://www.w3.org/2000/svg"
   xmlns="http://www.w3.org/2000/svg"
   xmlns:sodipodi="http://sodipodi.sourceforge.net/DTD/sodipodi-0.dtd"
   xmlns:inkscape="http://www.inkscape.org/namespaces/inkscape"
   viewBox="0 0 48 48"
   id="svg2"
   version="1.1"
   inkscape:version="0.48.5 r10040"
   width="100%"
   height="100%"
   sodipodi:docname="android.svg">
  <metadata
     id="metadata81">
    <rdf:RDF>
      <cc:Work
         rdf:about="">
        <dc:format>image/svg+xml</dc:format>
        <dc:type
           rdf:resource="http://purl.org/dc/dcmitype/StillImage" />
        <dc:title></dc:title>
      </cc:Work>
    </rdf:RDF>
  </metadata>
  <sodipodi:namedview
     pagecolor="#ffffff"
     bordercolor="#666666"
     borderopacity="1"
     objecttolerance="10"
     gridtolerance="10"
     guidetolerance="10"
     inkscape:pageopacity="0"
     inkscape:pageshadow="2"
     inkscape:window-width="1459"
     inkscape:window-height="997"
     id="namedview79"
     showgrid="false"
     inkscape:zoom="6.9532166"
     inkscape:cx="42.967085"
     inkscape:cy="-2.1566213"
     inkscape:window-x="392"
     inkscape:window-y="108"
     inkscape:window-maximized="0"
     inkscape:current-layer="svg2" />
  <defs
     id="defs4">
    <linearGradient
       id="linearGradient3764"
       x1="1"
       x2="47"
       gradientUnits="userSpaceOnUse"
       gradientTransform="matrix(0,-1,1,0,-1.5e-6,47.999998)">
      <stop
         stop-color="#333"
         stop-opacity="1"
         id="stop7" />
      <stop
         offset="1"
         stop-color="#3d3d3d"
         stop-opacity="1"
         id="stop9" />
    </linearGradient>
    <clipPath
       id="clipPath-478329641">
      <g
         transform="translate(0,-1004.3622)"
         id="g12">
        <path
           d="m -24 13 c 0 1.105 -0.672 2 -1.5 2 -0.828 0 -1.5 -0.895 -1.5 -2 0 -1.105 0.672 -2 1.5 -2 0.828 0 1.5 0.895 1.5 2 z"
           transform="matrix(15.333333,0,0,11.5,414.99999,878.8622)"
           fill="#1890d0"
           id="path14" />
      </g>
    </clipPath>
    <clipPath
       id="clipPath-483879499">
      <g
         transform="translate(0,-1004.3622)"
         id="g17">
        <path
           d="m -24 13 c 0 1.105 -0.672 2 -1.5 2 -0.828 0 -1.5 -0.895 -1.5 -2 0 -1.105 0.672 -2 1.5 -2 0.828 0 1.5 0.895 1.5 2 z"
           transform="matrix(15.333333,0,0,11.5,414.99999,878.8622)"
           fill="#1890d0"
           id="path19" />
      </g>
    </clipPath>
  </defs>
  <g
     id="g21">
    <path
       d="m 36.31 5 c 5.859 4.062 9.688 10.831 9.688 18.5 c 0 12.426 -10.07 22.5 -22.5 22.5 c -7.669 0 -14.438 -3.828 -18.5 -9.688 c 1.037 1.822 2.306 3.499 3.781 4.969 c 4.085 3.712 9.514 5.969 15.469 5.969 c 12.703 0 23 -10.298 23 -23 c 0 -5.954 -2.256 -11.384 -5.969 -15.469 c -1.469 -1.475 -3.147 -2.744 -4.969 -3.781 z m 4.969 3.781 c 3.854 4.113 6.219 9.637 6.219 15.719 c 0 12.703 -10.297 23 -23 23 c -6.081 0 -11.606 -2.364 -15.719 -6.219 c 4.16 4.144 9.883 6.719 16.219 6.719 c 12.703 0 23 -10.298 23 -23 c 0 -6.335 -2.575 -12.06 -6.719 -16.219 z"
       opacity="0.05"
       id="path23" />
    <path
       d="m 41.28 8.781 c 3.712 4.085 5.969 9.514 5.969 15.469 c 0 12.703 -10.297 23 -23 23 c -5.954 0 -11.384 -2.256 -15.469 -5.969 c 4.113 3.854 9.637 6.219 15.719 6.219 c 12.703 0 23 -10.298 23 -23 c 0 -6.081 -2.364 -11.606 -6.219 -15.719 z"
       opacity="0.1"
       id="path25" />
    <path
       d="m 31.25 2.375 c 8.615 3.154 14.75 11.417 14.75 21.13 c 0 12.426 -10.07 22.5 -22.5 22.5 c -9.708 0 -17.971 -6.135 -21.12 -14.75 a 23 23 0 0 0 44.875 -7 a 23 23 0 0 0 -16 -21.875 z"
       opacity="0.2"
       id="path27" />
  </g>
  <g
     id="g29">
    <path
       d="m 24 1 c 12.703 0 23 10.297 23 23 c 0 12.703 -10.297 23 -23 23 -12.703 0 -23 -10.297 -23 -23 0 -12.703 10.297 -23 23 -23 z"
       fill="url(#linearGradient3764)"
       fill-opacity="1"
       id="path31" />
  </g>
  <g
     id="g33" />
  <g
     id="g75">
    <path
       d="m 40.03 7.531 c 3.712 4.084 5.969 9.514 5.969 15.469 0 12.703 -10.297 23 -23 23 c -5.954 0 -11.384 -2.256 -15.469 -5.969 4.178 4.291 10.01 6.969 16.469 6.969 c 12.703 0 23 -10.298 23 -23 0 -6.462 -2.677 -12.291 -6.969 -16.469 z"
       opacity="0.1"
       id="path77" />
  </g>
  <g
     transform="matrix(0.51673385,0,0,0.58655872,17.180548,8.6105647)"
     id="g3016">
    <path
       inkscape:connector-curvature="0"
       id="path4-0"
       d="M 8,1 C 6.9714285,1 6,1.9714285 6,3 l 0,42 c 0,0.971429 1.0285714,2 2,2 l 32,0 c 0.971429,0 2,-1.028571 2,-2 L 42,14 29,1 z"
       style="fill:#dcdcdc" />
    <path
       inkscape:connector-curvature="0"
       id="path6-2"
       d="M 29,12 29.0625,12.0625 29.21875,12 29,12 z m 2,2 11,11 0,-11 -11,0 z"
       style="fill-opacity:0.19599998" />
    <path
       inkscape:connector-curvature="0"
       id="path8"
       d="m 29,1 13,13 -11,0 c -0.971429,0 -2,-1.028571 -2,-2 L 29,1 z"
       style="fill:#ffffff;fill-opacity:0.39200003" />
  </g>
  <path
     style="fill:#c83737"
     d="m 24.624616,23.194526 c 2.030043,-0.667188 1.909942,-0.559211 4.001819,-1.224407 1.292973,-0.411159 4.504225,-1.659948 4.699481,-1.827613 0.0717,-0.06157 0.104072,-0.136674 0.07202,-0.166582 -0.163571,-0.152775 -4.125481,0.501114 -8.754058,1.444789 -1.667373,0.339945 -3.221516,0.653908 -3.454285,0.698368 -0.517998,0.09894 -1.369589,-0.09414 -3.066669,-0.696763 -1.73511,-0.616146 -2.137037,-0.381747 -2.599821,-0.926878 -0.394225,-0.464375 -0.421891,-0.480514 -0.847277,-0.482129 -0.527772,-0.002 -1.402421,-0.202766 -1.907234,-0.438884 -0.585375,-0.273799 -0.84402,-0.55689 -1.058241,-1.159675 -0.354312,-0.997002 -0.820689,-1.449508 -1.7202833,-1.667434 -0.59799,-0.144865 -1.447444,0.01375 -2.348025,0.437281 -0.453406,0.213239 -0.620731,0.619766 -0.772068,0.815782 -0.241912,0.313338 -0.306755,0.735964 -0.306751,0.85966 0,0.738737 0.680253,1.740761 1.46473,2.159174 0.888748,0.474035 1.599251,0.421639 3.0477993,-0.227448 0.614544,-0.275376 0.767935,-0.309437 1.370396,-0.304335 0.782433,0.0066 1.276691,0.166057 2.397761,0.775254 0.849776,0.46177 2.367914,1.311505 2.599834,1.791815 l 0.156061,0.323557 -0.418491,0.643906 c -0.49205,0.756904 -0.96978,0.87871 -3.177678,2.253044 -1.997822,1.24357 -2.019465,1.250371 -3.378821,1.025131 -0.585733,-0.09704 -1.1727313,-0.176196 -1.3035063,-0.176196 -0.145885,0 -0.289594,-0.07284 -0.372183,-0.189007 -0.116331,-0.163626 -0.170635,-0.177764 -0.396199,-0.104106 -0.181516,0.05928 -0.267658,0.149974 -0.286426,0.29953 -0.01577,0.126355 -0.129073,0.27089 -0.272708,0.350788 -0.429076,0.238656 -0.820343,0.657802 -1.073673,1.150057 -0.202075,0.392656 -0.247415,0.606542 -0.258988,1.191713 -0.009,0.456437 0.03331,0.826103 0.11835,1.028328 0.332618,0.790784 1.450302,1.517634 2.401195,1.560118 0.307736,0.0135 0.6611,-0.0164 0.785535,-0.06567 0.1244133,-0.04953 0.3699043,-0.148543 0.5436903,-0.219451 0.173813,-0.07091 0.519103,-0.326816 0.768383,-0.570223 0.485553,-0.474123 0.746546,-1.00361 0.989636,-2.0022 0.186652,-0.7668 0.331016,-1.063305 0.694633,-1.42717 0.482844,-0.483189 1.801938,-1.252307 3.471436,-2.024624 0.844756,-0.390796 1.6917,-0.579986 1.748972,-0.628866 0.0573,-0.04888 0.624898,-0.253574 1.26234,-0.453295 1.139276,-0.356959 1.158151,-0.350669 1.682851,-0.513725 0.620723,-0.192897 3.316454,-1.252448 3.496463,-1.311609 z M 9.4549457,17.434473 c 0.0338,-9.72e-4 0.06735,-7.8e-4 0.101197,0 0.124856,0.003 0.248992,0.01885 0.372183,0.04645 0.2836913,0.06355 0.5872323,0.206975 0.7735313,0.366804 1.067378,0.915732 0.01084,2.780877 -1.6036583,2.831914 -0.124419,0.0039 -0.388613,-0.03355 -0.586577,-0.08489 -0.200396,-0.05196 -0.511429,-0.235751 -0.701496,-0.413255 -0.31966,-0.298527 -0.341313,-0.350762 -0.341313,-0.829712 0,-0.656352 0.08957,-0.8637 0.564279,-1.307037 0.409819,-0.382725 0.914566,-0.595918 1.421854,-0.610273 z m 12.1291423,4.980925 c 0.80115,0.299275 1.68926,0.413952 2.48695,0.696763 l -0.02041,0.04806 c -0.789722,-0.279959 -1.675744,-0.394338 -2.485343,-0.696773 z m -1.38412,0.608667 c 0.01134,0.263622 0.299619,0.475727 0.655184,0.475727 0.304012,0 0.558112,-0.155665 0.632887,-0.365206 2.81e-4,0.0055 0.0019,0.01183 0.0019,0.01761 0,0.27096 -0.294226,0.490141 -0.656897,0.490141 -0.362671,0 -0.656897,-0.219192 -0.656897,-0.490141 0,-0.04444 0.0096,-0.08717 0.02399,-0.128137 z m -2.227961,0.608672 c 0.787905,0.328508 1.669213,0.474533 2.454359,0.786463 l -0.02222,0.04806 c -0.777202,-0.30878 -1.659858,-0.454506 -2.456077,-0.786474 z m -8.4568743,4.152736 c 0.6159863,-8.32e-4 0.9535043,0.116651 1.3360913,0.461305 0.971576,0.875229 0.445919,2.590588 -0.9741983,3.176294 -0.569053,0.234703 -1.231372,0.228816 -1.727143,-0.01616 -0.588199,-0.290516 -0.930412,-0.928847 -0.873006,-1.625818 0.05089,-0.617927 0.230932,-0.965044 0.728936,-1.40314 0.490837,-0.431801 0.897759,-0.59187 1.50932,-0.59265 z"
     inkscape:connector-curvature="0"
     sodipodi:nodetypes="sscsssssssssssssssscccssssscsscssscssssssssccsscsssscccccccscsssccccccccssssccc"
     id="path18" />
</svg>
