<?xml version="1.0" encoding="UTF-8" standalone="no"?>
<svg
   xmlns:dc="http://purl.org/dc/elements/1.1/"
   xmlns:cc="http://creativecommons.org/ns#"
   xmlns:rdf="http://www.w3.org/1999/02/22-rdf-syntax-ns#"
   xmlns:svg="http://www.w3.org/2000/svg"
   xmlns="http://www.w3.org/2000/svg"
   xmlns:xlink="http://www.w3.org/1999/xlink"
   xmlns:sodipodi="http://sodipodi.sourceforge.net/DTD/sodipodi-0.dtd"
   xmlns:inkscape="http://www.inkscape.org/namespaces/inkscape"
   viewBox="0 0 48 48"
   id="svg2"
   version="1.1"
   inkscape:version="0.48.5 r10040"
   width="100%"
   height="100%"
   sodipodi:docname="roccat.svg">
  <metadata
     id="metadata65">
    <rdf:RDF>
      <cc:Work
         rdf:about="">
        <dc:format>image/svg+xml</dc:format>
        <dc:type
           rdf:resource="http://purl.org/dc/dcmitype/StillImage" />
        <dc:title></dc:title>
      </cc:Work>
    </rdf:RDF>
  </metadata>
  <sodipodi:namedview
     pagecolor="#ffffff"
     bordercolor="#666666"
     borderopacity="1"
     objecttolerance="10"
     gridtolerance="10"
     guidetolerance="10"
     inkscape:pageopacity="0"
     inkscape:pageshadow="2"
     inkscape:window-width="1031"
     inkscape:window-height="852"
     id="namedview63"
     showgrid="false"
     inkscape:zoom="4.9166667"
     inkscape:cx="46.109431"
     inkscape:cy="30.287248"
     inkscape:window-x="2059"
     inkscape:window-y="102"
     inkscape:window-maximized="0"
     inkscape:current-layer="svg2" />
  <defs
     id="defs4">
    <linearGradient
       id="linearGradient3764"
       x1="1"
       x2="47"
       gradientUnits="userSpaceOnUse"
       gradientTransform="matrix(0,-1,1,0,-1.5e-6,47.999998)">
      <stop
         stop-color="#4e5b62"
         stop-opacity="1"
         id="stop7"
         offset="0"
         style="stop-color:#333c40;stop-opacity:1;" />
      <stop
         offset="1"
         stop-color="#56656d"
         stop-opacity="1"
         id="stop9"
         style="stop-color:#374045;stop-opacity:1;" />
    </linearGradient>
    <clipPath
       id="clipPath-398667047">
      <g
         transform="translate(0,-1004.3622)"
         id="g12">
        <path
           d="m -24 13 c 0 1.105 -0.672 2 -1.5 2 -0.828 0 -1.5 -0.895 -1.5 -2 0 -1.105 0.672 -2 1.5 -2 0.828 0 1.5 0.895 1.5 2 z"
           transform="matrix(15.333333,0,0,11.5,414.99999,878.8622)"
           fill="#1890d0"
           id="path14" />
      </g>
    </clipPath>
    <clipPath
       id="clipPath-406389672">
      <g
         transform="translate(0,-1004.3622)"
         id="g17">
        <path
           d="m -24 13 c 0 1.105 -0.672 2 -1.5 2 -0.828 0 -1.5 -0.895 -1.5 -2 0 -1.105 0.672 -2 1.5 -2 0.828 0 1.5 0.895 1.5 2 z"
           transform="matrix(15.333333,0,0,11.5,414.99999,878.8622)"
           fill="#1890d0"
           id="path19" />
      </g>
    </clipPath>
    <clipPath
       clipPathUnits="userSpaceOnUse"
       id="clipPath20">
      <path
         inkscape:connector-curvature="0"
         d="m 145.785,620.094 c -13.39,-2.828 -26.805,-5.465 -40.258,-7.891 4.629,9.598 10.664,18.969 19.692,24.965 12.941,8.383 27.761,14.187 43.203,15.477 -7.477,-10.887 -15.141,-21.665 -22.637,-32.551 z m 643.055,-55.93 c 44.39,-2.601 88.484,-9.051 131.98,-18.156 -5.593,71.43 -28.3,141.117 -63.718,203.265 -6.094,10.817 -13.481,20.832 -19.836,31.512 -51.543,76.86 -125.379,138.102 -209.493,176.426 -51.242,22.883 -106.296,37.051 -162.207,41.797 -18.671,1.442 -37.375,0.93 -56.062,0.777 -31.738,0.895 -63.137,-4.668 -94.274,-10.015 10.243,-2.997 21.079,-1.657 31.528,-3.379 42.121,-4.496 83.894,-13.223 123.601,-28.133 54.954,-19.922 105.532,-51.192 148.618,-90.629 l 0,-0.402 c 6.074,-5.082 11.785,-10.606 17.109,-16.469 33.277,-35.176 62.039,-75.266 81.148,-119.922 -40.015,18.383 -82.136,31.703 -124.863,42.137 -18.98,4.742 -38.223,8.382 -57.516,11.554 -4.523,-27.226 -14.574,-54.015 -32.101,-75.605 14.226,32.117 16.902,68.391 12.559,102.965 -1.895,10.965 -3.875,23.101 -11.817,31.472 -5.066,1.86 -10.664,0.039 -15.676,-1.214 -20.496,-6.129 -40.789,-13.036 -61.597,-18.024 -22.856,-3.512 -45.715,-7.074 -68.02,-13.203 -44.57,-10.969 -87.691,-28.102 -127.113,-51.645 -9.852,-5.636 -19.035,-12.296 -28.977,-17.781 1.5,11.578 8.731,21.16 13.532,31.481 -27.075,-9.45 -48.821,-29.598 -67.426,-50.789 -5.676,-5.579 -9.852,-12.883 -16.965,-16.848 -0.723,12.258 4.551,23.602 7.344,35.289 -0.895,-0.797 -2.715,-2.371 -3.625,-3.148 C 109.742,709.605 93.7109,674.961 81.0938,639.898 77.582,630.488 76.1953,620.336 71.5664,611.348 66.2148,600.797 58.3438,591.637 49.293,584.102 37.2461,572.758 26.4297,560.16 16.168,547.203 8.23828,536.598 -0.699219,524.813 0.0429688,510.852 2.62109,508.191 5.16797,504.629 9.35547,504.973 c 14.91403,-0.192 29.84373,-0.289 44.75393,0.203 1.0078,-8.102 -8.1172,-11.344 -14.6406,-9.996 -9.5665,1.269 -21.4219,2.617 -28.3477,-5.692 -5.80469,-9.113 -2.67188,-20.285 -1.47657,-30.246 3.41017,-16.445 7.94927,-33.066 16.90237,-47.449 7.0976,-10.168 20.1484,-11.574 31.4375,-12.98 8.3828,-25.528 28.7969,-46.629 54.2426,-55.43 -5.161,13.301 -10.211,27.148 -9.567,41.66 -0.887,17.004 8.805,33.926 23.985,41.66 7.832,-22.683 27.32,-41.582 51.168,-46.269 -10,14.347 -15.333,31.211 -21.344,47.472 -2.504,8.379 -5.938,16.668 -6.621,25.477 0.355,11.133 7.015,21.047 15.156,28.156 11.766,9.902 25.215,17.793 39.465,23.524 22.859,7.589 47.844,-3.7 63.082,-21.004 13.094,-12.141 26.449,-24.375 36.047,-39.59 3.586,-5.813 6.3,-12.434 6.531,-19.317 -0.934,-10.929 -8.109,-20.129 -16.09,-27.109 -14.559,-12.461 -31.781,-21.328 -49.387,-28.652 -3.777,-1.379 -8.007,-4.328 -11.933,-1.731 -19.504,9.758 -32.731,27.805 -45.703,44.649 -0.821,-20.321 6.281,-39.746 12.804,-58.641 -28.496,2.051 -52.343,19.766 -74.754,35.859 3.231,-38.898 14.211,-77.863 36.278,-110.402 7.644,-10.281 17.777,-22.031 31.875,-21.211 22.953,-1.844 43.273,11.457 60.441,25.078 8.613,7.531 18.235,13.703 28.235,19.199 23.125,12.5 47.128,23.528 72.109,31.817 l -0.02,0.344 c 20.457,6.543 42.121,9.675 63.543,7.586 8.274,-2.938 15.032,-8.954 20.715,-15.458 12.254,-12.753 23.723,-26.484 32.403,-41.953 8.488,-14.679 15.246,-30.254 21.914,-45.812 14.461,-35.176 27.058,-71.094 38.086,-107.481 -10.989,-7.117 -22.493,-13.418 -34.493,-18.613 C 458.926,96.5859 419.543,85.7383 379.395,80.1992 328.945,73.1016 277.512,72.6133 227.086,80.043 c -37.66,5.6562 -73.707,19.0351 -107.856,35.598 -14.953,8.074 -29.773,16.445 -44.3237,25.254 4.6484,-6.497 10.9687,-11.407 16.8476,-16.7 C 170.891,54.3008 272.637,10.2695 377.949,1.57813 c 37,-2.316411 74.239,-2.558599 111.028,2.53906 46.961,5.95701 92.925,19.10941 136.238,38.13281 14.687,6.8164 29.902,13.2813 43.281,22.2969 11.399,5.5351 21.875,12.7539 32.52,19.5586 69.836,47.2465 128.515,111.5425 166.613,186.9535 -41.516,26.699 -87.258,46.046 -133.449,62.968 -19.895,7.93 -40.262,14.649 -60.645,21.211 -9.48,3.625 -19.441,5.793 -28.906,9.434 8.039,0.129 16.101,-0.098 24.172,0.187 75.484,-2.636 150.008,-19.367 220.887,-45.058 3.945,11.308 9.191,22.597 11.203,34.316 -42.766,26.317 -89.875,44.688 -137.328,60.633 -31.344,9.59 -62.723,19.211 -94.684,26.563 l 0.066,0.421 c -26.543,5.86 -53.086,11.766 -79.836,16.602 10.079,0.281 20.149,0.078 30.227,0.137 70.215,-0.618 140.371,-6.797 209.695,-18.106 29.477,-5.078 58.957,-10.363 87.864,-18.078 3,13.984 2.753,28.418 5.07,42.512 -17.414,10.398 -36.543,17.519 -55.402,24.824 -78.583,28.379 -161.797,41.563 -244.778,48.754 -30.965,2.598 -62.019,4.117 -93.086,3.891 20.422,5.308 41.211,8.992 61.985,12.578 37.343,6.281 75.175,9.523 113,10.757"
         id="path22" />
    </clipPath>
    <linearGradient
       x1="0"
       y1="0"
       x2="1"
       y2="0"
       gradientUnits="userSpaceOnUse"
       gradientTransform="matrix(92.1963,0,0,-92.1963,0,49.9995)"
       spreadMethod="pad"
       id="linearGradient24">
      <stop
         style="stop-opacity:1;stop-color:#7ccbf1"
         offset="0"
         id="stop26" />
      <stop
         style="stop-opacity:1;stop-color:#3a82ca"
         offset="1"
         id="stop28" />
    </linearGradient>
    <linearGradient
       inkscape:collect="always"
       xlink:href="#linearGradient3764"
       id="linearGradient3977"
       gradientUnits="userSpaceOnUse"
       gradientTransform="matrix(0,-1,1,0,-1.5e-6,47.999998)"
       x1="1"
       x2="47" />
  </defs>
  <g
     id="g21">
    <path
       d="m 36.31 5 c 5.859 4.062 9.688 10.831 9.688 18.5 c 0 12.426 -10.07 22.5 -22.5 22.5 c -7.669 0 -14.438 -3.828 -18.5 -9.688 c 1.037 1.822 2.306 3.499 3.781 4.969 c 4.085 3.712 9.514 5.969 15.469 5.969 c 12.703 0 23 -10.298 23 -23 c 0 -5.954 -2.256 -11.384 -5.969 -15.469 c -1.469 -1.475 -3.147 -2.744 -4.969 -3.781 z m 4.969 3.781 c 3.854 4.113 6.219 9.637 6.219 15.719 c 0 12.703 -10.297 23 -23 23 c -6.081 0 -11.606 -2.364 -15.719 -6.219 c 4.16 4.144 9.883 6.719 16.219 6.719 c 12.703 0 23 -10.298 23 -23 c 0 -6.335 -2.575 -12.06 -6.719 -16.219 z"
       opacity="0.05"
       id="path23" />
    <path
       d="m 41.28 8.781 c 3.712 4.085 5.969 9.514 5.969 15.469 c 0 12.703 -10.297 23 -23 23 c -5.954 0 -11.384 -2.256 -15.469 -5.969 c 4.113 3.854 9.637 6.219 15.719 6.219 c 12.703 0 23 -10.298 23 -23 c 0 -6.081 -2.364 -11.606 -6.219 -15.719 z"
       opacity="0.1"
       id="path25" />
    <path
       d="m 31.25 2.375 c 8.615 3.154 14.75 11.417 14.75 21.13 c 0 12.426 -10.07 22.5 -22.5 22.5 c -9.708 0 -17.971 -6.135 -21.12 -14.75 a 23 23 0 0 0 44.875 -7 a 23 23 0 0 0 -16 -21.875 z"
       opacity="0.2"
       id="path27" />
  </g>
  <path
     inkscape:connector-curvature="0"
     style="fill:url(#linearGradient3977);fill-opacity:1"
     id="path31"
     d="M 24,1 C 36.703,1 47,11.297 47,24 47,36.703 36.703,47 24,47 11.297,47 1,36.703 1,24 1,11.297 11.297,1 24,1 z" />
  <g
     id="g33" />
  <g
     id="g59">
    <path
       d="m 40.03 7.531 c 3.712 4.084 5.969 9.514 5.969 15.469 0 12.703 -10.297 23 -23 23 c -5.954 0 -11.384 -2.256 -15.469 -5.969 4.178 4.291 10.01 6.969 16.469 6.969 c 12.703 0 23 -10.298 23 -23 0 -6.462 -2.677 -12.291 -6.969 -16.469 z"
       opacity="0.1"
       id="path61" />
  </g>
  <g
     id="g18"
     clip-path="url(#clipPath20)"
     transform="matrix(0.03202935,0,0,-0.03202935,9.4980006,38.501716)"
     style="fill:#5cadff;fill-opacity:1">
    <path
       inkscape:connector-curvature="0"
       d="m 145.785,620.094 c -13.39,-2.828 -26.805,-5.465 -40.258,-7.891 4.629,9.598 10.664,18.969 19.692,24.965 12.941,8.383 27.761,14.187 43.203,15.477 -7.477,-10.887 -15.141,-21.665 -22.637,-32.551 z m 643.055,-55.93 c 44.39,-2.601 88.484,-9.051 131.98,-18.156 -5.593,71.43 -28.3,141.117 -63.718,203.265 -6.094,10.817 -13.481,20.832 -19.836,31.512 -51.543,76.86 -125.379,138.102 -209.493,176.426 -51.242,22.883 -106.296,37.051 -162.207,41.797 -18.671,1.442 -37.375,0.93 -56.062,0.777 -31.738,0.895 -63.137,-4.668 -94.274,-10.015 10.243,-2.997 21.079,-1.657 31.528,-3.379 42.121,-4.496 83.894,-13.223 123.601,-28.133 54.954,-19.922 105.532,-51.192 148.618,-90.629 l 0,-0.402 c 6.074,-5.082 11.785,-10.606 17.109,-16.469 33.277,-35.176 62.039,-75.266 81.148,-119.922 -40.015,18.383 -82.136,31.703 -124.863,42.137 -18.98,4.742 -38.223,8.382 -57.516,11.554 -4.523,-27.226 -14.574,-54.015 -32.101,-75.605 14.226,32.117 16.902,68.391 12.559,102.965 -1.895,10.965 -3.875,23.101 -11.817,31.472 -5.066,1.86 -10.664,0.039 -15.676,-1.214 -20.496,-6.129 -40.789,-13.036 -61.597,-18.024 -22.856,-3.512 -45.715,-7.074 -68.02,-13.203 -44.57,-10.969 -87.691,-28.102 -127.113,-51.645 -9.852,-5.636 -19.035,-12.296 -28.977,-17.781 1.5,11.578 8.731,21.16 13.532,31.481 -27.075,-9.45 -48.821,-29.598 -67.426,-50.789 -5.676,-5.579 -9.852,-12.883 -16.965,-16.848 -0.723,12.258 4.551,23.602 7.344,35.289 -0.895,-0.797 -2.715,-2.371 -3.625,-3.148 C 109.742,709.605 93.7109,674.961 81.0938,639.898 77.582,630.488 76.1953,620.336 71.5664,611.348 66.2148,600.797 58.3438,591.637 49.293,584.102 37.2461,572.758 26.4297,560.16 16.168,547.203 8.23828,536.598 -0.699219,524.813 0.0429688,510.852 2.62109,508.191 5.16797,504.629 9.35547,504.973 c 14.91403,-0.192 29.84373,-0.289 44.75393,0.203 1.0078,-8.102 -8.1172,-11.344 -14.6406,-9.996 -9.5665,1.269 -21.4219,2.617 -28.3477,-5.692 -5.80469,-9.113 -2.67188,-20.285 -1.47657,-30.246 3.41017,-16.445 7.94927,-33.066 16.90237,-47.449 7.0976,-10.168 20.1484,-11.574 31.4375,-12.98 8.3828,-25.528 28.7969,-46.629 54.2426,-55.43 -5.161,13.301 -10.211,27.148 -9.567,41.66 -0.887,17.004 8.805,33.926 23.985,41.66 7.832,-22.683 27.32,-41.582 51.168,-46.269 -10,14.347 -15.333,31.211 -21.344,47.472 -2.504,8.379 -5.938,16.668 -6.621,25.477 0.355,11.133 7.015,21.047 15.156,28.156 11.766,9.902 25.215,17.793 39.465,23.524 22.859,7.589 47.844,-3.7 63.082,-21.004 13.094,-12.141 26.449,-24.375 36.047,-39.59 3.586,-5.813 6.3,-12.434 6.531,-19.317 -0.934,-10.929 -8.109,-20.129 -16.09,-27.109 -14.559,-12.461 -31.781,-21.328 -49.387,-28.652 -3.777,-1.379 -8.007,-4.328 -11.933,-1.731 -19.504,9.758 -32.731,27.805 -45.703,44.649 -0.821,-20.321 6.281,-39.746 12.804,-58.641 -28.496,2.051 -52.343,19.766 -74.754,35.859 3.231,-38.898 14.211,-77.863 36.278,-110.402 7.644,-10.281 17.777,-22.031 31.875,-21.211 22.953,-1.844 43.273,11.457 60.441,25.078 8.613,7.531 18.235,13.703 28.235,19.199 23.125,12.5 47.128,23.528 72.109,31.817 l -0.02,0.344 c 20.457,6.543 42.121,9.675 63.543,7.586 8.274,-2.938 15.032,-8.954 20.715,-15.458 12.254,-12.753 23.723,-26.484 32.403,-41.953 8.488,-14.679 15.246,-30.254 21.914,-45.812 14.461,-35.176 27.058,-71.094 38.086,-107.481 -10.989,-7.117 -22.493,-13.418 -34.493,-18.613 C 458.926,96.5859 419.543,85.7383 379.395,80.1992 328.945,73.1016 277.512,72.6133 227.086,80.043 c -37.66,5.6562 -73.707,19.0351 -107.856,35.598 -14.953,8.074 -29.773,16.445 -44.3237,25.254 4.6484,-6.497 10.9687,-11.407 16.8476,-16.7 C 170.891,54.3008 272.637,10.2695 377.949,1.57813 c 37,-2.316411 74.239,-2.558599 111.028,2.53906 46.961,5.95701 92.925,19.10941 136.238,38.13281 14.687,6.8164 29.902,13.2813 43.281,22.2969 11.399,5.5351 21.875,12.7539 32.52,19.5586 69.836,47.2465 128.515,111.5425 166.613,186.9535 -41.516,26.699 -87.258,46.046 -133.449,62.968 -19.895,7.93 -40.262,14.649 -60.645,21.211 -9.48,3.625 -19.441,5.793 -28.906,9.434 8.039,0.129 16.101,-0.098 24.172,0.187 75.484,-2.636 150.008,-19.367 220.887,-45.058 3.945,11.308 9.191,22.597 11.203,34.316 -42.766,26.317 -89.875,44.688 -137.328,60.633 -31.344,9.59 -62.723,19.211 -94.684,26.563 l 0.066,0.421 c -26.543,5.86 -53.086,11.766 -79.836,16.602 10.079,0.281 20.149,0.078 30.227,0.137 70.215,-0.618 140.371,-6.797 209.695,-18.106 29.477,-5.078 58.957,-10.363 87.864,-18.078 3,13.984 2.753,28.418 5.07,42.512 -17.414,10.398 -36.543,17.519 -55.402,24.824 -78.583,28.379 -161.797,41.563 -244.778,48.754 -30.965,2.598 -62.019,4.117 -93.086,3.891 20.422,5.308 41.211,8.992 61.985,12.578 37.343,6.281 75.175,9.523 113,10.757"
       style="fill:#5cadff;fill-opacity:1;fill-rule:nonzero;stroke:none"
       id="path30" />
  </g>
</svg>
