<?xml version="1.0" encoding="UTF-8" standalone="no"?>
<svg
   xmlns:dc="http://purl.org/dc/elements/1.1/"
   xmlns:cc="http://creativecommons.org/ns#"
   xmlns:rdf="http://www.w3.org/1999/02/22-rdf-syntax-ns#"
   xmlns:svg="http://www.w3.org/2000/svg"
   xmlns="http://www.w3.org/2000/svg"
   xmlns:sodipodi="http://sodipodi.sourceforge.net/DTD/sodipodi-0.dtd"
   xmlns:inkscape="http://www.inkscape.org/namespaces/inkscape"
   width="128"
   viewBox="0 0 24 24"
   height="128"
   id="svg2"
   version="1.1"
   inkscape:version="0.48.5 r10040"
   sodipodi:docname="user-trash.svg">
  <metadata
     id="metadata20">
    <rdf:RDF>
      <cc:Work
         rdf:about="">
        <dc:format>image/svg+xml</dc:format>
        <dc:type
           rdf:resource="http://purl.org/dc/dcmitype/StillImage" />
      </cc:Work>
    </rdf:RDF>
  </metadata>
  <defs
     id="defs18" />
  <sodipodi:namedview
     pagecolor="#ffffff"
     bordercolor="#666666"
     borderopacity="1"
     objecttolerance="10"
     gridtolerance="10"
     guidetolerance="10"
     inkscape:pageopacity="0"
     inkscape:pageshadow="2"
     inkscape:window-width="1050"
     inkscape:window-height="731"
     id="namedview16"
     showgrid="true"
     inkscape:zoom="13.00648"
     inkscape:cx="16.752416"
     inkscape:cy="16.337744"
     inkscape:window-x="2166"
     inkscape:window-y="-141"
     inkscape:window-maximized="0"
     inkscape:current-layer="svg2">
    <inkscape:grid
       type="xygrid"
       id="grid2997"
       empspacing="5"
       visible="true"
       enabled="true"
       snapvisiblegridlinesonly="true" />
  </sodipodi:namedview>
  <path
     style="fill:#999999;fill-opacity:1;stroke:none"
     d="M 5.8181818,8 18.181818,8 c 0.40291,0 0.760732,0.447914 0.727273,1 l -0.727273,12 c -0.03346,0.552086 -0.324363,1 -0.727273,1 L 6.5454546,22 C 6.1425454,22 5.8516416,21.552086 5.8181818,21 L 5.0909091,9 C 5.0574495,8.447914 5.4152727,8 5.8181818,8 z"
     id="rect2999"
     inkscape:connector-curvature="0"
     sodipodi:nodetypes="sssssssss" />
  <path
     style="fill:#999999;fill-opacity:1;stroke:none"
     d="M 5.0909091,6 18.909091,6 C 19.636364,6 20,6.5 20,7.5 L 20,9 4,9 4,7.5 C 4,6.5 4.3636364,6 5.0909091,6 z"
     id="rect3769"
     inkscape:connector-curvature="0"
     sodipodi:nodetypes="ccccccc" />
  <path
     style="fill:#999999;fill-opacity:1;stroke:none"
     d="M 10.181818,3 C 9.8181818,3 9.4545454,3.5 9.4545454,4 l 0,2 0,1 0.7272726,0 0,-1 0,-1 c 0,-0.5 0.363636,-1 0.727273,-1 l 2.181818,0 c 0.363637,0 0.727273,0.5 0.727273,1 l 0,1 0,1 0.727273,0 0,-1 0,-2 c 0,-0.5 -0.363637,-1 -0.727273,-1 z"
     id="path3776"
     inkscape:connector-curvature="0"
     sodipodi:nodetypes="ccccccccccccccccc" />
  <path
     style="fill:#ababab;fill-opacity:1;stroke:none"
     d="m 8,11.5 c 0.4029091,0 0.6702826,0.45157 0.7272727,1 l 0.727408,7 c 0.05699,0.54843 -0.3243636,1 -0.7272727,1 -0.402909,0 -0.6702826,-0.45157 -0.7272727,-1 l -0.727408,-7 C 7.2157379,11.95157 7.597091,11.5 8,11.5 z"
     id="rect3783"
     inkscape:connector-curvature="0"
     sodipodi:nodetypes="sssssss" />
  <rect
     ry="1"
     rx="0.72727275"
     y="11.5"
     x="11.272727"
     height="9"
     width="1.4545455"
     id="rect3785"
     style="fill:#ababab;fill-opacity:1;stroke:none" />
  <path
     style="fill:#ababab;fill-opacity:1;stroke:none"
     d="m 16.000136,11.5 c 0.402908,0 0.784252,0.451568 0.727272,1 l -0.727272,7 c -0.05698,0.548431 -0.324364,1 -0.727273,1 -0.40291,0 -0.784254,-0.451568 -0.727273,-1 l 0.727273,-7 c 0.05698,-0.548431 0.324363,-1 0.727273,-1 z"
     id="rect3787"
     inkscape:connector-curvature="0"
     sodipodi:nodetypes="sssssss" />
  <path
     style="opacity:0.05;fill:#000000;fill-opacity:1;stroke:none"
     d="m 5.0909091,9 0.056818,1 13.7045457,0 0.05682,-1 -13.8181819,0 z"
     id="rect3791"
     inkscape:connector-curvature="0" />
  <path
     style="opacity:0.15;fill:#000000;fill-opacity:1;stroke:none"
     d="m 12,11.5 c -0.402909,0 -0.727273,0.446 -0.727273,1 l 0,0.5 c 0,-0.554 0.324364,-1 0.727273,-1 0.402909,0 0.727273,0.446 0.727273,1 l 0,-0.5 c 0,-0.554 -0.324364,-1 -0.727273,-1 z"
     id="rect3797"
     inkscape:connector-curvature="0" />
  <path
     style="opacity:0.15;fill:#000000;fill-opacity:1;stroke:none"
     d="m 8,11.5 c -0.402909,0 -0.7842629,0.45157 -0.7272727,1 l 0.056818,0.5 c -0.056989,-0.54843 0.3243637,-1 0.7272728,-1 0.3836691,0 0.6426694,0.409213 0.7159091,0.921875 L 8.7272727,12.5 C 8.6702833,11.95157 8.4029091,11.5 8,11.5 z"
     id="path3803"
     inkscape:connector-curvature="0" />
  <path
     style="opacity:0.15;fill:#000000;fill-opacity:1;stroke:none"
     d="m 16,11.5 c -0.402909,0 -0.670293,0.451569 -0.727272,1 l -0.04546,0.5 c 0.05698,-0.548431 0.324364,-1 0.727273,-1 0.387412,0 0.750233,0.417831 0.727272,0.9375 L 16.727272,12.5 C 16.784254,11.951568 16.402909,11.5 16,11.5 z"
     id="path3813"
     inkscape:connector-curvature="0" />
</svg>
