<svg xmlns="http://www.w3.org/2000/svg" xmlns:svg="http://www.w3.org/2000/svg" id="svg2" width="16" height="16" version="1.1"><metadata id="metadata7"/><g id="layer1" transform="translate(0,-1036.3622)"><g id="g4354" fill="#5a9be7" fill-opacity="1" transform="translate(0,1036.3622)"><path id="path8" fill="#5a9be7" fill-opacity="1" d="M 3.9999999,4 4.0002,9 c 4e-5,1 1,1 1,1 l 3.9997999,0 c 1,0 1,-1 1,-1 l -2.002e-4,-4 -2,-2 -2.9995998,0 c 0,0 -1.0002401,0 -1.0002,1 z m 1,0 2,0 0,2 2,0 0,3 L 5.0002,9 z"/><path id="path3838" fill="#5a9be7" fill-opacity="1" stroke="none" d="m 6,13 -2,2 c -1,1 -1,1 0,1 l 8,0 c 1,0 1,0 0,-1 l -2,-2 0,-1 -4,0 z"/><path id="rect3831" fill="#5a9be7" fill-opacity="1" stroke="none" d="M 2,0 C 0.892,0 0,0.892 0,2 l 0,9 c 0,1.108 0.892,2 2,2 l 12,0 c 1.108,0 2,-0.892 2,-2 L 16,2 C 16,0.892 15.108,0 14,0 L 2,0 z m 0,2 12,0 0,9 -12,0 0,-9 z"/></g></g></svg>