<svg xmlns="http://www.w3.org/2000/svg" xmlns:svg="http://www.w3.org/2000/svg" id="svg2" width="16" height="16" version="1.1"><metadata id="metadata7"/><g id="layer1" transform="translate(0,-1036.3622)"><rect id="rect3794" width="12" height="9" x="2" y="0" fill="#eae7d1" fill-opacity="1" stroke="none" transform="translate(0,1036.3622)"/><rect id="rect3863" width="8" height="1" x="4" y="1041.362" fill="#7a7a68" fill-opacity="1" stroke="none"/><path id="rect2987" fill="#5a9be7" fill-opacity="1" stroke="none" d="m 16,1042.3622 0,10 -16,0 0,-9 7,0 1,-2 7,0 c 0.5,0 1,0.5 1,1 z"/><path id="path3794" fill="#000" fill-opacity="1" stroke="none" d="m 0,1051.3622 0,1 16,0 0,-1 z" opacity=".15"/><path id="path3801" fill="none" stroke="none" d="m 11,1037.8622 -2.5,1.5 1.5,0 z"/><path id="path3784" fill="#000" fill-opacity="1" stroke="none" d="M 8,5 7,7 0,7 0,8 8,8 9,6 15,6 c 0.5,0 1,0.5 1,1 L 16,6 C 16,5.5 15.5,5 15,5 z" opacity=".03" transform="translate(0,1036.3622)"/><rect id="rect3794-3" width="8" height="1" x="4" y="1037.362" fill="#7a7a68" fill-opacity="1" stroke="none"/><rect id="rect3861" width="8" height="1" x="4" y="1039.362" fill="#7a7a68" fill-opacity="1" stroke="none"/></g></svg>