<svg xmlns="http://www.w3.org/2000/svg" xmlns:svg="http://www.w3.org/2000/svg" id="svg2" width="16" height="16" version="1.1"><metadata id="metadata7"/><g id="layer1" transform="translate(0,-1036.3622)"><g id="g4254" fill="#5a9be7" fill-opacity="1"><path style="line-height:normal" id="path4256" fill="#5a9be7" fill-opacity="1" d="m 1,1036.3622 c 0,0 -1,0.038 -1,1 l 0,2 2,0 0,-1 1,0 0,-2 -1.90625,0 -0.09375,0 z m 3,0 0,2 2,0 0,-2 -2,0 z m 3,0 0,2 2,0 0,-2 -2,0 z m 3,0 0,2 2,0 0,-2 -2,0 z m 3,0 0,2 1,0 0,1 2,0 0,-2 c 0,-1 -1,-1 -1,-1 l -2,0 z m -13,4 0,2 2,0 0,-2 -2,0 z m 14,0 0,2 2,0 0,-2 -2,0 z m -14,3 0,2 2,0 0,-2 -2,0 z m 14,0 0,2 2,0 0,-2 -2,0 z m -14,3 0,2 2,0 0,-2 -2,0 z m 14,0 0,2 2,0 0,-2 -2,0 z m -14,3 0,2 c 0,1 1,1 1,1 l 2,0 0,-2 -1,0 0,-1 -2,0 z m 14,0 0,1 -1,0 0,2 2,0 c 0,0 1,0 1,-1 l 0,-2 -2,0 z m -10,1 0,2 2,0 0,-2 -2,0 z m 3,0 0,2 2,0 0,-2 -2,0 z m 3,0 0,2 2,0 0,-2 -2,0 z" color="#000"/></g></g></svg>