<svg xmlns="http://www.w3.org/2000/svg" xmlns:svg="http://www.w3.org/2000/svg" id="svg2" width="16" height="16" version="1.1"><metadata id="metadata7"/><g id="layer1" transform="translate(0,-1036.3622)"><path id="path3974" fill="#5a9be7" fill-opacity="1" d="m 13.165501,1037.7589 c -0.59222,0.01 -1.174825,0.3976 -1.268065,1.1205 -0.149184,1.1567 0.969697,0.7229 1.864802,0.7229 0.895105,0 1.193473,1.8797 0.969697,2.8918 -0.223776,1.0121 -2.602947,3.4028 -7.9813524,1.0121 -4.4281281,-1.9682 -6.6390104,0.6525 -6.7505826,0.7049 0.4190708,3.9103 3.8358321,8.1511 7.9813517,8.1511 4.4285763,0 8.0186483,-4.6723 8.0186483,-8.9644 0,-0.493 -0.05863,-0.9784 -0.149184,-1.4459 -0.08234,-0.2362 -0.163321,-0.4719 -0.223776,-0.6868 -0.108369,-0.3851 -0.230747,-0.71 -0.335665,-1.0121 -0.0045,-0.01 0.0046,-0.026 0,-0.036 -0.423919,-0.9125 -1.018272,-1.7374 -1.752913,-2.4219 -0.0033,-0.01 -0.01535,0.01 -0.01865,0 -0.114802,-0.028 -0.235869,-0.038 -0.354313,-0.036 z" color="#000" opacity="1" style="line-height:normal"/><path id="path3976" fill="#5a9be7" fill-opacity="1" d="m 10,1041.3623 c 0,0.5523 -0.447715,0.9999 -1,0.9999 -0.552285,0 -1,-0.4476 -1,-0.9999 0,-0.5523 0.447715,-1.0001 1,-1.0001 0.552285,0 1,0.4478 1,1.0001 z" color="#000" opacity="1" style="line-height:normal"/><path id="path3978" fill="#5a9be7" fill-opacity="1" d="m 7,1037.8622 c 0,0.2762 -0.223858,0.5 -0.5,0.5 -0.276142,0 -0.5,-0.2238 -0.5,-0.5 0,-0.2762 0.223858,-0.5 0.5,-0.5 0.276142,0 0.5,0.2238 0.5,0.5 z" color="#000" opacity="1" style="line-height:normal"/></g></svg>