<svg xmlns="http://www.w3.org/2000/svg" xmlns:svg="http://www.w3.org/2000/svg" xmlns:xlink="http://www.w3.org/1999/xlink" id="svg2" width="16" height="16" version="1.1"><defs id="defs4"><linearGradient id="linearGradient3854" x1="23" x2="23" y1="12" y2="15" gradientTransform="translate(0,1006.3622)" gradientUnits="userSpaceOnUse" xlink:href="#linearGradient3846"/><linearGradient id="linearGradient3680-6-6-6-3-7"><stop id="stop3682-4-6-1-3-7" offset="0" stop-color="#d2eecc" stop-opacity="1"/><stop id="stop3684-8-5-8-0-2" offset="1" stop-color="#ecffe7" stop-opacity="1"/></linearGradient><linearGradient id="linearGradient3018-5" x1="20" x2="20" y1="26" y2="13" gradientTransform="translate(0,0.9999922)" gradientUnits="userSpaceOnUse" xlink:href="#linearGradient3680-6-6-6-3-7"/><linearGradient id="linearGradient3933" x1="35" x2="38" y1="8" y2="5" gradientTransform="matrix(1.0436562,0,0,1.2222222,26.301501,1003.2511)" gradientUnits="userSpaceOnUse" xlink:href="#linearGradient3915"/><linearGradient id="linearGradient3921" x1="35" x2="38" y1="8" y2="5" gradientUnits="userSpaceOnUse" xlink:href="#linearGradient3915"/><linearGradient id="linearGradient3867" x1="1.995" x2="46.005" y1="28.563" y2="28.563" gradientUnits="userSpaceOnUse" xlink:href="#linearGradient3861"/><linearGradient id="linearGradient3858" x1="24" x2="24" y1="1046.362" y2="1014.362" gradientTransform="translate(0,-1004.3622)" gradientUnits="userSpaceOnUse" xlink:href="#linearGradient3810"/><linearGradient id="linearGradient3856" x1="24" x2="24" y1="1046.362" y2="1014.362" gradientTransform="translate(0,-3)" gradientUnits="userSpaceOnUse" xlink:href="#linearGradient3810"/><linearGradient id="linearGradient3816" x1="24" x2="24" y1="1046.362" y2="1014.362" gradientUnits="userSpaceOnUse" xlink:href="#linearGradient3810"/><linearGradient id="linearGradient3810"><stop id="stop3812" offset="0" stop-color="#f2c66f" stop-opacity="1"/><stop id="stop3814" offset="1" stop-color="#fbd68f" stop-opacity="1"/></linearGradient><linearGradient id="linearGradient3844"><stop id="stop3846" offset="0" stop-color="#000" stop-opacity=".392"/><stop id="stop3848" offset="1" stop-color="#000" stop-opacity="0"/></linearGradient><linearGradient id="linearGradient3861"><stop id="stop3863" offset="0" stop-color="#000" stop-opacity="1"/><stop id="stop3865" offset="1" stop-color="#000" stop-opacity="0"/></linearGradient><linearGradient id="linearGradient3915"><stop id="stop3917" offset="0" stop-color="#f8f4e1" stop-opacity="1"/><stop id="stop3919" offset="1" stop-color="#ad9e57" stop-opacity="1"/></linearGradient><linearGradient id="linearGradient3956"><stop id="stop3958" offset="0" stop-color="#f8f4e1" stop-opacity="1"/><stop id="stop3960" offset="1" stop-color="#eae5c8" stop-opacity="1"/></linearGradient><linearGradient id="linearGradient3818"><stop id="stop3820" offset="0" stop-color="#dadad8" stop-opacity="1"/><stop id="stop3822" offset="1" stop-color="#efefef" stop-opacity="1"/></linearGradient><linearGradient id="linearGradient3830"><stop id="stop3832" offset="0" stop-color="#3b3b3b" stop-opacity="1"/><stop id="stop3834" offset="1" stop-color="#1a1a1a" stop-opacity="1"/></linearGradient><linearGradient id="linearGradient3846"><stop id="stop3849" offset="0" stop-color="#000" stop-opacity="1"/><stop id="stop3852" offset="1" stop-color="#000" stop-opacity="0"/></linearGradient><linearGradient id="linearGradient3857"><stop id="stop3859" offset="0" stop-color="#e3a309" stop-opacity="1"/><stop id="stop3861" offset="1" stop-color="#f0b70b" stop-opacity="1"/></linearGradient><linearGradient id="linearGradient3865"><stop id="stop3867" offset="0" stop-color="#eac643" stop-opacity="1"/><stop id="stop3869" offset="1" stop-color="#f3d769" stop-opacity="1"/></linearGradient></defs><metadata id="metadata7"/><g id="layer1" transform="translate(0,-1036.3622)"><path id="rect3408" fill="#5a9be7" fill-opacity="1" stroke="none" d="m 7.261661,1042.3623 0.02213,0 c 0.195324,0 0.35257,0.1783 0.35257,0.3999 l 0,3.5999 c 0,0.2217 -0.157246,0.4001 -0.35257,0.4001 l -0.02213,0 c -0.195324,0 -0.35257,-0.1784 -0.35257,-0.4001 l 0,-3.5999 c 0,-0.2216 0.157246,-0.3999 0.35257,-0.3999 z M 6,1046.8622 a 2.9999998,3.4999968 0 0 1 -3.0000005,3.5 2.9999998,3.4999968 0 0 1 -2.9999995,-3.5 2.9999998,3.4999968 0 0 1 2.9999995,-3.5 2.9999998,3.4999968 0 0 1 3.0000005,3.5 z m 4,-4.5 a 4,3.9999966 0 0 1 -4,4 4,3.9999966 0 0 1 -4,-4 4,3.9999966 0 0 1 4,-4 4,3.9999966 0 0 1 4,4 z m 4,1.0001 a 2.9999999,2.9999975 0 0 1 -3,2.9999 2.9999999,2.9999975 0 0 1 -3,-2.9999 2.9999999,2.9999975 0 0 1 3,-3.0001 2.9999999,2.9999975 0 0 1 3,3.0001 z m 2,3.9999 a 2.9999998,2.9999975 0 0 1 -3,3 2.9999998,2.9999975 0 0 1 -3,-3 2.9999998,2.9999975 0 0 1 3,-3 2.9999998,2.9999975 0 0 1 3,3 z m -13.090909,-4.6 9.818182,0 0,7.6 -9.818182,0 z" opacity="1"/></g></svg>