<svg xmlns="http://www.w3.org/2000/svg" xmlns:svg="http://www.w3.org/2000/svg" id="svg2" width="16" height="16" version="1.1"><metadata id="metadata7"/><g id="layer1" transform="translate(0,-1036.3622)"><path id="path3017" fill="#1976d2" fill-opacity="1" stroke="none" d="m 2,1038.8622 0,6.5 8,0 0,-3.5 -0.5,-2.5 -2.5,0 -0.5,-1 -4,0 c -0.25,0 -0.5,0.25 -0.5,0.5 z"/><rect id="rect3021" width="5" height="2" x="3" y="1039.362" fill="#f2f2f2" fill-opacity="1" stroke="none"/><path id="path3023" fill="#5a9be7" fill-opacity="1" stroke="none" d="m 10,1039.8622 0,6.5 -8,0 0,-6 3.5,0 0.5,-1 3.5,0 c 0.25,0 0.5,0.25 0.5,0.5 z"/><path id="path3027" fill="none" stroke="none" d="m 7.5,1039.1122 -1.25,0.75 0.75,0 z"/><path id="path3029" fill="#1976d2" fill-opacity="1" stroke="none" d="m 6,1042.8622 0,6.5 8,0 0,-3.5 -0.5,-2.5 -2.5,0 -0.5,-1 -4,0 c -0.25,0 -0.5,0.25 -0.5,0.5 z"/><rect id="rect3799" width="5" height="2" x="7" y="1043.362" fill="#f2f2f2" fill-opacity="1" stroke="none"/><path id="rect2987" fill="#5a9be7" fill-opacity="1" stroke="none" d="m 14,1043.8622 0,6.5 -8,0 0,-6 3.5,0 0.5,-1 3.5,0 c 0.25,0 0.5,0.25 0.5,0.5 z"/><path id="path3801" fill="none" stroke="none" d="m 11.5,1043.1122 -1.25,0.75 0.75,0 z"/></g></svg>