<svg xmlns="http://www.w3.org/2000/svg" xmlns:svg="http://www.w3.org/2000/svg" xmlns:xlink="http://www.w3.org/1999/xlink" id="svg2" width="16" height="16" version="1.1"><defs id="defs4"><linearGradient id="linearGradient3855"><stop id="stop3857" offset="0" stop-color="#000" stop-opacity="1"/><stop id="stop3859" offset="1" stop-color="#000" stop-opacity=".294"/></linearGradient><linearGradient id="linearGradient3833"><stop id="stop3835" offset="0" stop-color="#fdfeff" stop-opacity="1"/><stop id="stop3837" offset="1" stop-color="#dfe4e4" stop-opacity="1"/></linearGradient><linearGradient id="linearGradient3823"><stop id="stop3825" offset="0" stop-color="#49b7ef" stop-opacity="1"/><stop id="stop3827" offset="1" stop-color="#1d8de2" stop-opacity="1"/></linearGradient><linearGradient id="linearGradient3956"><stop id="stop3958" offset="0" stop-color="#f8f4e1" stop-opacity="1"/><stop id="stop3960" offset="1" stop-color="#eae5c8" stop-opacity="1"/></linearGradient><linearGradient id="linearGradient3915"><stop id="stop3917" offset="0" stop-color="#f8f4e1" stop-opacity="1"/><stop id="stop3919" offset="1" stop-color="#ad9e57" stop-opacity="1"/></linearGradient><linearGradient id="linearGradient3861"><stop id="stop3863" offset="0" stop-color="#000" stop-opacity="1"/><stop id="stop3865" offset="1" stop-color="#000" stop-opacity="0"/></linearGradient><linearGradient id="linearGradient3844"><stop id="stop3846" offset="0" stop-color="#000" stop-opacity=".392"/><stop id="stop3848" offset="1" stop-color="#000" stop-opacity="0"/></linearGradient><linearGradient id="linearGradient3810"><stop id="stop3812" offset="0" stop-color="#f2c66f" stop-opacity="1"/><stop id="stop3814" offset="1" stop-color="#fbd68f" stop-opacity="1"/></linearGradient><linearGradient id="linearGradient3816" x1="24" x2="24" y1="1046.362" y2="1014.362" gradientUnits="userSpaceOnUse" xlink:href="#linearGradient3810"/><radialGradient id="radialGradient3850" cx="24.076" cy="41.383" r="21.076" fx="24.076" fy="41.383" gradientTransform="matrix(1,0,0,0.11307633,0,36.703704)" gradientUnits="userSpaceOnUse" xlink:href="#linearGradient3844"/><linearGradient id="linearGradient3856" x1="24" x2="24" y1="1046.362" y2="1014.362" gradientTransform="translate(0,-3)" gradientUnits="userSpaceOnUse" xlink:href="#linearGradient3810"/><linearGradient id="linearGradient3858" x1="24" x2="24" y1="1046.362" y2="1014.362" gradientTransform="translate(0,-1004.3622)" gradientUnits="userSpaceOnUse" xlink:href="#linearGradient3810"/><linearGradient id="linearGradient3867" x1="1.995" x2="46.005" y1="28.563" y2="28.563" gradientUnits="userSpaceOnUse" xlink:href="#linearGradient3861"/><linearGradient id="linearGradient3921" x1="35" x2="38" y1="8" y2="5" gradientUnits="userSpaceOnUse" xlink:href="#linearGradient3915"/><linearGradient id="linearGradient3933" x1="35" x2="38" y1="8" y2="5" gradientTransform="matrix(1.0436562,0,0,1.2222222,26.301501,1003.2511)" gradientUnits="userSpaceOnUse" xlink:href="#linearGradient3915"/><linearGradient id="linearGradient3954" x1="35" x2="44" y1="11" y2="5" gradientTransform="translate(22,1004.3622)" gradientUnits="userSpaceOnUse" xlink:href="#linearGradient3915"/><linearGradient id="linearGradient3829" x1="21" x2="20" y1="14" y2="24" gradientUnits="userSpaceOnUse" xlink:href="#linearGradient3823"/><linearGradient id="linearGradient3839" x1="21" x2="20" y1="14" y2="26" gradientUnits="userSpaceOnUse" xlink:href="#linearGradient3833"/><linearGradient id="linearGradient3862" x1="22" x2="20" y1="15" y2="30" gradientUnits="userSpaceOnUse" xlink:href="#linearGradient3855"/><clipPath id="clipPath-069049578"><g id="g3352" transform="translate(0,-1004.3622)"><path id="path3354" fill="#1890d0" d="m -24,13 c 0,1.105 -0.672,2 -1.5,2 -0.828,0 -1.5,-0.895 -1.5,-2 0,-1.105 0.672,-2 1.5,-2 0.828,0 1.5,0.895 1.5,2 z" transform="matrix(15.333333,0,0,11.5,414.99999,878.8622)"/></g></clipPath><clipPath id="clipPath-059275953"><g id="g3347" transform="translate(0,-1004.3622)"><path id="path3349" fill="#1890d0" d="m -24,13 c 0,1.105 -0.672,2 -1.5,2 -0.828,0 -1.5,-0.895 -1.5,-2 0,-1.105 0.672,-2 1.5,-2 0.828,0 1.5,0.895 1.5,2 z" transform="matrix(15.333333,0,0,11.5,414.99999,878.8622)"/></g></clipPath><linearGradient id="linearGradient3764" x1="1" x2="47" gradientTransform="matrix(0,-1,1,0,-1.5e-6,47.999998)" gradientUnits="userSpaceOnUse"><stop id="stop3342" stop-color="#d6740a" stop-opacity="1"/><stop id="stop3344" offset="1" stop-color="#e87e0b" stop-opacity="1"/></linearGradient><clipPath id="clipPath-483879499"><g id="g3401" transform="translate(0,-1004.3622)"><path id="path3403" fill="#1890d0" d="m -24,13 c 0,1.105 -0.672,2 -1.5,2 -0.828,0 -1.5,-0.895 -1.5,-2 0,-1.105 0.672,-2 1.5,-2 0.828,0 1.5,0.895 1.5,2 z" transform="matrix(15.333333,0,0,11.5,414.99999,878.8622)"/></g></clipPath><clipPath id="clipPath-478329641"><g id="g3396" transform="translate(0,-1004.3622)"><path id="path3398" fill="#1890d0" d="m -24,13 c 0,1.105 -0.672,2 -1.5,2 -0.828,0 -1.5,-0.895 -1.5,-2 0,-1.105 0.672,-2 1.5,-2 0.828,0 1.5,0.895 1.5,2 z" transform="matrix(15.333333,0,0,11.5,414.99999,878.8622)"/></g></clipPath><linearGradient id="linearGradient3764-2" x1="1" x2="47" gradientTransform="matrix(0,-1,1,0,-1.5e-6,47.999998)" gradientUnits="userSpaceOnUse"><stop id="stop3391" stop-color="#333" stop-opacity="1"/><stop id="stop3393" offset="1" stop-color="#3d3d3d" stop-opacity="1"/></linearGradient><clipPath id="clipPath-826434300"><g id="g10603" transform="translate(0,-1004.3622)"><path id="path10605" fill="#1890d0" d="m -24,13 c 0,1.105 -0.672,2 -1.5,2 -0.828,0 -1.5,-0.895 -1.5,-2 0,-1.105 0.672,-2 1.5,-2 0.828,0 1.5,0.895 1.5,2 z" transform="matrix(15.333333,0,0,11.5,414.99999,878.8622)"/></g></clipPath><clipPath id="clipPath-810928594"><g id="g10598" transform="translate(0,-1004.3622)"><path id="path10600" fill="#1890d0" d="m -24,13 c 0,1.105 -0.672,2 -1.5,2 -0.828,0 -1.5,-0.895 -1.5,-2 0,-1.105 0.672,-2 1.5,-2 0.828,0 1.5,0.895 1.5,2 z" transform="matrix(15.333333,0,0,11.5,414.99999,878.8622)"/></g></clipPath><linearGradient id="linearGradient3764-0" x1="1" x2="47" gradientTransform="matrix(0,-1,1,0,-1.5e-6,47.999998)" gradientUnits="userSpaceOnUse"><stop id="stop10593" stop-color="#3a3a3a" stop-opacity="1"/><stop id="stop10595" offset="1" stop-color="#444" stop-opacity="1"/></linearGradient></defs><metadata id="metadata7"/><g id="layer1" transform="translate(0,-1036.3622)"><path id="path10643" fill="#5a9be7" fill-opacity="1" fill-rule="nonzero" stroke="none" d="m 1.535111,1037.0635 c -0.5139061,0.01 -0.99956933,0.064 -1.48859244,0.2334 -0.15375403,1.0418 0.09971002,2.1228 0.37944508,3.1212 0.71154416,2.2902 2.03223946,4.4639 3.96957886,5.9218 0.07101,0.067 0.1719871,0.083 0.1459411,0.2041 -0.0102,0.5075 -0.001,1.0375 0,1.5462 0.02085,0.8896 0.5569622,1.7393 1.3426513,2.1587 0.9324842,0.4906 1.8629754,0.9453 2.8020556,1.4292 0.4322931,0.2289 1.0318362,-0.034 1.1675233,-0.4958 0.08256,-0.304 0.02482,-0.6233 0.02919,-0.9334 -0.0032,-0.6536 -0.083721,-1.3095 -0.05838,-1.9546 0.8546662,-0.1062 1.7138852,-0.5197 2.2182952,-1.2252 0.44956,-0.6017 0.609656,-1.3808 0.554572,-2.1294 0.914331,-0.1631 1.856539,-0.3011 2.772869,-0.4668 0.542335,-0.1081 0.777518,-0.8133 0.437821,-1.2543 -0.666485,-0.8441 -1.336398,-1.6707 -2.013978,-2.5088 -0.547034,-0.6532 -1.403817,-1.0156 -2.247482,-0.9043 -0.572135,0.092 -1.157967,0.2146 -1.7220972,0.321 -1.8217753,-1.7344 -4.2706929,-2.6957 -6.7424464,-2.9755 -0.5076031,-0.046 -1.0330622,-0.096 -1.5469683,-0.088 z m 3.0939366,1.896 c 0.5971442,-0.054 1.1960573,0.1117 1.6929084,0.5251 0.9937022,0.827 1.1484913,2.3033 0.321069,3.2964 -0.8274221,0.9931 -2.3045495,1.1478 -3.2982527,0.3208 -0.9937022,-0.8269 -1.1484902,-2.3031 -0.321069,-3.2963 0.413711,-0.4966 1.0082002,-0.7914 1.6053443,-0.846 z m 0.05838,0.7878 c -0.3979581,0.036 -0.7747141,0.2227 -1.0507712,0.5541 -0.5521141,0.6628 -0.4587511,1.6361 0.204317,2.1879 0.6630682,0.5518 1.6369914,0.4585 2.1891056,-0.2042 0.552115,-0.6627 0.458752,-1.636 -0.2043161,-2.1878 -0.3315351,-0.276 -0.7403772,-0.3865 -1.1383353,-0.35 z m 9.4861256,6.3593 c -0.204453,-0.019 -0.408287,0.1361 -0.437821,0.35 -0.260574,1.1836 -1.10263,2.2118 -2.218293,2.6837 -0.290499,0.092 -0.355374,0.4805 -0.116753,0.6709 0.48965,0.4075 1.055319,0.8785 1.546968,1.2836 0.239227,0.2032 0.550558,-0.01 0.554574,-0.3208 -0.0077,-0.2482 -0.03599,-0.5134 -0.05838,-0.7585 0.609614,0.1305 1.206444,0.3041 1.809661,0.4375 0.284259,0.059 0.553502,-0.2833 0.437821,-0.5542 -0.238471,-0.5712 -0.484833,-1.1236 -0.729702,-1.6919 0.246832,-0.029 0.484172,-0.05 0.729702,-0.088 0.303907,-0.06 0.42275,-0.5021 0.175128,-0.7001 -0.492453,-0.4138 -0.989742,-0.8142 -1.488592,-1.2252 -0.05836,-0.046 -0.136165,-0.081 -0.204317,-0.088 z"/></g></svg>