<svg xmlns="http://www.w3.org/2000/svg" xmlns:svg="http://www.w3.org/2000/svg" id="svg2" width="16" height="16" version="1.1"><metadata id="metadata7"/><g id="layer1" transform="translate(0,-1036.3622)"><path style="line-height:normal" id="path4105" fill="#5a9be7" fill-opacity="1" d="m 1,1036.3622 0,5 5,0 -1.71875,-1.7188 c 1.022639,-0.8028 2.318003,-1.2812 3.718749,-1.2812 3.313708,0 6,2.6863 6,6 0,3.3137 -2.686292,6 -6,6 -3.313708,0 -5.999999,-2.6863 -5.999999,-6 0,-0.7007 0.122984,-1.3749 0.34375,-2 l -2.09375,0 c -0.163705,0.6377 -0.25,1.3112 -0.25,2 0,4.4183 3.581722,8 7.999999,8 4.418278,0 8,-3.5817 8,-8 0,-4.4183 -3.581722,-8 -8,-8 -1.956871,0 -3.766194,0.6769 -5.156249,1.8437 L 1,1036.3622 z m 6.90625,2.9687 a 1.0001,1.0001 0 0 0 -0.125,0.031 1.0001,1.0001 0 0 0 -0.78125,1 l 0,3.6875 a 1.0001,1.0001 0 0 0 0,0.094 1.0001,1.0001 0 0 0 0.125,0.75 1.0001,1.0001 0 0 0 0.03125,0.031 1.0001,1.0001 0 0 0 0.03125,0.062 1.0001,1.0001 0 0 0 0.03125,0.031 1.0001,1.0001 0 0 0 0.03125,0.031 1.0001,1.0001 0 0 0 0.03125,0.031 1.0001,1.0001 0 0 0 0.03125,0.031 1.0001,1.0001 0 0 0 0.0625,0.031 1.0001,1.0001 0 0 0 0.03125,0.031 1.0001,1.0001 0 0 0 0.03125,0.031 1.0001,1.0001 0 0 0 0.0625,0.031 1.0001,1.0001 0 0 0 0.125,0.062 l 2.468749,1.4375 a 1.0077822,1.0077822 0 1 0 1,-1.75 l -2.09375,-1.2188 0,-3.4062 a 1.0001,1.0001 0 0 0 -1.093749,-1.0313 z" color="#000"/></g></svg>