<svg xmlns="http://www.w3.org/2000/svg" xmlns:svg="http://www.w3.org/2000/svg" id="svg2" width="16" height="16" version="1.1"><metadata id="metadata7"/><g id="layer1" transform="translate(0,-1036.3622)"><path id="path3029" fill="#1976d2" fill-opacity="1" stroke="none" d="m 0,1037.3622 0,13 16,0 0,-7 -1,-5 -5,0 -1,-2 -8,0 c -0.5,0 -1,0.5 -1,1 z"/><path id="path3789" fill="#000" fill-opacity="1" stroke="none" d="M 1,0 C 0.5,0 0,0.5 0,1 L 0,2 C 0,1.5 0.5,1 1,1 L 8,1 9,3 15,3 16,8 16,7 15,2 10,2 9,0 z" opacity=".03" transform="translate(0,1036.3622)"/><rect id="rect3799" width="10" height="3" x="2" y="1039.362" fill="#f2f2f2" fill-opacity="1" stroke="none"/><path id="rect2987" fill="#5a9be7" fill-opacity="1" stroke="none" d="m 16,1039.3622 0,13 -16,0 0,-12 7,0 1,-2 7,0 c 0.5,0 1,0.5 1,1 z"/><path id="path3794" fill="#000" fill-opacity="1" stroke="none" d="m 0,1051.3622 0,1 16,0 0,-1 z" opacity=".15"/><path id="path3801" fill="none" stroke="none" d="m 11,1037.8622 -2.5,1.5 1.5,0 z"/><path id="path3784" fill="#000" fill-opacity="1" stroke="none" d="M 8,2 7,4 0,4 0,5 8,5 9,3 15,3 c 0.5,0 1,0.5 1,1 L 16,3 C 16,2.5 15.5,2 15,2 z" opacity=".03" transform="translate(0,1036.3622)"/></g></svg>