<svg xmlns="http://www.w3.org/2000/svg" xmlns:svg="http://www.w3.org/2000/svg" id="svg2" width="16" height="16" version="1.1"><metadata id="metadata7"/><g id="layer1" transform="translate(0,-1036.3622)"><path style="line-height:normal" id="path4156" fill="#5a9be7" fill-opacity="1" d="m 14.376129,1037.9793 c -2.165149,-2.1659 -5.6659882,-2.1524 -7.8311432,0.016 -1.841065,1.8416 -2.116968,4.6448 -0.829968,6.7756 l -5.34124405,5.3431 c -0.498365,0.4985 -0.498365,1.2958 0,1.7943 l 0.08032,0.08 c 0.498366,0.4986 1.29543505,0.4986 1.79380105,0 l 5.3412439,-5.343 c 2.1330801,1.2904 4.9459303,1.0249 6.7869943,-0.8168 2.165156,-2.1657 2.165153,-5.6812 0,-7.847 z m -1.218176,1.2184 c 1.489202,1.4898 1.489187,3.9204 0,5.4099 -1.475261,1.4758 -3.8623362,1.4752 -5.3546282,0.027 l -0.04017,-0.04 c -0.01332,-0.016 -0.02712,-0.027 -0.04017,-0.041 -1.44964,-1.4924 -1.435761,-3.8667 0.04017,-5.3428 1.489186,-1.4899 3.9055892,-1.5033 5.3947902,-0.016 z" color="#000"/></g></svg>