<svg xmlns="http://www.w3.org/2000/svg" xmlns:svg="http://www.w3.org/2000/svg" id="svg2" width="16" height="16" version="1.1" viewBox="0 0 4.516 4.516"><metadata id="metadata22"/><path id="path6" fill="#268bd2" d="m 0.33448553,4.5155557 3.84658447,0 c 0.3344857,0 0.3344857,0 0.3344857,-0.3225398 l 0,-2.7819047 L 2.2577779,3.2518525e-8 0,1.4111112 -2.044444e-8,4.1930159 c -2.370371e-9,0.3225398 0,0.3225398 0.33448555044444,0.3225398 z"/><path id="path8" fill-opacity=".1" d="m 0.33448553,4.5155557 3.84658447,0 c 0.3344857,0 0.3344857,0 0.3344857,-0.3225398 l 0,-2.7819047 L 2.2577779,3.2518525e-8 0,1.4111112 -1.75e-8,4.1930159 c -1e-8,0.3225398 0,0.3225398 0.3344855475,0.3225398 z"/><path id="path4152" fill="#859900" fill-rule="evenodd" d="m 1.0416136,1.6687714 c 0,0.031819 0.028284,0.077779 0.084848,0.1343431 l 0.9050528,1.1313168 c 0.2270986,0.2270983 0.2262633,0.2262629 0.4525263,0 L 3.3890937,1.8031152 C 3.5587911,1.6334178 3.4739421,1.587458 3.1345476,1.5768519 c -0.1131309,-0.00353 -0.2545459,0 -0.4242433,0 10e-6,-0.00239 0,-0.00468 0,-0.00707 0,-1.12424493 -0.6787895,-1.57677122 -1.5909127,-1.569700546818 C 1.5789886,0.4455373 1.8052517,0.89806352 1.7911103,1.5768531 c -0.1622181,-2.166e-4 -0.3007415,-0.00342 -0.4101019,0 -0.2262632,0.00706 -0.3393948,0.028282 -0.3393948,0.091919 z"/><g id="g12" fill="#268bd2"><path id="path14" d="m 0.28222223,4.5155557 3.95111127,0 c 0.2822222,0 0.2822222,0 0.2822222,-0.2822222 l 0,-2.5400001 L 0,4.2333335 c 0,0.2822222 0,0.2822222 0.28222223,0.2822222 z"/><path id="path16" d="m 4.2333335,4.5155557 -3.95111127,0 C 0,4.5155557 0,4.5155557 0,4.2333335 L 0,1.6933334 4.5155557,4.2333335 c 0,0.2822222 0,0.2822222 -0.2822222,0.2822222 z"/></g><path id="path18" fill="#fff" fill-opacity=".1" d="m 4.18107,4.5155557 -3.84658447,0 C -2.044444e-8,4.5155557 -2.044444e-8,4.5155557 -2.044444e-8,4.1986752 L 0,1.6933334 4.5155557,4.1986752 c 0,0.3168805 0,0.3168805 -0.3344857,0.3168805 z"/></svg>