<svg xmlns="http://www.w3.org/2000/svg" xmlns:svg="http://www.w3.org/2000/svg" id="svg2" width="16" height="16" version="1.1" viewBox="0 0 16 16"><metadata id="metadata20"/><path id="rect2999" fill="#ababab" fill-opacity="1" stroke="none" d="m 1.6860355,4.249786 12.6286165,0 c 0.378953,0 0.712156,0.3116814 0.684031,0.696429 l -0.684031,9.357357 C 14.286531,14.688319 14.009574,15 13.630621,15 L 2.3700665,15 C 1.9911132,15 1.7141609,14.688319 1.6860355,14.303572 L 1.0020047,4.946215 C 0.97387931,4.5614674 1.3070823,4.249786 1.6860355,4.249786 z"/><path id="rect3769" fill="#999" fill-opacity="1" stroke="none" d="m 1.0223636,2.999786 13.9549094,0 c 0.681818,0 1.022727,0.3333333 1.022727,1 l 0,1 -16.00036365,0 0,-1 c 0,-0.6666667 0.3409091,-1 1.02272725,-1 z"/><path id="path3776" fill="#999" fill-opacity="1" stroke="none" d="M 6.7954545,0.999786 C 6.251496,0.999786 6,1.499786 6,1.999786 l 0,1 0,0.75 L 7.25,3.75 7,3 7,2.5 C 7,1.984381 7.054854,2 8,2 l 1,0 c 1,0 1,0 1,0.5 l 0,0.5 0.25,0.749786 0.75,0 0,-0.75 0,-1 c 0,-0.5 -0.228067,-1 -0.795454,-1 z"/><path id="path3781" fill="#000" fill-opacity="1" stroke="none" d="m 1.0079375,4.999786 0.078125,1 13.8280005,0 0.07813,-1 z" opacity=".05"/><rect id="rect3785" width="2" height="6" x="7" y="7" fill="#999" fill-opacity="1" stroke="none" rx="1" ry="1"/><path id="rect2992" fill="#000" fill-opacity="1" stroke="none" d="M 8,7 C 7.446,7 7,7.43691 7,7.96875 l 0,1 C 7,8.43691 7.446,8 8,8 8.554,8 9,8.43691 9,8.96875 l 0,-1 C 9,7.43691 8.554,7 8,7 z" opacity=".15"/><path id="rect3013" fill="#999" fill-opacity="1" stroke="none" d="m 3,7 c 0.554,0 0.8656351,0.4625411 1,1 l 1.000001,4 c 0.1343649,0.537459 -0.446,1 -1,1 -0.554,0 -0.8656351,-0.462541 -1,-1 L 2,8 C 1.8656351,7.4625411 2.446,7 3,7 z"/><path id="path3018" fill="#000" fill-opacity="1" stroke="none" d="M 3 7 C 2.446 7 1.8656351 7.4625411 2 8 L 2.21875 8.8125 C 2.2473957 8.3639113 2.76525 8 3.25 8 C 3.804 8 4.1156351 8.4625411 4.25 9 L 4 8 C 3.8656351 7.4625411 3.554 7 3 7 z" opacity=".15"/><path id="path3791" fill="#999" fill-opacity="1" stroke="none" d="m 12.999611,7 c -0.554,0 -0.865635,0.4625411 -1,1 l -1.000001,4 c -0.134365,0.537459 0.446,1 1,1 0.554,0 0.865635,-0.462541 1,-1 l 1.000001,-4 c 0.134365,-0.5374589 -0.446,-1 -1,-1 z"/><path id="path3793" fill="#000" fill-opacity="1" stroke="none" d="m 12.999611,7 c 0.554,0 1.134365,0.4625411 1,1 l -0.21875,0.8125 C 13.752215,8.3639113 13.234361,8 12.749611,8 c -0.554,0 -0.865635,0.4625411 -1,1 l 0.25,-1 c 0.134365,-0.5374589 0.446,-1 1,-1 z" opacity=".15"/></svg>