<svg xmlns="http://www.w3.org/2000/svg" xmlns:svg="http://www.w3.org/2000/svg" xmlns:xlink="http://www.w3.org/1999/xlink" id="svg2" width="48" height="48" version="1.1"><defs id="defs4"><linearGradient id="linearGradient3855"><stop id="stop3857" offset="0" stop-color="#000" stop-opacity="1"/><stop id="stop3859" offset="1" stop-color="#000" stop-opacity=".294"/></linearGradient><linearGradient id="linearGradient3833"><stop id="stop3835" offset="0" stop-color="#fdfeff" stop-opacity="1"/><stop id="stop3837" offset="1" stop-color="#dfe4e4" stop-opacity="1"/></linearGradient><linearGradient id="linearGradient3823"><stop id="stop3825" offset="0" stop-color="#49b7ef" stop-opacity="1"/><stop id="stop3827" offset="1" stop-color="#1d8de2" stop-opacity="1"/></linearGradient><linearGradient id="linearGradient3956"><stop id="stop3958" offset="0" stop-color="#f8f4e1" stop-opacity="1"/><stop id="stop3960" offset="1" stop-color="#eae5c8" stop-opacity="1"/></linearGradient><linearGradient id="linearGradient3915"><stop id="stop3917" offset="0" stop-color="#f8f4e1" stop-opacity="1"/><stop id="stop3919" offset="1" stop-color="#ad9e57" stop-opacity="1"/></linearGradient><linearGradient id="linearGradient3861"><stop id="stop3863" offset="0" stop-color="#000" stop-opacity="1"/><stop id="stop3865" offset="1" stop-color="#000" stop-opacity="0"/></linearGradient><linearGradient id="linearGradient3844"><stop id="stop3846" offset="0" stop-color="#000" stop-opacity=".392"/><stop id="stop3848" offset="1" stop-color="#000" stop-opacity="0"/></linearGradient><linearGradient id="linearGradient3810"><stop id="stop3812" offset="0" stop-color="#f2c66f" stop-opacity="1"/><stop id="stop3814" offset="1" stop-color="#fbd68f" stop-opacity="1"/></linearGradient><linearGradient id="linearGradient3816" x1="24" x2="24" y1="1046.362" y2="1014.362" gradientUnits="userSpaceOnUse" xlink:href="#linearGradient3810"/><radialGradient id="radialGradient3850" cx="24.076" cy="41.383" r="21.076" fx="24.076" fy="41.383" gradientTransform="matrix(1,0,0,0.11307633,0,36.703704)" gradientUnits="userSpaceOnUse" xlink:href="#linearGradient3844"/><linearGradient id="linearGradient3856" x1="24" x2="24" y1="1046.362" y2="1014.362" gradientTransform="translate(0,-3)" gradientUnits="userSpaceOnUse" xlink:href="#linearGradient3810"/><linearGradient id="linearGradient3858" x1="24" x2="24" y1="1046.362" y2="1014.362" gradientTransform="translate(0,-1004.3622)" gradientUnits="userSpaceOnUse" xlink:href="#linearGradient3810"/><linearGradient id="linearGradient3867" x1="1.995" x2="46.005" y1="28.563" y2="28.563" gradientUnits="userSpaceOnUse" xlink:href="#linearGradient3861"/><linearGradient id="linearGradient3921" x1="35" x2="38" y1="8" y2="5" gradientUnits="userSpaceOnUse" xlink:href="#linearGradient3915"/><linearGradient id="linearGradient3933" x1="35" x2="38" y1="8" y2="5" gradientTransform="matrix(1.0436562,0,0,1.2222222,26.301501,1003.2511)" gradientUnits="userSpaceOnUse" xlink:href="#linearGradient3915"/><linearGradient id="linearGradient3954" x1="35" x2="44" y1="11" y2="5" gradientTransform="translate(22,1004.3622)" gradientUnits="userSpaceOnUse" xlink:href="#linearGradient3915"/><linearGradient id="linearGradient3829" x1="21" x2="20" y1="14" y2="24" gradientUnits="userSpaceOnUse" xlink:href="#linearGradient3823"/><linearGradient id="linearGradient3839" x1="21" x2="20" y1="14" y2="26" gradientUnits="userSpaceOnUse" xlink:href="#linearGradient3833"/><linearGradient id="linearGradient3862" x1="22" x2="20" y1="15" y2="30" gradientUnits="userSpaceOnUse" xlink:href="#linearGradient3855"/><clipPath id="clipPath-069049578"><g id="g3352" transform="translate(0,-1004.3622)"><path id="path3354" fill="#1890d0" d="m -24 13 c 0 1.105 -0.672 2 -1.5 2 -0.828 0 -1.5 -0.895 -1.5 -2 0 -1.105 0.672 -2 1.5 -2 0.828 0 1.5 0.895 1.5 2 z" transform="matrix(15.333333,0,0,11.5,414.99999,878.8622)"/></g></clipPath><clipPath id="clipPath-059275953"><g id="g3347" transform="translate(0,-1004.3622)"><path id="path3349" fill="#1890d0" d="m -24 13 c 0 1.105 -0.672 2 -1.5 2 -0.828 0 -1.5 -0.895 -1.5 -2 0 -1.105 0.672 -2 1.5 -2 0.828 0 1.5 0.895 1.5 2 z" transform="matrix(15.333333,0,0,11.5,414.99999,878.8622)"/></g></clipPath><linearGradient id="linearGradient3764" x1="1" x2="47" gradientTransform="matrix(0,-1,1,0,-1.5e-6,47.999998)" gradientUnits="userSpaceOnUse"><stop id="stop3342" stop-color="#d6740a" stop-opacity="1"/><stop id="stop3344" offset="1" stop-color="#e87e0b" stop-opacity="1"/></linearGradient><clipPath id="clipPath-483879499"><g id="g3401" transform="translate(0,-1004.3622)"><path id="path3403" fill="#1890d0" d="m -24 13 c 0 1.105 -0.672 2 -1.5 2 -0.828 0 -1.5 -0.895 -1.5 -2 0 -1.105 0.672 -2 1.5 -2 0.828 0 1.5 0.895 1.5 2 z" transform="matrix(15.333333,0,0,11.5,414.99999,878.8622)"/></g></clipPath><clipPath id="clipPath-478329641"><g id="g3396" transform="translate(0,-1004.3622)"><path id="path3398" fill="#1890d0" d="m -24 13 c 0 1.105 -0.672 2 -1.5 2 -0.828 0 -1.5 -0.895 -1.5 -2 0 -1.105 0.672 -2 1.5 -2 0.828 0 1.5 0.895 1.5 2 z" transform="matrix(15.333333,0,0,11.5,414.99999,878.8622)"/></g></clipPath><linearGradient id="linearGradient3764-2" x1="1" x2="47" gradientTransform="matrix(0,-1,1,0,-1.5e-6,47.999998)" gradientUnits="userSpaceOnUse"><stop id="stop3391" stop-color="#333" stop-opacity="1"/><stop id="stop3393" offset="1" stop-color="#3d3d3d" stop-opacity="1"/></linearGradient></defs><metadata id="metadata7"/><g id="layer3"><path id="path3842" fill="url(#radialGradient3850)" fill-opacity="1" stroke="none" d="m 45.151344,41.38316 a 21.075672,2.3831596 0 1 1 -42.151344,0 21.075672,2.3831596 0 1 1 42.151344,0 z" opacity=".65" transform="matrix(1.1387537,0,0,1.0490275,-3.4162611,-1.9120725)"/></g><g id="layer1" transform="translate(0,-1004.3622)"><path id="path3029" fill="#1976d2" fill-opacity="1" stroke="none" d="m 3,1014.3622 0,28 42,0 0,-14 -2,-12 -16,0 -2,-4 -20,0 c -1,0 -2,1 -2,2 z"/><rect id="rect3799" width="21" height="8" x="6" y="1017.362" fill="#f2f2f2" fill-opacity="1" stroke="none"/><path id="path3810" fill="#000" fill-opacity="1" stroke="none" d="m 5,1012.3622 c -1,0 -2,1 -2,2 l 0,1 c 0,-1 1,-2 2,-2 l 19,0 2,4 17,0 2,12 0,-1 -2,-12 -16,0 -2,-4 z" opacity=".03"/><path id="rect2987" fill="#5a9be7" fill-opacity="1" stroke="none" d="m 45,1018.3622 0,28 -42,0 0,-26 20,0 2,-4 18,0 c 1,0 2,1 2,2 z"/><path id="path3794" fill="#000" fill-opacity="1" stroke="none" d="m 3,1045.3622 0,1 42,0 0,-1 z" opacity=".15"/><path id="path3801" fill="none" stroke="none" d="m 25,1017.3622 -5,3 3,0 z"/><path id="path3805" fill="#000" fill-opacity="1" stroke="none" d="m 25,1016.3622 -2,4 -20,0 0,1 21,0 2,-4 17,0 c 1,0 2,1 2,2 l 0,-1 c 0,-1 -1,-2 -2,-2 z" opacity=".03"/><g id="g3441" fill="#2a74b9" fill-opacity="1" opacity="1" transform="matrix(0.69228106,0,0,0.69228106,7.3869854,1016.6706)"><g id="g3443" fill="#2a74b9" fill-opacity="1" clip-path="url(#clipPath-483879499)"><g id="g3445" fill="#2a74b9" fill-opacity="1"><path id="path3447" fill="#2a74b9" fill-opacity="1" fill-rule="nonzero" stroke="none" d="m 31.31,12 c -3.129,0 -5.691,2.477 -5.691,5.5 0,3.02 2.566,5.504 5.691,5.504 3.125,0 5.688,-2.48 5.688,-5.504 0,-3.02 -2.563,-5.5 -5.688,-5.5 m 0,1.848 c 2.102,0 3.777,1.621 3.777,3.652 0,2.035 -1.676,3.656 -3.777,3.656 -2.105,0 -3.781,-1.621 -3.781,-3.656 0,-2.031 1.676,-3.652 3.781,-3.652 m 0,0"/><path id="path3449" fill="#2a74b9" fill-opacity="1" fill-rule="nonzero" stroke="none" d="m 33.746,17.496 c 0,1.301 -1.09,2.355 -2.438,2.355 -1.344,0 -2.438,-1.055 -2.438,-2.355 0,-1.305 1.094,-2.359 2.438,-2.359 1.348,0 2.438,1.055 2.438,2.359 m 0,0"/><path id="path3451" fill="#2a74b9" fill-opacity="1" fill-rule="nonzero" stroke="none" d="m 26.434,19.852 0,7.07 4.063,0.785 3.473,-5.867 -3.625,0 m -3.91,-1.992"/><path id="path3453" fill="#2a74b9" fill-opacity="1" fill-rule="nonzero" stroke="none" d="m 27.25,26.14 c -2.23,0 -4.063,1.77 -4.063,3.93 0,2.16 1.832,3.93 4.063,3.93 2.234,0 4.066,-1.77 4.066,-3.93 0,-2.16 -1.832,-3.93 -4.066,-3.93 m 0,1.32 c 1.504,0 2.699,1.156 2.699,2.609 0,1.453 -1.195,2.609 -2.699,2.609 -1.5,0 -2.699,-1.156 -2.699,-2.609 0,-1.453 1.199,-2.609 2.699,-2.609 m 0,0"/><path id="path3455" fill="#2a74b9" fill-opacity="1" fill-rule="nonzero" stroke="none" d="m 15.06,20.637 c -2.23,0 -4.063,1.773 -4.063,3.93 0,2.16 1.832,3.934 4.063,3.934 2.234,0 4.066,-1.773 4.066,-3.934 0,-2.156 -1.832,-3.93 -4.066,-3.93 m -0.008,1.574 c 1.629,0 2.441,0.785 2.441,2.355 0,1.574 -0.813,2.359 -2.441,2.359 -1.625,0 -2.438,-0.785 -2.438,-2.359 0,-1.57 0.813,-2.355 2.438,-2.355 m 0,0"/><path id="path3457" fill="#2a74b9" fill-opacity="1" fill-rule="nonzero" stroke="none" d="m 15.953,23.16 c -0.922,-0.379 -1.984,0.035 -2.375,0.93 -0.391,0.891 0.039,1.922 0.961,2.297 l 12.07,5.25 c 0.922,0.379 1.988,-0.035 2.379,-0.93 0.391,-0.891 -0.039,-1.922 -0.961,-2.297 m -12.08,-5.25"/></g></g></g></g></svg>