<svg xmlns="http://www.w3.org/2000/svg" xmlns:svg="http://www.w3.org/2000/svg" xmlns:xlink="http://www.w3.org/1999/xlink" id="svg2" width="48" height="48" version="1.1"><defs id="defs4"><linearGradient id="linearGradient3844"><stop id="stop3846" offset="0" stop-color="#000" stop-opacity=".392"/><stop id="stop3848" offset="1" stop-color="#000" stop-opacity="0"/></linearGradient><radialGradient id="radialGradient3850" cx="24.076" cy="41.383" r="21.076" fx="24.076" fy="41.383" gradientTransform="matrix(1,0,0,0.11307633,0,36.703704)" gradientUnits="userSpaceOnUse" xlink:href="#linearGradient3844"/></defs><metadata id="metadata7"/><g id="layer3"><path id="path3842" fill="url(#radialGradient3850)" fill-opacity="1" stroke="none" d="m 45.151344,41.38316 a 21.075672,2.3831596 0 1 1 -42.151344,0 21.075672,2.3831596 0 1 1 42.151344,0 z" opacity=".65" transform="matrix(1.1387537,0,0,1.0490275,-3.4162611,-1.9120725)"/></g><g id="layer1" transform="translate(0,-1004.3622)"><path id="path3029" fill="#1976d2" fill-opacity="1" stroke="none" d="m 3,1014.3622 0,28 42,0 0,-14 -2,-12 -16,0 -2,-4 -20,0 c -1,0 -2,1 -2,2 z"/><rect id="rect3799" width="21" height="8" x="6" y="1017.362" fill="#f2f2f2" fill-opacity="1" stroke="none"/><path id="path3810" fill="#000" fill-opacity="1" stroke="none" d="M 5,8 C 4,8 3,9 3,10 l 0,1 C 3,10 4,9 5,9 l 19,0 2,4 17,0 2,12 0,-1 -2,-12 -16,0 -2,-4 z" opacity=".03" transform="translate(0,1004.3622)"/><path id="rect2987" fill="#5a9be7" fill-opacity="1" stroke="none" d="m 45,1018.3622 0,28 -42,0 0,-26 20,0 2,-4 18,0 c 1,0 2,1 2,2 z"/><path id="path3794" fill="#000" fill-opacity="1" stroke="none" d="m 3,1045.3622 0,1 42,0 0,-1 z" opacity=".15"/><path id="path3801" fill="none" fill-opacity="1" stroke="none" stroke-linecap="butt" stroke-linejoin="miter" stroke-opacity="1" stroke-width="1" d="m 25,13 -5,3 3,0 z" transform="translate(0,1004.3622)"/><path id="path3805" fill="#000" fill-opacity="1" stroke="none" d="m 25,12 -2,4 -20,0 0,1 21,0 2,-4 17,0 c 1,0 2,1 2,2 l 0,-1 c 0,-1 -1,-2 -2,-2 z" opacity=".03" transform="translate(0,1004.3622)"/><g id="layer3-1" fill="#2a74b9" fill-opacity="1" opacity="1" transform="matrix(3.5433066,0,0,3.5433066,16,993.3622)"><path id="path53" fill="#2a74b9" fill-opacity="1" fill-rule="nonzero" stroke="none" d="m 2.5400002,13.546668 0,-2.963333 -0.5644445,0 0,2.963333 z M 1.6933336,10.442224 -3.1968253e-7,9.3133348 l 0,2.8222222 L 1.6933336,13.264446 Z m 2.8222227,1.693333 0,-2.8222222 -1.6933337,1.1288412 0,2.822317 z M 4.2333338,9.0311124 C 3.386667,9.0311123 2.8222225,9.3133345 2.257778,9.7837051 1.6933334,9.3133345 1.1288889,9.0311123 0.28222213,9.0311124 l 1.69333357,1.1288886 0.5644445,0 z"/></g></g></svg>