<svg xmlns="http://www.w3.org/2000/svg" xmlns:svg="http://www.w3.org/2000/svg" xmlns:xlink="http://www.w3.org/1999/xlink" id="svg2" width="48" height="48" version="1.1" viewBox="0 0 48 48"><metadata id="metadata20"/><defs id="defs18"><linearGradient id="linearGradient3017" x2="0" y1="279.096" y2="268.33" gradientTransform="matrix(1.10525,0,0,1.10525,-134.27881,-295.76193)" gradientUnits="userSpaceOnUse" xlink:href="#linearGradient4460"/><linearGradient id="linearGradient4460"><stop id="stop3462" offset="0" stop-color="#1b1b1b"/><stop id="stop3464" offset="1" stop-color="#383838"/></linearGradient><linearGradient id="linearGradient3501" x2="0" y1="279.096" y2="268.33" gradientTransform="matrix(3.9162401,0,0,3.9162401,-553.078,-1047.9741)" gradientUnits="userSpaceOnUse" xlink:href="#linearGradient4460"/><radialGradient id="radialGradient3850" cx="24.076" cy="41.383" r="21.076" fx="24.076" fy="41.383" gradientTransform="matrix(1,0,0,0.11307633,0,36.703704)" gradientUnits="userSpaceOnUse" xlink:href="#linearGradient3844"/><linearGradient id="linearGradient3844"><stop id="stop3846" offset="0" stop-color="#000" stop-opacity=".392"/><stop id="stop3848" offset="1" stop-color="#000" stop-opacity="0"/></linearGradient><radialGradient id="radialGradient3064" cx="24.076" cy="41.383" r="21.076" fx="24.076" fy="41.383" gradientTransform="matrix(1,0,0,0.11307633,0,36.703704)" gradientUnits="userSpaceOnUse" xlink:href="#linearGradient3844"/></defs><path id="path3842" fill="url(#radialGradient3064)" fill-opacity="1" stroke="none" d="m 45.151344,41.38316 a 21.075672,2.3831596 0 1 1 -42.151344,0 21.075672,2.3831596 0 1 1 42.151344,0 z" opacity=".65" transform="matrix(1.1387537,0,0,1.0490275,-3.4162611,-1.9120725)"/><path id="path3029-9" fill="#1976d2" fill-opacity="1" stroke="none" d="m 3,10 0,28 42,0 0,-14 -2,-12 -16,0 -2,-4.0000001 -20,0 c -1,0 -2,1 -2,2.0000001 z"/><rect id="rect3799-5" width="21" height="8" x="6" y="13" fill="#f2f2f2" fill-opacity="1" stroke="none"/><path id="path3810-2" fill="#000" fill-opacity="1" stroke="none" d="m 5,7.9999999 c -1,0 -2,1 -2,2.0000001 l 0,1 C 3,10 4,8.9999999 5,8.9999999 l 19,0 L 26,13 43,13 45,25 45,24 43,12 27,12 25,7.9999999 z" opacity=".03"/><path id="rect2987-4" fill="#5a9be7" fill-opacity="1" stroke="none" d="m 45,14 0,28 -42,0 0,-26 20,0 2,-4 18,0 c 1,0 2,1 2,2 z"/><path id="path3794-5" fill="#000" fill-opacity="1" stroke="none" d="m 3,41 0,1 42,0 0,-1 z" opacity=".15"/><path id="path3801-9" fill="none" stroke="none" d="m 25,13 -5,3 3,0 z"/><path id="path3805-9" fill="#000" fill-opacity="1" stroke="none" d="m 25,12 -2,4 -20,0 0,1 21,0 2,-4 17,0 c 1,0 2,1 2,2 l 0,-1 c 0,-1 -1,-2 -2,-2 z" opacity=".03"/><path id="polygon3475-1" fill="#2a74b9" fill-opacity="1" fill-rule="evenodd" d="m 22194,115341 23578.025,-38447.001 87383.975,0 -22193,38447 z" opacity="1" transform="matrix(1.3518142e-4,0,0,1.3004916e-4,14.999784,22)"/><path id="polygon3477-6" fill="#2a74b9" fill-opacity="1" fill-rule="evenodd" d="m 88772,76894 44384,0 L 88772,0 44385,0 z" opacity="1" transform="matrix(1.3243857e-4,0,0,1.3004916e-4,15.36501,21)"/><path id="polygon3479-9" fill="#2a74b9" fill-opacity="1" fill-rule="evenodd" d="M 65365.495,39056.611 44385,0 0,76894 22194,115341 z" opacity="1" transform="matrix(1.4175204e-4,0,0,1.2815554e-4,14,21.60684)"/></svg>