<svg xmlns="http://www.w3.org/2000/svg" xmlns:svg="http://www.w3.org/2000/svg" xmlns:xlink="http://www.w3.org/1999/xlink" id="svg2" width="48" height="48" version="1.1"><defs id="defs4"><linearGradient id="linearGradient3855"><stop id="stop3857" offset="0" stop-color="#000" stop-opacity="1"/><stop id="stop3859" offset="1" stop-color="#000" stop-opacity=".294"/></linearGradient><linearGradient id="linearGradient3833"><stop id="stop3835" offset="0" stop-color="#fdfeff" stop-opacity="1"/><stop id="stop3837" offset="1" stop-color="#dfe4e4" stop-opacity="1"/></linearGradient><linearGradient id="linearGradient3823"><stop id="stop3825" offset="0" stop-color="#49b7ef" stop-opacity="1"/><stop id="stop3827" offset="1" stop-color="#1d8de2" stop-opacity="1"/></linearGradient><linearGradient id="linearGradient3956"><stop id="stop3958" offset="0" stop-color="#f8f4e1" stop-opacity="1"/><stop id="stop3960" offset="1" stop-color="#eae5c8" stop-opacity="1"/></linearGradient><linearGradient id="linearGradient3915"><stop id="stop3917" offset="0" stop-color="#f8f4e1" stop-opacity="1"/><stop id="stop3919" offset="1" stop-color="#ad9e57" stop-opacity="1"/></linearGradient><linearGradient id="linearGradient3861"><stop id="stop3863" offset="0" stop-color="#000" stop-opacity="1"/><stop id="stop3865" offset="1" stop-color="#000" stop-opacity="0"/></linearGradient><linearGradient id="linearGradient3844"><stop id="stop3846" offset="0" stop-color="#000" stop-opacity=".392"/><stop id="stop3848" offset="1" stop-color="#000" stop-opacity="0"/></linearGradient><linearGradient id="linearGradient3810"><stop id="stop3812" offset="0" stop-color="#f2c66f" stop-opacity="1"/><stop id="stop3814" offset="1" stop-color="#fbd68f" stop-opacity="1"/></linearGradient><linearGradient id="linearGradient3816" x1="24" x2="24" y1="1046.362" y2="1014.362" gradientUnits="userSpaceOnUse" xlink:href="#linearGradient3810"/><radialGradient id="radialGradient3850" cx="24.076" cy="41.383" r="21.076" fx="24.076" fy="41.383" gradientTransform="matrix(1,0,0,0.11307633,0,36.703704)" gradientUnits="userSpaceOnUse" xlink:href="#linearGradient3844"/><linearGradient id="linearGradient3856" x1="24" x2="24" y1="1046.362" y2="1014.362" gradientTransform="translate(0,-3)" gradientUnits="userSpaceOnUse" xlink:href="#linearGradient3810"/><linearGradient id="linearGradient3858" x1="24" x2="24" y1="1046.362" y2="1014.362" gradientTransform="translate(0,-1004.3622)" gradientUnits="userSpaceOnUse" xlink:href="#linearGradient3810"/><linearGradient id="linearGradient3867" x1="1.995" x2="46.005" y1="28.563" y2="28.563" gradientUnits="userSpaceOnUse" xlink:href="#linearGradient3861"/><linearGradient id="linearGradient3921" x1="35" x2="38" y1="8" y2="5" gradientUnits="userSpaceOnUse" xlink:href="#linearGradient3915"/><linearGradient id="linearGradient3933" x1="35" x2="38" y1="8" y2="5" gradientTransform="matrix(1.0436562,0,0,1.2222222,26.301501,1003.2511)" gradientUnits="userSpaceOnUse" xlink:href="#linearGradient3915"/><linearGradient id="linearGradient3954" x1="35" x2="44" y1="11" y2="5" gradientTransform="translate(22,1004.3622)" gradientUnits="userSpaceOnUse" xlink:href="#linearGradient3915"/><linearGradient id="linearGradient3829" x1="21" x2="20" y1="14" y2="24" gradientUnits="userSpaceOnUse" xlink:href="#linearGradient3823"/><linearGradient id="linearGradient3839" x1="21" x2="20" y1="14" y2="26" gradientUnits="userSpaceOnUse" xlink:href="#linearGradient3833"/><linearGradient id="linearGradient3862" x1="22" x2="20" y1="15" y2="30" gradientUnits="userSpaceOnUse" xlink:href="#linearGradient3855"/></defs><metadata id="metadata7"/><g id="layer3"><path id="path3842" fill="url(#radialGradient3850)" fill-opacity="1" stroke="none" d="m 45.151344,41.38316 a 21.075672,2.3831596 0 1 1 -42.151344,0 21.075672,2.3831596 0 1 1 42.151344,0 z" opacity=".65" transform="matrix(1.1387537,0,0,1.0490275,-3.4162611,-1.9120725)"/></g><g id="layer1" transform="translate(0,-1004.3622)"><path id="path3029" fill="#1976d2" fill-opacity="1" stroke="none" d="m 3,1014.3622 0,28 42,0 0,-14 -2,-12 -16,0 -2,-4 -20,0 c -1,0 -2,1 -2,2 z"/><rect id="rect3799" width="21" height="8" x="6" y="1017.362" fill="#f2f2f2" fill-opacity="1" stroke="none"/><path id="path3810" fill="#000" fill-opacity="1" stroke="none" d="M 5,8 C 4,8 3,9 3,10 l 0,1 C 3,10 4,9 5,9 l 19,0 2,4 17,0 2,12 0,-1 -2,-12 -16,0 -2,-4 z" opacity=".03" transform="translate(0,1004.3622)"/><path id="rect2987" fill="#5a9be7" fill-opacity="1" stroke="none" d="m 45,1018.3622 0,28 -42,0 0,-26 20,0 2,-4 18,0 c 1,0 2,1 2,2 z"/><path id="path3794" fill="#000" fill-opacity="1" stroke="none" d="m 3,1045.3622 0,1 42,0 0,-1 z" opacity=".15"/><path id="path3801" fill="none" fill-opacity="1" stroke="none" stroke-linecap="butt" stroke-linejoin="miter" stroke-opacity="1" stroke-width="1" d="m 25,13 -5,3 3,0 z" transform="translate(0,1004.3622)"/><path id="path3805" fill="#000" fill-opacity="1" stroke="none" d="m 25,12 -2,4 -20,0 0,1 21,0 2,-4 17,0 c 1,0 2,1 2,2 l 0,-1 c 0,-1 -1,-2 -2,-2 z" opacity=".03" transform="translate(0,1004.3622)"/><path id="rect3408" fill="#2a74b9" fill-opacity="1" stroke="none" d="m 23.261661,1031.3623 0.02213,0 c 0.195324,0 0.35257,0.1783 0.35257,0.3999 l 0,3.5999 c 0,0.2217 -0.157246,0.4001 -0.35257,0.4001 l -0.02213,0 c -0.195324,0 -0.35257,-0.1784 -0.35257,-0.4001 l 0,-3.5999 c 0,-0.2216 0.157246,-0.3999 0.35257,-0.3999 z M 22,1035.8622 a 2.9999998,3.4999968 0 0 1 -3,3.5 2.9999998,3.4999968 0 0 1 -3,-3.5 2.9999998,3.4999968 0 0 1 3,-3.5 2.9999998,3.4999968 0 0 1 3,3.5 z m 4,-4.5 a 4,3.9999966 0 0 1 -4,4 4,3.9999966 0 0 1 -4,-4 4,3.9999966 0 0 1 4,-4 4,3.9999966 0 0 1 4,4 z m 4,1.0001 a 2.9999999,2.9999975 0 0 1 -3,2.9999 2.9999999,2.9999975 0 0 1 -3,-2.9999 2.9999999,2.9999975 0 0 1 3,-3.0001 2.9999999,2.9999975 0 0 1 3,3.0001 z m 2,3.9999 a 2.9999998,2.9999975 0 0 1 -3,3 2.9999998,2.9999975 0 0 1 -3,-3 2.9999998,2.9999975 0 0 1 3,-3 2.9999998,2.9999975 0 0 1 3,3 z m -13.090909,-4.6 9.818182,0 0,7.6 -9.818182,0 z" opacity="1"/></g></svg>