<svg xmlns="http://www.w3.org/2000/svg" xmlns:svg="http://www.w3.org/2000/svg" id="svg2" width="48" height="48" version="1.1" viewBox="0 0 48 48"><metadata id="metadata22"/><path id="path4" fill="#268bd2" d="M 6 46 L 42 46 C 46 46 46 46 46 42 L 46 16 L 24 2 L 2 16 L 2 42 C 2 46 2 46 6 46 Z"/><path id="path6" fill="#000" fill-opacity=".102" d="M 6 46 L 42 46 C 46 46 46 46 46 42 L 46 16 L 24 2 L 2 16 L 2 42 C 2 46 2 46 6 46 Z"/><path id="path4152" fill="#ffee3a" fill-opacity="1" fill-rule="evenodd" d="m 34.739933,23.720598 11.528356,-9.222684 c 2.312222,-2.312221 2.305671,-2.305672 0,-4.6113426 L 34.739933,0.66388705 c -1.604798,-1.287114 -1.604798,-0.80895 -1.604798,2.37444795 -0.03275,1.152835 -0.07205,2.446501 0,4.1233524 -0.0262,0 0.0262,0 0,0 -11.456304,0 -16.84057,7.3362266 -16.768517,16.6309626 4.539289,-4.683394 9.851503,-6.713957 16.768517,-6.569853 0,1.650651 -0.03275,2.24017 0,3.353704 0,1.676851 0,4.283832 1.604798,3.144097 z"/><g id="g10" fill="#268bd2"><path id="path12" d="M 6 46 L 42 46 C 46 46 46 46 46 42 L 46 18 L 2 42 C 2 46 2 46 6 46 Z"/><path id="path14" d="M 42 46 L 6 46 C 2 46 2 46 2 42 L 2 18 L 46 42 C 46 46 46 46 42 46 Z"/></g><path id="path16" fill="#fff" fill-opacity=".102" d="M 42 46 L 6 46 C 2 46 2 46 2 42 L 2 18 L 46 42 C 46 46 46 46 42 46 Z"/></svg>