<svg xmlns="http://www.w3.org/2000/svg" xmlns:svg="http://www.w3.org/2000/svg" id="svg2" width="48" height="48" version="1.1" viewBox="0 0 48 48"><metadata id="metadata22"/><path id="path4" fill="#268bd2" d="M 6 46 L 42 46 C 46 46 46 46 46 42 L 46 16 L 24 2 L 2 16 L 2 42 C 2 46 2 46 6 46 Z"/><path id="path6" fill="#000" fill-opacity=".102" d="M 6 46 L 42 46 C 46 46 46 46 46 42 L 46 16 L 24 2 L 2 16 L 2 42 C 2 46 2 46 6 46 Z"/><path id="path4152" fill="#859900" fill-rule="evenodd" d="m 12.279402,18.374029 9.222684,11.528356 c 2.312221,2.312222 2.305672,2.305671 4.611343,0 l 9.222684,-11.528356 c 1.287114,-1.604798 0.80895,-1.604798 -2.374448,-1.604798 -1.152835,-0.03275 -2.446501,-0.07205 -4.123352,0 0,-0.0262 0,0.0262 0,0 C 28.838313,5.3129271 21.502086,-0.07133927 12.20735,7.1343466e-4 16.890744,4.5400031 18.921307,9.8522166 18.777203,16.769231 c -1.650651,0 -2.24017,-0.03275 -3.353704,0 -1.676851,0 -4.283832,0 -3.144097,1.604798 z"/><g id="g10" fill="#268bd2"><path id="path12" d="M 6 46 L 42 46 C 46 46 46 46 46 42 L 46 18 L 2 42 C 2 46 2 46 6 46 Z"/><path id="path14" d="M 42 46 L 6 46 C 2 46 2 46 2 42 L 2 18 L 46 42 C 46 46 46 46 42 46 Z"/></g><path id="path16" fill="#fff" fill-opacity=".102" d="M 42 46 L 6 46 C 2 46 2 46 2 42 L 2 18 L 46 42 C 46 46 46 46 42 46 Z"/></svg>