<svg xmlns="http://www.w3.org/2000/svg" xmlns:svg="http://www.w3.org/2000/svg" id="svg2" width="48" height="48" version="1.1" viewBox="0 0 48 48"><metadata id="metadata10"/><rect id="rect6106-8-61-2" width="2.782" height="8.346" x="19.283" y="-21.226" fill="#a9bacc" fill-opacity="1" color="#bebebe" opacity="1" ry="0" transform="scale(1,-1)"/><path id="path6104" fill="#a9bacc" fill-opacity="1" d="m 10.412498,40.701095 c -3.9036957,0 -3.9036957,0 -3.9036957,-2.782136 l 0,-27.821369 c 0,-2.7821366 0,-2.7821366 3.9036957,-2.7821366 l 28.627098,0 c 3.903697,0 3.903697,0 3.903697,2.7821366 l 0,27.821369 c 0,2.782136 0,2.782136 -3.903697,2.782136 z m 3.859586,-8.346411 2.602462,0 0,5.564275 15.703001,0 0,-5.564275 2.602463,0 0,-5.564273 5.204928,0 0,-13.910683 c 0,-2.782138 0,-2.782138 -1.301231,-2.782138 l -28.715319,0 c -1.3012319,0 -1.3012319,0 -1.3012319,2.782138 l 0,13.910683 5.2049279,0 z" color="#bebebe"/><rect id="rect6106-8-61-1-3" width="2.782" height="8.346" x="27.63" y="-21.226" fill="#a9bacc" fill-opacity="1" color="#bebebe" opacity="1" ry="0" transform="scale(1,-1)"/></svg>