<svg xmlns="http://www.w3.org/2000/svg" xmlns:svg="http://www.w3.org/2000/svg" xmlns:xlink="http://www.w3.org/1999/xlink" id="svg2" width="96" height="96" version="1.1"><defs id="defs4"><linearGradient id="linearGradient3844"><stop id="stop3846" offset="0" stop-color="#000" stop-opacity=".392"/><stop id="stop3848" offset="1" stop-color="#000" stop-opacity="0"/></linearGradient><radialGradient id="radialGradient3850" cx="24.076" cy="41.383" r="21.076" fx="24.076" fy="41.383" gradientTransform="matrix(1,0,0,0.11307633,0,36.703704)" gradientUnits="userSpaceOnUse" xlink:href="#linearGradient3844"/></defs><metadata id="metadata7"/><g id="layer3" transform="translate(0,48)"><path id="path3842" fill="url(#radialGradient3850)" fill-opacity="1" stroke="none" d="M 45.151344,41.38316 A 21.075672,2.3831596 0 0 1 24.075672,43.766319 21.075672,2.3831596 0 0 1 3,41.38316 21.075672,2.3831596 0 0 1 24.075672,39 21.075672,2.3831596 0 0 1 45.151344,41.38316 Z" opacity=".65" transform="matrix(1.992819,0,0,2.098055,0.0215431,-53.824145)"/></g><g id="layer1" transform="translate(0,-956.3622)"><path id="path3029" fill="#1976d2" fill-opacity="1" stroke="none" d="m 6,974.3622 0,56 84,0 0,-28 -4,-24 -32,0 -4,-8 -40,0 c -2,0 -4,2 -4,4 z"/><rect id="rect3799" width="42" height="16" x="12" y="980.362" fill="#f2f2f2" fill-opacity="1" stroke="none"/><path id="path3810" fill="#000" fill-opacity="1" stroke="none" d="m 10,970.3622 c -2,0 -4,2 -4,4 l 0,2 c 0,-2 2,-4 4,-4 l 38,0 4,8 34,0 4,24 0,-2 -4,-24 -32,0 -4,-8 z" opacity=".03"/><path id="rect2987" fill="#5a9be7" fill-opacity="1" stroke="none" d="m 90,982.3622 0,56 -84,0 0,-52 40,0 4,-8 36,0 c 2,0 4,2 4,4 z"/><path id="path3794" fill="#000" fill-opacity="1" stroke="none" d="m 6,1036.3622 0,2 84,0 0,-2 z" opacity=".15"/><path id="path3801" fill="none" stroke="none" d="m 50,980.3622 -10,6 6,0 z"/><path id="path3805" fill="#000" fill-opacity="1" stroke="none" d="m 50,978.3622 -4,8 -40,0 0,2 42,0 4,-8 34,0 c 2,0 4,2 4,4 l 0,-2 c 0,-2 -2,-4 -4,-4 z" opacity=".03"/><g id="layer3-1" fill="#2a74b9" fill-opacity="1" opacity="1" transform="matrix(7.0866141,0,0,7.0866141,31.999999,932.36219)"><path id="path53" fill="#2a74b9" fill-opacity="1" fill-rule="nonzero" stroke="none" d="m 2.5400002,13.546668 0,-3.104444 -0.5644445,0 0,3.104444 z M 1.6933336,10.301113 -3.1968253e-7,9.1722236 l 0,2.9633334 L 1.6933336,13.264446 Z m 2.8222227,1.834444 0,-2.9633334 -1.6933337,1.1288414 0,2.963428 z M 4.2333338,9.0311124 C 3.386667,9.0311123 2.8222225,9.3133345 2.257778,9.7837051 1.6933334,9.3133345 1.1288889,9.0311123 0.28222213,9.0311124 l 1.69333357,1.1288886 0.5644445,0 z"/></g></g></svg>