<svg xmlns="http://www.w3.org/2000/svg" xmlns:svg="http://www.w3.org/2000/svg" xmlns:xlink="http://www.w3.org/1999/xlink" id="svg2" width="96" height="96" version="1.1"><defs id="defs4"><linearGradient id="linearGradient3855"><stop id="stop3857" offset="0" stop-color="#000" stop-opacity="1"/><stop id="stop3859" offset="1" stop-color="#000" stop-opacity=".294"/></linearGradient><linearGradient id="linearGradient3833"><stop id="stop3835" offset="0" stop-color="#fdfeff" stop-opacity="1"/><stop id="stop3837" offset="1" stop-color="#dfe4e4" stop-opacity="1"/></linearGradient><linearGradient id="linearGradient3823"><stop id="stop3825" offset="0" stop-color="#49b7ef" stop-opacity="1"/><stop id="stop3827" offset="1" stop-color="#1d8de2" stop-opacity="1"/></linearGradient><linearGradient id="linearGradient3956"><stop id="stop3958" offset="0" stop-color="#f8f4e1" stop-opacity="1"/><stop id="stop3960" offset="1" stop-color="#eae5c8" stop-opacity="1"/></linearGradient><linearGradient id="linearGradient3915"><stop id="stop3917" offset="0" stop-color="#f8f4e1" stop-opacity="1"/><stop id="stop3919" offset="1" stop-color="#ad9e57" stop-opacity="1"/></linearGradient><linearGradient id="linearGradient3861"><stop id="stop3863" offset="0" stop-color="#000" stop-opacity="1"/><stop id="stop3865" offset="1" stop-color="#000" stop-opacity="0"/></linearGradient><linearGradient id="linearGradient3844"><stop id="stop3846" offset="0" stop-color="#000" stop-opacity=".392"/><stop id="stop3848" offset="1" stop-color="#000" stop-opacity="0"/></linearGradient><linearGradient id="linearGradient3810"><stop id="stop3812" offset="0" stop-color="#f2c66f" stop-opacity="1"/><stop id="stop3814" offset="1" stop-color="#fbd68f" stop-opacity="1"/></linearGradient><linearGradient id="linearGradient3816" x1="24" x2="24" y1="1046.362" y2="1014.362" gradientUnits="userSpaceOnUse" xlink:href="#linearGradient3810"/><radialGradient id="radialGradient3850" cx="24.076" cy="41.383" r="21.076" fx="24.076" fy="41.383" gradientTransform="matrix(1,0,0,0.11307633,0,36.703704)" gradientUnits="userSpaceOnUse" xlink:href="#linearGradient3844"/><linearGradient id="linearGradient3856" x1="24" x2="24" y1="1046.362" y2="1014.362" gradientTransform="translate(0,-3)" gradientUnits="userSpaceOnUse" xlink:href="#linearGradient3810"/><linearGradient id="linearGradient3858" x1="24" x2="24" y1="1046.362" y2="1014.362" gradientTransform="translate(0,-1004.3622)" gradientUnits="userSpaceOnUse" xlink:href="#linearGradient3810"/><linearGradient id="linearGradient3867" x1="1.995" x2="46.005" y1="28.563" y2="28.563" gradientUnits="userSpaceOnUse" xlink:href="#linearGradient3861"/><linearGradient id="linearGradient3921" x1="35" x2="38" y1="8" y2="5" gradientUnits="userSpaceOnUse" xlink:href="#linearGradient3915"/><linearGradient id="linearGradient3933" x1="35" x2="38" y1="8" y2="5" gradientTransform="matrix(1.0436562,0,0,1.2222222,26.301501,1003.2511)" gradientUnits="userSpaceOnUse" xlink:href="#linearGradient3915"/><linearGradient id="linearGradient3954" x1="35" x2="44" y1="11" y2="5" gradientTransform="translate(22,1004.3622)" gradientUnits="userSpaceOnUse" xlink:href="#linearGradient3915"/><linearGradient id="linearGradient3829" x1="21" x2="20" y1="14" y2="24" gradientUnits="userSpaceOnUse" xlink:href="#linearGradient3823"/><linearGradient id="linearGradient3839" x1="21" x2="20" y1="14" y2="26" gradientUnits="userSpaceOnUse" xlink:href="#linearGradient3833"/><linearGradient id="linearGradient3862" x1="22" x2="20" y1="15" y2="30" gradientUnits="userSpaceOnUse" xlink:href="#linearGradient3855"/><linearGradient id="linearGradient3862-1" x1="22" x2="20" y1="15" y2="30" gradientUnits="userSpaceOnUse" xlink:href="#linearGradient3855-6"/><linearGradient id="linearGradient3839-6" x1="21" x2="20" y1="14" y2="26" gradientUnits="userSpaceOnUse" xlink:href="#linearGradient3833-9"/><linearGradient id="linearGradient3829-2" x1="21" x2="20" y1="14" y2="24" gradientUnits="userSpaceOnUse" xlink:href="#linearGradient3823-9"/><linearGradient id="linearGradient3954-2" x1="35" x2="44" y1="11" y2="5" gradientTransform="translate(22,1004.3622)" gradientUnits="userSpaceOnUse" xlink:href="#linearGradient3915-8"/><linearGradient id="linearGradient3933-6" x1="35" x2="38" y1="8" y2="5" gradientTransform="matrix(1.0436562,0,0,1.2222222,26.301501,1003.2511)" gradientUnits="userSpaceOnUse" xlink:href="#linearGradient3915-8"/><linearGradient id="linearGradient3921-3" x1="35" x2="38" y1="8" y2="5" gradientUnits="userSpaceOnUse" xlink:href="#linearGradient3915-8"/><linearGradient id="linearGradient3867-4" x1="1.995" x2="46.005" y1="28.563" y2="28.563" gradientUnits="userSpaceOnUse" xlink:href="#linearGradient3861-5"/><linearGradient id="linearGradient3858-0" x1="24" x2="24" y1="1046.362" y2="1014.362" gradientTransform="translate(0,-1004.3622)" gradientUnits="userSpaceOnUse" xlink:href="#linearGradient3810-7"/><linearGradient id="linearGradient3856-1" x1="24" x2="24" y1="1046.362" y2="1014.362" gradientTransform="translate(0,-3)" gradientUnits="userSpaceOnUse" xlink:href="#linearGradient3810-7"/><linearGradient id="linearGradient3816-1" x1="24" x2="24" y1="1046.362" y2="1014.362" gradientUnits="userSpaceOnUse" xlink:href="#linearGradient3810-7"/><linearGradient id="linearGradient3810-7"><stop id="stop3812-0" offset="0" stop-color="#f2c66f" stop-opacity="1"/><stop id="stop3814-5" offset="1" stop-color="#fbd68f" stop-opacity="1"/></linearGradient><linearGradient id="linearGradient3844-2"><stop id="stop3846-6" offset="0" stop-color="#000" stop-opacity=".392"/><stop id="stop3848-5" offset="1" stop-color="#000" stop-opacity="0"/></linearGradient><linearGradient id="linearGradient3861-5"><stop id="stop3863-4" offset="0" stop-color="#000" stop-opacity="1"/><stop id="stop3865-0" offset="1" stop-color="#000" stop-opacity="0"/></linearGradient><linearGradient id="linearGradient3915-8"><stop id="stop3917-9" offset="0" stop-color="#f8f4e1" stop-opacity="1"/><stop id="stop3919-7" offset="1" stop-color="#ad9e57" stop-opacity="1"/></linearGradient><linearGradient id="linearGradient3956-6"><stop id="stop3958-9" offset="0" stop-color="#f8f4e1" stop-opacity="1"/><stop id="stop3960-2" offset="1" stop-color="#eae5c8" stop-opacity="1"/></linearGradient><linearGradient id="linearGradient3823-9"><stop id="stop3825-4" offset="0" stop-color="#49b7ef" stop-opacity="1"/><stop id="stop3827-0" offset="1" stop-color="#1d8de2" stop-opacity="1"/></linearGradient><linearGradient id="linearGradient3833-9"><stop id="stop3835-8" offset="0" stop-color="#fdfeff" stop-opacity="1"/><stop id="stop3837-6" offset="1" stop-color="#dfe4e4" stop-opacity="1"/></linearGradient><linearGradient id="linearGradient3855-6"><stop id="stop3857-9" offset="0" stop-color="#000" stop-opacity="1"/><stop id="stop3859-8" offset="1" stop-color="#000" stop-opacity=".294"/></linearGradient><linearGradient id="linearGradient3862-0" x1="22" x2="20" y1="15" y2="30" gradientUnits="userSpaceOnUse" xlink:href="#linearGradient3855-8"/><linearGradient id="linearGradient3839-2" x1="21" x2="20" y1="14" y2="26" gradientUnits="userSpaceOnUse" xlink:href="#linearGradient3833-3"/><linearGradient id="linearGradient3829-4" x1="21" x2="20" y1="14" y2="24" gradientUnits="userSpaceOnUse" xlink:href="#linearGradient3823-7"/><linearGradient id="linearGradient3954-1" x1="35" x2="44" y1="11" y2="5" gradientTransform="translate(22,1004.3622)" gradientUnits="userSpaceOnUse" xlink:href="#linearGradient3915-7"/><linearGradient id="linearGradient3933-7" x1="35" x2="38" y1="8" y2="5" gradientTransform="matrix(1.0436562,0,0,1.2222222,26.301501,1003.2511)" gradientUnits="userSpaceOnUse" xlink:href="#linearGradient3915-7"/><linearGradient id="linearGradient3921-8" x1="35" x2="38" y1="8" y2="5" gradientUnits="userSpaceOnUse" xlink:href="#linearGradient3915-7"/><linearGradient id="linearGradient3867-5" x1="1.995" x2="46.005" y1="28.563" y2="28.563" gradientUnits="userSpaceOnUse" xlink:href="#linearGradient3861-8"/><linearGradient id="linearGradient3858-08" x1="24" x2="24" y1="1046.362" y2="1014.362" gradientTransform="translate(0,-1004.3622)" gradientUnits="userSpaceOnUse" xlink:href="#linearGradient3810-2"/><linearGradient id="linearGradient3856-14" x1="24" x2="24" y1="1046.362" y2="1014.362" gradientTransform="translate(0,-3)" gradientUnits="userSpaceOnUse" xlink:href="#linearGradient3810-2"/><radialGradient id="radialGradient3850-9" cx="24.076" cy="41.383" r="21.076" fx="24.076" fy="41.383" gradientTransform="matrix(1,0,0,0.11307633,0,36.703704)" gradientUnits="userSpaceOnUse" xlink:href="#linearGradient3844-6"/><linearGradient id="linearGradient3816-7" x1="24" x2="24" y1="1046.362" y2="1014.362" gradientUnits="userSpaceOnUse" xlink:href="#linearGradient3810-2"/><linearGradient id="linearGradient3810-2"><stop id="stop3812-5" offset="0" stop-color="#f2c66f" stop-opacity="1"/><stop id="stop3814-3" offset="1" stop-color="#fbd68f" stop-opacity="1"/></linearGradient><linearGradient id="linearGradient3844-6"><stop id="stop3846-4" offset="0" stop-color="#000" stop-opacity=".392"/><stop id="stop3848-9" offset="1" stop-color="#000" stop-opacity="0"/></linearGradient><linearGradient id="linearGradient3861-8"><stop id="stop3863-0" offset="0" stop-color="#000" stop-opacity="1"/><stop id="stop3865-5" offset="1" stop-color="#000" stop-opacity="0"/></linearGradient><linearGradient id="linearGradient3915-7"><stop id="stop3917-6" offset="0" stop-color="#f8f4e1" stop-opacity="1"/><stop id="stop3919-2" offset="1" stop-color="#ad9e57" stop-opacity="1"/></linearGradient><linearGradient id="linearGradient3956-4"><stop id="stop3958-1" offset="0" stop-color="#f8f4e1" stop-opacity="1"/><stop id="stop3960-1" offset="1" stop-color="#eae5c8" stop-opacity="1"/></linearGradient><linearGradient id="linearGradient3823-7"><stop id="stop3825-9" offset="0" stop-color="#49b7ef" stop-opacity="1"/><stop id="stop3827-3" offset="1" stop-color="#1d8de2" stop-opacity="1"/></linearGradient><linearGradient id="linearGradient3833-3"><stop id="stop3835-3" offset="0" stop-color="#fdfeff" stop-opacity="1"/><stop id="stop3837-8" offset="1" stop-color="#dfe4e4" stop-opacity="1"/></linearGradient><linearGradient id="linearGradient3855-8"><stop id="stop3857-8" offset="0" stop-color="#000" stop-opacity="1"/><stop id="stop3859-6" offset="1" stop-color="#000" stop-opacity=".294"/></linearGradient></defs><metadata id="metadata7"/><g id="layer3" transform="translate(0,48)"><path id="path3842" fill="url(#radialGradient3850)" fill-opacity="1" stroke="none" d="m 45.151344,41.38316 a 21.075672,2.3831596 0 1 1 -42.151344,0 21.075672,2.3831596 0 1 1 42.151344,0 z" opacity=".65" transform="matrix(1.992819,0,0,2.098055,0.0215431,-53.824145)"/></g><g id="layer1" transform="translate(0,-956.3622)"><g id="layer1-6" transform="matrix(2,0,0,2,0,-1054.3622)"><path id="path3029" fill="#1976d2" fill-opacity="1" stroke="none" d="m 3,1014.3622 0,28 42,0 0,-14 -2,-12 -16,0 -2,-4 -20,0 c -1,0 -2,1 -2,2 z"/><rect id="rect3799" width="21" height="8" x="6" y="1017.362" fill="#f2f2f2" fill-opacity="1" stroke="none"/><path id="path3810" fill="#000" fill-opacity="1" stroke="none" d="M 5,8 C 4,8 3,9 3,10 l 0,1 C 3,10 4,9 5,9 l 19,0 2,4 17,0 2,12 0,-1 -2,-12 -16,0 -2,-4 z" opacity=".03" transform="translate(0,1004.3622)"/><path id="rect2987" fill="#5a9be7" fill-opacity="1" stroke="none" d="m 45,1018.3622 0,28 -42,0 0,-26 20,0 2,-4 18,0 c 1,0 2,1 2,2 z"/><path id="path3794" fill="#000" fill-opacity="1" stroke="none" d="m 3,1045.3622 0,1 42,0 0,-1 z" opacity=".15"/><path id="path3801" fill="none" stroke="none" d="m 25,13 -5,3 3,0 z" transform="translate(0,1004.3622)"/><path id="path3805" fill="#000" fill-opacity="1" stroke="none" d="m 25,12 -2,4 -20,0 0,1 21,0 2,-4 17,0 c 1,0 2,1 2,2 l 0,-1 c 0,-1 -1,-2 -2,-2 z" opacity=".03" transform="translate(0,1004.3622)"/><path style="line-height:normal" id="path4156" fill="#2a74b9" fill-opacity="1" d="m 30.376129,1026.9793 c -2.165149,-2.1659 -5.665988,-2.1524 -7.831143,0.016 -1.841065,1.8416 -2.116968,4.6448 -0.829968,6.7756 l -5.341244,5.3431 c -0.498365,0.4985 -0.498365,1.2958 0,1.7943 l 0.08032,0.08 c 0.498366,0.4986 1.295435,0.4986 1.793801,0 l 5.341244,-5.343 c 2.13308,1.2904 4.94593,1.0249 6.786994,-0.8168 2.165156,-2.1657 2.165153,-5.6812 0,-7.847 z m -1.218176,1.2184 c 1.489202,1.4898 1.489187,3.9204 0,5.4099 -1.475261,1.4758 -3.862336,1.4752 -5.354628,0.027 l -0.04017,-0.04 c -0.01332,-0.016 -0.02712,-0.027 -0.04017,-0.041 -1.44964,-1.4924 -1.435761,-3.8667 0.04017,-5.3428 1.489186,-1.4899 3.905589,-1.5033 5.39479,-0.016 z" color="#000" opacity="1"/></g></g></svg>