<svg xmlns="http://www.w3.org/2000/svg" xmlns:svg="http://www.w3.org/2000/svg" xmlns:xlink="http://www.w3.org/1999/xlink" id="svg2" width="96" height="96" version="1.1"><defs id="defs4"><linearGradient id="linearGradient3855"><stop id="stop3857" offset="0" stop-color="#000" stop-opacity="1"/><stop id="stop3859" offset="1" stop-color="#000" stop-opacity=".294"/></linearGradient><linearGradient id="linearGradient3833"><stop id="stop3835" offset="0" stop-color="#fdfeff" stop-opacity="1"/><stop id="stop3837" offset="1" stop-color="#dfe4e4" stop-opacity="1"/></linearGradient><linearGradient id="linearGradient3823"><stop id="stop3825" offset="0" stop-color="#49b7ef" stop-opacity="1"/><stop id="stop3827" offset="1" stop-color="#1d8de2" stop-opacity="1"/></linearGradient><linearGradient id="linearGradient3956"><stop id="stop3958" offset="0" stop-color="#f8f4e1" stop-opacity="1"/><stop id="stop3960" offset="1" stop-color="#eae5c8" stop-opacity="1"/></linearGradient><linearGradient id="linearGradient3915"><stop id="stop3917" offset="0" stop-color="#f8f4e1" stop-opacity="1"/><stop id="stop3919" offset="1" stop-color="#ad9e57" stop-opacity="1"/></linearGradient><linearGradient id="linearGradient3861"><stop id="stop3863" offset="0" stop-color="#000" stop-opacity="1"/><stop id="stop3865" offset="1" stop-color="#000" stop-opacity="0"/></linearGradient><linearGradient id="linearGradient3844"><stop id="stop3846" offset="0" stop-color="#000" stop-opacity=".392"/><stop id="stop3848" offset="1" stop-color="#000" stop-opacity="0"/></linearGradient><linearGradient id="linearGradient3810"><stop id="stop3812" offset="0" stop-color="#f2c66f" stop-opacity="1"/><stop id="stop3814" offset="1" stop-color="#fbd68f" stop-opacity="1"/></linearGradient><linearGradient id="linearGradient3816" x1="24" x2="24" y1="1046.362" y2="1014.362" gradientUnits="userSpaceOnUse" xlink:href="#linearGradient3810"/><radialGradient id="radialGradient3850" cx="24.076" cy="41.383" r="21.076" fx="24.076" fy="41.383" gradientTransform="matrix(1,0,0,0.11307633,0,36.703704)" gradientUnits="userSpaceOnUse" xlink:href="#linearGradient3844"/><linearGradient id="linearGradient3856" x1="24" x2="24" y1="1046.362" y2="1014.362" gradientTransform="translate(0,-3)" gradientUnits="userSpaceOnUse" xlink:href="#linearGradient3810"/><linearGradient id="linearGradient3858" x1="24" x2="24" y1="1046.362" y2="1014.362" gradientTransform="translate(0,-1004.3622)" gradientUnits="userSpaceOnUse" xlink:href="#linearGradient3810"/><linearGradient id="linearGradient3867" x1="1.995" x2="46.005" y1="28.563" y2="28.563" gradientUnits="userSpaceOnUse" xlink:href="#linearGradient3861"/><linearGradient id="linearGradient3921" x1="35" x2="38" y1="8" y2="5" gradientUnits="userSpaceOnUse" xlink:href="#linearGradient3915"/><linearGradient id="linearGradient3933" x1="35" x2="38" y1="8" y2="5" gradientTransform="matrix(1.0436562,0,0,1.2222222,26.301501,1003.2511)" gradientUnits="userSpaceOnUse" xlink:href="#linearGradient3915"/><linearGradient id="linearGradient3954" x1="35" x2="44" y1="11" y2="5" gradientTransform="translate(22,1004.3622)" gradientUnits="userSpaceOnUse" xlink:href="#linearGradient3915"/><linearGradient id="linearGradient3829" x1="21" x2="20" y1="14" y2="24" gradientUnits="userSpaceOnUse" xlink:href="#linearGradient3823"/><linearGradient id="linearGradient3839" x1="21" x2="20" y1="14" y2="26" gradientUnits="userSpaceOnUse" xlink:href="#linearGradient3833"/><linearGradient id="linearGradient3862" x1="22" x2="20" y1="15" y2="30" gradientUnits="userSpaceOnUse" xlink:href="#linearGradient3855"/><clipPath id="clipPath-069049578"><g id="g3352" transform="translate(0,-1004.3622)"><path id="path3354" fill="#1890d0" d="m -24,13 c 0,1.105 -0.672,2 -1.5,2 -0.828,0 -1.5,-0.895 -1.5,-2 0,-1.105 0.672,-2 1.5,-2 0.828,0 1.5,0.895 1.5,2 z" transform="matrix(15.333333,0,0,11.5,414.99999,878.8622)"/></g></clipPath><clipPath id="clipPath-059275953"><g id="g3347" transform="translate(0,-1004.3622)"><path id="path3349" fill="#1890d0" d="m -24,13 c 0,1.105 -0.672,2 -1.5,2 -0.828,0 -1.5,-0.895 -1.5,-2 0,-1.105 0.672,-2 1.5,-2 0.828,0 1.5,0.895 1.5,2 z" transform="matrix(15.333333,0,0,11.5,414.99999,878.8622)"/></g></clipPath><linearGradient id="linearGradient3764" x1="1" x2="47" gradientTransform="matrix(0,-1,1,0,-1.5e-6,47.999998)" gradientUnits="userSpaceOnUse"><stop id="stop3342" stop-color="#d6740a" stop-opacity="1"/><stop id="stop3344" offset="1" stop-color="#e87e0b" stop-opacity="1"/></linearGradient></defs><metadata id="metadata7"/><g id="layer3" transform="translate(0,48)"><path id="path3842" fill="url(#radialGradient3850)" fill-opacity="1" stroke="none" d="m 45.151344,41.38316 c 0,1.316182 -9.4359,2.383159 -21.075672,2.383159 C 12.4359,43.766319 3,42.699342 3,41.38316 3,40.066977 12.4359,39 24.075672,39 c 11.639772,0 21.075672,1.066977 21.075672,2.38316 z" opacity=".65" transform="matrix(2.2775074,0,0,2.098055,-6.8325223,-53.824146)"/></g><g id="layer1" transform="translate(0,-956.3622)"><path id="path3029" fill="#1976d2" fill-opacity="1" stroke="none" d="m 6.0000001,974.3622 0,56 84.0000009,0 0,-28 -4,-24 -32,0 -4,-8 -40.000001,0 c -1.9999999,0 -3.9999999,2 -3.9999999,4 z"/><rect id="rect3799" width="42" height="16" x="12" y="980.362" fill="#f2f2f2" fill-opacity="1" stroke="none"/><path id="path3810" fill="#000" fill-opacity="1" stroke="none" d="m 10,970.3622 c -1.9999999,0 -3.9999999,2 -3.9999999,4 l 0,2 c 0,-2 2,-4 3.9999999,-4 l 38.000001,0 4,8 34,0 4,24 0,-2 -4,-24 -32,0 -4,-8 z" opacity=".03"/><path id="rect2987" fill="#5a9be7" fill-opacity="1" stroke="none" d="m 90.000001,982.3622 0,56 -84.0000009,0 0,-52 40.0000009,0 4,-8 36,0 c 2,0 4,2 4,4 z"/><path id="path3794" fill="#000" fill-opacity="1" stroke="none" d="m 6.0000001,1036.3622 0,2 84.0000009,0 0,-2 z" opacity=".15"/><path id="path3801" fill="none" stroke="none" d="m 50.000001,980.3622 -10,6 6,0 z"/><path id="path3805" fill="#000" fill-opacity="1" stroke="none" d="m 50.000001,978.3622 -4,8 -40.0000009,0 0,2 42.0000009,0 4,-8 34,0 c 2,0 4,2 4,4 l 0,-2 c 0,-2 -2,-4 -4,-4 z" opacity=".03"/><path id="path3392" fill="#2a74b9" fill-opacity="1" fill-rule="nonzero" stroke="none" d="m 42.112603,1023.563 c -0.07876,2.7924 -2.408602,4.9922 -5.201514,4.9116 -2.794248,-0.084 -4.993351,-2.4098 -4.910617,-5.201 0.07874,-2.7922 2.408605,-4.9924 5.201517,-4.9114 2.794248,0.084 4.993348,2.41 4.910614,5.2008 m 0,0" opacity="1"/><path id="path3394" fill="#2a74b9" fill-opacity="1" fill-rule="nonzero" stroke="none" d="M 54.000001,1028.3542 C 53.681137,1015.3098 41.106897,1007.2884 32,1006.3622 l 0,6 c 7.331537,0.6028 15.918241,7.4374 16.000001,15.992" opacity="1"/><path id="path3396" fill="#2a74b9" fill-opacity="1" fill-rule="nonzero" stroke="none" d="m 64.000001,1028.3622 c 0,-19.2086 -17.250182,-31.392 -32.000001,-32 l 0,6 c 13.528869,1.4938 26.053573,12.5534 26.000001,26" opacity="1"/></g></svg>