<svg xmlns="http://www.w3.org/2000/svg" xmlns:svg="http://www.w3.org/2000/svg" xmlns:xlink="http://www.w3.org/1999/xlink" id="svg2" width="96" height="96" version="1.1"><defs id="defs4"><linearGradient id="linearGradient3855"><stop id="stop3857" offset="0" stop-color="#000" stop-opacity="1"/><stop id="stop3859" offset="1" stop-color="#000" stop-opacity=".294"/></linearGradient><linearGradient id="linearGradient3833"><stop id="stop3835" offset="0" stop-color="#fdfeff" stop-opacity="1"/><stop id="stop3837" offset="1" stop-color="#dfe4e4" stop-opacity="1"/></linearGradient><linearGradient id="linearGradient3823"><stop id="stop3825" offset="0" stop-color="#49b7ef" stop-opacity="1"/><stop id="stop3827" offset="1" stop-color="#1d8de2" stop-opacity="1"/></linearGradient><linearGradient id="linearGradient3956"><stop id="stop3958" offset="0" stop-color="#f8f4e1" stop-opacity="1"/><stop id="stop3960" offset="1" stop-color="#eae5c8" stop-opacity="1"/></linearGradient><linearGradient id="linearGradient3915"><stop id="stop3917" offset="0" stop-color="#f8f4e1" stop-opacity="1"/><stop id="stop3919" offset="1" stop-color="#ad9e57" stop-opacity="1"/></linearGradient><linearGradient id="linearGradient3861"><stop id="stop3863" offset="0" stop-color="#000" stop-opacity="1"/><stop id="stop3865" offset="1" stop-color="#000" stop-opacity="0"/></linearGradient><linearGradient id="linearGradient3844"><stop id="stop3846" offset="0" stop-color="#000" stop-opacity=".392"/><stop id="stop3848" offset="1" stop-color="#000" stop-opacity="0"/></linearGradient><linearGradient id="linearGradient3810"><stop id="stop3812" offset="0" stop-color="#f2c66f" stop-opacity="1"/><stop id="stop3814" offset="1" stop-color="#fbd68f" stop-opacity="1"/></linearGradient><linearGradient id="linearGradient3816" x1="24" x2="24" y1="1046.362" y2="1014.362" gradientUnits="userSpaceOnUse" xlink:href="#linearGradient3810"/><radialGradient id="radialGradient3850" cx="24.076" cy="41.383" r="21.076" fx="24.076" fy="41.383" gradientTransform="matrix(1,0,0,0.11307633,0,36.703704)" gradientUnits="userSpaceOnUse" xlink:href="#linearGradient3844"/><linearGradient id="linearGradient3856" x1="24" x2="24" y1="1046.362" y2="1014.362" gradientTransform="translate(0,-3)" gradientUnits="userSpaceOnUse" xlink:href="#linearGradient3810"/><linearGradient id="linearGradient3858" x1="24" x2="24" y1="1046.362" y2="1014.362" gradientTransform="translate(0,-1004.3622)" gradientUnits="userSpaceOnUse" xlink:href="#linearGradient3810"/><linearGradient id="linearGradient3867" x1="1.995" x2="46.005" y1="28.563" y2="28.563" gradientUnits="userSpaceOnUse" xlink:href="#linearGradient3861"/><linearGradient id="linearGradient3921" x1="35" x2="38" y1="8" y2="5" gradientUnits="userSpaceOnUse" xlink:href="#linearGradient3915"/><linearGradient id="linearGradient3933" x1="35" x2="38" y1="8" y2="5" gradientTransform="matrix(1.0436562,0,0,1.2222222,26.301501,1003.2511)" gradientUnits="userSpaceOnUse" xlink:href="#linearGradient3915"/><linearGradient id="linearGradient3954" x1="35" x2="44" y1="11" y2="5" gradientTransform="translate(22,1004.3622)" gradientUnits="userSpaceOnUse" xlink:href="#linearGradient3915"/><linearGradient id="linearGradient3829" x1="21" x2="20" y1="14" y2="24" gradientUnits="userSpaceOnUse" xlink:href="#linearGradient3823"/><linearGradient id="linearGradient3839" x1="21" x2="20" y1="14" y2="26" gradientUnits="userSpaceOnUse" xlink:href="#linearGradient3833"/><linearGradient id="linearGradient3862" x1="22" x2="20" y1="15" y2="30" gradientUnits="userSpaceOnUse" xlink:href="#linearGradient3855"/><clipPath id="clipPath-069049578"><g id="g3352" transform="translate(0,-1004.3622)"><path id="path3354" fill="#1890d0" d="m -24,13 c 0,1.105 -0.672,2 -1.5,2 -0.828,0 -1.5,-0.895 -1.5,-2 0,-1.105 0.672,-2 1.5,-2 0.828,0 1.5,0.895 1.5,2 z" transform="matrix(15.333333,0,0,11.5,414.99999,878.8622)"/></g></clipPath><clipPath id="clipPath-059275953"><g id="g3347" transform="translate(0,-1004.3622)"><path id="path3349" fill="#1890d0" d="m -24,13 c 0,1.105 -0.672,2 -1.5,2 -0.828,0 -1.5,-0.895 -1.5,-2 0,-1.105 0.672,-2 1.5,-2 0.828,0 1.5,0.895 1.5,2 z" transform="matrix(15.333333,0,0,11.5,414.99999,878.8622)"/></g></clipPath><linearGradient id="linearGradient3764" x1="1" x2="47" gradientTransform="matrix(0,-1,1,0,-1.5e-6,47.999998)" gradientUnits="userSpaceOnUse"><stop id="stop3342" stop-color="#d6740a" stop-opacity="1"/><stop id="stop3344" offset="1" stop-color="#e87e0b" stop-opacity="1"/></linearGradient><clipPath id="clipPath-483879499"><g id="g3401" transform="translate(0,-1004.3622)"><path id="path3403" fill="#1890d0" d="m -24,13 c 0,1.105 -0.672,2 -1.5,2 -0.828,0 -1.5,-0.895 -1.5,-2 0,-1.105 0.672,-2 1.5,-2 0.828,0 1.5,0.895 1.5,2 z" transform="matrix(15.333333,0,0,11.5,414.99999,878.8622)"/></g></clipPath><clipPath id="clipPath-478329641"><g id="g3396" transform="translate(0,-1004.3622)"><path id="path3398" fill="#1890d0" d="m -24,13 c 0,1.105 -0.672,2 -1.5,2 -0.828,0 -1.5,-0.895 -1.5,-2 0,-1.105 0.672,-2 1.5,-2 0.828,0 1.5,0.895 1.5,2 z" transform="matrix(15.333333,0,0,11.5,414.99999,878.8622)"/></g></clipPath><linearGradient id="linearGradient3764-2" x1="1" x2="47" gradientTransform="matrix(0,-1,1,0,-1.5e-6,47.999998)" gradientUnits="userSpaceOnUse"><stop id="stop3391" stop-color="#333" stop-opacity="1"/><stop id="stop3393" offset="1" stop-color="#3d3d3d" stop-opacity="1"/></linearGradient><clipPath id="clipPath-826434300"><g id="g10603" transform="translate(0,-1004.3622)"><path id="path10605" fill="#1890d0" d="m -24,13 c 0,1.105 -0.672,2 -1.5,2 -0.828,0 -1.5,-0.895 -1.5,-2 0,-1.105 0.672,-2 1.5,-2 0.828,0 1.5,0.895 1.5,2 z" transform="matrix(15.333333,0,0,11.5,414.99999,878.8622)"/></g></clipPath><clipPath id="clipPath-810928594"><g id="g10598" transform="translate(0,-1004.3622)"><path id="path10600" fill="#1890d0" d="m -24,13 c 0,1.105 -0.672,2 -1.5,2 -0.828,0 -1.5,-0.895 -1.5,-2 0,-1.105 0.672,-2 1.5,-2 0.828,0 1.5,0.895 1.5,2 z" transform="matrix(15.333333,0,0,11.5,414.99999,878.8622)"/></g></clipPath><linearGradient id="linearGradient3764-0" x1="1" x2="47" gradientTransform="matrix(0,-1,1,0,-1.5e-6,47.999998)" gradientUnits="userSpaceOnUse"><stop id="stop10593" stop-color="#3a3a3a" stop-opacity="1"/><stop id="stop10595" offset="1" stop-color="#444" stop-opacity="1"/></linearGradient></defs><metadata id="metadata7"/><g id="layer3" transform="translate(0,48)"><path id="path3842" fill="url(#radialGradient3850)" fill-opacity="1" stroke="none" d="m 45.151344,41.38316 c 0,1.316182 -9.4359,2.383159 -21.075672,2.383159 C 12.4359,43.766319 3,42.699342 3,41.38316 3,40.066977 12.4359,39 24.075672,39 c 11.639772,0 21.075672,1.066977 21.075672,2.38316 z" opacity=".65" transform="matrix(2.2775074,0,0,2.098055,-6.8325223,-53.824146)"/></g><g id="layer1" transform="translate(0,-956.3622)"><path id="path3029" fill="#1976d2" fill-opacity="1" stroke="none" d="m 6.0000001,974.3622 0,56 84.0000009,0 0,-28 -4,-24 -32,0 -4,-8 -40.000001,0 c -1.9999999,0 -3.9999999,2 -3.9999999,4 z"/><rect id="rect3799" width="42" height="16" x="12" y="980.362" fill="#f2f2f2" fill-opacity="1" stroke="none"/><path id="path3810" fill="#000" fill-opacity="1" stroke="none" d="m 10,970.3622 c -1.9999999,0 -3.9999999,2 -3.9999999,4 l 0,2 c 0,-2 2,-4 3.9999999,-4 l 38.000001,0 4,8 34,0 4,24 0,-2 -4,-24 -32,0 -4,-8 z" opacity=".03"/><path id="rect2987" fill="#5a9be7" fill-opacity="1" stroke="none" d="m 90.000001,982.3622 0,56 -84.0000009,0 0,-52 40.0000009,0 4,-8 36,0 c 2,0 4,2 4,4 z"/><path id="path3794" fill="#000" fill-opacity="1" stroke="none" d="m 6.0000001,1036.3622 0,2 84.0000009,0 0,-2 z" opacity=".15"/><path id="path3801" fill="none" stroke="none" d="m 50.000001,980.3622 -10,6 6,0 z"/><path id="path3805" fill="#000" fill-opacity="1" stroke="none" d="m 50.000001,978.3622 -4,8 -40.0000009,0 0,2 42.0000009,0 4,-8 34,0 c 2,0 4,2 4,4 l 0,-2 c 0,-2 -2,-4 -4,-4 z" opacity=".03"/><path id="path10643" fill="#2a74b9" fill-opacity="1" fill-rule="nonzero" stroke="none" d="m 33.749111,997.1748 c -1.100421,0.02 -2.140363,0.136 -3.187501,0.5 -0.329232,2.2322 0.213514,4.5482 0.8125,6.6874 1.523618,4.9066 4.351605,9.564 8.500001,12.6876 0.15206,0.144 0.368272,0.178 0.3125,0.4374 -0.02184,1.0872 -0.0022,2.2228 0,3.3126 0.04464,1.906 1.192616,3.7266 2.875,4.625 1.996714,1.0512 3.989162,2.0256 6,3.0624 0.925662,0.4902 2.209456,-0.072 2.5,-1.0624 0.17678,-0.6514 0.05314,-1.3356 0.0625,-2 -0.0068,-1.4004 -0.17926,-2.8054 -0.125,-4.1876 1.830082,-0.2276 3.669918,-1.1136 4.75,-2.625 0.962638,-1.2894 1.30545,-2.9584 1.1875,-4.5624 1.957842,-0.3496 3.975378,-0.645 5.9375,-1 1.161294,-0.2318 1.664888,-1.7426 0.9375,-2.6876 -1.427132,-1.8084 -2.86161,-3.5794 -4.3125,-5.375 -1.171356,-1.3996 -3.00597,-2.176 -4.8125,-1.9374 -1.225104,0.196 -2.479536,0.4596 -3.6875,0.6874 -3.90094,-3.716 -9.14477,-5.7754 -14.4375,-6.375 -1.086924,-0.098 -2.21208,-0.2052 -3.3125,-0.188 z m 6.625,4.0624 c 1.278656,-0.116 2.5611,0.2392 3.625,1.125 2.1278,1.7718 2.459246,4.9348 0.6875,7.0626 -1.771746,2.1278 -4.934698,2.4592 -7.0625,0.6874 -2.1278,-1.7718 -2.459244,-4.9346 -0.6875,-7.0624 0.885874,-1.064 2.158844,-1.6958 3.4375,-1.8126 z m 0.125,1.6876 c -0.852142,0.078 -1.658884,0.4774 -2.25,1.1874 -1.182234,1.4198 -0.982318,3.5052 0.4375,4.6876 1.419818,1.1822 3.505266,0.9824 4.6875,-0.4376 1.182234,-1.4198 0.982318,-3.505 -0.4375,-4.6874 -0.70991,-0.5912 -1.585358,-0.828 -2.4375,-0.75 z m 20.3125,13.625 c -0.437794,-0.04 -0.87426,0.2918 -0.9375,0.75 -0.557962,2.5358 -2.361048,4.7388 -4.75,5.75 -0.62204,0.196 -0.760958,1.0294 -0.25,1.4374 1.04848,0.873 2.25974,1.8822 3.3125,2.75 0.512252,0.4354 1.1789,-0.02 1.1875,-0.6874 -0.0164,-0.5316 -0.07706,-1.0998 -0.125,-1.625 1.305358,0.2798 2.58334,0.6516 3.875,0.9374 0.60868,0.126 1.185206,-0.607 0.9375,-1.1874 -0.510636,-1.2238 -1.038166,-2.4072 -1.5625,-3.625 0.528538,-0.062 1.03675,-0.108 1.5625,-0.188 0.650752,-0.128 0.90523,-1.0758 0.375,-1.5 -1.054482,-0.8866 -2.11932,-1.7444 -3.1875,-2.625 -0.12496,-0.098 -0.291568,-0.174 -0.4375,-0.188 z"/></g></svg>