<svg xmlns="http://www.w3.org/2000/svg" xmlns:svg="http://www.w3.org/2000/svg" xmlns:xlink="http://www.w3.org/1999/xlink" id="svg2" width="96" height="96" version="1.1" viewBox="0 0 96 96"><metadata id="metadata20"/><defs id="defs18"><linearGradient id="linearGradient3017" x2="0" y1="279.096" y2="268.33" gradientTransform="matrix(1.10525,0,0,1.10525,-134.27881,-295.76193)" gradientUnits="userSpaceOnUse" xlink:href="#linearGradient4460"/><linearGradient id="linearGradient4460"><stop id="stop3462" offset="0" stop-color="#1b1b1b"/><stop id="stop3464" offset="1" stop-color="#383838"/></linearGradient><linearGradient id="linearGradient3501" x2="0" y1="279.096" y2="268.33" gradientTransform="matrix(3.9162401,0,0,3.9162401,-553.078,-1047.9741)" gradientUnits="userSpaceOnUse" xlink:href="#linearGradient4460"/><radialGradient id="radialGradient3850" cx="24.076" cy="41.383" r="21.076" fx="24.076" fy="41.383" gradientTransform="matrix(1,0,0,0.11307633,0,36.703704)" gradientUnits="userSpaceOnUse" xlink:href="#linearGradient3844"/><linearGradient id="linearGradient3844"><stop id="stop3846" offset="0" stop-color="#000" stop-opacity=".392"/><stop id="stop3848" offset="1" stop-color="#000" stop-opacity="0"/></linearGradient><radialGradient id="radialGradient3064" cx="24.076" cy="41.383" r="21.076" fx="24.076" fy="41.383" gradientTransform="matrix(1,0,0,0.11307633,0,36.703704)" gradientUnits="userSpaceOnUse" xlink:href="#linearGradient3844"/></defs><path id="path3842" fill="url(#radialGradient3064)" fill-opacity="1" stroke="none" d="m 45.151344,41.38316 a 21.075672,2.3831596 0 1 1 -42.151344,0 21.075672,2.3831596 0 1 1 42.151344,0 z" opacity=".65" transform="matrix(2.2775074,0,0,2.098055,-6.8325223,-5.824145)"/><path id="path3029-9" fill="#1976d2" fill-opacity="1" stroke="none" d="m 6.0000001,18 0,56.000001 84.0000009,0 0,-28.000001 -4,-24 -32,0 -4,-8 L 10,14 c -1.9999999,0 -3.9999999,2 -3.9999999,4 z"/><rect id="rect3799-5" width="42" height="16" x="12" y="24" fill="#f2f2f2" fill-opacity="1" stroke="none"/><path id="path3810-2" fill="#000" fill-opacity="1" stroke="none" d="m 10,14 c -1.9999999,0 -3.9999999,2 -3.9999999,4 l 0,2 c 0,-2 2,-4 3.9999999,-4 l 38.000001,0 4,8 34,0 4,24 0,-2 -4,-24 -32,0 -4,-8 z" opacity=".03"/><path id="rect2987-4" fill="#5a9be7" fill-opacity="1" stroke="none" d="m 90.000001,26 0,56.000001 -84.0000009,0 0,-52.000001 40.0000009,0 4,-8 36,0 c 2,0 4,2 4,4 z"/><path id="path3794-5" fill="#000" fill-opacity="1" stroke="none" d="m 6.0000001,80.000001 0,2 84.0000009,0 0,-2 z" opacity=".15"/><path id="path3801-9" fill="none" stroke="none" d="m 50.000001,24 -10,6 6,0 z"/><path id="path3805-9" fill="#000" fill-opacity="1" stroke="none" d="m 50.000001,22 -4,8 -40.0000009,0 0,2 42.0000009,0 4,-8 34,0 c 2,0 4,2 4,4 l 0,-2 c 0,-2 -2,-4 -4,-4 z" opacity=".03"/><path id="polygon3475-1" fill="#2a74b9" fill-opacity="1" fill-rule="evenodd" d="m 36.000001,72.000001 6.374622,-10 23.62538,0 -6.000162,10 z" opacity="1"/><path id="polygon3477-6" fill="#2a74b9" fill-opacity="1" fill-rule="evenodd" d="m 54.243695,60.000001 11.756306,0 L 54.243695,40 42.486593,40 z" opacity="1"/><path id="polygon3479-9" fill="#2a74b9" fill-opacity="1" fill-rule="evenodd" d="M 46.531385,51.224323 40.583329,41.21368 28,60.922465 l 6.292091,9.854392 z" opacity="1"/></svg>