<svg xmlns="http://www.w3.org/2000/svg" xmlns:svg="http://www.w3.org/2000/svg" xmlns:xlink="http://www.w3.org/1999/xlink" id="svg2" width="96" height="96" version="1.1"><defs id="defs4"><linearGradient id="linearGradient3855"><stop id="stop3857" offset="0" stop-color="#000" stop-opacity="1"/><stop id="stop3859" offset="1" stop-color="#000" stop-opacity=".294"/></linearGradient><linearGradient id="linearGradient3833"><stop id="stop3835" offset="0" stop-color="#fdfeff" stop-opacity="1"/><stop id="stop3837" offset="1" stop-color="#dfe4e4" stop-opacity="1"/></linearGradient><linearGradient id="linearGradient3823"><stop id="stop3825" offset="0" stop-color="#49b7ef" stop-opacity="1"/><stop id="stop3827" offset="1" stop-color="#1d8de2" stop-opacity="1"/></linearGradient><linearGradient id="linearGradient3956"><stop id="stop3958" offset="0" stop-color="#f8f4e1" stop-opacity="1"/><stop id="stop3960" offset="1" stop-color="#eae5c8" stop-opacity="1"/></linearGradient><linearGradient id="linearGradient3915"><stop id="stop3917" offset="0" stop-color="#f8f4e1" stop-opacity="1"/><stop id="stop3919" offset="1" stop-color="#ad9e57" stop-opacity="1"/></linearGradient><linearGradient id="linearGradient3861"><stop id="stop3863" offset="0" stop-color="#000" stop-opacity="1"/><stop id="stop3865" offset="1" stop-color="#000" stop-opacity="0"/></linearGradient><linearGradient id="linearGradient3844"><stop id="stop3846" offset="0" stop-color="#000" stop-opacity=".392"/><stop id="stop3848" offset="1" stop-color="#000" stop-opacity="0"/></linearGradient><linearGradient id="linearGradient3810"><stop id="stop3812" offset="0" stop-color="#f2c66f" stop-opacity="1"/><stop id="stop3814" offset="1" stop-color="#fbd68f" stop-opacity="1"/></linearGradient><linearGradient id="linearGradient3816" x1="24" x2="24" y1="1046.362" y2="1014.362" gradientUnits="userSpaceOnUse" xlink:href="#linearGradient3810"/><radialGradient id="radialGradient3850" cx="24.076" cy="41.383" r="21.076" fx="24.076" fy="41.383" gradientTransform="matrix(1,0,0,0.11307633,0,36.703704)" gradientUnits="userSpaceOnUse" xlink:href="#linearGradient3844"/><linearGradient id="linearGradient3856" x1="24" x2="24" y1="1046.362" y2="1014.362" gradientTransform="translate(0,-3)" gradientUnits="userSpaceOnUse" xlink:href="#linearGradient3810"/><linearGradient id="linearGradient3858" x1="24" x2="24" y1="1046.362" y2="1014.362" gradientTransform="translate(0,-1004.3622)" gradientUnits="userSpaceOnUse" xlink:href="#linearGradient3810"/><linearGradient id="linearGradient3867" x1="1.995" x2="46.005" y1="28.563" y2="28.563" gradientUnits="userSpaceOnUse" xlink:href="#linearGradient3861"/><linearGradient id="linearGradient3921" x1="35" x2="38" y1="8" y2="5" gradientUnits="userSpaceOnUse" xlink:href="#linearGradient3915"/><linearGradient id="linearGradient3933" x1="35" x2="38" y1="8" y2="5" gradientTransform="matrix(1.0436562,0,0,1.2222222,26.301501,1003.2511)" gradientUnits="userSpaceOnUse" xlink:href="#linearGradient3915"/><linearGradient id="linearGradient3954" x1="35" x2="44" y1="11" y2="5" gradientTransform="translate(22,1004.3622)" gradientUnits="userSpaceOnUse" xlink:href="#linearGradient3915"/><linearGradient id="linearGradient3829" x1="21" x2="20" y1="14" y2="24" gradientUnits="userSpaceOnUse" xlink:href="#linearGradient3823"/><linearGradient id="linearGradient3839" x1="21" x2="20" y1="14" y2="26" gradientUnits="userSpaceOnUse" xlink:href="#linearGradient3833"/><linearGradient id="linearGradient3862" x1="22" x2="20" y1="15" y2="30" gradientUnits="userSpaceOnUse" xlink:href="#linearGradient3855"/></defs><metadata id="metadata7"/><g id="layer1" transform="translate(0,-956.3622)"><g id="g3825" opacity=".5" transform="matrix(2,0,0,2,-30,-1078.3622)"><path id="path3811" fill="#1976d2" fill-opacity="1" stroke="none" d="m 21,1027.3622 0,14 21,0 0,-7 -1,-6 -8,0 -1,-2 -10,0 c -0.5,0 -1,0.5 -1,1 z"/><path id="path3813" fill="#000" fill-opacity="1" stroke="none" d="m 22,22 c -0.5,0 -1,0.5 -1,1 l 0,1 c 0,-0.5 0.5,-1 1,-1 l 9,0 1,2 9,0 1,6 0,-1 -1,-6 -8,0 -1,-2 z" opacity=".03" transform="translate(0,1004.3622)"/><rect id="rect3815" width="10" height="4" x="23" y="1029.362" fill="#f2f2f2" fill-opacity="1" stroke="none"/><path id="path3817" fill="#5a9be7" fill-opacity="1" stroke="none" d="m 42,1029.3622 0,14 -21,0 0,-13 10,0 1,-2 9,0 c 0.5,0 1,0.5 1,1 z"/><path id="path3819" fill="#000" fill-opacity="1" stroke="none" d="m 21,1042.3622 0,1 21,0 0,-1 z" opacity=".15"/><path id="path3821" fill="none" stroke="none" d="m 32,1028.8622 -2.5,1.5 1.5,0 z"/><path id="path3823" fill="#000" fill-opacity="1" stroke="none" d="m 32,24 -1,2 -10,0 0,1 11,0 1,-2 8,0 c 0.5,0 1,0.5 1,1 l 0,-1 c 0,-0.5 -0.5,-1 -1,-1 z" opacity=".03" transform="translate(0,1004.3622)"/></g><path id="path3029" fill="#1976d2" fill-opacity="1" stroke="none" d="m 42,1002.3622 0,28 42,0 0,-14 -2,-12 -16,0 -2,-4 -20,0 c -1,0 -2,1 -2,2 z"/><path id="path3806" fill="#000" fill-opacity="1" stroke="none" d="m 44,1000.3622 c -1,0 -2,1 -2,2 l 0,2 c 0,-1 1,-2 2,-2 l 18,0 2,4 18,0 2,12 0,-2 -2,-12 -16,0 -2,-4 z" opacity=".03"/><rect id="rect3799" width="20" height="8" x="46" y="1006.362" fill="#f2f2f2" fill-opacity="1" stroke="none"/><path id="rect2987" fill="#5a9be7" fill-opacity="1" stroke="none" d="m 84,1006.3622 0,28 -42,0 0,-26 20,0 2,-4 18,0 c 1,0 2,1 2,2 z"/><path id="path3794" fill="#000" fill-opacity="1" stroke="none" d="m 42,1032.3622 0,2 42,0 0,-2 z" opacity=".15"/><path id="path3801" fill="none" stroke="none" d="m 64,1005.3622 -5,3 3,0 z"/><path id="path3033" fill="#000" fill-opacity="1" stroke="none" d="m 64,1004.3622 -2,4 -20,0 0,2 22,0 2,-4 16,0 c 1,0 2,1 2,2 l 0,-2 c 0,-1 -1,-2 -2,-2 z" opacity=".03"/></g></svg>