<svg xmlns="http://www.w3.org/2000/svg" xmlns:svg="http://www.w3.org/2000/svg" xmlns:xlink="http://www.w3.org/1999/xlink" id="svg2" width="96" height="96" version="1.1"><defs id="defs4"><linearGradient id="linearGradient3855"><stop id="stop3857" offset="0" stop-color="#000" stop-opacity="1"/><stop id="stop3859" offset="1" stop-color="#000" stop-opacity=".294"/></linearGradient><linearGradient id="linearGradient3833"><stop id="stop3835" offset="0" stop-color="#fdfeff" stop-opacity="1"/><stop id="stop3837" offset="1" stop-color="#dfe4e4" stop-opacity="1"/></linearGradient><linearGradient id="linearGradient3823"><stop id="stop3825" offset="0" stop-color="#49b7ef" stop-opacity="1"/><stop id="stop3827" offset="1" stop-color="#1d8de2" stop-opacity="1"/></linearGradient><linearGradient id="linearGradient3956"><stop id="stop3958" offset="0" stop-color="#f8f4e1" stop-opacity="1"/><stop id="stop3960" offset="1" stop-color="#eae5c8" stop-opacity="1"/></linearGradient><linearGradient id="linearGradient3915"><stop id="stop3917" offset="0" stop-color="#f8f4e1" stop-opacity="1"/><stop id="stop3919" offset="1" stop-color="#ad9e57" stop-opacity="1"/></linearGradient><linearGradient id="linearGradient3861"><stop id="stop3863" offset="0" stop-color="#000" stop-opacity="1"/><stop id="stop3865" offset="1" stop-color="#000" stop-opacity="0"/></linearGradient><linearGradient id="linearGradient3844"><stop id="stop3846" offset="0" stop-color="#000" stop-opacity=".392"/><stop id="stop3848" offset="1" stop-color="#000" stop-opacity="0"/></linearGradient><linearGradient id="linearGradient3810"><stop id="stop3812" offset="0" stop-color="#f2c66f" stop-opacity="1"/><stop id="stop3814" offset="1" stop-color="#fbd68f" stop-opacity="1"/></linearGradient><linearGradient id="linearGradient3816" x1="24" x2="24" y1="1046.362" y2="1014.362" gradientUnits="userSpaceOnUse" xlink:href="#linearGradient3810"/><radialGradient id="radialGradient3850" cx="24.076" cy="41.383" r="21.076" fx="24.076" fy="41.383" gradientTransform="matrix(1,0,0,0.11307633,0,36.703704)" gradientUnits="userSpaceOnUse" xlink:href="#linearGradient3844"/><linearGradient id="linearGradient3856" x1="24" x2="24" y1="1046.362" y2="1014.362" gradientTransform="translate(0,-3)" gradientUnits="userSpaceOnUse" xlink:href="#linearGradient3810"/><linearGradient id="linearGradient3858" x1="24" x2="24" y1="1046.362" y2="1014.362" gradientTransform="translate(0,-1004.3622)" gradientUnits="userSpaceOnUse" xlink:href="#linearGradient3810"/><linearGradient id="linearGradient3867" x1="1.995" x2="46.005" y1="28.563" y2="28.563" gradientUnits="userSpaceOnUse" xlink:href="#linearGradient3861"/><linearGradient id="linearGradient3921" x1="35" x2="38" y1="8" y2="5" gradientUnits="userSpaceOnUse" xlink:href="#linearGradient3915"/><linearGradient id="linearGradient3933" x1="35" x2="38" y1="8" y2="5" gradientTransform="matrix(1.0436562,0,0,1.2222222,26.301501,1003.2511)" gradientUnits="userSpaceOnUse" xlink:href="#linearGradient3915"/><linearGradient id="linearGradient3954" x1="35" x2="44" y1="11" y2="5" gradientTransform="translate(22,1004.3622)" gradientUnits="userSpaceOnUse" xlink:href="#linearGradient3915"/><linearGradient id="linearGradient3829" x1="21" x2="20" y1="14" y2="24" gradientUnits="userSpaceOnUse" xlink:href="#linearGradient3823"/><linearGradient id="linearGradient3839" x1="21" x2="20" y1="14" y2="26" gradientUnits="userSpaceOnUse" xlink:href="#linearGradient3833"/><linearGradient id="linearGradient3862" x1="22" x2="20" y1="15" y2="30" gradientUnits="userSpaceOnUse" xlink:href="#linearGradient3855"/><linearGradient id="linearGradient3862-1" x1="22" x2="20" y1="15" y2="30" gradientUnits="userSpaceOnUse" xlink:href="#linearGradient3855-6"/><linearGradient id="linearGradient3839-6" x1="21" x2="20" y1="14" y2="26" gradientUnits="userSpaceOnUse" xlink:href="#linearGradient3833-9"/><linearGradient id="linearGradient3829-2" x1="21" x2="20" y1="14" y2="24" gradientUnits="userSpaceOnUse" xlink:href="#linearGradient3823-9"/><linearGradient id="linearGradient3954-2" x1="35" x2="44" y1="11" y2="5" gradientTransform="translate(22,1004.3622)" gradientUnits="userSpaceOnUse" xlink:href="#linearGradient3915-8"/><linearGradient id="linearGradient3933-6" x1="35" x2="38" y1="8" y2="5" gradientTransform="matrix(1.0436562,0,0,1.2222222,26.301501,1003.2511)" gradientUnits="userSpaceOnUse" xlink:href="#linearGradient3915-8"/><linearGradient id="linearGradient3921-3" x1="35" x2="38" y1="8" y2="5" gradientUnits="userSpaceOnUse" xlink:href="#linearGradient3915-8"/><linearGradient id="linearGradient3867-4" x1="1.995" x2="46.005" y1="28.563" y2="28.563" gradientUnits="userSpaceOnUse" xlink:href="#linearGradient3861-5"/><linearGradient id="linearGradient3858-0" x1="24" x2="24" y1="1046.362" y2="1014.362" gradientTransform="translate(0,-1004.3622)" gradientUnits="userSpaceOnUse" xlink:href="#linearGradient3810-7"/><linearGradient id="linearGradient3856-1" x1="24" x2="24" y1="1046.362" y2="1014.362" gradientTransform="translate(0,-3)" gradientUnits="userSpaceOnUse" xlink:href="#linearGradient3810-7"/><linearGradient id="linearGradient3816-1" x1="24" x2="24" y1="1046.362" y2="1014.362" gradientUnits="userSpaceOnUse" xlink:href="#linearGradient3810-7"/><linearGradient id="linearGradient3810-7"><stop id="stop3812-0" offset="0" stop-color="#f2c66f" stop-opacity="1"/><stop id="stop3814-5" offset="1" stop-color="#fbd68f" stop-opacity="1"/></linearGradient><linearGradient id="linearGradient3844-2"><stop id="stop3846-6" offset="0" stop-color="#000" stop-opacity=".392"/><stop id="stop3848-5" offset="1" stop-color="#000" stop-opacity="0"/></linearGradient><linearGradient id="linearGradient3861-5"><stop id="stop3863-4" offset="0" stop-color="#000" stop-opacity="1"/><stop id="stop3865-0" offset="1" stop-color="#000" stop-opacity="0"/></linearGradient><linearGradient id="linearGradient3915-8"><stop id="stop3917-9" offset="0" stop-color="#f8f4e1" stop-opacity="1"/><stop id="stop3919-7" offset="1" stop-color="#ad9e57" stop-opacity="1"/></linearGradient><linearGradient id="linearGradient3956-6"><stop id="stop3958-9" offset="0" stop-color="#f8f4e1" stop-opacity="1"/><stop id="stop3960-2" offset="1" stop-color="#eae5c8" stop-opacity="1"/></linearGradient><linearGradient id="linearGradient3823-9"><stop id="stop3825-4" offset="0" stop-color="#49b7ef" stop-opacity="1"/><stop id="stop3827-0" offset="1" stop-color="#1d8de2" stop-opacity="1"/></linearGradient><linearGradient id="linearGradient3833-9"><stop id="stop3835-8" offset="0" stop-color="#fdfeff" stop-opacity="1"/><stop id="stop3837-6" offset="1" stop-color="#dfe4e4" stop-opacity="1"/></linearGradient><linearGradient id="linearGradient3855-6"><stop id="stop3857-9" offset="0" stop-color="#000" stop-opacity="1"/><stop id="stop3859-8" offset="1" stop-color="#000" stop-opacity=".294"/></linearGradient><linearGradient id="linearGradient3862-0" x1="22" x2="20" y1="15" y2="30" gradientUnits="userSpaceOnUse" xlink:href="#linearGradient3855-8"/><linearGradient id="linearGradient3839-2" x1="21" x2="20" y1="14" y2="26" gradientUnits="userSpaceOnUse" xlink:href="#linearGradient3833-3"/><linearGradient id="linearGradient3829-4" x1="21" x2="20" y1="14" y2="24" gradientUnits="userSpaceOnUse" xlink:href="#linearGradient3823-7"/><linearGradient id="linearGradient3954-1" x1="35" x2="44" y1="11" y2="5" gradientTransform="translate(22,1004.3622)" gradientUnits="userSpaceOnUse" xlink:href="#linearGradient3915-7"/><linearGradient id="linearGradient3933-7" x1="35" x2="38" y1="8" y2="5" gradientTransform="matrix(1.0436562,0,0,1.2222222,26.301501,1003.2511)" gradientUnits="userSpaceOnUse" xlink:href="#linearGradient3915-7"/><linearGradient id="linearGradient3921-8" x1="35" x2="38" y1="8" y2="5" gradientUnits="userSpaceOnUse" xlink:href="#linearGradient3915-7"/><linearGradient id="linearGradient3867-5" x1="1.995" x2="46.005" y1="28.563" y2="28.563" gradientUnits="userSpaceOnUse" xlink:href="#linearGradient3861-8"/><linearGradient id="linearGradient3858-08" x1="24" x2="24" y1="1046.362" y2="1014.362" gradientTransform="translate(0,-1004.3622)" gradientUnits="userSpaceOnUse" xlink:href="#linearGradient3810-2"/><linearGradient id="linearGradient3856-14" x1="24" x2="24" y1="1046.362" y2="1014.362" gradientTransform="translate(0,-3)" gradientUnits="userSpaceOnUse" xlink:href="#linearGradient3810-2"/><linearGradient id="linearGradient3816-7" x1="24" x2="24" y1="1046.362" y2="1014.362" gradientUnits="userSpaceOnUse" xlink:href="#linearGradient3810-2"/><linearGradient id="linearGradient3810-2"><stop id="stop3812-5" offset="0" stop-color="#f2c66f" stop-opacity="1"/><stop id="stop3814-3" offset="1" stop-color="#fbd68f" stop-opacity="1"/></linearGradient><linearGradient id="linearGradient3844-6"><stop id="stop3846-4" offset="0" stop-color="#000" stop-opacity=".392"/><stop id="stop3848-9" offset="1" stop-color="#000" stop-opacity="0"/></linearGradient><linearGradient id="linearGradient3861-8"><stop id="stop3863-0" offset="0" stop-color="#000" stop-opacity="1"/><stop id="stop3865-5" offset="1" stop-color="#000" stop-opacity="0"/></linearGradient><linearGradient id="linearGradient3915-7"><stop id="stop3917-6" offset="0" stop-color="#f8f4e1" stop-opacity="1"/><stop id="stop3919-2" offset="1" stop-color="#ad9e57" stop-opacity="1"/></linearGradient><linearGradient id="linearGradient3956-4"><stop id="stop3958-1" offset="0" stop-color="#f8f4e1" stop-opacity="1"/><stop id="stop3960-1" offset="1" stop-color="#eae5c8" stop-opacity="1"/></linearGradient><linearGradient id="linearGradient3823-7"><stop id="stop3825-9" offset="0" stop-color="#49b7ef" stop-opacity="1"/><stop id="stop3827-3" offset="1" stop-color="#1d8de2" stop-opacity="1"/></linearGradient><linearGradient id="linearGradient3833-3"><stop id="stop3835-3" offset="0" stop-color="#fdfeff" stop-opacity="1"/><stop id="stop3837-8" offset="1" stop-color="#dfe4e4" stop-opacity="1"/></linearGradient><linearGradient id="linearGradient3855-8"><stop id="stop3857-8" offset="0" stop-color="#000" stop-opacity="1"/><stop id="stop3859-6" offset="1" stop-color="#000" stop-opacity=".294"/></linearGradient><linearGradient id="linearGradient3862-7" x1="22" x2="20" y1="15" y2="30" gradientUnits="userSpaceOnUse" xlink:href="#linearGradient3855-1"/><linearGradient id="linearGradient3839-26" x1="21" x2="20" y1="14" y2="26" gradientUnits="userSpaceOnUse" xlink:href="#linearGradient3833-8"/><linearGradient id="linearGradient3829-1" x1="21" x2="20" y1="14" y2="24" gradientUnits="userSpaceOnUse" xlink:href="#linearGradient3823-8"/><linearGradient id="linearGradient3954-6" x1="35" x2="44" y1="11" y2="5" gradientTransform="translate(22,1004.3622)" gradientUnits="userSpaceOnUse" xlink:href="#linearGradient3915-5"/><linearGradient id="linearGradient3933-73" x1="35" x2="38" y1="8" y2="5" gradientTransform="matrix(1.0436562,0,0,1.2222222,26.301501,1003.2511)" gradientUnits="userSpaceOnUse" xlink:href="#linearGradient3915-5"/><linearGradient id="linearGradient3921-88" x1="35" x2="38" y1="8" y2="5" gradientUnits="userSpaceOnUse" xlink:href="#linearGradient3915-5"/><linearGradient id="linearGradient3867-0" x1="1.995" x2="46.005" y1="28.563" y2="28.563" gradientUnits="userSpaceOnUse" xlink:href="#linearGradient3861-57"/><linearGradient id="linearGradient3858-7" x1="24" x2="24" y1="1046.362" y2="1014.362" gradientTransform="translate(0,-1004.3622)" gradientUnits="userSpaceOnUse" xlink:href="#linearGradient3810-1"/><linearGradient id="linearGradient3856-5" x1="24" x2="24" y1="1046.362" y2="1014.362" gradientTransform="translate(0,-3)" gradientUnits="userSpaceOnUse" xlink:href="#linearGradient3810-1"/><linearGradient id="linearGradient3816-8" x1="24" x2="24" y1="1046.362" y2="1014.362" gradientUnits="userSpaceOnUse" xlink:href="#linearGradient3810-1"/><linearGradient id="linearGradient3810-1"><stop id="stop3812-4" offset="0" stop-color="#f2c66f" stop-opacity="1"/><stop id="stop3814-1" offset="1" stop-color="#fbd68f" stop-opacity="1"/></linearGradient><linearGradient id="linearGradient3844-9"><stop id="stop3846-3" offset="0" stop-color="#000" stop-opacity=".392"/><stop id="stop3848-6" offset="1" stop-color="#000" stop-opacity="0"/></linearGradient><linearGradient id="linearGradient3861-57"><stop id="stop3863-7" offset="0" stop-color="#000" stop-opacity="1"/><stop id="stop3865-4" offset="1" stop-color="#000" stop-opacity="0"/></linearGradient><linearGradient id="linearGradient3915-5"><stop id="stop3917-2" offset="0" stop-color="#f8f4e1" stop-opacity="1"/><stop id="stop3919-8" offset="1" stop-color="#ad9e57" stop-opacity="1"/></linearGradient><linearGradient id="linearGradient3956-3"><stop id="stop3958-5" offset="0" stop-color="#f8f4e1" stop-opacity="1"/><stop id="stop3960-6" offset="1" stop-color="#eae5c8" stop-opacity="1"/></linearGradient><linearGradient id="linearGradient3823-8"><stop id="stop3825-6" offset="0" stop-color="#49b7ef" stop-opacity="1"/><stop id="stop3827-7" offset="1" stop-color="#1d8de2" stop-opacity="1"/></linearGradient><linearGradient id="linearGradient3833-8"><stop id="stop3835-1" offset="0" stop-color="#fdfeff" stop-opacity="1"/><stop id="stop3837-9" offset="1" stop-color="#dfe4e4" stop-opacity="1"/></linearGradient><linearGradient id="linearGradient3855-1"><stop id="stop3857-5" offset="0" stop-color="#000" stop-opacity="1"/><stop id="stop3859-5" offset="1" stop-color="#000" stop-opacity=".294"/></linearGradient><linearGradient id="linearGradient3862-3" x1="22" x2="20" y1="15" y2="30" gradientUnits="userSpaceOnUse" xlink:href="#linearGradient3855-4"/><linearGradient id="linearGradient3839-7" x1="21" x2="20" y1="14" y2="26" gradientUnits="userSpaceOnUse" xlink:href="#linearGradient3833-96"/><linearGradient id="linearGradient3829-7" x1="21" x2="20" y1="14" y2="24" gradientUnits="userSpaceOnUse" xlink:href="#linearGradient3823-4"/><linearGradient id="linearGradient3954-67" x1="35" x2="44" y1="11" y2="5" gradientTransform="translate(22,1004.3622)" gradientUnits="userSpaceOnUse" xlink:href="#linearGradient3915-1"/><linearGradient id="linearGradient3933-0" x1="35" x2="38" y1="8" y2="5" gradientTransform="matrix(1.0436562,0,0,1.2222222,26.301501,1003.2511)" gradientUnits="userSpaceOnUse" xlink:href="#linearGradient3915-1"/><linearGradient id="linearGradient3921-1" x1="35" x2="38" y1="8" y2="5" gradientUnits="userSpaceOnUse" xlink:href="#linearGradient3915-1"/><linearGradient id="linearGradient3867-7" x1="1.995" x2="46.005" y1="28.563" y2="28.563" gradientUnits="userSpaceOnUse" xlink:href="#linearGradient3861-6"/><linearGradient id="linearGradient3858-9" x1="24" x2="24" y1="1046.362" y2="1014.362" gradientTransform="translate(0,-1004.3622)" gradientUnits="userSpaceOnUse" xlink:href="#linearGradient3810-5"/><linearGradient id="linearGradient3856-6" x1="24" x2="24" y1="1046.362" y2="1014.362" gradientTransform="translate(0,-3)" gradientUnits="userSpaceOnUse" xlink:href="#linearGradient3810-5"/><linearGradient id="linearGradient3816-4" x1="24" x2="24" y1="1046.362" y2="1014.362" gradientUnits="userSpaceOnUse" xlink:href="#linearGradient3810-5"/><linearGradient id="linearGradient3810-5"><stop id="stop3812-9" offset="0" stop-color="#f2c66f" stop-opacity="1"/><stop id="stop3814-0" offset="1" stop-color="#fbd68f" stop-opacity="1"/></linearGradient><linearGradient id="linearGradient3844-7"><stop id="stop3846-0" offset="0" stop-color="#000" stop-opacity=".392"/><stop id="stop3848-3" offset="1" stop-color="#000" stop-opacity="0"/></linearGradient><linearGradient id="linearGradient3861-6"><stop id="stop3863-8" offset="0" stop-color="#000" stop-opacity="1"/><stop id="stop3865-9" offset="1" stop-color="#000" stop-opacity="0"/></linearGradient><linearGradient id="linearGradient3915-1"><stop id="stop3917-0" offset="0" stop-color="#f8f4e1" stop-opacity="1"/><stop id="stop3919-0" offset="1" stop-color="#ad9e57" stop-opacity="1"/></linearGradient><linearGradient id="linearGradient3956-1"><stop id="stop3958-6" offset="0" stop-color="#f8f4e1" stop-opacity="1"/><stop id="stop3960-19" offset="1" stop-color="#eae5c8" stop-opacity="1"/></linearGradient><linearGradient id="linearGradient3823-4"><stop id="stop3825-96" offset="0" stop-color="#49b7ef" stop-opacity="1"/><stop id="stop3827-1" offset="1" stop-color="#1d8de2" stop-opacity="1"/></linearGradient><linearGradient id="linearGradient3833-96"><stop id="stop3835-5" offset="0" stop-color="#fdfeff" stop-opacity="1"/><stop id="stop3837-1" offset="1" stop-color="#dfe4e4" stop-opacity="1"/></linearGradient><linearGradient id="linearGradient3855-4"><stop id="stop3857-51" offset="0" stop-color="#000" stop-opacity="1"/><stop id="stop3859-58" offset="1" stop-color="#000" stop-opacity=".294"/></linearGradient><linearGradient id="linearGradient3862-07" x1="22" x2="20" y1="15" y2="30" gradientUnits="userSpaceOnUse" xlink:href="#linearGradient3855-81"/><linearGradient id="linearGradient3839-9" x1="21" x2="20" y1="14" y2="26" gradientUnits="userSpaceOnUse" xlink:href="#linearGradient3833-0"/><linearGradient id="linearGradient3829-0" x1="21" x2="20" y1="14" y2="24" gradientUnits="userSpaceOnUse" xlink:href="#linearGradient3823-99"/><linearGradient id="linearGradient3954-5" x1="35" x2="44" y1="11" y2="5" gradientTransform="translate(22,1004.3622)" gradientUnits="userSpaceOnUse" xlink:href="#linearGradient3915-6"/><linearGradient id="linearGradient3933-1" x1="35" x2="38" y1="8" y2="5" gradientTransform="matrix(1.0436562,0,0,1.2222222,26.301501,1003.2511)" gradientUnits="userSpaceOnUse" xlink:href="#linearGradient3915-6"/><linearGradient id="linearGradient3921-9" x1="35" x2="38" y1="8" y2="5" gradientUnits="userSpaceOnUse" xlink:href="#linearGradient3915-6"/><linearGradient id="linearGradient3867-6" x1="1.995" x2="46.005" y1="28.563" y2="28.563" gradientUnits="userSpaceOnUse" xlink:href="#linearGradient3861-0"/><linearGradient id="linearGradient3858-6" x1="24" x2="24" y1="1046.362" y2="1014.362" gradientTransform="translate(0,-1004.3622)" gradientUnits="userSpaceOnUse" xlink:href="#linearGradient3810-0"/><linearGradient id="linearGradient3856-0" x1="24" x2="24" y1="1046.362" y2="1014.362" gradientTransform="translate(0,-3)" gradientUnits="userSpaceOnUse" xlink:href="#linearGradient3810-0"/><linearGradient id="linearGradient3816-14" x1="24" x2="24" y1="1046.362" y2="1014.362" gradientUnits="userSpaceOnUse" xlink:href="#linearGradient3810-0"/><linearGradient id="linearGradient3810-0"><stop id="stop3812-3" offset="0" stop-color="#f2c66f" stop-opacity="1"/><stop id="stop3814-8" offset="1" stop-color="#fbd68f" stop-opacity="1"/></linearGradient><linearGradient id="linearGradient3844-62"><stop id="stop3846-2" offset="0" stop-color="#000" stop-opacity=".392"/><stop id="stop3848-0" offset="1" stop-color="#000" stop-opacity="0"/></linearGradient><linearGradient id="linearGradient3861-0"><stop id="stop3863-5" offset="0" stop-color="#000" stop-opacity="1"/><stop id="stop3865-2" offset="1" stop-color="#000" stop-opacity="0"/></linearGradient><linearGradient id="linearGradient3915-6"><stop id="stop3917-01" offset="0" stop-color="#f8f4e1" stop-opacity="1"/><stop id="stop3919-3" offset="1" stop-color="#ad9e57" stop-opacity="1"/></linearGradient><linearGradient id="linearGradient3956-14"><stop id="stop3958-4" offset="0" stop-color="#f8f4e1" stop-opacity="1"/><stop id="stop3960-4" offset="1" stop-color="#eae5c8" stop-opacity="1"/></linearGradient><linearGradient id="linearGradient3823-99"><stop id="stop3825-5" offset="0" stop-color="#49b7ef" stop-opacity="1"/><stop id="stop3827-35" offset="1" stop-color="#1d8de2" stop-opacity="1"/></linearGradient><linearGradient id="linearGradient3833-0"><stop id="stop3835-19" offset="0" stop-color="#fdfeff" stop-opacity="1"/><stop id="stop3837-5" offset="1" stop-color="#dfe4e4" stop-opacity="1"/></linearGradient><linearGradient id="linearGradient3855-81"><stop id="stop3857-4" offset="0" stop-color="#000" stop-opacity="1"/><stop id="stop3859-7" offset="1" stop-color="#000" stop-opacity=".294"/></linearGradient><linearGradient id="linearGradient3862-35" x1="22" x2="20" y1="15" y2="30" gradientUnits="userSpaceOnUse" xlink:href="#linearGradient3855-2"/><linearGradient id="linearGradient3839-23" x1="21" x2="20" y1="14" y2="26" gradientUnits="userSpaceOnUse" xlink:href="#linearGradient3833-962"/><linearGradient id="linearGradient3829-3" x1="21" x2="20" y1="14" y2="24" gradientUnits="userSpaceOnUse" xlink:href="#linearGradient3823-3"/><linearGradient id="linearGradient3954-57" x1="35" x2="44" y1="11" y2="5" gradientTransform="translate(22,1004.3622)" gradientUnits="userSpaceOnUse" xlink:href="#linearGradient3915-4"/><linearGradient id="linearGradient3933-4" x1="35" x2="38" y1="8" y2="5" gradientTransform="matrix(1.0436562,0,0,1.2222222,26.301501,1003.2511)" gradientUnits="userSpaceOnUse" xlink:href="#linearGradient3915-4"/><linearGradient id="linearGradient3921-12" x1="35" x2="38" y1="8" y2="5" gradientUnits="userSpaceOnUse" xlink:href="#linearGradient3915-4"/><linearGradient id="linearGradient3867-1" x1="1.995" x2="46.005" y1="28.563" y2="28.563" gradientUnits="userSpaceOnUse" xlink:href="#linearGradient3861-7"/><linearGradient id="linearGradient3858-8" x1="24" x2="24" y1="1046.362" y2="1014.362" gradientTransform="translate(0,-1004.3622)" gradientUnits="userSpaceOnUse" xlink:href="#linearGradient3810-50"/><linearGradient id="linearGradient3856-58" x1="24" x2="24" y1="1046.362" y2="1014.362" gradientTransform="translate(0,-3)" gradientUnits="userSpaceOnUse" xlink:href="#linearGradient3810-50"/><linearGradient id="linearGradient3816-3" x1="24" x2="24" y1="1046.362" y2="1014.362" gradientUnits="userSpaceOnUse" xlink:href="#linearGradient3810-50"/><linearGradient id="linearGradient3810-50"><stop id="stop3812-1" offset="0" stop-color="#f2c66f" stop-opacity="1"/><stop id="stop3814-12" offset="1" stop-color="#fbd68f" stop-opacity="1"/></linearGradient><linearGradient id="linearGradient3844-4"><stop id="stop3846-20" offset="0" stop-color="#000" stop-opacity=".392"/><stop id="stop3848-1" offset="1" stop-color="#000" stop-opacity="0"/></linearGradient><linearGradient id="linearGradient3861-7"><stop id="stop3863-43" offset="0" stop-color="#000" stop-opacity="1"/><stop id="stop3865-26" offset="1" stop-color="#000" stop-opacity="0"/></linearGradient><linearGradient id="linearGradient3915-4"><stop id="stop3917-8" offset="0" stop-color="#f8f4e1" stop-opacity="1"/><stop id="stop3919-26" offset="1" stop-color="#ad9e57" stop-opacity="1"/></linearGradient><linearGradient id="linearGradient3956-145"><stop id="stop3958-8" offset="0" stop-color="#f8f4e1" stop-opacity="1"/><stop id="stop3960-5" offset="1" stop-color="#eae5c8" stop-opacity="1"/></linearGradient><linearGradient id="linearGradient3823-3"><stop id="stop3825-55" offset="0" stop-color="#49b7ef" stop-opacity="1"/><stop id="stop3827-31" offset="1" stop-color="#1d8de2" stop-opacity="1"/></linearGradient><linearGradient id="linearGradient3833-962"><stop id="stop3835-2" offset="0" stop-color="#fdfeff" stop-opacity="1"/><stop id="stop3837-91" offset="1" stop-color="#dfe4e4" stop-opacity="1"/></linearGradient><linearGradient id="linearGradient3855-2"><stop id="stop3857-52" offset="0" stop-color="#000" stop-opacity="1"/><stop id="stop3859-0" offset="1" stop-color="#000" stop-opacity=".294"/></linearGradient><linearGradient id="linearGradient3862-9" x1="22" x2="20" y1="15" y2="30" gradientUnits="userSpaceOnUse" xlink:href="#linearGradient3855-9"/><linearGradient id="linearGradient3839-67" x1="21" x2="20" y1="14" y2="26" gradientUnits="userSpaceOnUse" xlink:href="#linearGradient3833-1"/><linearGradient id="linearGradient3829-5" x1="21" x2="20" y1="14" y2="24" gradientUnits="userSpaceOnUse" xlink:href="#linearGradient3823-0"/><linearGradient id="linearGradient3954-573" x1="35" x2="44" y1="11" y2="5" gradientTransform="translate(22,1004.3622)" gradientUnits="userSpaceOnUse" xlink:href="#linearGradient3915-72"/><linearGradient id="linearGradient3933-8" x1="35" x2="38" y1="8" y2="5" gradientTransform="matrix(1.0436562,0,0,1.2222222,26.301501,1003.2511)" gradientUnits="userSpaceOnUse" xlink:href="#linearGradient3915-72"/><linearGradient id="linearGradient3921-95" x1="35" x2="38" y1="8" y2="5" gradientUnits="userSpaceOnUse" xlink:href="#linearGradient3915-72"/><linearGradient id="linearGradient3867-77" x1="1.995" x2="46.005" y1="28.563" y2="28.563" gradientUnits="userSpaceOnUse" xlink:href="#linearGradient3861-79"/><linearGradient id="linearGradient3858-68" x1="24" x2="24" y1="1046.362" y2="1014.362" gradientTransform="translate(0,-1004.3622)" gradientUnits="userSpaceOnUse" xlink:href="#linearGradient3810-8"/><linearGradient id="linearGradient3856-8" x1="24" x2="24" y1="1046.362" y2="1014.362" gradientTransform="translate(0,-3)" gradientUnits="userSpaceOnUse" xlink:href="#linearGradient3810-8"/><linearGradient id="linearGradient3816-19" x1="24" x2="24" y1="1046.362" y2="1014.362" gradientUnits="userSpaceOnUse" xlink:href="#linearGradient3810-8"/><linearGradient id="linearGradient3810-8"><stop id="stop3812-8" offset="0" stop-color="#f2c66f" stop-opacity="1"/><stop id="stop3814-59" offset="1" stop-color="#fbd68f" stop-opacity="1"/></linearGradient><linearGradient id="linearGradient3844-1"><stop id="stop3846-9" offset="0" stop-color="#000" stop-opacity=".392"/><stop id="stop3848-56" offset="1" stop-color="#000" stop-opacity="0"/></linearGradient><linearGradient id="linearGradient3861-79"><stop id="stop3863-6" offset="0" stop-color="#000" stop-opacity="1"/><stop id="stop3865-8" offset="1" stop-color="#000" stop-opacity="0"/></linearGradient><linearGradient id="linearGradient3915-72"><stop id="stop3917-3" offset="0" stop-color="#f8f4e1" stop-opacity="1"/><stop id="stop3919-9" offset="1" stop-color="#ad9e57" stop-opacity="1"/></linearGradient><linearGradient id="linearGradient3956-149"><stop id="stop3958-3" offset="0" stop-color="#f8f4e1" stop-opacity="1"/><stop id="stop3960-8" offset="1" stop-color="#eae5c8" stop-opacity="1"/></linearGradient><linearGradient id="linearGradient3823-0"><stop id="stop3825-1" offset="0" stop-color="#49b7ef" stop-opacity="1"/><stop id="stop3827-6" offset="1" stop-color="#1d8de2" stop-opacity="1"/></linearGradient><linearGradient id="linearGradient3833-1"><stop id="stop3835-55" offset="0" stop-color="#fdfeff" stop-opacity="1"/><stop id="stop3837-58" offset="1" stop-color="#dfe4e4" stop-opacity="1"/></linearGradient><linearGradient id="linearGradient3855-9"><stop id="stop3857-2" offset="0" stop-color="#000" stop-opacity="1"/><stop id="stop3859-4" offset="1" stop-color="#000" stop-opacity=".294"/></linearGradient><linearGradient id="linearGradient3862-5" x1="22" x2="20" y1="15" y2="30" gradientUnits="userSpaceOnUse" xlink:href="#linearGradient3855-94"/><linearGradient id="linearGradient3839-4" x1="21" x2="20" y1="14" y2="26" gradientUnits="userSpaceOnUse" xlink:href="#linearGradient3833-13"/><linearGradient id="linearGradient3829-15" x1="21" x2="20" y1="14" y2="24" gradientUnits="userSpaceOnUse" xlink:href="#linearGradient3823-89"/><linearGradient id="linearGradient3954-59" x1="35" x2="44" y1="11" y2="5" gradientTransform="translate(22,1004.3622)" gradientUnits="userSpaceOnUse" xlink:href="#linearGradient3915-11"/><linearGradient id="linearGradient3933-02" x1="35" x2="38" y1="8" y2="5" gradientTransform="matrix(1.0436562,0,0,1.2222222,26.301501,1003.2511)" gradientUnits="userSpaceOnUse" xlink:href="#linearGradient3915-11"/><linearGradient id="linearGradient3921-4" x1="35" x2="38" y1="8" y2="5" gradientUnits="userSpaceOnUse" xlink:href="#linearGradient3915-11"/><linearGradient id="linearGradient3867-69" x1="1.995" x2="46.005" y1="28.563" y2="28.563" gradientUnits="userSpaceOnUse" xlink:href="#linearGradient3861-53"/><linearGradient id="linearGradient3858-3" x1="24" x2="24" y1="1046.362" y2="1014.362" gradientTransform="translate(0,-1004.3622)" gradientUnits="userSpaceOnUse" xlink:href="#linearGradient3810-21"/><linearGradient id="linearGradient3856-15" x1="24" x2="24" y1="1046.362" y2="1014.362" gradientTransform="translate(0,-3)" gradientUnits="userSpaceOnUse" xlink:href="#linearGradient3810-21"/><radialGradient id="radialGradient3850-9" cx="24.076" cy="41.383" r="21.076" fx="24.076" fy="41.383" gradientTransform="matrix(1,0,0,0.11307633,0,36.703704)" gradientUnits="userSpaceOnUse" xlink:href="#linearGradient3844-66"/><linearGradient id="linearGradient3816-6" x1="24" x2="24" y1="1046.362" y2="1014.362" gradientUnits="userSpaceOnUse" xlink:href="#linearGradient3810-21"/><linearGradient id="linearGradient3810-21"><stop id="stop3812-7" offset="0" stop-color="#f2c66f" stop-opacity="1"/><stop id="stop3814-02" offset="1" stop-color="#fbd68f" stop-opacity="1"/></linearGradient><linearGradient id="linearGradient3844-66"><stop id="stop3846-02" offset="0" stop-color="#000" stop-opacity=".392"/><stop id="stop3848-95" offset="1" stop-color="#000" stop-opacity="0"/></linearGradient><linearGradient id="linearGradient3861-53"><stop id="stop3863-40" offset="0" stop-color="#000" stop-opacity="1"/><stop id="stop3865-53" offset="1" stop-color="#000" stop-opacity="0"/></linearGradient><linearGradient id="linearGradient3915-11"><stop id="stop3917-09" offset="0" stop-color="#f8f4e1" stop-opacity="1"/><stop id="stop3919-70" offset="1" stop-color="#ad9e57" stop-opacity="1"/></linearGradient><linearGradient id="linearGradient3956-45"><stop id="stop3958-2" offset="0" stop-color="#f8f4e1" stop-opacity="1"/><stop id="stop3960-9" offset="1" stop-color="#eae5c8" stop-opacity="1"/></linearGradient><linearGradient id="linearGradient3823-89"><stop id="stop3825-97" offset="0" stop-color="#49b7ef" stop-opacity="1"/><stop id="stop3827-69" offset="1" stop-color="#1d8de2" stop-opacity="1"/></linearGradient><linearGradient id="linearGradient3833-13"><stop id="stop3835-82" offset="0" stop-color="#fdfeff" stop-opacity="1"/><stop id="stop3837-0" offset="1" stop-color="#dfe4e4" stop-opacity="1"/></linearGradient><linearGradient id="linearGradient3855-94"><stop id="stop3857-0" offset="0" stop-color="#000" stop-opacity="1"/><stop id="stop3859-45" offset="1" stop-color="#000" stop-opacity=".294"/></linearGradient></defs><metadata id="metadata7"/><g id="layer3" transform="translate(0,48)"><path id="path3842" fill="url(#radialGradient3850)" fill-opacity="1" stroke="none" d="m 45.151344,41.38316 a 21.075672,2.3831596 0 1 1 -42.151344,0 21.075672,2.3831596 0 1 1 42.151344,0 z" opacity=".65" transform="matrix(1.992819,0,0,2.098055,0.0215431,-53.824145)"/></g><g id="layer1" transform="translate(0,-956.3622)"><g id="layer1-8" transform="matrix(2,0,0,2,0,-1054.3622)"><path id="path3029" fill="#1976d2" fill-opacity="1" stroke="none" d="m 3,1014.3622 0,28 42,0 0,-14 -2,-12 -16,0 -2,-4 -20,0 c -1,0 -2,1 -2,2 z"/><rect id="rect3799" width="21" height="8" x="6" y="1017.362" fill="#f2f2f2" fill-opacity="1" stroke="none"/><path id="path3810" fill="#000" fill-opacity="1" stroke="none" d="M 5,8 C 4,8 3,9 3,10 l 0,1 C 3,10 4,9 5,9 l 19,0 2,4 17,0 2,12 0,-1 -2,-12 -16,0 -2,-4 z" opacity=".03" transform="translate(0,1004.3622)"/><path id="rect2987" fill="#5a9be7" fill-opacity="1" stroke="none" d="m 45,1018.3622 0,28 -42,0 0,-26 20,0 2,-4 18,0 c 1,0 2,1 2,2 z"/><path id="path3794" fill="#000" fill-opacity="1" stroke="none" d="m 3,1045.3622 0,1 42,0 0,-1 z" opacity=".15"/><path id="path3801" fill="none" stroke="none" d="m 25,13 -5,3 3,0 z" transform="translate(0,1004.3622)"/><path id="path3805" fill="#000" fill-opacity="1" stroke="none" d="m 25,12 -2,4 -20,0 0,1 21,0 2,-4 17,0 c 1,0 2,1 2,2 l 0,-1 c 0,-1 -1,-2 -2,-2 z" opacity=".03" transform="translate(0,1004.3622)"/><path style="line-height:normal" id="path4139" fill="#2a74b9" fill-opacity="1" d="m 23.000287,1025.3622 c -3.412276,0 -7.000287,3.5882 -7.000287,8.0001 0,4.4118 3.588016,7.9999 7.000287,7.9999 5.411697,0 8.999713,-3.5881 8.999713,-7.9999 0,-4.4119 -3.58801,-8.0001 -8,-8.0001 z m 1.649712,1.1252 c 0.745675,0.069 1.468157,0.2392 2.125001,0.525 -0.05056,0.063 -0.08964,0.1186 -0.124997,0.225 -0.202031,0.6059 -0.503553,0.3171 -0.150003,1.0747 0.353553,0.7575 0.648985,0.9534 0.749999,0.5999 0.101024,-0.3533 -0.25406,-0.852 0.150001,-0.6499 0.404063,0.202 0.703047,-0.055 0.4,0.4003 -0.303046,0.4545 -0.296446,0.7009 -0.649999,0.5998 -0.353554,-0.1012 -0.346445,0.5991 -0.700001,0.7001 -0.353552,0.1012 -0.474999,-0.1525 -0.474999,0.1001 0,0.2524 0.200506,0.021 0.150002,0.425 -0.0154,0.1237 -0.01091,0.1458 -0.025,0.2 -0.331874,-0.095 -0.479889,-0.1477 -0.724999,-0.051 -0.252539,0.1012 -0.55,0.7501 -0.55,0.7501 0.315469,0.3155 0.461838,0.5426 0.574999,0.6501 -0.07061,0.035 -0.155554,0.05 -0.225,0.1001 -0.505077,0.3537 -0.898478,0.4202 -1.05,0.9249 -0.151525,0.5055 -0.09999,0.043 -0.09999,0.65 0,0.6062 -0.15305,0.1944 0.150001,0.7502 0.303045,0.5556 1.046445,0.8218 1.399998,1.1249 0.353555,0.3029 0.717894,-0.6592 1.425,0.2501 0.707107,0.909 0.75254,0.5448 0.500001,1.0501 -0.25254,0.5051 -0.498985,0.6729 -0.599999,0.8749 -0.101023,0.202 0.196446,0.8986 0.55,1.0499 0.0074,0 0.01708,0 0.025,0 -0.01882,0.043 -0.03134,0.082 -0.05001,0.1253 -0.457834,0.2079 -1.019073,0.4948 -1.125002,0.5249 -0.25,0.072 -1.132142,0.2212 -1.774999,0.3999 -0.08036,0.023 -0.143616,0.023 -0.175,0.026 0.07992,-0.087 0.711813,-0.4174 1.024999,-0.5998 0.428574,-0.2505 -0.025,-0.2251 -0.025,-0.2251 0,0 -0.682143,-0.076 -2.074998,-0.076 -0.69643,0 -0.998214,0.031 -1.150001,0.076 -0.07589,0.023 -0.113171,0.045 -0.150001,0.075 -0.03683,0.031 -0.0625,0.064 -0.124998,0.1 -0.250003,0.1428 0.146423,0.2928 -0.174999,0.3998 -0.24107,0.08 -0.269085,0 -0.474999,-0.1507 0.146887,-0.1461 0.349583,-0.322 0.599999,-0.6251 0.454569,-0.5499 0.598477,-0.4498 0.749999,-0.9498 0.151526,-0.5002 -1.274998,-0.3499 -1.274998,-0.65 0,-0.3 -0.245433,-0.4999 -0.7,-0.7 -0.454569,-0.2001 -0.14493,-0.3001 -0.650001,-0.4501 -0.505075,-0.1494 -1.073476,0.7499 -1.224999,0.4501 -0.151526,-0.3001 0.475,-0.3001 0.475,-0.6499 0,-0.3416 -0.720364,0.2578 -0.850002,-0.175 -0.0034,-0.016 -0.02247,-0.016 -0.025,-0.026 -0.01268,-0.063 -0.0045,-0.1001 0,-0.1494 0.03178,-0.3596 0.448224,-0.4999 0.625001,-0.8501 0.202032,-0.3996 0.09746,0.3003 0.35,0.6502 0.252539,0.35 0.151527,-0.45 0,-0.9 -0.151525,-0.4502 0.09645,-0.45 0.450001,-1.05 0.353553,-0.6001 0.35,-0.95 0.35,-1.4001 0,-0.4499 0.244924,-0.4996 0.749999,-0.95 0.231494,-0.206 0.413114,-0.3858 0.55,-0.5499 0.03309,-0.016 0.06652,-0.016 0.1,-0.026 0.535716,-0.2144 0.760714,-0.5357 1.225,-1.5001 0.464288,-0.9641 -0.182142,-0.064 -0.325001,-0.1001 -0.142859,-0.035 -0.349999,-0.2892 -0.85,-0.575 -0.103124,-0.059 -0.195146,-0.087 -0.274999,-0.099 l 0.925001,-1.525 c 0.296295,-0.08 0.614413,-0.1348 0.924999,-0.1751 0.113637,0.6466 0.05001,1.2501 0.05001,1.2501 0,0 -0.175,0.2071 -0.175,0.35 0,0.1429 0.957143,-1.1785 1.1,-1.25 0.14286,-0.072 0.50357,0.3786 0.574999,-0.3 0.004,-0.039 -0.0045,-0.04 0,-0.075 z m 1.35,2.6999 c -0.05129,-0.016 -0.111871,-10e-5 -0.174998,0.026 0,0.1768 -0.06843,0.3054 -0.09999,0.3749 -0.01878,-0.032 -0.07501,-0.075 -0.07501,-0.075 -0.07575,0.1397 -0.239152,0.2629 -0.07501,0.225 0.16415,-0.037 0.288642,0.064 0.175001,-0.075 -0.02185,-0.026 -0.01156,-0.015 -0.025,-0.026 0.02129,0.016 0.06161,0.026 0.150001,0.026 0.09945,0 0.152906,0 0.224999,0 -0.121933,0.09 -0.254933,0.1284 -0.07501,0.175 0.23991,0.063 0.35,0.076 0.35,0.026 0,-0.05 -0.07499,-0.225 -0.07499,-0.225 0.04687,-0.019 0.09041,-0.043 0.05001,-0.1252 -0.07576,-0.1508 -0.196111,-0.3013 -0.350002,-0.3249 z m 3.825001,0.4248 c 0.124917,0.1941 0.24458,0.3936 0.350001,0.6001 -0.06954,0.4034 -0.246146,0.6751 0.05001,0.6751 0.0828,0 0.156661,-0.018 0.225,-0.026 0.0093,0.024 0.01605,0.051 0.025,0.075 -0.505078,0 -0.747462,0.151 -1.000001,0.1 -0.252539,-0.051 -0.954568,-0.096 -0.5,-0.5499 0.265676,-0.2658 0.597554,-0.6879 0.85,-0.8752 z m -3.15,0.9253 c 0.04655,0.015 0.08713,0.063 0.124998,0.1491 0.151526,0.3537 0.402031,0.6496 0.200001,0.7002 -0.202032,0.05 -0.300002,0.1001 -0.300002,0.1001 0,0 0.699493,0.4548 0.750001,-0.05 0.05051,-0.5053 -0.2,-0.8003 -0.2,-0.8003 0,0 0.348986,0.3481 0.45,0.5502 0.101022,0.202 0.09746,0 0.350001,0.2501 0.252537,0.2523 0.196446,-1.0037 0.55,-0.6501 0.353554,0.3535 0.576016,0.3475 0.474999,0.6 -0.101023,0.2524 0.650002,-0.3051 0.650002,0.1999 0,0.4869 0.310535,0.6845 -0.3,0.9251 -0.231155,-0.016 -0.414114,-0.055 -0.450002,-0.1253 -0.101021,-0.2018 -0.674999,-0.05 -0.674999,-0.05 -1.510917,-0.3776 -2.16686,-0.4973 -2.600001,-0.4249 0.0082,-0.016 0.01614,-0.016 0.025,-0.026 0.220971,-0.398 0.636726,-0.9506 0.5,-1.15 0.19257,-0.1109 0.343523,-0.2325 0.45,-0.2002 z m 4.25,2.5248 c 0.0045,0.1011 0,0.1975 0,0.3001 0,0.2843 -0.01705,0.5747 -0.05001,0.8499 -0.454411,-0.4043 -1.100001,-0.3999 -1.100001,-0.3999 0,0 0.394416,-0.448 0.950001,-0.6501 0.06946,-0.026 0.143871,-0.059 0.2,-0.1 z" color="#000" opacity="1"/></g></g></svg>