<svg xmlns="http://www.w3.org/2000/svg" xmlns:svg="http://www.w3.org/2000/svg" xmlns:xlink="http://www.w3.org/1999/xlink" id="svg2" width="22" height="22" version="1.1"><defs id="defs4"><radialGradient id="radialGradient3766" cx="11" cy="19" r="11" fx="11" fy="19" gradientTransform="matrix(1,0,0,0.09090909,0,17.272727)" gradientUnits="userSpaceOnUse" xlink:href="#linearGradient3760"/><linearGradient id="linearGradient3760"><stop id="stop3762" offset="0" stop-color="#000" stop-opacity="1"/><stop id="stop3764" offset="1" stop-color="#000" stop-opacity="0"/></linearGradient><radialGradient id="radialGradient3783" cx="11" cy="19" r="11" fx="11" fy="19" gradientTransform="matrix(1,0,0,0.09090909,0,17.272727)" gradientUnits="userSpaceOnUse" xlink:href="#linearGradient3760"/></defs><metadata id="metadata7"/><g id="layer1" transform="translate(0,-1030.3622)"><path id="path2990" fill="url(#radialGradient3783)" fill-opacity="1" stroke="none" d="m 22,19 c 0,0.552285 -4.924868,1 -11,1 -6.0751322,0 -11,-0.447715 -11,-1 0,-0.552285 4.9248678,-1 11,-1 6.075132,0 11,0.447715 11,1 z" opacity=".25" transform="matrix(1.1818182,0,0,1,-2,1031.3622)"/><path id="path3029" fill="#1976d2" fill-opacity="1" stroke="none" d="m 0,1033.3622 0,14 22,0 0,-7 -1,-6 -8,0 -1,-2 -11,0 c -0.5,0 -1,0.5 -1,1 z"/><path id="path3806" fill="#000" fill-opacity="1" stroke="none" d="m 1,1032.3622 c -0.5,0 -1,0.5 -1,1 l 0,1 c 0,-0.5 0.5,-1 1,-1 l 10,0 1,2 9,0 0,6 0,-1 0,-6 -8,0 -1,-2 z" opacity=".03"/><rect id="rect3799" width="10" height="4" x="2" y="1035.362" fill="#f2f2f2" fill-opacity="1" stroke="none"/><path id="rect2987" fill="#5a9be7" fill-opacity="1" stroke="none" d="m 22,1035.4289 0,14.9333 -22,0 0,-14 11,0 1,-2 9,0 c 0.5,0 1,0.5333 1,1.0667 z"/><path id="path3794" fill="#000" fill-opacity="1" stroke="none" d="m 0,1049.3622 0,1 22,0 0,-1 z" opacity=".15"/><path id="path3801" fill="none" stroke="none" d="m 11,1034.8622 -2.5,1.5 1.5,0 z"/><path id="path3033" fill="#000" fill-opacity="1" stroke="none" d="m 12,1034.3622 -1,2 -11,0 0,1 12,0 1,-2 8,0 c 0.5,0 1,0.5 1,1 l 0,-1 c 0,-0.5 -0.5,-1 -1,-1 z" opacity=".03"/><path id="path3843" fill="#2a74b9" fill-opacity="1" stroke="none" d="M 10.375 9 C 7.8788356 9.056 6 10.7233 6 12.4375 C 6 14.1518 7.25 14.15625 7.875 14.15625 C 8.5000001 14.15625 9.125 14.13835 9.125 15.28125 C 9.125 16.42405 9.7499999 17 11 17 C 15.375 17 16 14.1428 16 13 C 16 11.2858 14.125 9 10.375 9 z M 9.5 10 C 9.7761424 10 10 10.223858 10 10.5 C 10 10.776142 9.7761424 11 9.5 11 C 9.2238576 11 9 10.776142 9 10.5 C 9 10.223858 9.2238576 10 9.5 10 z M 11.5 10 C 11.776142 10 12 10.223858 12 10.5 C 12 10.776142 11.776142 11 11.5 11 C 11.223858 11 11 10.776142 11 10.5 C 11 10.223858 11.223858 10 11.5 10 z M 7.5 11 C 7.7761424 11 8 11.223858 8 11.5 C 8 11.776142 7.7761424 12 7.5 12 C 7.2238576 12 7 11.776142 7 11.5 C 7 11.223858 7.2238576 11 7.5 11 z M 13.5 11 C 13.776142 11 14 11.223858 14 11.5 C 14 11.776142 13.776142 12 13.5 12 C 13.223858 12 13 11.776142 13 11.5 C 13 11.223858 13.223858 11 13.5 11 z M 11 14 C 11.552285 14 12 14.447715 12 15 C 12 15.552285 11.552285 16 11 16 C 10.447715 16 10 15.552285 10 15 C 10 14.447715 10.447715 14 11 14 z" opacity="1" transform="translate(0,1030.3622)"/></g></svg>