<svg xmlns="http://www.w3.org/2000/svg" xmlns:svg="http://www.w3.org/2000/svg" xmlns:xlink="http://www.w3.org/1999/xlink" id="svg2" width="22" height="22" version="1.1"><defs id="defs4"><linearGradient id="linearGradient3760"><stop id="stop3762" offset="0" stop-color="#000" stop-opacity="1"/><stop id="stop3764" offset="1" stop-color="#000" stop-opacity="0"/></linearGradient><radialGradient id="radialGradient3766" cx="11" cy="19" r="11" fx="11" fy="19" gradientTransform="matrix(1,0,0,0.09090909,0,17.272727)" gradientUnits="userSpaceOnUse" xlink:href="#linearGradient3760"/></defs><metadata id="metadata7"/><g id="layer1" transform="translate(0,-1030.3622)"><path id="path2990" fill="url(#radialGradient3766)" fill-opacity="1" stroke="none" d="M 22,19 A 11,1 0 1 1 0,19 11,1 0 1 1 22,19 z" opacity=".25" transform="matrix(1.1818182,0,0,1,-2,1031.3622)"/><path id="path3029" fill="#1976d2" fill-opacity="1" stroke="none" d="m 0,1033.3622 0,14 22,0 0,-7 -1,-6 -8,0 -1,-2 -11,0 c -0.5,0 -1,0.5 -1,1 z"/><path id="path3806" fill="#000" fill-opacity="1" stroke="none" d="m 1,1032.3622 c -0.5,0 -1,0.5 -1,1 l 0,1 c 0,-0.5 0.5,-1 1,-1 l 10,0 1,2 9,0 0,6 0,-1 0,-6 -8,0 -1,-2 z" opacity=".03"/><rect id="rect3799" width="10" height="4" x="2" y="1035.362" fill="#f2f2f2" fill-opacity="1" stroke="none"/><path id="rect2987" fill="#5a9be7" fill-opacity="1" stroke="none" d="m 22,1035.4289 0,14.9333 -22,0 0,-14 11,0 1,-2 9,0 c 0.5,0 1,0.5333 1,1.0667 z"/><path id="path3794" fill="#000" fill-opacity="1" stroke="none" d="m 0,1049.3622 0,1 22,0 0,-1 z" opacity=".15"/><path id="path3801" fill="none" stroke="none" d="m 11,1034.8622 -2.5,1.5 1.5,0 z"/><path id="path3033" fill="#000" fill-opacity="1" stroke="none" d="m 12,1034.3622 -1,2 -11,0 0,1 12,0 1,-2 8,0 c 0.5,0 1,0.5 1,1 l 0,-1 c 0,-0.5 -0.5,-1 -1,-1 z" opacity=".03"/><g id="g3862" fill="#2a74b9" fill-opacity="1" opacity="1"><rect id="rect3767" width="4" height="1" x="8" y="1041.362" fill="#2a74b9" fill-opacity="1" stroke="none" opacity="1" rx=".25" ry=".25"/><path id="rect3807" fill="#2a74b9" fill-opacity="1" stroke="none" d="M 7 8 C 6.446 8 6 8.446 6 9 L 6 17 C 6 17.554 6.446 18 7 18 L 13 18 C 13.554 18 14 17.554 14 17 L 14 9 C 14 8.446 13.554 8 13 8 L 7 8 z M 8 9 L 12 9 C 12.554 9 13 9.446 13 10 L 13 16 C 13 16.554 12.554 17 12 17 L 8 17 C 7.446 17 7 16.554 7 16 L 7 10 C 7 9.446 7.446 9 8 9 z" opacity="1" transform="translate(0,1030.3622)"/><rect id="rect3812" width="4" height="1" x="8" y="1043.362" fill="#2a74b9" fill-opacity="1" stroke="none" opacity="1" rx=".25" ry=".25"/><rect id="rect3814" width="4" height="1" x="8" y="1045.362" fill="#2a74b9" fill-opacity="1" stroke="none" opacity="1" rx=".25" ry=".25"/><path id="path3854" fill="#2a74b9" fill-opacity="1" stroke="none" d="m 12,10 0,-2 2,2 z" opacity="1" transform="translate(0,1030.3622)"/></g></g></svg>