<svg xmlns="http://www.w3.org/2000/svg" xmlns:svg="http://www.w3.org/2000/svg" xmlns:xlink="http://www.w3.org/1999/xlink" id="svg2" width="22" height="22" version="1.1"><defs id="defs4"><radialGradient id="radialGradient3766" cx="11" cy="19" r="11" fx="11" fy="19" gradientTransform="matrix(1,0,0,0.09090909,0,17.272727)" gradientUnits="userSpaceOnUse" xlink:href="#linearGradient3760"/><linearGradient id="linearGradient3760"><stop id="stop3762" offset="0" stop-color="#000" stop-opacity="1"/><stop id="stop3764" offset="1" stop-color="#000" stop-opacity="0"/></linearGradient><radialGradient id="radialGradient3783" cx="11" cy="19" r="11" fx="11" fy="19" gradientTransform="matrix(1,0,0,0.09090909,0,17.272727)" gradientUnits="userSpaceOnUse" xlink:href="#linearGradient3760"/></defs><metadata id="metadata7"/><g id="layer1" transform="translate(0,-1030.3622)"><path id="path2990" fill="url(#radialGradient3783)" fill-opacity="1" stroke="none" d="m 22,19 c 0,0.552285 -4.924868,1 -11,1 -6.0751322,0 -11,-0.447715 -11,-1 0,-0.552285 4.9248678,-1 11,-1 6.075132,0 11,0.447715 11,1 z" opacity=".25" transform="matrix(1.1818182,0,0,1,-2,1031.3622)"/><path id="path3029" fill="#1976d2" fill-opacity="1" stroke="none" d="m 0,1033.3622 0,14 22,0 0,-7 -1,-6 -8,0 -1,-2 -11,0 c -0.5,0 -1,0.5 -1,1 z"/><path id="path3806" fill="#000" fill-opacity="1" stroke="none" d="m 1,1032.3622 c -0.5,0 -1,0.5 -1,1 l 0,1 c 0,-0.5 0.5,-1 1,-1 l 10,0 1,2 9,0 0,6 0,-1 0,-6 -8,0 -1,-2 z" opacity=".03"/><rect id="rect3799" width="10" height="4" x="2" y="1035.362" fill="#f2f2f2" fill-opacity="1" stroke="none"/><path id="rect2987" fill="#5a9be7" fill-opacity="1" stroke="none" d="m 22,1035.4289 0,14.9333 -22,0 0,-14 11,0 1,-2 9,0 c 0.5,0 1,0.5333 1,1.0667 z"/><path id="path3794" fill="#000" fill-opacity="1" stroke="none" d="m 0,1049.3622 0,1 22,0 0,-1 z" opacity=".15"/><path id="path3801" fill="none" stroke="none" d="m 11,1034.8622 -2.5,1.5 1.5,0 z"/><path id="path3033" fill="#000" fill-opacity="1" stroke="none" d="m 12,1034.3622 -1,2 -11,0 0,1 12,0 1,-2 8,0 c 0.5,0 1,0.5 1,1 l 0,-1 c 0,-0.5 -0.5,-1 -1,-1 z" opacity=".03"/><path id="path3447" fill="#2a74b9" fill-opacity="1" fill-rule="nonzero" stroke="none" d="m 14.3125,1037.7179 c -1.484212,0 -2.697917,1.1676 -2.697917,2.6015 0,0.4813 0.146765,0.936 0.385417,1.3249 l 0,2.8184 c -0.293953,0.059 -0.56552,0.1883 -0.794922,0.3613 l -2.673828,-1.1562 c 0,-1.0227 -0.8674061,-1.8549 -1.9270833,-1.8549 -1.0577799,0 -1.9270834,0.8317 -1.9270834,1.8549 0,1.0246 0.8688292,1.8789 1.9270834,1.8789 0.4291692,0 0.8346949,-0.1533 1.15625,-0.3854 l 2.6979163,1.1803 c 0.02781,1.0017 0.886159,1.8066 1.927084,1.8066 1.059677,0 1.927083,-0.8302 1.927083,-1.8548 0,-0.4269 -0.156839,-0.8169 -0.409505,-1.1321 l 0.02409,0 1.421224,-2.433 c 0.01014,-0.01 0.01401,-0.02 0.02409,-0.024 0.951211,-0.405 1.638021,-1.3203 1.638021,-2.3848 0,-1.4325 -1.215602,-2.6016 -2.697917,-2.6016 z m 0,0.8671 c 0.997064,0 1.782552,0.771 1.782552,1.7344 0,0.9653 -0.785962,1.7344 -1.782552,1.7344 -0.998487,0 -1.782552,-0.7691 -1.782552,-1.7344 0,-0.9634 0.784065,-1.7344 1.782552,-1.7344 z m 0,0.6264 c -0.637514,0 -1.15625,0.489 -1.15625,1.108 0,0.6166 0.518736,1.1081 1.15625,1.1081 0.639412,0 1.15625,-0.491 1.15625,-1.1081 0,-0.6186 -0.516838,-1.108 -1.15625,-1.108 z m -7.7083333,3.3483 c 0.6329331,0 0.9938743,0.247 1.1080729,0.7467 l -0.6744792,-0.2891 c -0.4373421,-0.1798 -0.9466942,0.01 -1.1321614,0.4336 -0.1854673,0.4227 0.02034,0.9062 0.4576822,1.0841 l 0.5058594,0.2408 c -0.084449,0.012 -0.1684456,0.024 -0.2649739,0.024 -0.7708037,0 -1.15625,-0.3855 -1.15625,-1.1321 0,-0.7448 0.3854463,-1.1081 1.15625,-1.1081 z m 5.7812503,2.4811 c 0.713407,0 1.276692,0.5634 1.276692,1.2526 0,0.6892 -0.563285,1.2285 -1.276692,1.2285 -0.579327,0 -1.068426,-0.3601 -1.228516,-0.8672 l 0.915365,0.3855 c 0.437342,0.1797 0.946694,-0.033 1.132161,-0.4578 0.185467,-0.4226 -0.02034,-0.906 -0.457682,-1.0839 l -0.843099,-0.3614 c 0.14769,-0.057 0.312052,-0.096 0.481771,-0.096 z" opacity="1"/></g></svg>