<svg xmlns="http://www.w3.org/2000/svg" xmlns:svg="http://www.w3.org/2000/svg" xmlns:xlink="http://www.w3.org/1999/xlink" id="svg2" width="22" height="22" version="1.1"><defs id="defs4"><radialGradient id="radialGradient3766" cx="11" cy="19" r="11" fx="11" fy="19" gradientTransform="matrix(1,0,0,0.09090909,0,17.272727)" gradientUnits="userSpaceOnUse" xlink:href="#linearGradient3760"/><linearGradient id="linearGradient3760"><stop id="stop3762" offset="0" stop-color="#000" stop-opacity="1"/><stop id="stop3764" offset="1" stop-color="#000" stop-opacity="0"/></linearGradient><radialGradient id="radialGradient3783" cx="11" cy="19" r="11" fx="11" fy="19" gradientTransform="matrix(1,0,0,0.09090909,0,17.272727)" gradientUnits="userSpaceOnUse" xlink:href="#linearGradient3760"/></defs><metadata id="metadata7"/><g id="layer1" transform="translate(0,-1030.3622)"><path id="path2990" fill="url(#radialGradient3783)" fill-opacity="1" stroke="none" d="M 22,19 A 11,1 0 1 1 0,19 11,1 0 1 1 22,19 z" opacity=".25" transform="matrix(1.1818182,0,0,1,-2,1031.3622)"/><path id="path3029" fill="#1976d2" fill-opacity="1" stroke="none" d="m 0,1033.3622 0,14 22,0 0,-7 -1,-6 -8,0 -1,-2 -11,0 c -0.5,0 -1,0.5 -1,1 z"/><path id="path3806" fill="#000" fill-opacity="1" stroke="none" d="m 1,1032.3622 c -0.5,0 -1,0.5 -1,1 l 0,1 c 0,-0.5 0.5,-1 1,-1 l 10,0 1,2 9,0 0,6 0,-1 0,-6 -8,0 -1,-2 z" opacity=".03"/><rect id="rect3799" width="10" height="4" x="2" y="1035.362" fill="#f2f2f2" fill-opacity="1" stroke="none"/><path id="rect2987" fill="#5a9be7" fill-opacity="1" stroke="none" d="m 22,1035.4289 0,14.9333 -22,0 0,-14 11,0 1,-2 9,0 c 0.5,0 1,0.5333 1,1.0667 z"/><path id="path3794" fill="#000" fill-opacity="1" stroke="none" d="m 0,1049.3622 0,1 22,0 0,-1 z" opacity=".15"/><path id="path3801" fill="none" stroke="none" d="m 11,1034.8622 -2.5,1.5 1.5,0 z"/><path id="path3033" fill="#000" fill-opacity="1" stroke="none" d="m 12,1034.3622 -1,2 -11,0 0,1 12,0 1,-2 8,0 c 0.5,0 1,0.5 1,1 l 0,-1 c 0,-0.5 -0.5,-1 -1,-1 z" opacity=".03"/><g id="g3838" opacity="1" transform="translate(18.607183,12.874895)"><rect id="rect2989" width="10" height="1" x="-12.607" y="1034.487" fill="#2a74b9" fill-opacity="1" stroke="none" rx=".5" ry=".486"/><rect id="rect2991-6" width="6" height="1" x="1029.487" y="11.607" fill="#2a74b9" fill-opacity="1" stroke="none" rx=".5" ry=".378" transform="matrix(0,1,-1,0,0,0)"/><rect id="rect2993" width="6" height="1" x="1029.487" y="2.607" fill="#2a74b9" fill-opacity="1" stroke="none" rx=".5" ry=".5" transform="matrix(0,1,-1,0,0,0)"/><path id="path2997-6" fill="#2a74b9" fill-opacity="1" stroke="none" d="m -6.975604,1033.0136 c -0.6315789,0.6316 -0.6315789,0.6316 -1.2631578,0 l -1.8947372,-1.8947 c -0.631579,-0.6316 -0.631579,-0.6316 0,-0.6316 l 5.0526319,0 c 0.6315789,0 0.6315789,0 0,0.6316 z"/><rect id="rect2995" width="2" height="7" x="-8.607" y="1025.487" fill="#2a74b9" fill-opacity="1" stroke="none" rx="1" ry="1"/></g></g></svg>