<svg xmlns="http://www.w3.org/2000/svg" xmlns:svg="http://www.w3.org/2000/svg" xmlns:xlink="http://www.w3.org/1999/xlink" id="svg2" width="22" height="22" version="1.1"><defs id="defs4"><linearGradient id="linearGradient3760"><stop id="stop3762" offset="0" stop-color="#000" stop-opacity="1"/><stop id="stop3764" offset="1" stop-color="#000" stop-opacity="0"/></linearGradient><radialGradient id="radialGradient3766" cx="11" cy="19" r="11" fx="11" fy="19" gradientTransform="matrix(1,0,0,0.09090909,0,17.272727)" gradientUnits="userSpaceOnUse" xlink:href="#linearGradient3760"/></defs><metadata id="metadata7"/><g id="layer1" transform="translate(0,-1030.3622)"><rect id="rect2995" width="18" height="10" x="2" y="1030.362" fill="#1976d2" fill-opacity="1" stroke="none" rx="1" ry="1"/><path id="path2990" fill="url(#radialGradient3766)" fill-opacity="1" stroke="none" d="M 22,19 A 11,1 0 1 1 0,19 11,1 0 1 1 22,19 z" opacity=".25" transform="matrix(1.1818182,0,0,1,-2,1032.3622)"/><g id="g3836" fill="#fff1ed" fill-opacity="1" opacity=".6" transform="matrix(0.5,0,0,0.5,-1,528.6811)"><rect id="rect3832" width="8" height="22" x="20" y="1013.362" fill="#fff1ed" fill-opacity="1" stroke="none" ry="0"/><path id="path3834" fill="#fff1ed" fill-opacity="1" stroke="none" d="m 22,1015.3622 -6,0 8,-8 8,8 -6,0 -2,2 z"/></g><path id="rect2987" fill="#5a9be7" fill-opacity="1" stroke="none" d="m 22,1038.4289 0,12.9333 -22,0 0,-12 11,0 1,-2 9,0 c 0.5,0 1,0.5333 1,1.0667 z"/><path id="path3794" fill="#000" fill-opacity="1" stroke="none" d="m 0,1050.3622 0,1 22,0 0,-1 z" opacity=".15"/><path id="path3801" fill="none" stroke="none" d="m 11,1035.8622 -2.5,1.5 1.5,0 z"/><path id="path3033" fill="#000" fill-opacity="1" stroke="none" d="m 12,1037.3622 -1,2 -11,0 0,1 12,0 1,-2 8,0 c 0.5,0 1,0.5 1,1 l 0,-1 c 0,-0.5 -0.5,-1 -1,-1 z" opacity=".03"/><path id="rect3776" fill="#000" fill-opacity="1" stroke="none" d="M 3 0 C 2.446 0 2 0.446 2 1 L 2 2 C 2 1.446 2.446 1 3 1 L 19 1 C 19.554 1 20 1.446 20 2 L 20 1 C 20 0.446 19.554 0 19 0 L 3 0 z" opacity=".03" transform="translate(0,1030.3622)"/></g></svg>