<svg xmlns="http://www.w3.org/2000/svg" xmlns:svg="http://www.w3.org/2000/svg" xmlns:xlink="http://www.w3.org/1999/xlink" id="svg2" width="22" height="22" version="1.1"><defs id="defs4"><linearGradient id="linearGradient3760"><stop id="stop3762" offset="0" stop-color="#000" stop-opacity="1"/><stop id="stop3764" offset="1" stop-color="#000" stop-opacity="0"/></linearGradient><radialGradient id="radialGradient3766" cx="11" cy="19" r="11" fx="11" fy="19" gradientTransform="matrix(1,0,0,0.09090909,0,17.272727)" gradientUnits="userSpaceOnUse" xlink:href="#linearGradient3760"/></defs><metadata id="metadata7"/><g id="layer1" transform="translate(0,-1030.3622)"><path id="path2990" fill="url(#radialGradient3766)" fill-opacity="1" stroke="none" d="m 22,19 c 0,0.552285 -4.924868,1 -11,1 -6.0751322,0 -11,-0.447715 -11,-1 0,-0.552285 4.9248678,-1 11,-1 6.075132,0 11,0.447715 11,1 z" opacity=".25" transform="matrix(1.1818182,0,0,1,-2,1031.3622)"/><path id="path3029" fill="#1976d2" fill-opacity="1" stroke="none" d="m 0,1033.3622 0,14 22,0 0,-7 -1,-6 -8,0 -1,-2 -11,0 c -0.5,0 -1,0.5 -1,1 z"/><path id="path3806" fill="#000" fill-opacity="1" stroke="none" d="m 1,1032.3622 c -0.5,0 -1,0.5 -1,1 l 0,1 c 0,-0.5 0.5,-1 1,-1 l 10,0 1,2 9,0 0,6 0,-1 0,-6 -8,0 -1,-2 z" opacity=".03"/><rect id="rect3799" width="10" height="4" x="2" y="1035.362" fill="#f2f2f2" fill-opacity="1" stroke="none"/><path id="rect2987" fill="#5a9be7" fill-opacity="1" stroke="none" d="m 22,1035.4289 0,14.9333 -22,0 0,-14 11,0 1,-2 9,0 c 0.5,0 1,0.5333 1,1.0667 z"/><path id="path3794" fill="#000" fill-opacity="1" stroke="none" d="m 0,1049.3622 0,1 22,0 0,-1 z" opacity=".15"/><path id="path3801" fill="none" stroke="none" d="m 11,1034.8622 -2.5,1.5 1.5,0 z"/><path id="path3033" fill="#000" fill-opacity="1" stroke="none" d="m 12,1034.3622 -1,2 -11,0 0,1 12,0 1,-2 8,0 c 0.5,0 1,0.5 1,1 l 0,-1 c 0,-0.5 -0.5,-1 -1,-1 z" opacity=".03"/><path id="path3030" fill="#2a74b9" fill-opacity="1" stroke="none" d="M 11 8 C 8.7805057 8 6.9343463 9.4673108 6.28125 11.46875 C 6.7204655 11.835618 7 12.382948 7 13 C 7 13.617052 6.7204655 14.164382 6.28125 14.53125 C 6.9343463 16.532689 8.7805057 18 11 18 C 11.345178 18 11.674512 17.972854 12 17.90625 C 12.049335 16.845528 12.927106 16 14 16 C 14.291093 16 14.563018 16.075687 14.8125 16.1875 C 15.542374 15.318457 16 14.223684 16 13 C 16 11.776316 15.542374 10.681543 14.8125 9.8125 C 14.563018 9.924313 14.291093 10 14 10 C 12.927106 10 12.049335 9.1544717 12 8.09375 C 11.674512 8.0271455 11.345178 8 11 8 z M 11 10 C 12.656854 10 14 11.343146 14 13 C 14 14.656854 12.656854 16 11 16 C 9.3431458 16 8 14.656854 8 13 C 8 11.343146 9.3431458 10 11 10 z" opacity="1" transform="translate(0,1030.3622)"/><path id="path3804" fill="#2a74b9" fill-opacity="1" stroke="none" d="m 6,13 c 0,1.104569 -0.8954305,2 -2,2 -1.1045695,0 -2,-0.895431 -2,-2 0,-1.104569 0.8954305,-2 2,-2 1.1045695,0 2,0.895431 2,2 z" opacity="1" transform="matrix(0.5,0,0,0.5,3,1036.8622)"/><path id="path3811" fill="#2a74b9" fill-opacity="1" stroke="none" d="m 6,13 c 0,1.104569 -0.8954305,2 -2,2 -1.1045695,0 -2,-0.895431 -2,-2 0,-1.104569 0.8954305,-2 2,-2 1.1045695,0 2,0.895431 2,2 z" opacity="1" transform="matrix(0.5,0,0,0.5,12,1041.8622)"/><path id="path3815" fill="#2a74b9" fill-opacity="1" stroke="none" d="m 6,13 c 0,1.104569 -0.8954305,2 -2,2 -1.1045695,0 -2,-0.895431 -2,-2 0,-1.104569 0.8954305,-2 2,-2 1.1045695,0 2,0.895431 2,2 z" opacity="1" transform="matrix(0.5,0,0,0.5,12,1031.8622)"/></g></svg>