<svg xmlns="http://www.w3.org/2000/svg" xmlns:svg="http://www.w3.org/2000/svg" xmlns:xlink="http://www.w3.org/1999/xlink" id="svg2" width="22" height="22" version="1.1"><defs id="defs4"><linearGradient id="linearGradient3760"><stop id="stop3762" offset="0" stop-color="#000" stop-opacity="1"/><stop id="stop3764" offset="1" stop-color="#000" stop-opacity="0"/></linearGradient><radialGradient id="radialGradient3766" cx="11" cy="19" r="11" fx="11" fy="19" gradientTransform="matrix(1,0,0,0.09090909,0,17.272727)" gradientUnits="userSpaceOnUse" xlink:href="#linearGradient3760"/><linearGradient id="linearGradient3865"><stop id="stop3867" offset="0" stop-color="#eac643" stop-opacity="1"/><stop id="stop3869" offset="1" stop-color="#f3d769" stop-opacity="1"/></linearGradient><linearGradient id="linearGradient3857"><stop id="stop3859" offset="0" stop-color="#e3a309" stop-opacity="1"/><stop id="stop3861" offset="1" stop-color="#f0b70b" stop-opacity="1"/></linearGradient><linearGradient id="linearGradient3846"><stop id="stop3849" offset="0" stop-color="#000" stop-opacity="1"/><stop id="stop3852" offset="1" stop-color="#000" stop-opacity="0"/></linearGradient><linearGradient id="linearGradient3830"><stop id="stop3832" offset="0" stop-color="#3b3b3b" stop-opacity="1"/><stop id="stop3834" offset="1" stop-color="#1a1a1a" stop-opacity="1"/></linearGradient><linearGradient id="linearGradient3818"><stop id="stop3820" offset="0" stop-color="#dadad8" stop-opacity="1"/><stop id="stop3822" offset="1" stop-color="#efefef" stop-opacity="1"/></linearGradient><linearGradient id="linearGradient3956"><stop id="stop3958" offset="0" stop-color="#f8f4e1" stop-opacity="1"/><stop id="stop3960" offset="1" stop-color="#eae5c8" stop-opacity="1"/></linearGradient><linearGradient id="linearGradient3915"><stop id="stop3917" offset="0" stop-color="#f8f4e1" stop-opacity="1"/><stop id="stop3919" offset="1" stop-color="#ad9e57" stop-opacity="1"/></linearGradient><linearGradient id="linearGradient3861"><stop id="stop3863" offset="0" stop-color="#000" stop-opacity="1"/><stop id="stop3865" offset="1" stop-color="#000" stop-opacity="0"/></linearGradient><linearGradient id="linearGradient3844"><stop id="stop3846" offset="0" stop-color="#000" stop-opacity=".392"/><stop id="stop3848" offset="1" stop-color="#000" stop-opacity="0"/></linearGradient><linearGradient id="linearGradient3810"><stop id="stop3812" offset="0" stop-color="#f2c66f" stop-opacity="1"/><stop id="stop3814" offset="1" stop-color="#fbd68f" stop-opacity="1"/></linearGradient><linearGradient id="linearGradient3816" x1="24" x2="24" y1="1046.362" y2="1014.362" gradientUnits="userSpaceOnUse" xlink:href="#linearGradient3810"/><linearGradient id="linearGradient3856" x1="24" x2="24" y1="1046.362" y2="1014.362" gradientTransform="translate(0,-3)" gradientUnits="userSpaceOnUse" xlink:href="#linearGradient3810"/><linearGradient id="linearGradient3858" x1="24" x2="24" y1="1046.362" y2="1014.362" gradientTransform="translate(0,-1004.3622)" gradientUnits="userSpaceOnUse" xlink:href="#linearGradient3810"/><linearGradient id="linearGradient3867" x1="1.995" x2="46.005" y1="28.563" y2="28.563" gradientUnits="userSpaceOnUse" xlink:href="#linearGradient3861"/><linearGradient id="linearGradient3921" x1="35" x2="38" y1="8" y2="5" gradientUnits="userSpaceOnUse" xlink:href="#linearGradient3915"/><linearGradient id="linearGradient3933" x1="35" x2="38" y1="8" y2="5" gradientTransform="matrix(1.0436562,0,0,1.2222222,26.301501,1003.2511)" gradientUnits="userSpaceOnUse" xlink:href="#linearGradient3915"/><linearGradient id="linearGradient3018-5" x1="20" x2="20" y1="26" y2="13" gradientTransform="translate(0,0.9999922)" gradientUnits="userSpaceOnUse" xlink:href="#linearGradient3680-6-6-6-3-7"/><linearGradient id="linearGradient3680-6-6-6-3-7"><stop id="stop3682-4-6-1-3-7" offset="0" stop-color="#d2eecc" stop-opacity="1"/><stop id="stop3684-8-5-8-0-2" offset="1" stop-color="#ecffe7" stop-opacity="1"/></linearGradient><linearGradient id="linearGradient3854" x1="23" x2="23" y1="12" y2="15" gradientTransform="translate(0,1006.3622)" gradientUnits="userSpaceOnUse" xlink:href="#linearGradient3846"/></defs><metadata id="metadata7"/><g id="layer1" transform="translate(0,-1030.3622)"><path id="path2990" fill="url(#radialGradient3766)" fill-opacity="1" stroke="none" d="m 22,19 c 0,0.552285 -4.924868,1 -11,1 -6.0751322,0 -11,-0.447715 -11,-1 0,-0.552285 4.9248678,-1 11,-1 6.075132,0 11,0.447715 11,1 z" opacity=".25" transform="matrix(1.1818182,0,0,1,-2,1031.3622)"/><path id="path3029" fill="#1976d2" fill-opacity="1" stroke="none" d="m 0,1033.3622 0,14 22,0 0,-7 -1,-6 -8,0 -1,-2 -11,0 c -0.5,0 -1,0.5 -1,1 z"/><path id="path3806" fill="#000" fill-opacity="1" stroke="none" d="m 1,1032.3622 c -0.5,0 -1,0.5 -1,1 l 0,1 c 0,-0.5 0.5,-1 1,-1 l 10,0 1,2 9,0 0,6 0,-1 0,-6 -8,0 -1,-2 z" opacity=".03"/><rect id="rect3799" width="10" height="4" x="2" y="1035.362" fill="#f2f2f2" fill-opacity="1" stroke="none"/><path id="rect2987" fill="#5a9be7" fill-opacity="1" stroke="none" d="m 22,1035.4289 0,14.9333 -22,0 0,-14 11,0 1,-2 9,0 c 0.5,0 1,0.5333 1,1.0667 z"/><path id="path3794" fill="#000" fill-opacity="1" stroke="none" d="m 0,1049.3622 0,1 22,0 0,-1 z" opacity=".15"/><path id="path3801" fill="none" stroke="none" d="m 11,1034.8622 -2.5,1.5 1.5,0 z"/><path id="path3033" fill="#000" fill-opacity="1" stroke="none" d="m 12,1034.3622 -1,2 -11,0 0,1 12,0 1,-2 8,0 c 0.5,0 1,0.5 1,1 l 0,-1 c 0,-0.5 -0.5,-1 -1,-1 z" opacity=".03"/><path id="rect3828" fill="#2a74b9" fill-opacity="1" stroke="none" d="M 8 8 C 7.446 8 7 8.446 7 9 L 7 17 C 7 17.554 7.446 18 8 18 L 14 18 C 14.554 18 15 17.554 15 17 L 15 9 C 15 8.446 14.554 8 14 8 L 8 8 z M 8.5 9 C 8.7761424 9 9 9.2238576 9 9.5 C 9 9.7761424 8.7761424 10 8.5 10 C 8.2238576 10 8 9.7761424 8 9.5 C 8 9.2238576 8.2238576 9 8.5 9 z M 13.5 9 C 13.776142 9 14 9.2238576 14 9.5 C 14 9.7761424 13.776142 10 13.5 10 C 13.223858 10 13 9.7761424 13 9.5 C 13 9.2238576 13.223858 9 13.5 9 z M 11 10 C 11.552285 10 12 10.447715 12 11 C 12 11.552285 11.552285 12 11 12 C 10.447715 12 10 11.552285 10 11 C 10 10.447715 10.447715 10 11 10 z M 8.5 12 C 8.7761424 12 9 12.223858 9 12.5 C 9 12.776142 8.7761424 13 8.5 13 C 8.2238576 13 8 12.776142 8 12.5 C 8 12.223858 8.2238576 12 8.5 12 z M 13.5 12 C 13.776142 12 14 12.223858 14 12.5 C 14 12.776142 13.776142 13 13.5 13 C 13.223858 13 13 12.776142 13 12.5 C 13 12.223858 13.223858 12 13.5 12 z M 8.25 16 L 13.75 16 C 13.8885 16 14 16.1115 14 16.25 L 14 16.75 C 14 16.8885 13.8885 17 13.75 17 L 8.25 17 C 8.1115 17 8 16.8885 8 16.75 L 8 16.25 C 8 16.1115 8.1115 16 8.25 16 z" opacity="1" transform="translate(0,1030.3622)"/></g></svg>