<svg xmlns="http://www.w3.org/2000/svg" xmlns:svg="http://www.w3.org/2000/svg" xmlns:xlink="http://www.w3.org/1999/xlink" id="svg2" width="22" height="22" version="1.1"><defs id="defs4"><linearGradient id="linearGradient3760"><stop id="stop3762" offset="0" stop-color="#000" stop-opacity="1"/><stop id="stop3764" offset="1" stop-color="#000" stop-opacity="0"/></linearGradient><radialGradient id="radialGradient3766" cx="11" cy="19" r="11" fx="11" fy="19" gradientTransform="matrix(1,0,0,0.09090909,0,17.272727)" gradientUnits="userSpaceOnUse" xlink:href="#linearGradient3760"/></defs><metadata id="metadata7"/><g id="layer1" transform="translate(0,-1030.3622)"><path id="path2990" fill="url(#radialGradient3766)" fill-opacity="1" stroke="none" d="m 22,19 c 0,0.552285 -4.924868,1 -11,1 -6.0751322,0 -11,-0.447715 -11,-1 0,-0.552285 4.9248678,-1 11,-1 6.075132,0 11,0.447715 11,1 z" opacity=".25" transform="matrix(1.1818182,0,0,1,-2,1031.3622)"/><path id="path3029" fill="#1976d2" fill-opacity="1" stroke="none" d="m 0,1033.3622 0,14 22,0 0,-7 -1,-6 -8,0 -1,-2 -11,0 c -0.5,0 -1,0.5 -1,1 z"/><path id="path3806" fill="#000" fill-opacity="1" stroke="none" d="m 1,1032.3622 c -0.5,0 -1,0.5 -1,1 l 0,1 c 0,-0.5 0.5,-1 1,-1 l 10,0 1,2 9,0 0,6 0,-1 0,-6 -8,0 -1,-2 z" opacity=".03"/><rect id="rect3799" width="10" height="4" x="2" y="1035.362" fill="#f2f2f2" fill-opacity="1" stroke="none"/><path id="rect2987" fill="#5a9be7" fill-opacity="1" stroke="none" d="m 22,1035.4289 0,14.9333 -22,0 0,-14 11,0 1,-2 9,0 c 0.5,0 1,0.5333 1,1.0667 z"/><path id="path3794" fill="#000" fill-opacity="1" stroke="none" d="m 0,1049.3622 0,1 22,0 0,-1 z" opacity=".15"/><path id="path3801" fill="none" stroke="none" d="m 11,1034.8622 -2.5,1.5 1.5,0 z"/><path id="path3033" fill="#000" fill-opacity="1" stroke="none" d="m 12,1034.3622 -1,2 -11,0 0,1 12,0 1,-2 8,0 c 0.5,0 1,0.5 1,1 l 0,-1 c 0,-0.5 -0.5,-1 -1,-1 z" opacity=".03"/><path id="path3881" fill="#2a74b9" fill-opacity="1" stroke="none" d="m 7,1038.3622 c -0.554,0 -1,0.446 -1,1 l 0,1 2,0 0,-2 z" opacity="1"/><path id="path3879" fill="#2a74b9" fill-opacity="1" stroke="none" d="m 9.9999997,1038.3622 0,2 2.0000003,0 0,-2 z" opacity="1"/><path id="path3877" fill="#2a74b9" fill-opacity="1" stroke="none" d="m 14,1038.3622 0,2 2,0 0,-1 c 0,-0.554 -0.446,-1 -1,-1 z" opacity="1"/><path id="path3875" fill="#2a74b9" fill-opacity="1" stroke="none" d="m 6,1042.3622 0,2 2,0 0,-2 z" opacity="1"/><path id="path3873" fill="#2a74b9" fill-opacity="1" stroke="none" d="m 14,1042.3622 0,2 2,0 0,-2 z" opacity="1"/><path id="path3869" fill="#2a74b9" fill-opacity="1" stroke="none" d="m 8,1046.3622 -2,0 0,1 c 0,0.554 0.446,1 1,1 l 1,0 z" opacity="1"/><path id="path3865" fill="#2a74b9" fill-opacity="1" stroke="none" d="m 14,1046.3622 0,2 1,0 c 0.554,0 1,-0.446 1,-1 l 0,-1 z" opacity="1"/><path id="rect2995" fill="#2a74b9" fill-opacity="1" stroke="none" d="m 9.9999997,1046.3622 0,2 2.0000003,0 0,-2 z" opacity="1"/></g></svg>