<svg xmlns="http://www.w3.org/2000/svg" xmlns:svg="http://www.w3.org/2000/svg" id="svg2" width="22" height="22" version="1.1" viewBox="0 0 22 22"><metadata id="metadata22"/><path id="path4" fill="#268bd2" d="m 2,22 18,0 c 2,0 2,0 2,-2 L 22,7 11,0 0,7 0,20 c 0,2 0,2 2,2 z"/><path id="path6" fill-opacity=".102" d="m 2,22 18,0 c 2,0 2,0 2,-2 L 22,7 11,0 0,7 0,20 c 0,2 0,2 2,2 z"/><path id="path4152" fill="#859900" fill-rule="evenodd" d="m 5.6275923,8.4220333 4.2273663,5.2842087 c 1.0598444,1.059844 1.0568424,1.056842 2.1136834,0 l 4.227367,-5.2842087 c 0.589974,-0.735585 0.370984,-0.735585 -1.087619,-0.735585 -0.52842,-0.015007 -1.122141,-0.033029 -1.890753,0 0,-0.012014 0,0.012014 0,0 0,-5.251182 -3.3626784,-7.71914784 -7.6230712,-7.68612128514 C 7.7412757,2.0809838 8.6720173,4.515923 8.6059643,7.6864483 c -0.7566018,0 -1.0268174,-0.015007 -1.5372242,0 -0.7686121,0 -1.9633021,0 -1.4411478,0.735585 z"/><g id="g10" fill="#268bd2"><path id="path12" d="m 2,22 18,0 c 2,0 2,0 2,-2 L 22,8 0,20 c 0,2 0,2 2,2 z"/><path id="path14" d="M 20,22 2,22 C 0,22 0,22 0,20 L 0,8 22,20 c 0,2 0,2 -2,2 z"/></g><path id="path16" fill="#fff" fill-opacity=".102" d="M 20,22 2,22 C 0,22 0,22 0,20 L 0,8 22,20 c 0,2 0,2 -2,2 z"/></svg>