<svg xmlns="http://www.w3.org/2000/svg" xmlns:svg="http://www.w3.org/2000/svg" id="svg2" width="22" height="22" version="1.1" viewBox="0 0 22 22"><metadata id="metadata22"/><path id="path4" fill="#268bd2" d="m 2,22 18,0 c 2,0 2,0 2,-2 L 22,7 11,0 0,7 0,20 c 0,2 0,2 2,2 z"/><path id="path6" fill-opacity=".102" d="m 2,22 18,0 c 2,0 2,0 2,-2 L 22,7 11,0 0,7 0,20 c 0,2 0,2 2,2 z"/><path id="path4152" fill="#ffee3a" fill-opacity="1" fill-rule="evenodd" d="m 15.922034,10.872793 5.284208,-4.227367 c 1.059844,-1.0598444 1.056842,-1.0568424 0,-2.1136834 L 15.922034,0.30437561 c -0.735585,-0.589974 -0.735585,-0.370984 -0.735585,1.08761899 -0.01501,0.52842 -0.03303,1.122141 0,1.890753 -0.01201,0 0.01201,0 0,0 -5.2511819,0 -7.7191478,3.3626784 -7.6861212,7.6230714 2.0806568,-2.1467104 4.5155962,-3.0774517 7.6861212,-3.0113987 0,0.7566023 -0.01501,1.0268173 0,1.5372243 0,0.7686124 0,1.9633024 0.735585,1.4411484 z"/><g id="g10" fill="#268bd2"><path id="path12" d="m 2,22 18,0 c 2,0 2,0 2,-2 L 22,8 0,20 c 0,2 0,2 2,2 z"/><path id="path14" d="M 20,22 2,22 C 0,22 0,22 0,20 L 0,8 22,20 c 0,2 0,2 -2,2 z"/></g><path id="path16" fill="#fff" fill-opacity=".102" d="M 20,22 2,22 C 0,22 0,22 0,20 L 0,8 22,20 c 0,2 0,2 -2,2 z"/></svg>