<svg xmlns="http://www.w3.org/2000/svg" xmlns:svg="http://www.w3.org/2000/svg" xmlns:xlink="http://www.w3.org/1999/xlink" id="svg2" width="64" height="64" version="1.1"><defs id="defs4"><radialGradient id="radialGradient3964" cx="32.5" cy="56.5" r="33.5" fx="32.5" fy="56.5" gradientTransform="matrix(1,0,0,0.10447761,0,50.597015)" gradientUnits="userSpaceOnUse" xlink:href="#linearGradient3958"/><linearGradient id="linearGradient3958"><stop id="stop3960" offset="0" stop-color="#000" stop-opacity="1"/><stop id="stop3962" offset="1" stop-color="#000" stop-opacity="0"/></linearGradient><radialGradient id="radialGradient3981" cx="32.5" cy="56.5" r="33.5" fx="32.5" fy="56.5" gradientTransform="matrix(1,0,0,0.10447761,0,50.597015)" gradientUnits="userSpaceOnUse" xlink:href="#linearGradient3958"/><clipPath id="clipPath7137" clipPathUnits="userSpaceOnUse"><path id="path7139" fill="#555753" fill-opacity="1" fill-rule="nonzero" stroke="none" stroke-width="2" d="m 1799,552 c -0.554,0 -1,0.446 -1,1 l 0,1.1875 c -1.1584,0.41551 -2,1.51118 -2,2.8125 0,0.86863 0.3788,1.63965 0.9688,2.1875 l -1.8126,7.8125 -2.6562,0 c -0.277,0 -0.5,0.223 -0.5,0.5 0,0.277 0.223,0.5 0.5,0.5 l 2.4375,0 -0.9375,4 c -0.5,1.5 0.5,1.5 0.5,1.5 l 0.5,1.5 1.8125,-7 1.1875,0 c 0,0.554 0.446,1 1,1 0.554,0 1,-0.446 1,-1 l 1.1875,0 1.8125,7 0.5,-1.5 c 0,0 1,0 0.5,-1.5 l -0.9375,-4 2.4375,0 c 0.277,0 0.5,-0.223 0.5,-0.5 0,-0.277 -0.223,-0.5 -0.5,-0.5 l -2.6562,0 -1.8126,-7.8125 c 0.59,-0.54785 0.9688,-1.31887 0.9688,-2.1875 0,-1.30132 -0.8416,-2.39699 -2,-2.8125 L 1800,553 c 0,-0.554 -0.446,-1 -1,-1 z m 0,3 c 1.1046,0 2,0.89543 2,2 0,1.10457 -0.8954,2 -2,2 -1.1046,0 -2,-0.89543 -2,-2 0,-1.10457 0.8954,-2 2,-2 z m -0.125,5 c 0.043,0.002 0.082,0 0.125,0 0.043,0 0.082,0.002 0.125,0 l 1.8125,7 -0.9375,0 c 0,-0.554 -0.446,-1 -1,-1 -0.554,0 -1,0.446 -1,1 l -0.9375,0 1.8125,-7 z" color="#bebebe" display="inline" enable-background="accumulate" overflow="visible" visibility="visible" style="marker:none"/></clipPath></defs><metadata id="metadata7"/><g id="layer1" transform="translate(0,-988.3622)"><path id="path3956" fill="url(#radialGradient3981)" fill-opacity="1" stroke="none" d="M 66,56.5 A 33.5,3.5 0 0 1 32.5,60 33.5,3.5 0 0 1 -1,56.5 33.5,3.5 0 0 1 32.5,53 33.5,3.5 0 0 1 66,56.5 Z" opacity=".6" transform="matrix(1.1343284,0,0,1.1428571,-4.8656716,979.79077)"/><path id="path3029" fill="#199cd2" fill-opacity="1" stroke="none" d="m 0,997.42103 0,42.82347 64,0 0,-21.4117 -3.047619,-18.353 L 37,1000.3622 l -3,-6 -30.952381,0 C 1.52381,994.3622 0,995.89161 0,997.42103 z"/><rect id="rect3799" width="31.571" height="11.882" x="5" y="1002.362" fill="#f2f2f2" fill-opacity="1" stroke="none"/><path id="path3790" fill="#000" fill-opacity="1" stroke="none" d="M 3.0625,6 C 1.538691,6 0,7.53308 0,9.0625 l 0,2 C 0,9.53308 1.538691,8 3.0625,8 L 33,8 36,14 60.9375,14.125 64,32.46875 l 0,-2 L 60.9375,12.125 37,12 34,6 z" opacity=".03" transform="translate(0,988.3622)"/><path id="rect2987" fill="#5abde7" fill-opacity="1" stroke="none" d="m 64,1003.5387 0,42.8235 -64,0 0,-40 30,0 3,-6 27.952381,0.1176 c 1.523809,0 3.047619,1.5295 3.047619,3.0589 z"/><path id="path3794" fill="#000" fill-opacity="1" stroke="none" d="m 0,1044.3622 0,2 64,0 0,-2 z" opacity=".15"/><path id="path3801" fill="none" stroke="none" d="m 33.52381,1002.0093 -7.619048,4.5882 4.571428,0 z"/><path id="path3015" fill="#000" fill-opacity="1" stroke="none" d="m 33,12 -3,6 -30,0 0,2 31,0 3,-6 26.9375,0.125 c 1.523809,0 3.0625,1.5331 3.0625,3.0625 l 0,-2 C 64,13.6581 62.461309,12.125 60.9375,12.125 z" opacity=".03" transform="translate(0,988.3622)"/><path id="path7" fill="#2a8fb9" fill-opacity="1" stroke="#2a8fb9" stroke-dasharray="none" stroke-miterlimit="4" stroke-opacity="1" stroke-width=".3" d="m 50.412123,1024.5311 0.135762,-0.1819 c 0.799093,0.5007 1.493835,1.1101 2.209984,1.6974 0.08109,0.6098 -0.197302,0.8451 -0.116336,1.4548 -3.56515,0.3372 -6.825275,0.7506 -10.235935,1.2124 -1.073756,0.1454 -2.310264,0.2031 -3.256868,0.4849 -1.406702,0.4191 -1.91566,1.4745 -3.605867,1.6975 -0.82585,0.1087 -1.437298,-0.2177 -2.326434,-0.1213 -1.075268,0.1165 -2.359822,0.8898 -3.48965,1.3336 -3.362498,1.3212 -6.874253,2.7602 -9.887053,4.3647 -0.904607,-0.9671 -1.423455,-2.2436 -2.093767,-3.3948 -1.941603,-3.3348 -4.072597,-6.7728 -6.048518,-10.184 -0.104118,-0.3915 0.379363,-0.1703 0.465333,-0.3637 l 0.1745,0.061 0.1745,-0.061 c 2.427527,4.1783 4.928228,8.2804 7.444402,12.3663 0.06922,-0.251 -0.143788,-0.7963 0.116335,-0.8487 l 0.135762,0.1819 0.213238,-0.061 c 0.154375,0.5317 -0.219869,1.1355 -0.116336,1.2124 4.267805,-2.1794 7.514784,-5.423 13.958138,-5.3346 -0.09865,-1.3959 0.610284,-1.9503 1.046767,-2.7885 -0.18404,-0.01 -0.443463,0.058 -0.465101,-0.1213 l 0.05816,-0.1817 -0.05816,-0.1819 c 0.099,0.022 0.109587,-0.047 0.116336,-0.1213 l 0.157631,-0.1472 -0.0413,-0.2165 c 0.449511,0.016 0.458586,0.4919 0.8141,0.6062 l 0.141345,0.1645 0.207655,-0.043 c -0.07771,0.5252 -0.538274,0.6513 -0.581666,1.2123 0.548045,-0.035 0.82364,-0.3539 1.512101,-0.2424 0.458585,0.1283 0.443462,0.7503 0.697999,1.0911 2.271641,-2.9263 7.861806,-2.3936 12.795037,-2.546 -0.138204,-0.7046 -0.48325,-1.1937 -0.465333,-2.061 l 0.213238,0.061 z"/><path id="path5" fill="#90b8c8" fill-opacity="1" stroke-dasharray="none" stroke-miterlimit="4" stroke-width="1.103" d="m 50.648612,1022.849 c 0.368923,-0.093 0.230366,0.3428 0.599291,0.2498 0.196567,0.2674 -0.30552,0.6064 -0.119861,1.2492 l -0.219701,-0.062 -0.139874,0.1874 c -0.267884,-0.054 -0.04855,-0.6157 -0.119861,-0.8745 l 0.05322,-0.3402 -0.292934,-0.1594 c 0,-0.042 0,-0.083 0,-0.1249 l 0.179787,0.062 0.05992,-0.1874 z"/><path id="path9" fill="#2a74b9" fill-opacity="1" stroke-dasharray="none" stroke-miterlimit="4" stroke-width="1.103" d="m 11.799407,1022.2869 -0.2197,0.062 c 0.01,-0.1978 -0.05765,-0.4765 0.119858,-0.4997 l 0.139875,0.1873 0.2197,-0.062 c -0.01,0.1978 0.05765,0.4762 -0.119858,0.4997 l -0.139875,-0.1874 z"/><path id="path13" fill="none" stroke="#2a8fb9" stroke-dasharray="none" stroke-linecap="round" stroke-miterlimit="4" stroke-opacity="1" stroke-width="1.5" d="m 50.908344,1024.2149 c 0.0266,0.083 0.05322,0.1666 0.07983,0.2499"/><path id="path15" fill="none" stroke="#2a8fb9" stroke-dasharray="none" stroke-linecap="round" stroke-miterlimit="4" stroke-opacity="1" stroke-width="1.5" d="m 11.759494,1022.5368 c 0.0048,-0.083 0.02205,-0.1666 0.03991,-0.2499"/><path id="path17" fill="none" stroke="#2a8fb9" stroke-dasharray="none" stroke-linecap="round" stroke-miterlimit="4" stroke-opacity="1" stroke-width="1.5" d="m 11.83944,1022.0371 c 0.10116,-0.6169 0.189975,-1.4078 0.806886,-1.6991"/><path id="path19-3" fill="none" stroke="#2a8fb9" stroke-dasharray="none" stroke-linecap="round" stroke-miterlimit="4" stroke-opacity="1" stroke-width="1.5" d="m 12.646326,1020.3383 c 3.748929,-2.5931 8.995848,-6.712 13.357493,-2.8874"/><path id="path21" fill="none" stroke="#2a8fb9" stroke-dasharray="none" stroke-linecap="round" stroke-miterlimit="4" stroke-opacity="1" stroke-width="1.5" d="m 26.003819,1017.4509 c 2.58091,-4.492 8.221683,-2.2627 12.342292,-3.2159 4.05229,2.9687 8.281493,5.7345 12.24269,8.8015"/><path id="path23" fill="none" stroke="#2a8fb9" stroke-dasharray="none" stroke-linecap="round" stroke-miterlimit="4" stroke-opacity="1" stroke-width="1.5" d="m 36.173199,1027.1407 c 3.303535,-4.7067 9.698218,-3.0126 14.528748,-3.8822"/><path id="path25" fill="none" stroke="#2a8fb9" stroke-dasharray="none" stroke-linecap="round" stroke-miterlimit="4" stroke-opacity="1" stroke-width="1.5" d="m 26.003819,1017.4509 c 3.122669,2.9847 6.091321,6.158 9.227893,9.1186"/><path id="path27" fill="none" stroke="#2a8fb9" stroke-dasharray="none" stroke-linecap="round" stroke-miterlimit="4" stroke-opacity="1" stroke-width="1.5" d="m 12.646326,1020.3383 c 2.638921,3.864 4.834127,8.0969 7.442244,12.0042"/><path id="path29" fill="none" stroke="#2a8fb9" stroke-dasharray="none" stroke-linecap="round" stroke-miterlimit="4" stroke-opacity="1" stroke-width="1.5" d="m 20.08869,1032.3423 c 4.768804,-2.2643 9.339362,-6.0811 14.920326,-5.3087"/><path id="path31" fill="none" stroke="#2a8fb9" stroke-dasharray="none" stroke-linecap="round" stroke-miterlimit="4" stroke-opacity="1" stroke-width="1.5" d="m 20.08869,1032.3423 c -0.06664,0.7291 -0.111468,1.4608 -0.2197,2.1861"/></g></svg>