<svg xmlns="http://www.w3.org/2000/svg" xmlns:svg="http://www.w3.org/2000/svg" xmlns:xlink="http://www.w3.org/1999/xlink" id="svg2" width="64" height="64" version="1.1"><defs id="defs4"><radialGradient id="radialGradient3964" cx="32.5" cy="56.5" r="33.5" fx="32.5" fy="56.5" gradientTransform="matrix(1,0,0,0.10447761,0,50.597015)" gradientUnits="userSpaceOnUse" xlink:href="#linearGradient3958"/><linearGradient id="linearGradient3958"><stop id="stop3960" offset="0" stop-color="#000" stop-opacity="1"/><stop id="stop3962" offset="1" stop-color="#000" stop-opacity="0"/></linearGradient><radialGradient id="radialGradient3981" cx="32.5" cy="56.5" r="33.5" fx="32.5" fy="56.5" gradientTransform="matrix(1,0,0,0.10447761,0,50.597015)" gradientUnits="userSpaceOnUse" xlink:href="#linearGradient3958"/><clipPath id="clipPath7137" clipPathUnits="userSpaceOnUse"><path id="path7139" fill="#555753" fill-opacity="1" fill-rule="nonzero" stroke="none" stroke-width="2" d="m 1799,552 c -0.554,0 -1,0.446 -1,1 l 0,1.1875 c -1.1584,0.41551 -2,1.51118 -2,2.8125 0,0.86863 0.3788,1.63965 0.9688,2.1875 l -1.8126,7.8125 -2.6562,0 c -0.277,0 -0.5,0.223 -0.5,0.5 0,0.277 0.223,0.5 0.5,0.5 l 2.4375,0 -0.9375,4 c -0.5,1.5 0.5,1.5 0.5,1.5 l 0.5,1.5 1.8125,-7 1.1875,0 c 0,0.554 0.446,1 1,1 0.554,0 1,-0.446 1,-1 l 1.1875,0 1.8125,7 0.5,-1.5 c 0,0 1,0 0.5,-1.5 l -0.9375,-4 2.4375,0 c 0.277,0 0.5,-0.223 0.5,-0.5 0,-0.277 -0.223,-0.5 -0.5,-0.5 l -2.6562,0 -1.8126,-7.8125 c 0.59,-0.54785 0.9688,-1.31887 0.9688,-2.1875 0,-1.30132 -0.8416,-2.39699 -2,-2.8125 L 1800,553 c 0,-0.554 -0.446,-1 -1,-1 z m 0,3 c 1.1046,0 2,0.89543 2,2 0,1.10457 -0.8954,2 -2,2 -1.1046,0 -2,-0.89543 -2,-2 0,-1.10457 0.8954,-2 2,-2 z m -0.125,5 c 0.043,0.002 0.082,0 0.125,0 0.043,0 0.082,0.002 0.125,0 l 1.8125,7 -0.9375,0 c 0,-0.554 -0.446,-1 -1,-1 -0.554,0 -1,0.446 -1,1 l -0.9375,0 1.8125,-7 z" color="#bebebe" display="inline" enable-background="accumulate" overflow="visible" visibility="visible" style="marker:none"/></clipPath><clipPath id="clipPath-817735736"><g id="g12" transform="translate(0,-1004.3622)"><path id="path14" fill="#1890d0" d="m -24,13 c 0,1.105 -0.672,2 -1.5,2 -0.828,0 -1.5,-0.895 -1.5,-2 0,-1.105 0.672,-2 1.5,-2 0.828,0 1.5,0.895 1.5,2 z" transform="matrix(15.333333,0,0,11.5,414.99999,878.8622)"/></g></clipPath></defs><metadata id="metadata7"/><g id="layer1" transform="translate(0,-988.3622)"><path id="path3956" fill="url(#radialGradient3981)" fill-opacity="1" stroke="none" d="M 66,56.5 A 33.5,3.5 0 0 1 32.5,60 33.5,3.5 0 0 1 -1,56.5 33.5,3.5 0 0 1 32.5,53 33.5,3.5 0 0 1 66,56.5 Z" opacity=".6" transform="matrix(1.1343284,0,0,1.1428571,-4.8656716,979.79077)"/><path id="path3029" fill="#944100" fill-opacity="1" stroke="none" d="m 0,997.42103 0,42.82347 64,0 0,-21.4117 -3.047619,-18.353 L 37,1000.3622 l -3,-6 -30.952381,0 C 1.52381,994.3622 0,995.89161 0,997.42103 z"/><rect id="rect3799" width="31.571" height="11.882" x="5" y="1002.362" fill="#f2f2f2" fill-opacity="1" stroke="none"/><path id="path3790" fill="#000" fill-opacity="1" stroke="none" d="M 3.0625,6 C 1.538691,6 0,7.53308 0,9.0625 l 0,2 C 0,9.53308 1.538691,8 3.0625,8 L 33,8 36,14 60.9375,14.125 64,32.46875 l 0,-2 L 60.9375,12.125 37,12 34,6 z" opacity=".03" transform="translate(0,988.3622)"/><path id="rect2987" fill="#ce5b00" fill-opacity="1" stroke="none" d="m 64,1003.5387 0,42.8235 -64,0 0,-40 30,0 3,-6 27.952381,0.1176 c 1.523809,0 3.047619,1.5295 3.047619,3.0589 z"/><path id="path3794" fill="#000" fill-opacity="1" stroke="none" d="m 0,1044.3622 0,2 64,0 0,-2 z" opacity=".15"/><path id="path3801" fill="none" stroke="none" d="m 33.52381,1002.0093 -7.619048,4.5882 4.571428,0 z"/><path id="path3015" fill="#000" fill-opacity="1" stroke="none" d="m 33,12 -3,6 -30,0 0,2 31,0 3,-6 26.9375,0.125 c 1.523809,0 3.0625,1.5331 3.0625,3.0625 l 0,-2 C 64,13.6581 62.461309,12.125 60.9375,12.125 z" opacity=".03" transform="translate(0,988.3622)"/><path style="line-height:normal" id="path28" fill="#944100" fill-opacity="1" fill-rule="evenodd" stroke="none" d="m 30.873231,1012.3401 c -0.471243,0 -0.950816,0.1733 -1.347774,0.4827 -0.398786,0.3095 -0.658118,0.722 -0.691165,1.2069 -0.03306,0.4849 0.151153,0.9737 0.518374,1.3103 l 0,0.034 c 0.861282,0.7558 1.757825,1.5353 2.626431,2.3102 l -9.745442,0 c -0.692715,0 -1.279559,0.1608 -1.727915,0.5172 -0.448358,0.3564 -0.734167,0.8891 -0.829399,1.4827 -0.186419,1.1619 0.633423,2.4826 1.969823,2.4826 l 4.250671,0 -8.881484,7.3098 c 8.92e-4,0 -0.008,-0.019 -0.03456,0 -0.542786,0.4628 -0.925888,1.1038 -1.071307,1.7585 -0.145417,0.6546 -0.07465,1.3469 0.311025,1.8964 0.784177,1.1167 2.358612,1.0881 3.455831,0.1037 l 4.665371,-4.2411 c 0.0075,0.495 0.1245,1.2668 0.311024,1.931 0.382989,1.3572 1.036086,2.6212 1.935266,3.7238 0.921952,1.1308 2.046715,2.0464 3.352155,2.6894 1.373467,0.6755 2.85013,1.0028 4.388905,0.9999 1.538698,0 3.016251,-0.3541 4.388905,-1.0344 1.304172,-0.649 2.465371,-1.5556 3.386714,-2.6894 0.896811,-1.1067 1.517872,-2.3663 1.900707,-3.7239 0.193893,-0.6874 0.329816,-1.4027 0.38014,-2.1033 0.04839,-0.6891 0.01904,-1.3803 -0.06912,-2.0688 -0.171238,-1.3439 -0.568043,-2.6113 -1.209541,-3.7584 -0.502773,-0.8997 -1.170808,-1.6827 -1.900706,-2.3791 l 0.03456,-0.034 -0.380142,-0.3103 -8.639576,-7.3788 c 5.67e-4,4e-4 -0.03206,-0.031 -0.03456,-0.034 -0.0049,0 -0.02965,0 -0.03456,0 -0.374969,-0.3129 -0.81354,-0.4836 -1.278657,-0.4827 z m 3.351626,8.1902 c 4.466129,0 7.65467,3.1803 7.65467,7.6364 0,4.4561 -3.18801,7.6362 -7.65414,7.6362 -4.466131,0 -7.6552,-3.1801 -7.6552,-7.6362 0,-4.4561 3.188539,-7.6364 7.65467,-7.6364 z" color="#000"/><path id="path30" fill="#944100" fill-opacity="1" stroke="none" d="m 38.209278,1028.2357 c 0,2.2463 -1.825026,4.0672 -4.076309,4.0672 -2.251281,0 -4.076309,-1.8209 -4.076309,-4.0672 0,-2.2462 1.825028,-4.0671 4.076309,-4.0671 2.251283,0 4.076309,1.8209 4.076309,4.0671 z"/></g></svg>