<svg xmlns="http://www.w3.org/2000/svg" xmlns:svg="http://www.w3.org/2000/svg" xmlns:xlink="http://www.w3.org/1999/xlink" id="svg2" width="24" height="24" version="1.1"><defs id="defs4"><linearGradient id="linearGradient3760"><stop id="stop3762" offset="0" stop-color="#000" stop-opacity="1"/><stop id="stop3764" offset="1" stop-color="#000" stop-opacity="0"/></linearGradient><radialGradient id="radialGradient3766" cx="11" cy="19" r="11" fx="11" fy="19" gradientTransform="matrix(1,0,0,0.09090909,0,17.272727)" gradientUnits="userSpaceOnUse" xlink:href="#linearGradient3760"/><radialGradient id="radialGradient3766-6" cx="11" cy="19" r="11" fx="11" fy="19" gradientTransform="matrix(1.1818182,0,0,0.09090909,-1,1048.6349)" gradientUnits="userSpaceOnUse" xlink:href="#linearGradient3760"/></defs><metadata id="metadata7"/><g id="layer1" transform="translate(0,-1028.3622)"><rect id="rect2995" width="18" height="10" x="3" y="1029.362" fill="#eae7d1" fill-opacity="1" stroke="none"/><ellipse id="path2990" cx="12" cy="1050.362" fill="url(#radialGradient3766-6)" fill-opacity="1" stroke="none" opacity=".25" rx="13" ry="1"/><path id="rect2987" fill="#5a9be7" fill-opacity="1" stroke="none" d="m 23,1037.4289 0,12.9333 -22,0 0,-12 11,0 1,-2 9,0 c 0.5,0 1,0.5333 1,1.0667 z"/><path id="path3794" fill="#000" fill-opacity="1" stroke="none" d="m 1,1049.3622 0,1 22,0 0,-1 z" opacity=".15"/><path id="path12" fill="#4caf50" fill-opacity="1" fill-rule="evenodd" d="m 21.998975,1044.3622 a 4.9999998,4.9008012 0 1 1 -9.997951,0 4.9999998,4.9008012 0 1 1 9.997951,0 z"/><path id="path3033" fill="#000" fill-opacity="1" stroke="none" d="m 13,1036.3622 -1,2 -11,0 0,1 12,0 1,-2 8,0 c 0.5,0 1,0.5 1,1 l 0,-1 c 0,-0.5 -0.5,-1 -1,-1 z" opacity=".03"/><path style="line-height:normal" id="path14" fill="#fff" d="m 19.73407,1041.2184 a 0.5121901,0.5072243 0 0 0 -0.256095,0.2029 l -2.724851,2.6375 -1.700472,-1.6231 a 0.5121901,0.5072243 0 1 0 -0.696578,0.6087 l 2.04876,2.0289 a 0.5121901,0.5072243 0 0 0 0.696579,0 l 3.07314,-3.0433 a 0.5121901,0.5072243 0 0 0 -0.440483,-0.8116 z" color="#000"/><rect id="rect3863" width="14" height="1" x="5" y="1035.362" fill="#7a7a68" fill-opacity="1" stroke="none"/><rect id="rect3794-3" width="14" height="1" x="5" y="1031.362" fill="#7a7a68" fill-opacity="1" stroke="none"/><rect id="rect3861" width="14" height="1" x="5" y="1033.362" fill="#7a7a68" fill-opacity="1" stroke="none"/></g></svg>